<svg width="159" height="36" viewBox="0 0 159 36" fill="none" xmlns="http://www.w3.org/2000/svg">
<g id="Logo">
<path id="Union" fill-rule="evenodd" clip-rule="evenodd" d="M78.0483 8.39352C78.3633 10.0153 77.2926 11.5832 75.6569 11.8955C74.0211 12.2078 72.4397 11.1462 72.1247 9.52448C71.8097 7.9027 72.8804 6.33483 74.5162 6.02252C76.1519 5.71022 77.7333 6.77175 78.0483 8.39352ZM86.8233 7.5886V25.0359L86.8245 25.0371C86.8245 26.1216 87.5438 26.6073 88.293 26.6073C88.7529 26.6073 89.1275 26.4931 89.4157 26.3216V29.7763C88.897 30.1192 87.976 30.3192 87.0827 30.3192C84.1445 30.3192 82.7049 28.2918 82.7049 25.6645V7.5886H86.8233ZM39.1284 8.18861L28.933 29.8621H33.599L35.2116 26.0074H43.5638L45.1764 29.8621H49.8712L39.6471 8.18861H39.1284ZM36.5936 22.6086L39.3877 15.9266L42.153 22.6086H36.5936ZM77.1456 14.2135H73.0271V29.862H77.1456V14.2135ZM99.0348 25.8359L94.974 14.2135H90.7114L97.1629 30.7751C96.5001 31.9465 95.4062 32.4596 94.1959 32.4596C93.2449 32.4596 92.3528 32.231 91.8629 31.831V35.2857C92.4104 35.7143 93.5619 36 94.6858 36C96.9323 36 99.3806 34.7155 100.676 31.4596L107.675 14.2123H103.384L99.0348 25.8347V25.8359ZM111.929 9.75881H116.019V14.2135H119.936V17.6968H116.019V24.3502C116.019 25.749 116.797 26.5776 118.208 26.5776C118.754 26.5776 119.561 26.4633 119.936 26.2347V29.8894C119.446 30.1466 118.496 30.318 117.632 30.318C114.089 30.318 111.929 28.1192 111.929 24.4074V17.6968H109.423V14.2135H111.929V9.75881ZM127.718 14.2135H123.599V29.862H127.718V14.2135ZM143.879 18.0408C143.303 17.7837 142.179 17.3837 140.711 17.3837C137.484 17.3837 135.468 19.3539 135.468 22.0384C135.468 24.7229 137.484 26.7502 140.711 26.7502C142.18 26.7502 143.303 26.3502 143.879 26.0645L143.937 29.6049C143.102 30.0335 141.719 30.3192 140.424 30.3192C135.066 30.3192 131.466 26.6074 131.466 22.0384C131.466 17.4694 135.095 13.7861 140.452 13.7861C141.719 13.7861 143.101 14.0718 143.937 14.5004L143.879 18.0408ZM155.197 20.7527L153.412 20.0098C152.318 19.5813 151.943 19.267 151.943 18.6111C151.943 17.7825 152.923 17.1551 154.565 17.1551C156.004 17.1551 157.157 17.5551 157.993 18.0123V14.529C157.301 14.1576 155.833 13.7861 154.393 13.7861C150.303 13.7861 147.797 15.9278 147.797 18.5551C147.797 20.5825 149.093 21.811 151.397 22.7241L153.269 23.4955C154.536 24.0098 155.054 24.4955 155.054 25.2943C155.054 26.0931 154.248 26.9502 152.145 26.9502C150.388 26.9502 148.689 26.3502 147.796 25.6657V29.1204C148.661 29.7775 150.331 30.3192 152.347 30.3192C156.811 30.3192 159 27.8061 159 25.3217C159 23.0943 157.819 21.8098 155.199 20.7527H155.197ZM126.183 11.9063C127.824 11.6198 128.919 10.069 128.63 8.44244C128.341 6.81591 126.777 5.72961 125.137 6.01612C123.496 6.30263 122.4 7.85345 122.689 9.47998C122.978 11.1065 124.543 12.1928 126.183 11.9063ZM55.7474 14.8206C57.1211 13.9242 58.7637 13.4004 60.5311 13.4004L60.5323 13.4016C65.3436 13.4016 69.2436 17.2682 69.2436 22.0384C69.2436 26.8085 65.3436 30.6751 60.5323 30.6751C57.6938 30.6751 55.1735 29.3287 53.5825 27.2454C53.5801 27.2419 53.5777 27.2395 53.5753 27.2359C53.5069 27.1442 53.4397 27.0514 53.3736 26.9573L53.3376 26.9073C52.4443 25.6133 51.8979 24.0657 51.8295 22.3967C51.8127 22.1562 51.8019 21.9134 51.8019 21.6669V7.5886H55.7474V14.8206ZM56.0788 22.0384C56.0788 24.4764 58.072 26.4526 60.5311 26.4526C62.9902 26.4526 64.9834 24.4764 64.9834 22.0384C64.9834 19.6003 62.9902 17.6242 60.5311 17.6242C58.072 17.6242 56.0788 19.6003 56.0788 22.0384Z" fill="#021A5A"/>
<path id="Vector" fill-rule="evenodd" clip-rule="evenodd" d="M31.7449 2.57536L39.183 2.04039C39.2815 2.03682 39.3091 2.17384 39.2154 2.20601L31.4325 4.79028C31.4325 4.79028 31.4289 4.79028 31.4277 4.79147C31.4253 4.79147 31.4241 4.79267 31.4217 4.79267C31.3003 4.81888 29.0957 5.32763 29.2146 8.38611C29.3276 11.2849 28.817 18.6791 21.5615 23.6964C19.4806 25.1357 18.129 27.403 17.8443 29.9027C17.6857 31.2955 17.8911 33.744 18.1494 35.8278C18.1698 35.9922 17.9476 36.0673 17.8635 35.9243C16.7978 34.1264 13.6741 27.7187 14.0429 19.6561C14.0633 19.2046 13.6921 18.8293 13.2367 18.8388C10.9228 18.8864 4.56238 18.5743 0.441451 14.6997C0.434242 14.6925 0.422228 14.683 0.40781 14.6699C0.228796 14.515 -0.418778 13.9538 0.418623 13.8501L12.1711 12.3501C13.1935 12.2226 14.6088 12.0093 15.3345 11.2825C15.7754 10.8405 15.8415 10.6356 16.0769 9.8659C17.0081 6.81696 19.1598 0.366391 25.8879 0.00299569C25.8879 0.00299569 28.3953 -0.172149 30.6792 2.15596C30.9579 2.44072 31.346 2.59323 31.7461 2.57298L31.7449 2.57536ZM7.45303 11.497C6.81507 11.5768 6.17951 11.2814 5.80586 10.7297L2.2388 5.47895C2.10063 5.27521 2.30007 5.01904 2.51994 5.11555L13.9264 10.1471C14.1871 10.2627 14.1402 10.657 13.8627 10.6916L7.45303 11.497Z" fill="url(#paint0_linear_150_3219)"/>
</g>
<defs>
<linearGradient id="paint0_linear_150_3219" x1="5.9176" y1="23.6714" x2="38.7512" y2="-0.683711" gradientUnits="userSpaceOnUse">
<stop offset="0.03" stop-color="#007CD8"/>
<stop offset="0.52" stop-color="#00B15C"/>
<stop offset="0.94" stop-color="#FFD600"/>
</linearGradient>
</defs>
</svg>
