<svg width="812" height="190" viewBox="0 0 812 190" fill="none"
    xmlns="http://www.w3.org/2000/svg">
    <path d="M791.9 83.78L793.27 76.58H784.89L775.32 124.87H784.07L788.9 100.72C790.01 95.18 792.12 91.09 795.22 88.43C798.3 85.79 802.28 84.48 807.13 84.5C807.57 84.5 807.96 84.5 808.3 84.52C808.65 84.52 809.01 84.55 809.41 84.6L811.05 76.13C806.74 76.1 803.02 76.69 799.87 77.91C796.72 79.1 794.07 81.06 791.9 83.78ZM755.72 83.78H769.57L771.03 76.58H757.18L759.28 66.01H750.53L748.43 76.58H740.14L738.77 83.78H746.97L741.78 109.66C741.64 110.3 741.55 110.94 741.49 111.56C741.44 112.17 741.41 112.76 741.41 113.31C741.43 115.84 741.97 118 743.03 119.81C744.09 121.62 745.58 123 747.49 123.97C749.39 124.93 751.62 125.41 754.16 125.43C756.09 125.44 758.03 125.23 759.96 124.78C761.9 124.34 763.7 123.55 765.37 122.43L763.55 115.78C762.53 116.51 761.42 117.07 760.22 117.47C759.02 117.86 757.82 118.06 756.62 118.06C754.43 118.04 752.82 117.51 751.79 116.45C750.74 115.4 750.23 113.93 750.24 112.05C750.24 111.64 750.26 111.23 750.3 110.8C750.34 110.39 750.42 109.95 750.51 109.49L755.72 83.78ZM709.8 76.12C706.32 76.1 703.1 76.65 700.13 77.73C697.17 78.83 694.56 80.49 692.31 82.77L693.5 76.57H685.12L675.55 124.86H684.3L689.4 99.35C690.11 95.89 691.27 93.02 692.88 90.74C694.49 88.46 696.51 86.76 698.92 85.64C701.35 84.52 704.13 83.95 707.26 83.95C711.04 83.97 713.85 84.82 715.7 86.52C717.55 88.2 718.48 90.64 718.46 93.79C718.46 94.38 718.41 95.02 718.34 95.69C718.26 96.37 718.14 97.07 718 97.8L712.62 124.86H721.37L726.75 97.8C726.93 96.8 727.07 95.82 727.16 94.87C727.25 93.93 727.3 93.02 727.3 92.15C727.29 88.7 726.59 85.8 725.19 83.42C723.81 81.04 721.8 79.23 719.21 77.99C716.59 76.74 713.46 76.12 709.8 76.12ZM646.65 83.41C649.52 83.41 652.01 83.94 654.12 84.99C656.23 86.04 657.84 87.57 658.95 89.61C660.06 91.65 660.55 94.14 660.41 97.08H629.25C629.99 94.27 631.16 91.86 632.79 89.81C634.42 87.78 636.39 86.2 638.74 85.1C641.1 83.99 643.72 83.43 646.65 83.41ZM667.98 103.46C668.16 102.46 668.31 101.41 668.43 100.33C668.55 99.23 668.61 98.13 668.61 96.99C668.58 92.63 667.68 88.9 665.91 85.78C664.13 82.68 661.63 80.3 658.41 78.63C655.19 76.98 651.39 76.14 647.02 76.13C643.06 76.15 639.43 76.86 636.12 78.26C632.81 79.64 629.92 81.62 627.49 84.15C625.04 86.69 623.16 89.68 621.81 93.13C620.47 96.58 619.79 100.36 619.77 104.47C619.79 108.74 620.73 112.44 622.6 115.57C624.45 118.7 627.11 121.11 630.56 122.83C634.01 124.53 638.14 125.4 642.92 125.43C645.4 125.43 647.81 125.16 650.18 124.62C652.55 124.09 654.77 123.32 656.83 122.28C658.9 121.25 660.73 119.99 662.33 118.5L658.59 112.21C657.44 113.33 656.07 114.32 654.52 115.16C652.96 115.98 651.27 116.63 649.43 117.07C647.58 117.52 645.66 117.77 643.64 117.77C638.46 117.75 634.61 116.55 632.09 114.2C629.58 111.85 628.32 108.44 628.34 104.01V103.46H667.98ZM606.84 61.09L571.94 106.01L554.17 61.09H546.79L534.03 124.87H542.78L552.17 77.85L568.11 117.12H572.3L602.46 78.76L593.17 124.86H601.92L614.68 61.08H606.84V61.09ZM533.58 75.85H517.91L504.24 90.25L496.5 75.85H481.74L494.77 99.72L470.26 124.87H486.48L500.6 109.84L508.62 124.87H523.65L509.98 100.36L533.58 75.85ZM448.84 85.78C451.04 85.78 452.96 86.17 454.6 86.96C456.23 87.75 457.5 88.89 458.4 90.39C459.31 91.89 459.77 93.73 459.78 95.89H435.45C436.09 93.84 437.03 92.06 438.26 90.56C439.49 89.04 440.98 87.87 442.76 87.04C444.53 86.21 446.56 85.79 448.84 85.78ZM472.8 96.71C472.79 92.31 471.83 88.49 469.93 85.28C468.05 82.06 465.36 79.57 461.88 77.81C458.4 76.03 454.27 75.15 449.47 75.12C445.19 75.14 441.3 75.85 437.78 77.28C434.24 78.69 431.2 80.67 428.64 83.23C426.09 85.8 424.1 88.8 422.7 92.27C421.32 95.73 420.6 99.53 420.59 103.64C420.61 106.98 421.18 109.99 422.35 112.67C423.52 115.37 425.19 117.68 427.38 119.6C429.57 121.53 432.19 123 435.28 124.03C438.36 125.06 441.81 125.58 445.65 125.59C448.15 125.59 450.61 125.36 453.03 124.91C455.44 124.44 457.77 123.73 459.98 122.75C462.2 121.79 464.25 120.55 466.15 119.03L460.23 109.64C458.53 111.1 456.54 112.24 454.29 113.01C452.03 113.8 449.64 114.19 447.11 114.19C443.07 114.19 440 113.36 437.91 111.67C435.81 110 434.66 107.49 434.45 104.17H471.99C472.22 103.03 472.42 101.83 472.57 100.57C472.71 99.33 472.8 98.03 472.8 96.71ZM409.3 75.85L388.71 109.29L381.6 75.85H367.57L378.41 124.87H393.08L423.51 75.85H409.3ZM328.75 113.84C326.38 113.82 324.35 113.38 322.69 112.51C321.02 111.63 319.74 110.38 318.86 108.77C317.99 107.14 317.54 105.23 317.54 103C317.55 99.78 318.18 96.97 319.41 94.57C320.64 92.16 322.33 90.27 324.48 88.92C326.64 87.57 329.11 86.89 331.94 86.87C334.31 86.89 336.35 87.33 338 88.21C339.67 89.07 340.95 90.33 341.83 91.95C342.69 93.58 343.15 95.49 343.15 97.72C343.12 100.92 342.5 103.75 341.28 106.15C340.05 108.56 338.37 110.45 336.21 111.8C334.05 113.13 331.56 113.83 328.75 113.84ZM347.52 75.85L346.24 82.5C344.63 79.96 342.46 78.1 339.74 76.9C337.02 75.7 333.86 75.11 330.3 75.12C326.49 75.14 322.96 75.85 319.68 77.26C316.42 78.66 313.56 80.65 311.1 83.2C308.64 85.75 306.71 88.76 305.33 92.22C303.96 95.7 303.27 99.49 303.23 103.64C303.25 107.13 303.82 110.23 304.93 112.95C306.04 115.67 307.57 117.96 309.53 119.84C311.47 121.72 313.72 123.15 316.26 124.12C318.8 125.09 321.5 125.59 324.37 125.59C327.38 125.57 330.16 125.1 332.68 124.15C335.2 123.19 337.45 121.83 339.41 120.03L338.5 124.86H351.99L361.74 75.84H347.52V75.85ZM288.02 61.09L256.86 100.82L240.92 61.09H228.89L216.13 124.87H229.98L237.63 86.6L250.75 118.13H257.31L281.64 86.97L274.17 124.88H288.02L300.68 61.1H288.02V61.09Z" fill="#191A17"/>
    <path d="M106.54 178.11L166.5 25.06L133.9 30.4L86.1 157.42L66.11 149.89L109.58 34.38L53.88 43.5L65.94 47.86L65.95 47.83C71.51 49.84 74.39 55.98 72.38 61.54C72.28 61.82 72.16 62.1 72.04 62.37L51.73 116.11L31.74 108.58L48.49 64.26L8.82002 49.92C4.92002 48.84 1.81001 45.58 1.11001 41.33C0.160014 35.5 4.11002 29.99 9.94002 29.04L11.67 39.6L9.95001 29.06L180.78 1.1C182.84 0.6 185.06 0.710002 187.18 1.54C192.68 3.7 195.4 9.91 193.24 15.41L193.22 15.4L126.42 185.89L106.54 178.11Z" fill="#5582C4"/>
    <path d="M237.486 154.737L223.685 171.906L221.946 180.638H219.244L221.021 171.721L214.064 154.737H216.802L222.797 169.316L234.563 154.737H237.486ZM242.489 180.823C237.087 180.823 233.645 177.567 233.645 172.572C233.645 165.949 238.345 161.028 244.894 161.028C250.296 161.028 253.737 164.21 253.737 169.242C253.737 175.902 249.038 180.823 242.489 180.823ZM242.674 178.492C247.521 178.492 251.11 174.681 251.11 169.39C251.11 165.579 248.779 163.322 244.709 163.322C239.862 163.322 236.273 167.17 236.273 172.461C236.273 176.272 238.604 178.492 242.674 178.492ZM275.826 161.176H278.453L274.568 180.638H272.051L272.68 177.53C270.793 179.787 268.166 180.823 265.169 180.823C260.803 180.823 258.25 178.455 258.25 174.459C258.25 173.756 258.324 173.053 258.472 172.276L260.692 161.176H263.319L261.099 172.276C260.988 172.905 260.914 173.46 260.914 174.015C260.914 176.827 262.542 178.455 265.872 178.455C269.979 178.455 272.828 176.161 273.753 171.647L275.826 161.176ZM287.624 164.728C289.363 162.175 291.916 161.028 295.616 161.028L295.135 163.581C294.876 163.581 294.691 163.544 294.395 163.544C290.251 163.544 287.476 165.912 286.514 170.759L284.552 180.638H281.925L285.774 161.176H288.29L287.624 164.728ZM321.483 154.737C327.33 154.737 330.734 157.438 330.734 162.064C330.734 168.724 326.109 172.461 318.708 172.461H311.382L309.717 180.638H307.016L312.196 154.737H321.483ZM318.745 170.056C324.629 170.056 327.996 167.429 327.996 162.323C327.996 158.918 325.591 157.105 321.261 157.105H314.453L311.826 170.056H318.745ZM351.347 171.647H334.992C334.955 171.906 334.955 172.165 334.955 172.424C334.955 176.309 337.175 178.492 341.652 178.492C344.242 178.492 346.573 177.567 348.016 176.05L349.201 177.937C347.387 179.75 344.464 180.823 341.43 180.823C335.806 180.823 332.365 177.641 332.365 172.535C332.365 165.912 336.916 161.028 343.132 161.028C348.275 161.028 351.606 164.099 351.606 169.279C351.606 170.093 351.495 170.907 351.347 171.647ZM343.058 163.248C339.136 163.248 336.213 165.801 335.251 169.686H349.127C349.164 169.427 349.164 169.205 349.164 168.983C349.164 165.283 346.684 163.248 343.058 163.248ZM360.579 164.728C362.318 162.175 364.871 161.028 368.572 161.028L368.09 163.581C367.831 163.581 367.646 163.544 367.35 163.544C363.206 163.544 360.431 165.912 359.469 170.759L357.508 180.638H354.881L358.729 161.176H361.245L360.579 164.728ZM375.249 180.823C372.067 180.823 369.033 179.824 367.516 178.455L368.774 176.383C370.254 177.678 372.844 178.529 375.508 178.529C379.245 178.529 381.28 177.234 381.28 175.051C381.28 170.648 370.254 173.682 370.254 167.096C370.254 163.396 373.584 161.028 378.69 161.028C381.169 161.028 383.796 161.731 385.276 162.841L384.166 164.95C382.649 163.803 380.466 163.285 378.468 163.285C374.879 163.285 372.844 164.728 372.844 166.837C372.844 171.351 383.87 168.28 383.87 174.755C383.87 178.603 380.429 180.823 375.249 180.823ZM396.349 180.823C390.947 180.823 387.506 177.567 387.506 172.572C387.506 165.949 392.205 161.028 398.754 161.028C404.157 161.028 407.598 164.21 407.598 169.242C407.598 175.902 402.899 180.823 396.349 180.823ZM396.534 178.492C401.382 178.492 404.971 174.681 404.971 169.39C404.971 165.579 402.64 163.322 398.569 163.322C393.722 163.322 390.133 167.17 390.133 172.461C390.133 176.272 392.464 178.492 396.534 178.492ZM424.247 161.028C428.65 161.028 431.203 163.396 431.203 167.355C431.203 168.058 431.129 168.798 430.981 169.575L428.761 180.638H426.134L428.354 169.538C428.465 168.909 428.539 168.317 428.539 167.762C428.539 164.987 426.874 163.396 423.507 163.396C419.363 163.396 416.514 165.653 415.589 170.204L413.516 180.638H410.889L414.737 161.176H417.254L416.625 164.284C418.512 162.064 421.176 161.028 424.247 161.028ZM455.022 161.176H457.649L453.764 180.638H451.247L451.876 177.567C450.026 179.602 447.436 180.823 444.291 180.823C439.296 180.823 435.818 177.715 435.818 172.572C435.818 165.912 440.48 161.028 446.807 161.028C450.507 161.028 453.098 162.545 454.208 165.246L455.022 161.176ZM444.846 178.492C449.693 178.492 453.283 174.681 453.283 169.39C453.283 165.579 450.951 163.322 446.881 163.322C442.034 163.322 438.445 167.17 438.445 172.461C438.445 176.272 440.776 178.492 444.846 178.492ZM461.08 180.638L466.556 153.183H469.183L463.707 180.638H461.08ZM510.932 154.737H513.337L508.156 180.638H505.529L509.636 160.103L496.242 177.345H494.947L488.027 159.77L483.883 180.638H481.256L486.436 154.737H488.656L496.131 173.978L510.932 154.737ZM534.837 171.647H518.483C518.446 171.906 518.446 172.165 518.446 172.424C518.446 176.309 520.666 178.492 525.143 178.492C527.733 178.492 530.064 177.567 531.507 176.05L532.691 177.937C530.878 179.75 527.955 180.823 524.921 180.823C519.297 180.823 515.856 177.641 515.856 172.535C515.856 165.912 520.407 161.028 526.623 161.028C531.766 161.028 535.097 164.099 535.097 169.279C535.097 170.093 534.985 170.907 534.837 171.647ZM526.549 163.248C522.627 163.248 519.704 165.801 518.742 169.686H532.617C532.654 169.427 532.654 169.205 532.654 168.983C532.654 165.283 530.175 163.248 526.549 163.248ZM551.729 161.028C556.133 161.028 558.686 163.396 558.686 167.355C558.686 168.058 558.612 168.798 558.464 169.575L556.244 180.638H553.616L555.837 169.538C555.948 168.909 556.022 168.317 556.022 167.762C556.022 164.987 554.356 163.396 550.989 163.396C546.845 163.396 543.996 165.653 543.071 170.204L540.999 180.638H538.372L542.22 161.176H544.736L544.107 164.284C545.994 162.064 548.658 161.028 551.729 161.028ZM569.888 163.396L567.631 174.755C567.557 175.199 567.483 175.606 567.483 175.976C567.483 177.641 568.408 178.566 570.295 178.566C571.368 178.566 572.404 178.233 573.292 177.567L573.921 179.565C572.7 180.49 571.072 180.823 569.592 180.823C566.669 180.823 564.856 179.158 564.856 176.383C564.856 175.902 564.893 175.384 565.004 174.866L567.261 163.396H563.82L564.227 161.176H567.705L568.556 156.92H571.183L570.332 161.176H576.253L575.809 163.396H569.888ZM586.417 180.823C581.014 180.823 577.573 177.567 577.573 172.572C577.573 165.949 582.273 161.028 588.822 161.028C594.224 161.028 597.665 164.21 597.665 169.242C597.665 175.902 592.966 180.823 586.417 180.823ZM586.602 178.492C591.449 178.492 595.038 174.681 595.038 169.39C595.038 165.579 592.707 163.322 588.637 163.322C583.79 163.322 580.2 167.17 580.2 172.461C580.2 176.272 582.532 178.492 586.602 178.492ZM606.655 164.728C608.394 162.175 610.947 161.028 614.647 161.028L614.166 163.581C613.907 163.581 613.722 163.544 613.426 163.544C609.282 163.544 606.507 165.912 605.545 170.759L603.584 180.638H600.957L604.805 161.176H607.321L606.655 164.728Z" fill="black"/>
</svg>
