<?xml version="1.0" encoding="UTF-8"?>
<!-- Generator: Adobe Illustrator 25.4.1, SVG Export Plug-In . SVG Version: 6.00 Build 0)  -->
<svg xmlns="http://www.w3.org/2000/svg" xmlns:xlink="http://www.w3.org/1999/xlink" version="1.1" id="Layer_1" x="0px" y="0px" viewBox="0 0 6000 3000" style="enable-background:new 0 0 6000 3000;" xml:space="preserve">
<style type="text/css">
	.st0{display:none;}
	.st1{display:inline;fill:#073577;}
	.st2{fill:#073577;}
	.st3{fill:#00A5B2;}
	.st4{fill:#007FA5;}
	.st5{fill:#415A80;}
</style>
<g class="st0">
	<path class="st1" d="M5775.58,650.97c0,0-5.82-3.84-16.02-9.49c-24.13-13.36-92.25-34.84-161.23-44.54   c-67.41-9.48-143.86-21.97-143.86-21.97s-64.94-7.68-100.29-36.59c-40.77-33.34-41.75-103.65-41.75-107.73l0.82,0.82   c31.59,27.21,77.34,39.05,99.96,44.21c19.36,4.41,110.32,22.77,186.42,41.73c72.24,18,117.78,48.78,141.91,72.22   c12.35,12,18.89,20.37,18.89,20.37C5773.3,628.61,5775.58,650.97,5775.58,650.97z"></path>
	<path class="st1" d="M5211.48,68.37c0,0,52.56,49.44,135.96,92.56c41.26,21.33,247.02,115.45,258.15,120.89   c20,9.78,64.85,33.78,90.44,76.44c38.01,63.37,45.78,131.98,45.78,131.98s-28.03-68.09-147.57-111.89   c-7.99-2.93-73.67-26.73-143.76-51.09c-86.41-30.03-181.23-54.33-219.45-130.18C5210.99,157.29,5211.48,68.37,5211.48,68.37z"></path>
	<path class="st1" d="M5758.28,588.03c0,0-5.45-7.57-17.28-18.62c-19.11-17.85-36.19-28.45-44.25-33.17   c-44.33-25.99-98.41-39.06-98.41-39.06c-126.88-30.65-133.73-29.08-188.85-42.15c-46.16-10.95-95.68-28.16-128.01-79.45   c-15.57-24.7-18.71-70.19-19.98-93.74v-13.79c7.89,7.52,16.53,14.35,25.78,20.62c0.01,0,0.01,0.01,0.02,0.01   c45.47,30.81,105.2,48.29,162.09,67.65c0.1,0.04,0.2,0.07,0.31,0.11c0.01,0,0.02,0.01,0.03,0.01c0.02,0.01,0.05,0.02,0.07,0.02   c70.04,24.35,135.64,48.13,143.63,51.05c119.54,43.8,147.88,111.6,147.88,111.6C5758.74,553.8,5758.28,588.03,5758.28,588.03z"></path>
</g>
<g>
	<line class="st2" x1="2022.3" y1="722.68" x2="2022.3" y2="722.67"></line>
</g>
<g>
	<path class="st2" d="M2022.3,722.68v-0.01c-0.01-0.1-0.02-0.23-0.03-0.33"></path>
</g>
<g>
	<line class="st2" x1="2077.8" y1="916.52" x2="2077.79" y2="916.52"></line>
</g>
<g>
	<line class="st2" x1="2077.8" y1="916.52" x2="2077.8" y2="916.51"></line>
</g>
<path class="st3" d="M1003.27,1833.34c-15.9-14.07-41.03-33.61-72.05-49.98c-0.34-0.19-0.69-0.38-1.03-0.56  c-0.02-0.02-0.06-0.03-0.08-0.04c-3.45-1.87-7-3.63-10.66-5.33h-0.01c-27.05-12.57-60.37-21.29-107.99-30.64  c-28.46-5.57-49.35-11.23-131.95-23.15c-185.11-26.7-221.1-30.79-267.83-41.1c-83.56-18.43-121.29-44.78-141.78-79.32  c-33.93-57.19-25.49-112.04-24.32-141.62c31.06,24.75,74.35,46.83,130.04,61.14c52.53,13.49,62.35,15.1,197.52,43.66  c58.57,12.36,114.06,25.15,178.25,43.52c14.61,4.18,27.46,8.01,38.92,11.59c0.06,0.02,0.1,0.03,0.17,0.06  c49.48,15.47,72.14,26.76,94.77,40.35c34.31,20.61,65.39,41.33,90.45,84c0.02,0.02,0.02,0.03,0.03,0.06  c0.48,0.77,0.93,1.55,1.38,2.34c13.3,23.36,20.28,46.55,23.78,66.8C1001.98,1821.52,1002.76,1827.62,1003.27,1833.34z"></path>
<path class="st4" d="M977.1,1682.54c-24.77-43.76-52.21-61.87-91.86-86.39c-27.67-17.11-56-29.7-133.86-52  c-64.2-18.37-119.69-31.16-178.26-43.52c-135.17-28.56-144.99-30.18-197.52-43.67c-78.27-20.11-132.04-55.56-161.81-92.23  c-52.43-64.56-45.09-156.11-50.07-205.61c7.25,6.99,15.2,13.79,23.87,20.32c23.94,18.04,96.07,56.56,172.38,86.47  c136.31,53.43,189.36,61.44,339.87,119.28c36.45,14,65.82,26.02,91.55,39.04c0.41,0.2,0.82,0.41,1.24,0.64  c22.79,11.46,51.25,28.62,80.31,54.03c23.61,20.68,54.43,47.26,77.17,92.63C971.11,1613.39,976.48,1653.59,977.1,1682.54z"></path>
<path class="st5" d="M950.13,1506.03c-22.74-45.37-53.56-71.95-77.17-92.63c-29.06-25.41-57.52-42.57-80.31-54.03  c-0.43-0.23-0.84-0.44-1.24-0.64c-25.72-13.02-55.1-25.04-91.55-39.04c-150.51-57.85-203.56-65.86-339.87-119.28  c-76.32-29.92-148.45-68.43-172.38-86.47C75.86,1029.7,86.78,904.29,81.77,815.28c42.59,35.53,92.14,77.12,182.21,129.06  c59.22,34.17,167.37,82.79,282.35,136.82c232.31,109.2,254.64,129.95,276.16,146.19C900.47,1286.17,928.01,1352.33,950.13,1506.03z"></path>
<g>
	<path class="st5" d="M3227.48,1190.62h158.71v642.23h-175.53v-394.57l-169.22,204.63l-169.23-200.43v390.37h-175.53v-642.23h158.71   l186.04,211.98L3227.48,1190.62z"></path>
	<path class="st5" d="M4087.26,1511.74c0,256.05-180.79,331.61-311.12,331.61s-313.22-75.56-313.22-331.61   c0-255,188.14-331.61,313.22-331.61S4087.26,1254.63,4087.26,1511.74z M3655.26,1511.74c0,110.19,38.89,179.45,120.88,179.45   c85.14,0,118.77-69.26,118.77-179.45c0-82.9-25.23-176.3-118.77-176.3S3655.26,1428.83,3655.26,1511.74z"></path>
	<path class="st5" d="M4533.96,1519.08v-328.46h175.53v642.23h-175.53l-194.45-316.92v316.92h-175.53v-642.23h175.53   L4533.96,1519.08z"></path>
	<path class="st5" d="M5207.7,1433.03V1581h-241.75v83.95h309.02v167.9h-484.55v-642.23h484.55v167.9h-309.02v74.51H5207.7z"></path>
	<path class="st5" d="M5918.24,1190.62l-221.78,380.93v261.3h-175.53v-261.3l-220.73-380.93h175.53l133.49,226.67l133.49-226.67   H5918.24z"></path>
</g>
<g>
	<path class="st5" d="M1696.89,1833.34h-528.19v-95.94l332.46-424.6h-303.01v-121.58h489.65v97.38l-323.36,422.21h332.46V1833.34z"></path>
	<path class="st5" d="M1880.15,1833.34h-140.58v-642.12h140.58V1833.34z"></path>
	<path class="st5" d="M2406.38,1833.34h-438.85v-642.12h140.58v515.79h298.26V1833.34z"></path>
</g>
</svg>
