<svg width="360" height="720" viewBox="0 0 360 720" fill="none" xmlns="http://www.w3.org/2000/svg">
<g opacity="0.5" filter="url(#filter0_f_20_63)">
<circle cx="326.752" cy="90.6444" r="9.13217" fill="#1F9BB8"/>
<circle cx="326.752" cy="90.6444" r="9.7867" stroke="white" stroke-width="1.30907"/>
</g>
<g opacity="0.5" filter="url(#filter1_f_20_63)">
<rect x="188.237" y="215.056" width="42.1189" height="42.1189" rx="4.88014" transform="rotate(-45 188.237 215.056)" fill="#7ACBAF"/>
<rect x="187.375" y="215.056" width="43.339" height="43.339" rx="5.49016" transform="rotate(-45 187.375 215.056)" stroke="white" stroke-width="1.22004"/>
</g>
<g opacity="0.5" filter="url(#filter2_f_20_63)">
<path d="M102.437 104.898C102.437 102.245 100.283 100.075 97.6395 100.289C91.4854 100.788 85.4366 102.245 79.7143 104.615C72.5103 107.599 65.9646 111.973 60.4509 117.486C54.9372 123 50.5636 129.546 47.5796 136.75C45.2093 142.472 43.7527 148.521 43.2539 154.675C43.0396 157.318 45.2099 159.472 47.8623 159.472L97.6343 159.472C100.287 159.472 102.437 157.322 102.437 154.67L102.437 104.898Z" fill="#26B6CA"/>
<path d="M103.047 104.898C103.047 101.923 100.622 99.4352 97.5902 99.6809C91.3728 100.185 85.2619 101.656 79.4807 104.051C72.2027 107.066 65.5898 111.484 60.0194 117.055C54.4491 122.625 50.0305 129.238 47.0158 136.516C44.6212 142.297 43.1497 148.408 42.6457 154.625C42.3999 157.657 44.8874 160.082 47.8623 160.082L97.6343 160.082C100.624 160.082 103.047 157.659 103.047 154.67L103.047 104.898Z" stroke="white" stroke-width="1.2204"/>
</g>
<g opacity="0.5" filter="url(#filter3_f_20_63)">
<circle cx="321.132" cy="87.1322" r="9.7867" stroke="#7AA9EE" stroke-width="1.30907"/>
</g>
<g opacity="0.5" filter="url(#filter4_f_20_63)">
<rect x="182.137" y="211.783" width="43.339" height="43.339" rx="5.49016" transform="rotate(-45 182.137 211.783)" stroke="#7AA9EE" stroke-width="1.22004"/>
</g>
<g opacity="0.5" filter="url(#filter5_f_20_63)">
<path d="M97.8078 101.623C97.8078 98.6483 95.3829 96.1608 92.3509 96.4065C86.1336 96.9105 80.0227 98.382 74.2415 100.777C66.9635 103.791 60.3505 108.21 54.7802 113.78C49.2098 119.351 44.7912 125.964 41.7766 133.242C39.3819 139.023 37.9104 145.134 37.4064 151.351C37.1606 154.383 39.6481 156.808 42.6231 156.808L92.3951 156.808C95.3845 156.808 97.8078 154.385 97.8078 151.395L97.8078 101.623Z" stroke="#7AA9EE" stroke-width="1.2204"/>
</g>
<g opacity="0.5" filter="url(#filter6_f_20_63)">
<circle cx="283.676" cy="533.044" r="28.6578" fill="#187BA2"/>
<circle cx="283.676" cy="533.044" r="29.4752" stroke="white" stroke-width="1.63482"/>
</g>
<g opacity="0.5" filter="url(#filter7_f_20_63)">
<circle cx="55.9559" cy="637.248" r="11.7347" fill="#4DBFBE"/>
<circle cx="55.9559" cy="637.248" r="12.5758" stroke="white" stroke-width="1.68213"/>
</g>
<g opacity="0.5" filter="url(#filter8_f_20_63)">
<path d="M60.3308 426.507C59.4081 426.507 58.6551 427.255 58.7084 428.176C58.895 431.401 59.6211 434.576 60.8603 437.567C62.3128 441.074 64.4418 444.26 67.1257 446.944C69.8096 449.628 72.9959 451.757 76.5026 453.21C79.4942 454.449 82.6689 455.175 85.8937 455.362C86.8148 455.415 87.5635 454.662 87.5635 453.739L87.5635 428.177C87.5635 427.255 86.8155 426.507 85.8928 426.507L60.3308 426.507Z" fill="#187BA2"/>
<path d="M60.3308 426.04C59.1579 426.04 58.1723 426.996 58.2422 428.203C58.4318 431.48 59.1697 434.706 60.4288 437.746C61.9048 441.309 64.0682 444.547 66.7955 447.274C69.5228 450.002 72.7606 452.165 76.3239 453.641C79.3638 454.9 82.5898 455.638 85.8667 455.828C87.0738 455.898 88.0305 454.912 88.0305 453.739L88.0305 428.177C88.0305 426.997 87.0734 426.04 85.8928 426.04L60.3308 426.04Z" stroke="white" stroke-width="0.934016"/>
</g>
<g opacity="0.5" filter="url(#filter9_f_20_63)">
<path d="M332.923 612.614C332.923 611.142 331.729 609.943 330.258 610.001C322.293 610.315 314.44 612.036 307.063 615.092C298.864 618.488 291.415 623.465 285.14 629.74C278.865 636.015 273.888 643.465 270.492 651.663C267.436 659.04 265.715 666.893 265.4 674.858C265.342 676.329 266.541 677.523 268.014 677.523L330.257 677.523C331.729 677.523 332.923 676.329 332.923 674.857L332.923 612.614Z" fill="#4DBFBE"/>
<path d="M333.668 612.614C333.668 610.738 332.141 609.181 330.228 609.256C322.176 609.574 314.236 611.314 306.778 614.404C298.489 617.837 290.957 622.869 284.613 629.213C278.269 635.558 273.237 643.089 269.803 651.378C266.714 658.836 264.974 666.776 264.656 674.829C264.58 676.742 266.138 678.268 268.014 678.268L330.257 678.268C332.141 678.268 333.668 676.741 333.668 674.857L333.668 612.614Z" stroke="white" stroke-width="1.49025"/>
</g>
<g opacity="0.5" filter="url(#filter10_f_20_63)">
<path d="M124.443 608.384C124.443 610.263 125.969 611.799 127.843 611.661C132.77 611.299 137.616 610.152 142.194 608.255C147.821 605.924 152.934 602.508 157.242 598.201C161.549 593.893 164.965 588.78 167.296 583.153C169.193 578.575 170.34 573.729 170.702 568.802C170.84 566.928 169.304 565.402 167.425 565.402L127.846 565.402C125.967 565.402 124.443 566.926 124.443 568.805L124.443 608.384Z" fill="#26B6CA"/>
<path d="M123.809 608.384C123.809 610.599 125.617 612.461 127.889 612.294C132.884 611.927 137.796 610.763 142.436 608.841C148.141 606.478 153.324 603.015 157.69 598.649C162.056 594.283 165.519 589.1 167.882 583.395C169.804 578.755 170.968 573.843 171.335 568.848C171.502 566.576 169.641 564.768 167.425 564.768L127.846 564.768C125.616 564.768 123.809 566.575 123.809 568.805L123.809 608.384Z" stroke="white" stroke-width="1.26801"/>
</g>
<g opacity="0.5" filter="url(#filter11_f_20_63)">
<circle cx="276.658" cy="528.658" r="29.4752" stroke="#7AA9EE" stroke-width="1.63482"/>
</g>
<g opacity="0.5" filter="url(#filter12_f_20_63)">
<circle cx="48.7347" cy="632.735" r="12.5758" stroke="#7AA9EE" stroke-width="1.68213"/>
</g>
<g opacity="0.5" filter="url(#filter13_f_20_63)">
<path d="M56.3211 423.533C55.1481 423.533 54.1626 424.49 54.2324 425.697C54.422 428.974 55.1599 432.2 56.419 435.24C57.895 438.803 60.0584 442.041 62.7857 444.768C65.513 447.495 68.7508 449.659 72.3142 451.135C75.354 452.394 78.5801 453.132 81.8569 453.321C83.0641 453.391 84.0207 452.406 84.0207 451.233L84.0207 425.671C84.0207 424.49 83.0636 423.533 81.883 423.533L56.3211 423.533Z" stroke="#7AA9EE" stroke-width="0.934016"/>
</g>
<g opacity="0.5" filter="url(#filter14_f_20_63)">
<path d="M327.269 608.615C327.269 606.74 325.743 605.182 323.83 605.258C315.778 605.575 307.838 607.316 300.379 610.405C292.09 613.838 284.559 618.871 278.215 625.215C271.871 631.559 266.838 639.091 263.405 647.38C260.316 654.838 258.575 662.778 258.257 670.83C258.182 672.743 259.739 674.27 261.615 674.27L323.859 674.27C325.742 674.27 327.269 672.742 327.269 670.859L327.269 608.615Z" stroke="#7AA9EE" stroke-width="1.49025"/>
</g>
<g opacity="0.5" filter="url(#filter15_f_20_63)">
<path d="M118.366 604.981C118.366 607.197 120.173 609.058 122.446 608.891C127.441 608.524 132.352 607.361 136.993 605.439C142.697 603.076 147.881 599.613 152.247 595.247C156.613 590.881 160.076 585.697 162.439 579.993C164.361 575.352 165.524 570.44 165.891 565.446C166.058 563.173 164.197 561.366 161.981 561.366L122.402 561.366C120.173 561.366 118.366 563.173 118.366 565.402L118.366 604.981Z" stroke="#7AA9EE" stroke-width="1.26801"/>
</g>
<defs>
<filter id="filter0_f_20_63" x="309.765" y="73.6578" width="33.973" height="33.973" filterUnits="userSpaceOnUse" color-interpolation-filters="sRGB">
<feFlood flood-opacity="0" result="BackgroundImageFix"/>
<feBlend mode="normal" in="SourceGraphic" in2="BackgroundImageFix" result="shape"/>
<feGaussianBlur stdDeviation="3.27267" result="effect1_foregroundBlur_20_63"/>
</filter>
<filter id="filter1_f_20_63" x="182.938" y="179.975" width="70.1628" height="70.1623" filterUnits="userSpaceOnUse" color-interpolation-filters="sRGB">
<feFlood flood-opacity="0" result="BackgroundImageFix"/>
<feBlend mode="normal" in="SourceGraphic" in2="BackgroundImageFix" result="shape"/>
<feGaussianBlur stdDeviation="3.05009" result="effect1_foregroundBlur_20_63"/>
</filter>
<filter id="filter2_f_20_63" x="35.9165" y="92.9517" width="73.8427" height="73.8427" filterUnits="userSpaceOnUse" color-interpolation-filters="sRGB">
<feFlood flood-opacity="0" result="BackgroundImageFix"/>
<feBlend mode="normal" in="SourceGraphic" in2="BackgroundImageFix" result="shape"/>
<feGaussianBlur stdDeviation="3.051" result="effect1_foregroundBlur_20_63"/>
</filter>
<filter id="filter3_f_20_63" x="309.905" y="75.9055" width="22.4532" height="22.4532" filterUnits="userSpaceOnUse" color-interpolation-filters="sRGB">
<feFlood flood-opacity="0" result="BackgroundImageFix"/>
<feBlend mode="normal" in="SourceGraphic" in2="BackgroundImageFix" result="shape"/>
<feGaussianBlur stdDeviation="0.39272" result="effect1_foregroundBlur_20_63"/>
</filter>
<filter id="filter4_f_20_63" x="183.069" y="182.07" width="59.4264" height="59.426" filterUnits="userSpaceOnUse" color-interpolation-filters="sRGB">
<feFlood flood-opacity="0" result="BackgroundImageFix"/>
<feBlend mode="normal" in="SourceGraphic" in2="BackgroundImageFix" result="shape"/>
<feGaussianBlur stdDeviation="0.366011" result="effect1_foregroundBlur_20_63"/>
</filter>
<filter id="filter5_f_20_63" x="36.0471" y="95.0471" width="63.1032" height="63.1032" filterUnits="userSpaceOnUse" color-interpolation-filters="sRGB">
<feFlood flood-opacity="0" result="BackgroundImageFix"/>
<feBlend mode="normal" in="SourceGraphic" in2="BackgroundImageFix" result="shape"/>
<feGaussianBlur stdDeviation="0.366121" result="effect1_foregroundBlur_20_63"/>
</filter>
<filter id="filter6_f_20_63" x="245.209" y="494.577" width="76.9336" height="76.9336" filterUnits="userSpaceOnUse" color-interpolation-filters="sRGB">
<feFlood flood-opacity="0" result="BackgroundImageFix"/>
<feBlend mode="normal" in="SourceGraphic" in2="BackgroundImageFix" result="shape"/>
<feGaussianBlur stdDeviation="4.08705" result="effect1_foregroundBlur_20_63"/>
</filter>
<filter id="filter7_f_20_63" x="34.1284" y="615.421" width="43.6548" height="43.6548" filterUnits="userSpaceOnUse" color-interpolation-filters="sRGB">
<feFlood flood-opacity="0" result="BackgroundImageFix"/>
<feBlend mode="normal" in="SourceGraphic" in2="BackgroundImageFix" result="shape"/>
<feGaussianBlur stdDeviation="4.20532" result="effect1_foregroundBlur_20_63"/>
</filter>
<filter id="filter8_f_20_63" x="53.1014" y="420.902" width="40.0662" height="40.0662" filterUnits="userSpaceOnUse" color-interpolation-filters="sRGB">
<feFlood flood-opacity="0" result="BackgroundImageFix"/>
<feBlend mode="normal" in="SourceGraphic" in2="BackgroundImageFix" result="shape"/>
<feGaussianBlur stdDeviation="2.33504" result="effect1_foregroundBlur_20_63"/>
</filter>
<filter id="filter9_f_20_63" x="256.457" y="601.057" width="85.4074" height="85.4074" filterUnits="userSpaceOnUse" color-interpolation-filters="sRGB">
<feFlood flood-opacity="0" result="BackgroundImageFix"/>
<feBlend mode="normal" in="SourceGraphic" in2="BackgroundImageFix" result="shape"/>
<feGaussianBlur stdDeviation="3.72563" result="effect1_foregroundBlur_20_63"/>
</filter>
<filter id="filter10_f_20_63" x="116.835" y="557.794" width="61.4839" height="61.4839" filterUnits="userSpaceOnUse" color-interpolation-filters="sRGB">
<feFlood flood-opacity="0" result="BackgroundImageFix"/>
<feBlend mode="normal" in="SourceGraphic" in2="BackgroundImageFix" result="shape"/>
<feGaussianBlur stdDeviation="3.17004" result="effect1_foregroundBlur_20_63"/>
</filter>
<filter id="filter11_f_20_63" x="245.384" y="497.384" width="62.5472" height="62.5472" filterUnits="userSpaceOnUse" color-interpolation-filters="sRGB">
<feFlood flood-opacity="0" result="BackgroundImageFix"/>
<feBlend mode="normal" in="SourceGraphic" in2="BackgroundImageFix" result="shape"/>
<feGaussianBlur stdDeviation="0.490446" result="effect1_foregroundBlur_20_63"/>
</filter>
<filter id="filter12_f_20_63" x="34.3086" y="618.309" width="28.8521" height="28.8521" filterUnits="userSpaceOnUse" color-interpolation-filters="sRGB">
<feFlood flood-opacity="0" result="BackgroundImageFix"/>
<feBlend mode="normal" in="SourceGraphic" in2="BackgroundImageFix" result="shape"/>
<feGaussianBlur stdDeviation="0.504639" result="effect1_foregroundBlur_20_63"/>
</filter>
<filter id="filter13_f_20_63" x="53.2013" y="422.506" width="31.8469" height="31.8469" filterUnits="userSpaceOnUse" color-interpolation-filters="sRGB">
<feFlood flood-opacity="0" result="BackgroundImageFix"/>
<feBlend mode="normal" in="SourceGraphic" in2="BackgroundImageFix" result="shape"/>
<feGaussianBlur stdDeviation="0.280205" result="effect1_foregroundBlur_20_63"/>
</filter>
<filter id="filter14_f_20_63" x="256.616" y="603.616" width="72.2932" height="72.2932" filterUnits="userSpaceOnUse" color-interpolation-filters="sRGB">
<feFlood flood-opacity="0" result="BackgroundImageFix"/>
<feBlend mode="normal" in="SourceGraphic" in2="BackgroundImageFix" result="shape"/>
<feGaussianBlur stdDeviation="0.447075" result="effect1_foregroundBlur_20_63"/>
</filter>
<filter id="filter15_f_20_63" x="116.971" y="559.971" width="50.3253" height="50.3253" filterUnits="userSpaceOnUse" color-interpolation-filters="sRGB">
<feFlood flood-opacity="0" result="BackgroundImageFix"/>
<feBlend mode="normal" in="SourceGraphic" in2="BackgroundImageFix" result="shape"/>
<feGaussianBlur stdDeviation="0.380404" result="effect1_foregroundBlur_20_63"/>
</filter>
</defs>
</svg>
