<svg width="1920" height="1280" viewBox="0 0 1920 1280" fill="none" xmlns="http://www.w3.org/2000/svg">
<g opacity="0.5">
<g filter="url(#filter0_f_20_86)">
<circle cx="1362.11" cy="840.064" r="87.6483" fill="#187BA2"/>
<circle cx="1362.11" cy="840.064" r="90.1483" stroke="white" stroke-width="5"/>
</g>
<g filter="url(#filter1_f_20_86)">
<circle cx="1340.65" cy="826.648" r="90.1483" stroke="#7AA9EE" stroke-width="5"/>
</g>
<g filter="url(#filter2_f_20_86)">
<circle cx="1801.94" cy="210.293" r="34.8805" fill="#1F9BB8"/>
<circle cx="1801.94" cy="210.293" r="37.3805" stroke="white" stroke-width="5"/>
</g>
<g filter="url(#filter3_f_20_86)">
<circle cx="1780.48" cy="196.878" r="37.3805" stroke="#7AA9EE" stroke-width="5"/>
</g>
<g filter="url(#filter4_f_20_86)">
<circle cx="175.047" cy="1007.18" r="34.8805" fill="#4DBFBE"/>
<circle cx="175.047" cy="1007.18" r="37.3805" stroke="white" stroke-width="5"/>
</g>
<g filter="url(#filter5_f_20_86)">
<circle cx="153.582" cy="993.762" r="37.3805" stroke="#7AA9EE" stroke-width="5"/>
</g>
<g filter="url(#filter6_f_20_86)">
<rect x="1471.92" y="367.229" width="172.614" height="172.614" rx="20" transform="rotate(-45 1471.92 367.229)" fill="#7ACBAF"/>
<rect x="1468.38" y="367.229" width="177.614" height="177.614" rx="22.5" transform="rotate(-45 1468.38 367.229)" stroke="white" stroke-width="5"/>
</g>
<g filter="url(#filter7_f_20_86)">
<rect x="1446.92" y="353.814" width="177.614" height="177.614" rx="22.5" transform="rotate(-45 1446.92 353.814)" stroke="#7AA9EE" stroke-width="5"/>
</g>
<g filter="url(#filter8_f_20_86)">
<path d="M148.216 691.464C143.276 691.464 139.245 695.472 139.53 700.403C140.529 717.666 144.416 734.661 151.05 750.675C158.825 769.448 170.222 786.505 184.59 800.872C198.958 815.24 216.015 826.637 234.787 834.413C250.801 841.046 267.796 844.933 285.059 845.932C289.99 846.217 293.998 842.186 293.998 837.247L293.998 700.408C293.998 695.469 289.994 691.464 285.054 691.464L148.216 691.464Z" fill="#187BA2"/>
<path d="M148.216 688.964C141.936 688.964 136.661 694.086 137.035 700.548C138.05 718.089 141.999 735.359 148.74 751.632C156.641 770.708 168.223 788.04 182.822 802.64C197.422 817.24 214.755 828.821 233.83 836.722C250.103 843.463 267.373 847.413 284.915 848.428C291.377 848.802 296.498 843.526 296.498 837.247L296.498 700.408C296.498 694.088 291.375 688.964 285.054 688.964L148.216 688.964Z" stroke="white" stroke-width="5"/>
</g>
<g filter="url(#filter9_f_20_86)">
<path d="M126.751 675.549C120.472 675.549 115.196 680.67 115.57 687.132C116.585 704.674 120.535 721.944 127.275 738.217C135.177 757.292 146.758 774.625 161.358 789.224C175.957 803.824 193.29 815.405 212.365 823.307C228.638 830.047 245.908 833.997 263.45 835.012C269.912 835.386 275.033 830.11 275.033 823.831L275.033 686.993C275.033 680.672 269.91 675.549 263.59 675.549L126.751 675.549Z" stroke="#7AA9EE" stroke-width="5"/>
</g>
<g filter="url(#filter10_f_20_86)">
<path d="M1889.87 911.032C1889.87 906.093 1885.86 902.07 1880.93 902.265C1854.2 903.32 1827.85 909.095 1803.1 919.347C1775.6 930.741 1750.6 947.441 1729.55 968.494C1708.5 989.547 1691.8 1014.54 1680.4 1042.05C1670.15 1066.8 1664.37 1093.15 1663.32 1119.87C1663.13 1124.81 1667.15 1128.81 1672.09 1128.81L1880.92 1128.81C1885.86 1128.81 1889.87 1124.81 1889.87 1119.87L1889.87 911.032Z" fill="#4DBFBE"/>
<path d="M1892.37 911.032C1892.37 904.739 1887.25 899.514 1880.83 899.767C1853.81 900.833 1827.17 906.672 1802.15 917.037C1774.34 928.557 1749.07 945.441 1727.78 966.726C1706.5 988.012 1689.61 1013.28 1678.09 1041.09C1667.73 1066.12 1661.89 1092.75 1660.82 1119.77C1660.57 1126.19 1665.79 1131.31 1672.09 1131.31L1880.92 1131.31C1887.24 1131.31 1892.37 1126.19 1892.37 1119.87L1892.37 911.032Z" stroke="white" stroke-width="5"/>
</g>
<g filter="url(#filter11_f_20_86)">
<path d="M1870.9 897.617C1870.9 891.324 1865.78 886.098 1859.36 886.351C1832.35 887.418 1805.71 893.257 1780.68 903.622C1752.87 915.141 1727.6 932.026 1706.32 953.311C1685.03 974.596 1668.15 999.866 1656.63 1027.68C1646.26 1052.7 1640.42 1079.34 1639.36 1106.36C1639.1 1112.77 1644.33 1117.9 1650.62 1117.9L1859.46 1117.9C1865.78 1117.9 1870.9 1112.77 1870.9 1106.45L1870.9 897.617Z" stroke="#7AA9EE" stroke-width="5"/>
</g>
<g filter="url(#filter12_f_20_86)">
<path d="M293.998 184.357C293.998 173.49 285.175 164.598 274.343 165.476C249.13 167.52 224.348 173.487 200.903 183.198C171.389 195.424 144.571 213.343 121.981 235.932C99.3916 258.522 81.4726 285.34 69.2472 314.854C59.5361 338.299 53.5686 363.081 51.5247 388.294C50.6468 399.126 59.5388 407.949 70.4056 407.949L274.322 407.949C285.189 407.949 293.998 399.14 293.998 388.273L293.998 184.357Z" fill="#26B6CA"/>
<path d="M296.498 184.357C296.498 172.168 286.563 161.977 274.141 162.984C248.669 165.049 223.632 171.078 199.947 180.888C170.129 193.239 143.035 211.343 120.213 234.164C97.3917 256.986 79.2885 284.08 66.9375 313.898C57.1266 337.583 51.0977 362.62 49.0329 388.092C48.026 400.514 58.2173 410.449 70.4056 410.449L274.322 410.449C286.57 410.449 296.498 400.521 296.498 388.273L296.498 184.357Z" stroke="white" stroke-width="5"/>
</g>
<g filter="url(#filter13_f_20_86)">
<path d="M275.033 170.941C275.033 158.752 265.098 148.561 252.676 149.568C227.204 151.633 202.167 157.662 178.482 167.472C148.664 179.823 121.57 197.927 98.7486 220.748C75.9269 243.57 57.8237 270.664 45.4726 300.482C35.6617 324.167 29.6329 349.204 27.5681 374.676C26.5612 387.098 36.7525 397.033 48.9408 397.033L252.857 397.033C265.105 397.033 275.033 387.105 275.033 374.857L275.033 170.941Z" stroke="#7AA9EE" stroke-width="5"/>
</g>
<g filter="url(#filter14_f_20_86)">
<path d="M794.592 1151.51C794.592 1159.31 800.923 1165.68 808.7 1165.11C829.15 1163.61 849.261 1158.84 868.261 1150.97C891.617 1141.3 912.839 1127.12 930.715 1109.24C948.59 1091.37 962.77 1070.15 972.445 1046.79C980.315 1027.79 985.078 1007.68 986.581 987.229C987.152 979.451 980.776 973.121 972.978 973.121L808.713 973.121C800.914 973.121 794.592 979.443 794.592 987.241L794.592 1151.51Z" fill="#26B6CA"/>
<path d="M791.961 1151.51C791.961 1160.7 799.462 1168.43 808.893 1167.73C829.623 1166.21 850.008 1161.38 869.268 1153.4C892.943 1143.6 914.455 1129.22 932.575 1111.1C950.695 1092.98 965.069 1071.47 974.876 1047.8C982.853 1028.54 987.682 1008.15 989.205 987.422C989.898 977.991 982.174 970.49 972.978 970.49L808.713 970.49C799.461 970.49 791.961 977.99 791.961 987.241L791.961 1151.51Z" stroke="white" stroke-width="5.26263"/>
</g>
<g filter="url(#filter15_f_20_86)">
<path d="M769.369 1137.39C769.369 1146.58 776.87 1154.31 786.301 1153.61C807.031 1152.09 827.416 1147.26 846.676 1139.28C870.351 1129.48 891.863 1115.1 909.983 1096.98C928.103 1078.86 942.477 1057.35 952.283 1033.68C960.261 1014.42 965.089 994.03 966.613 973.301C967.306 963.869 959.581 956.369 950.386 956.369L786.12 956.369C776.869 956.369 769.369 963.869 769.369 973.12L769.369 1137.39Z" stroke="#7AA9EE" stroke-width="5.26263"/>
</g>
</g>
<defs>
<filter id="filter0_f_20_86" x="1244.46" y="722.416" width="235.297" height="235.297" filterUnits="userSpaceOnUse" color-interpolation-filters="sRGB">
<feFlood flood-opacity="0" result="BackgroundImageFix"/>
<feBlend mode="normal" in="SourceGraphic" in2="BackgroundImageFix" result="shape"/>
<feGaussianBlur stdDeviation="12.5" result="effect1_foregroundBlur_20_86"/>
</filter>
<filter id="filter1_f_20_86" x="1245" y="731" width="191.297" height="191.297" filterUnits="userSpaceOnUse" color-interpolation-filters="sRGB">
<feFlood flood-opacity="0" result="BackgroundImageFix"/>
<feBlend mode="normal" in="SourceGraphic" in2="BackgroundImageFix" result="shape"/>
<feGaussianBlur stdDeviation="1.5" result="effect1_foregroundBlur_20_86"/>
</filter>
<filter id="filter2_f_20_86" x="1737.06" y="145.413" width="129.761" height="129.761" filterUnits="userSpaceOnUse" color-interpolation-filters="sRGB">
<feFlood flood-opacity="0" result="BackgroundImageFix"/>
<feBlend mode="normal" in="SourceGraphic" in2="BackgroundImageFix" result="shape"/>
<feGaussianBlur stdDeviation="12.5" result="effect1_foregroundBlur_20_86"/>
</filter>
<filter id="filter3_f_20_86" x="1737.6" y="153.997" width="85.7607" height="85.7607" filterUnits="userSpaceOnUse" color-interpolation-filters="sRGB">
<feFlood flood-opacity="0" result="BackgroundImageFix"/>
<feBlend mode="normal" in="SourceGraphic" in2="BackgroundImageFix" result="shape"/>
<feGaussianBlur stdDeviation="1.5" result="effect1_foregroundBlur_20_86"/>
</filter>
<filter id="filter4_f_20_86" x="110.167" y="942.297" width="129.761" height="129.761" filterUnits="userSpaceOnUse" color-interpolation-filters="sRGB">
<feFlood flood-opacity="0" result="BackgroundImageFix"/>
<feBlend mode="normal" in="SourceGraphic" in2="BackgroundImageFix" result="shape"/>
<feGaussianBlur stdDeviation="12.5" result="effect1_foregroundBlur_20_86"/>
</filter>
<filter id="filter5_f_20_86" x="110.702" y="950.881" width="85.7607" height="85.7607" filterUnits="userSpaceOnUse" color-interpolation-filters="sRGB">
<feFlood flood-opacity="0" result="BackgroundImageFix"/>
<feBlend mode="normal" in="SourceGraphic" in2="BackgroundImageFix" result="shape"/>
<feGaussianBlur stdDeviation="1.5" result="effect1_foregroundBlur_20_86"/>
</filter>
<filter id="filter6_f_20_86" x="1450.2" y="223.458" width="287.544" height="287.544" filterUnits="userSpaceOnUse" color-interpolation-filters="sRGB">
<feFlood flood-opacity="0" result="BackgroundImageFix"/>
<feBlend mode="normal" in="SourceGraphic" in2="BackgroundImageFix" result="shape"/>
<feGaussianBlur stdDeviation="12.5" result="effect1_foregroundBlur_20_86"/>
</filter>
<filter id="filter7_f_20_86" x="1450.74" y="232.042" width="243.544" height="243.544" filterUnits="userSpaceOnUse" color-interpolation-filters="sRGB">
<feFlood flood-opacity="0" result="BackgroundImageFix"/>
<feBlend mode="normal" in="SourceGraphic" in2="BackgroundImageFix" result="shape"/>
<feGaussianBlur stdDeviation="1.5" result="effect1_foregroundBlur_20_86"/>
</filter>
<filter id="filter8_f_20_86" x="109.516" y="661.464" width="214.482" height="214.482" filterUnits="userSpaceOnUse" color-interpolation-filters="sRGB">
<feFlood flood-opacity="0" result="BackgroundImageFix"/>
<feBlend mode="normal" in="SourceGraphic" in2="BackgroundImageFix" result="shape"/>
<feGaussianBlur stdDeviation="12.5" result="effect1_foregroundBlur_20_86"/>
</filter>
<filter id="filter9_f_20_86" x="110.051" y="670.049" width="170.482" height="170.482" filterUnits="userSpaceOnUse" color-interpolation-filters="sRGB">
<feFlood flood-opacity="0" result="BackgroundImageFix"/>
<feBlend mode="normal" in="SourceGraphic" in2="BackgroundImageFix" result="shape"/>
<feGaussianBlur stdDeviation="1.5" result="effect1_foregroundBlur_20_86"/>
</filter>
<filter id="filter10_f_20_86" x="1633.31" y="872.258" width="286.553" height="286.554" filterUnits="userSpaceOnUse" color-interpolation-filters="sRGB">
<feFlood flood-opacity="0" result="BackgroundImageFix"/>
<feBlend mode="normal" in="SourceGraphic" in2="BackgroundImageFix" result="shape"/>
<feGaussianBlur stdDeviation="12.5" result="effect1_foregroundBlur_20_86"/>
</filter>
<filter id="filter11_f_20_86" x="1633.85" y="880.842" width="242.553" height="242.554" filterUnits="userSpaceOnUse" color-interpolation-filters="sRGB">
<feFlood flood-opacity="0" result="BackgroundImageFix"/>
<feBlend mode="normal" in="SourceGraphic" in2="BackgroundImageFix" result="shape"/>
<feGaussianBlur stdDeviation="1.5" result="effect1_foregroundBlur_20_86"/>
</filter>
<filter id="filter12_f_20_86" x="21.4634" y="135.415" width="302.535" height="302.535" filterUnits="userSpaceOnUse" color-interpolation-filters="sRGB">
<feFlood flood-opacity="0" result="BackgroundImageFix"/>
<feBlend mode="normal" in="SourceGraphic" in2="BackgroundImageFix" result="shape"/>
<feGaussianBlur stdDeviation="12.5" result="effect1_foregroundBlur_20_86"/>
</filter>
<filter id="filter13_f_20_86" x="21.9985" y="143.999" width="258.535" height="258.535" filterUnits="userSpaceOnUse" color-interpolation-filters="sRGB">
<feFlood flood-opacity="0" result="BackgroundImageFix"/>
<feBlend mode="normal" in="SourceGraphic" in2="BackgroundImageFix" result="shape"/>
<feGaussianBlur stdDeviation="1.5" result="effect1_foregroundBlur_20_86"/>
</filter>
<filter id="filter14_f_20_86" x="763.016" y="941.545" width="255.177" height="255.177" filterUnits="userSpaceOnUse" color-interpolation-filters="sRGB">
<feFlood flood-opacity="0" result="BackgroundImageFix"/>
<feBlend mode="normal" in="SourceGraphic" in2="BackgroundImageFix" result="shape"/>
<feGaussianBlur stdDeviation="13.1566" result="effect1_foregroundBlur_20_86"/>
</filter>
<filter id="filter15_f_20_86" x="763.58" y="950.58" width="208.865" height="208.865" filterUnits="userSpaceOnUse" color-interpolation-filters="sRGB">
<feFlood flood-opacity="0" result="BackgroundImageFix"/>
<feBlend mode="normal" in="SourceGraphic" in2="BackgroundImageFix" result="shape"/>
<feGaussianBlur stdDeviation="1.57879" result="effect1_foregroundBlur_20_86"/>
</filter>
</defs>
</svg>
