<svg width="1980" height="1980" viewBox="0 0 1980 1980" fill="none" xmlns="http://www.w3.org/2000/svg">
<g clip-path="url(#clip0_12_2)">
<path d="M1980 990C1980 443.238 1536.76 0 990 0C443.238 0 0 443.238 0 990C0 1536.76 443.238 1980 990 1980C1536.76 1980 1980 1536.76 1980 990Z" fill="url(#paint0_linear_12_2)"/>
<path d="M972.5 303.5C948.1 307.9 929.9 321.5 920.3 342.7C917.7 348.5 915.9 351.2 914.5 351.5C913.4 351.7 904.4 353 894.5 354.5C830.2 363.9 761.5 387.1 697.8 421.1C634.9 454.6 564.6 505.9 523.4 548.2C518.4 553.3 513.5 558.9 512.6 560.7C506.5 572.7 521.1 589.7 533.3 584.7C535.1 583.9 542.7 577.2 550.2 569.8C585.6 534.7 639.2 494.3 690 464.6C710.7 452.5 749.5 433.1 770.5 424.5C800.2 412.2 836.8 400.6 865.2 394.5C880.6 391.2 906.4 387 911.3 387C914.6 387 914.9 387.2 914.1 388.7C913.6 389.7 906.3 397.7 898 406.5C828.6 479.4 767.9 559.8 726.5 633.6L719.7 645.8L652.6 645.6C599 645.5 584.6 645.8 581 646.8C578 647.7 575 649.8 571.8 653C564.7 660.3 564.2 666.7 570 673.4C576.1 680.3 574.7 680.2 628.7 680C655.4 680 682.4 680.2 688.7 680.6C699.7 681.3 700.2 681.4 699.7 683.4C699.4 684.6 695.2 694.3 690.2 705C660.4 770 639.8 838.8 630.6 904.5C628 923 625 953.8 625 962.2V967L563.3 967.2L501.5 967.5L498.4 969.7C489.4 976.1 489.4 991.9 498.4 998.3L501.5 1000.5L562.8 1000.8L624 1001V1003.3C624 1004.5 624.5 1013.8 625 1024C628.8 1092.1 643.1 1159.2 667.8 1225C674.6 1243.1 685.2 1268.6 689.1 1276.1C692.8 1283.5 697.1 1282.9 636.3 1283.2L581.5 1283.5L578.4 1285.7C569.4 1292.1 569.4 1307.9 578.4 1314.3L581.5 1316.5L645.4 1317L709.3 1317.5L717.9 1333C750.6 1391.8 788.4 1444.4 838.6 1501C854.9 1519.4 897 1561.4 908.3 1570.5C915.9 1576.6 916.9 1577.8 916.4 1580C914.8 1586.9 914.8 1603.8 916.4 1610.1C921.1 1628.7 934.5 1645.8 951 1653.8C961.9 1659.2 969.3 1661 980 1661C990.7 1661 998.1 1659.2 1009 1653.8C1023.8 1646.6 1037.6 1630.5 1042.1 1615.2C1043.1 1611.9 1043.8 1611 1045.6 1611C1054.9 1611 1105.6 1599.2 1133.4 1590.5C1269.2 1548.2 1386.3 1472.8 1467.3 1375.6C1524.8 1306.6 1565.8 1225.6 1591 1131.5C1597.4 1107.5 1598 1102.8 1595.1 1097.2C1591.2 1089.5 1581.5 1085.4 1573.7 1087.9C1566.8 1090.2 1564.8 1093.8 1559.7 1114.2C1545.4 1170.3 1524.1 1224 1497.2 1271.2L1490.5 1283L1434 1283.2L1377.5 1283.5L1374.4 1285.7C1365.4 1292.1 1365.4 1307.9 1374.4 1314.3C1377.5 1316.5 1377.8 1316.5 1422.3 1316.8C1456.7 1317 1467 1317.3 1467 1318.3C1467 1321.7 1435.8 1360.5 1415.4 1382.5C1342.3 1461.3 1234.4 1525.1 1116.9 1559C1096.1 1565 1070.3 1571.2 1067.4 1570.8C1065 1570.5 1068 1567.3 1096.2 1539C1113.5 1521.7 1133 1501.4 1139.6 1494C1173.7 1455.5 1204.6 1415.4 1228.4 1378.7L1237.4 1365H1247C1265.4 1365 1280.4 1358.7 1293.6 1345.6C1306.5 1332.7 1313 1317.4 1313 1300C1313 1285.8 1308.5 1272.7 1299.7 1261.3L1295 1255L1300.4 1241.3C1352.4 1109.9 1361.8 958.2 1326.5 820.5C1318.5 789.2 1306.3 753.2 1294.1 724.7C1291.3 718.2 1289 712.4 1289 711.8C1289 711.3 1291.9 707.6 1295.5 703.7C1306.8 691.6 1313 676.1 1313 660C1313 629.8 1291.9 604.3 1260.5 596.5C1252 594.4 1243.5 594.4 1235.7 596.5C1232.5 597.3 1229.1 598 1228.2 598C1227.1 597.9 1223 592.7 1217.3 584.2C1184.4 534.8 1141.3 483.8 1072.4 412.6L1044.5 383.7L1044.8 371.6C1045.2 357.9 1044 351.8 1038.6 340.5C1030.4 323.1 1013 309.4 993 304.7C983 302.4 980 302.2 972.5 303.5ZM992.4 337.9C997.9 340.3 1003.7 346.1 1006.3 351.9C1009.2 358.3 1009.2 369.7 1006.3 376.1C1001.6 386.6 992.2 392.4 980 392.4C974.6 392.4 971.2 391.8 967.9 390.3C944 379.5 946.6 343.4 971.8 336.3C977.7 334.7 986.8 335.4 992.4 337.9ZM1051.2 441.2C1115 507.2 1150.4 549 1186.6 601.2C1192.3 609.5 1197 616.7 1197 617.2C1197 617.7 1195.6 620.1 1194 622.5C1190.1 628.2 1185.2 638.5 1184.4 642.7L1183.8 646H1123.8C1057 646 1059.6 645.7 1054.2 652.8C1051.8 655.9 1051.5 657.2 1051.5 664C1051.5 670.8 1051.8 672.1 1054.2 675.2C1059.6 682.3 1056.9 682 1124.7 682H1185.5L1189.4 689.8C1195.2 701.1 1207.5 713.2 1219 718.9C1228.9 723.7 1238.4 726 1249.1 726H1256.7L1258.2 729.7C1291.8 811.7 1305.8 871 1311.6 956.2L1312.2 966H1214C1104.7 966 1111.7 965.6 1106.2 972.8C1103.8 975.9 1103.5 977.2 1103.5 984C1103.5 990.8 1103.8 992.1 1106.2 995.2C1111.7 1002.4 1104.7 1002 1213.9 1002H1312V1011.7C1312 1032.2 1308.8 1066.6 1304.4 1094.5C1297.7 1136.7 1283.8 1187.3 1268.3 1226L1264.5 1235.5L1261 1235.2C1248.8 1234.3 1239 1234.7 1233 1236.3C1213.9 1241.5 1197.2 1254.7 1189.2 1270.9C1186.9 1275.5 1185 1279.9 1185 1280.6C1185 1281.8 1175.5 1282 1125.4 1282C1059.1 1282 1061.6 1281.8 1056.2 1288.8C1053.8 1291.9 1053.5 1293.2 1053.5 1300C1053.5 1306.8 1053.8 1308.1 1056.2 1311.2C1061.6 1318.2 1059.1 1318 1125.4 1318C1175.5 1318 1185 1318.2 1185 1319.4C1185 1322.9 1193.6 1337.6 1199.2 1343.6L1205.3 1350L1192.8 1368.8C1155.5 1424.7 1106.6 1482 1053.1 1532.5C1041.4 1543.5 1031.5 1552.7 1030.9 1552.8C1030.4 1553 1027.2 1550.7 1023.9 1547.6C1018.7 1542.9 1006.6 1535.9 999.8 1533.6C998.1 1533.1 998 1520.6 998 1290C998 1083.7 998.2 1047 999.4 1047C1000.1 1047 1004.5 1045.1 1009.1 1042.8C1021.2 1036.9 1033.1 1024.8 1038.8 1013C1048.2 993.3 1048.2 974.1 1038.9 955C1033.1 943.1 1022 932.1 1010 926.3C1005.3 924.1 1000.7 922 999.8 921.6C998.1 921.1 998 908.5 998 676C998 468 998.2 431 999.4 431C1001.9 431 1016.5 423.1 1020.5 419.6C1022.7 417.7 1025 416.1 1025.7 416C1026.3 416 1037.8 427.4 1051.2 441.2ZM952.5 427.6C956.3 429.5 960 431 960.7 431C961.8 431 962 451.9 962 538.5V646H880.9C790.6 646 795.7 645.6 790.2 652.8C787.8 655.9 787.5 657.2 787.5 664C787.5 670.8 787.8 672.1 790.2 675.2C795.7 682.4 790.6 682 880.9 682H962V801.5C962 914.5 961.9 921.1 960.3 921.6C959.3 922 954.7 924.1 950 926.3C938.1 932.1 927 943.1 921.2 954.9C918.9 959.5 917 963.9 917 964.6C917 965.8 902.9 966 826.4 966C725.6 966 731.7 965.6 726.2 972.8C723.8 975.9 723.5 977.2 723.5 984C723.5 990.8 723.8 992.1 726.2 995.2C731.7 1002.4 725.6 1002 826.4 1002C902.9 1002 917 1002.2 917 1003.4C917 1004.1 918.9 1008.5 921.2 1013.1C927 1024.9 939.1 1037 950.9 1042.8C955.5 1045.1 959.9 1047 960.6 1047C961.8 1047 962 1065.1 962 1164.5V1282H876.9C782.2 1282 787.7 1281.6 782.2 1288.8C779.8 1291.9 779.5 1293.2 779.5 1300C779.5 1306.8 779.8 1308.1 782.2 1311.2C787.7 1318.4 782.2 1318 876.9 1318H962V1425.6V1533.1L958.8 1534.2C953.6 1536 943.3 1541.6 939.2 1544.9L935.4 1547.8L924.3 1538.2C874.9 1494.9 830.8 1443.8 788 1380C711.9 1266.6 671.4 1153.8 661.9 1029.5C660.3 1008.6 660.6 959.7 662.5 937.5C669.6 852.1 692.6 773.2 735 689.5C755 650 768.1 627.7 793.4 590C828.5 537.8 868.7 488.4 921.8 432.3L936.2 417.1L940.8 420.7C943.4 422.7 948.6 425.8 952.5 427.6ZM1260.4 633.9C1265.9 636.3 1271.7 642.1 1274.3 647.9C1277.2 654.3 1277.2 665.7 1274.3 672.1C1269.6 682.6 1260.2 688.4 1248 688.4C1242.6 688.4 1239.2 687.8 1235.9 686.3C1212 675.5 1214.6 639.4 1239.8 632.3C1245.7 630.7 1254.8 631.4 1260.4 633.9ZM992.4 957.9C997.9 960.3 1003.7 966.1 1006.3 971.9C1009.2 978.3 1009.2 989.7 1006.3 996.1C1001.6 1006.6 992.2 1012.4 980 1012.4C974.6 1012.4 971.2 1011.8 967.9 1010.3C944 999.5 946.6 963.4 971.8 956.3C977.7 954.7 986.8 955.4 992.4 957.9ZM1260.4 1273.9C1265.9 1276.3 1271.7 1282.1 1274.3 1287.9C1277.2 1294.3 1277.2 1305.7 1274.3 1312.1C1269.6 1322.6 1260.2 1328.4 1248 1328.4C1242.6 1328.4 1239.2 1327.8 1235.9 1326.3C1212 1315.5 1214.6 1279.4 1239.8 1272.3C1245.7 1270.7 1254.8 1271.4 1260.4 1273.9ZM992.4 1569.9C997.9 1572.3 1003.7 1578.1 1006.3 1583.9C1009.2 1590.3 1009.2 1601.7 1006.3 1608.1C1001.6 1618.6 992.2 1624.4 980 1624.4C974.6 1624.4 971.2 1623.8 967.9 1622.3C944 1611.5 946.6 1575.4 971.8 1568.3C977.7 1566.7 986.8 1567.4 992.4 1569.9Z" fill="white"/>
<path d="M1115.5 371.5C1101.4 376.5 1099 396.4 1111.7 402.8C1113.8 403.9 1121.4 406.4 1128.5 408.5C1253.1 444.6 1363.1 513 1438.5 601.5C1450.6 615.6 1472 644 1472 645.7C1472 646.7 1461.2 647 1424.8 647.2C1377.7 647.5 1377.5 647.5 1374.4 649.7C1365.4 656.1 1365.4 671.9 1374.4 678.3L1377.5 680.5L1436.2 680.8L1494.9 681L1501 691.8C1531.9 746.2 1556.4 814.8 1567.9 879C1570.8 895.5 1574.4 921 1573.8 921.4C1573.6 921.6 1569.7 923.5 1565 925.8C1549.2 933.4 1539.3 943.4 1532.3 958.7L1528.5 966.9L1459 967.2L1389.5 967.5L1386.4 969.7C1377.4 976.1 1377.4 991.9 1386.4 998.3L1389.5 1000.5L1459.3 1001L1529.1 1001.5L1531.4 1007.2C1535.3 1016.7 1539 1022.2 1547 1030.1C1559.5 1042.5 1575 1049 1592 1049C1609.4 1049 1624.7 1042.5 1637.6 1029.6C1650.5 1016.7 1657 1001.4 1657 984C1657 958 1640.7 934.4 1615.9 924.3L1609.1 921.5L1608.5 916C1605 883.1 1601.6 864 1594 834.5C1567.8 732.2 1520.2 642 1452.6 566.3C1378.8 483.7 1279.2 421 1160 382.2C1147.1 378 1120.2 369.9 1119.7 370C1119.6 370.1 1117.7 370.7 1115.5 371.5ZM1606.4 957.9C1611.9 960.3 1617.7 966.1 1620.3 971.9C1623.2 978.3 1623.2 989.7 1620.3 996.1C1615.6 1006.6 1606.2 1012.4 1594 1012.4C1588.6 1012.4 1585.2 1011.8 1581.9 1010.3C1558 999.5 1560.6 963.4 1585.8 956.3C1591.7 954.7 1600.8 955.4 1606.4 957.9Z" fill="white"/>
<path d="M452.5 595.5C424.5 600.5 403.2 619.3 396.6 644.7C394.6 652.4 394.6 666.8 396.5 674.5C398.9 683.9 405.2 695.8 411.6 702.9L417.4 709.2L414.1 714.9C401.6 736.8 389.2 764.4 381 788.5C375.5 804.8 367 837.5 367 842.7C367 849.5 371.4 855.8 378.5 859.1C383.5 861.4 388.2 861.5 392.7 859.3C397.3 857.1 399.6 853.2 401.6 844C410.1 804.2 426.1 761.9 444.7 730.5L447.6 725.5L460.6 724.9C480.4 723.9 492.1 718.9 505.6 705.5C518.5 692.7 525 677.4 525 660C525 630 503.6 603.9 473 596.7C463 594.4 460 594.2 452.5 595.5ZM472.4 633.9C477.9 636.3 483.7 642.1 486.3 647.9C489.2 654.3 489.2 665.7 486.3 672.1C481.6 682.6 472.2 688.4 460 688.4C454.6 688.4 451.2 687.8 447.9 686.3C424 675.5 426.6 639.4 451.8 632.3C457.7 630.7 466.8 631.4 472.4 633.9Z" fill="white"/>
<path d="M364.5 919.5C341.2 923.7 323.3 936.5 313.5 956C308.9 965.2 307 973.2 307 983.7C307 994.7 308.8 1002 314.2 1013C321.3 1027.5 336.9 1041.1 352.2 1045.9C355.7 1047.1 355.9 1047.3 356.5 1052.8C364 1116.9 394.1 1206.7 430.6 1274.4C514 1428.7 642.3 1532.2 817 1586C841.1 1593.5 843.9 1594 848.6 1592.4C856.2 1589.8 862 1580.3 860.6 1572.8C859.7 1568.1 856.6 1563.3 853.1 1561.6C851.5 1560.7 842.8 1557.8 833.8 1555.1C730.6 1523.9 646.4 1476.6 575.7 1410.3C482.2 1322.4 416.9 1197.7 393.4 1062.1C391.3 1049.8 391 1046.5 392 1046.2C392.7 1045.9 396.9 1043.9 401.4 1041.7C412.9 1035.9 424.1 1024.6 429.8 1013C435.2 1002.1 437 994.7 437 984C437 954 415.6 927.9 385 920.7C375 918.4 372 918.2 364.5 919.5ZM384.4 957.9C389.9 960.3 395.7 966.1 398.3 971.9C401.2 978.3 401.2 989.7 398.3 996.1C393.6 1006.6 384.2 1012.4 372 1012.4C366.6 1012.4 363.2 1011.8 359.9 1010.3C336 999.5 338.6 963.4 363.8 956.3C369.7 954.7 378.8 955.4 384.4 957.9Z" fill="white"/>
</g>
<defs>
<linearGradient id="paint0_linear_12_2" x1="0" y1="0" x2="2099.34" y2="1844.14" gradientUnits="userSpaceOnUse">
<stop stop-color="#0C4C82"/>
<stop offset="0.359375" stop-color="#1C72B9"/>
<stop offset="0.854167" stop-color="#26B6CA"/>
<stop offset="1" stop-color="#30B9C7"/>
</linearGradient>
<clipPath id="clip0_12_2">
<rect width="1980" height="1980" fill="white"/>
</clipPath>
</defs>
</svg>
