<svg width="1980" height="1980" viewBox="0 0 1980 1980" fill="none" xmlns="http://www.w3.org/2000/svg">
<g clip-path="url(#clip0_12_20)">
<path d="M1980 990C1980 443.238 1536.76 0 990 0C443.238 0 0 443.238 0 990C0 1536.76 443.238 1980 990 1980C1536.76 1980 1980 1536.76 1980 990Z" fill="url(#paint0_linear_12_20)"/>
<path d="M942.5 459.6C940.9 459.8 935.2 460.5 930 461.1C924.8 461.6 914 463.4 906 465C834.4 479.2 771.1 519.9 721.9 583C690.2 623.8 671 668.1 663.4 718.2C661.2 732.5 660.5 767.9 661.9 783.7C668.6 854.9 703.2 930.6 760 998.5C773.9 1015.1 778.3 1021.5 784.3 1033.5C796.1 1057 809 1098.6 817.9 1142C820.7 1155.4 822.3 1158.6 827.9 1162.2C837.5 1168.3 830.1 1168 974.9 1168.1C1047.8 1168.2 1108.9 1167.9 1110.5 1167.5C1123.3 1164.2 1127.3 1158.1 1132.1 1134.2C1139.5 1097.6 1152.8 1055.3 1163.5 1033.9C1169.2 1022.6 1173.3 1016.7 1185.5 1002C1243.1 932.4 1276.1 862.1 1285.6 788.1C1287.9 770.9 1287.9 737.6 1285.6 721C1278.3 666.7 1255.1 616 1216.8 570.5C1206.5 558.3 1184.7 537.1 1172.2 527.2C1126.2 490.7 1066.8 467.3 1002.5 460.5C990 459.2 951.3 458.6 942.5 459.6ZM991.5 495C1081.5 502.6 1164 550.3 1211.2 621.8C1231.1 652 1243.4 684 1249.7 721.5C1252.2 736.5 1252.2 773.5 1249.8 789.7C1244.4 825 1233.5 857.8 1215.1 893.5C1199.8 923.2 1185.4 945 1160.3 976.3C1142.8 998 1136.6 1007.3 1129.5 1022.3C1118 1046.6 1104.7 1088.2 1100.9 1111.8C1099.8 1118.8 1098.5 1126.2 1097.9 1128.3L1096.9 1132L974.8 1131.8L852.6 1131.5L848.9 1114.7C838.9 1069.9 827.7 1037.3 813.4 1011.9C806.9 1000.2 800.3 990.9 788.7 977.1C737.4 915.9 706.3 850 697.8 785C696.2 772.5 696.2 738.9 697.8 727.5C705.5 673.4 731.2 622.8 773 579.6C817.4 533.8 867.2 507 925.5 497.5C946.5 494.2 970.4 493.2 991.5 495Z" fill="white"/>
<path d="M987.9 538.3C979.2 544.1 978.7 557.8 986.8 566.3C990.8 570.6 991.8 570.9 1008.3 573.5C1048.4 579.8 1077.2 592 1097.5 611.1C1105.8 619 1107.6 620 1112.9 620C1121.4 620 1128.1 614.8 1130.6 606.3C1133.1 597.9 1131.5 594.1 1121.7 584.5C1097.7 561 1059 544.8 1009.5 537.5C995.6 535.4 991.9 535.6 987.9 538.3Z" fill="white"/>
<path d="M1162.5 653.9C1157.7 656.1 1155.6 658.3 1153.5 663.3C1151.4 668.3 1151.6 673.8 1154 678C1162.4 692.7 1165.8 701.6 1168 715C1169.1 721.5 1169.8 723 1172.9 726.1C1178.7 731.9 1186.4 733.4 1193.6 730.1C1198.8 727.7 1201.5 724.3 1203 718.1C1206 705.4 1193.8 669.1 1182.8 658.1C1176.8 652 1169.7 650.6 1162.5 653.9Z" fill="white"/>
<path d="M1061 783.5C1058 784.2 1048.1 788.3 1039 792.8C1029.9 797.2 1018.9 802.1 1014.5 803.5C1002.3 807.5 985.6 810 971.5 810C948.2 810 930.9 805.4 904.5 792.1C887.9 783.7 887.3 783.5 880.3 783.5C874 783.5 872.7 783.8 868.8 786.5C859.9 792.8 857.3 803.2 860.8 819C861.8 823.7 874.7 882.6 889.4 950C904.1 1017.4 916.6 1074.3 917.1 1076.4C920.3 1088.3 936.2 1091.4 946 1082.1C948.2 1080 950.3 1076.7 951.1 1074.2C952.3 1070 951.4 1065.4 926.5 950.9C912.3 885.5 900.9 831.8 901.2 831.5C901.4 831.3 905.6 832.6 910.4 834.5C941.2 846.6 975.9 849.2 1009 842C1019.5 839.7 1035.9 834.5 1042.4 831.4C1045.1 830.1 1047.6 829.2 1047.9 829.5C1048.1 829.8 1037.4 883.9 1024.1 949.8C1001.9 1059.1 999.9 1069.9 1000.9 1073.6C1002.9 1081.2 1009 1086.2 1017.8 1087.6C1023 1088.4 1030.3 1085.3 1032.8 1081.1C1033.8 1079.4 1036.7 1068 1039.3 1055.3C1041.9 1042.8 1048.7 1009.1 1054.5 980.5C1060.3 951.9 1068.4 914.1 1072.5 896.5C1080.4 862 1085 839.7 1087.4 822.9C1090.2 804.3 1089.3 796.7 1083.8 790.4C1077.9 783.7 1070.3 781.4 1061 783.5Z" fill="white"/>
<path d="M1398.5 505.7C1387 511.8 1321.6 552.7 1320 554.7C1313.2 563.4 1317.1 577.4 1327.7 582.9C1330.9 584.5 1337.6 584.3 1341.3 582.4C1351.1 577.4 1418.3 535.4 1420 533.3C1426.8 524.6 1422.9 510.6 1412.3 505.1C1409.2 503.5 1402 503.8 1398.5 505.7Z" fill="white"/>
<path d="M533.5 509.2C522.9 515 519.3 528.7 526 537.3C527.7 539.4 594.9 581.4 604.7 586.4C608.4 588.3 615.1 588.5 618.3 586.9C628.9 581.4 632.8 567.4 626 558.7C624.3 556.6 557.1 514.6 547.3 509.6C543.7 507.8 536.5 507.5 533.5 509.2Z" fill="white"/>
<path d="M1382.2 757.7C1380.4 758.6 1377.7 760.9 1376.2 762.8C1373.8 765.9 1373.5 767.2 1373.5 774C1373.5 780.8 1373.8 782.1 1376.2 785.2C1381.5 792.1 1380.6 792 1431.9 792C1475.9 792 1478.3 791.9 1482 790C1488.4 786.7 1490.5 782.8 1490.5 773.9C1490.5 767.2 1490.2 765.9 1487.8 762.8C1482.5 755.9 1483.5 756 1431.8 756C1391 756 1385.1 756.2 1382.2 757.7Z" fill="white"/>
<path d="M464.2 761.7C462.4 762.6 459.7 764.9 458.2 766.8C455.8 769.9 455.5 771.2 455.5 778C455.5 784.8 455.8 786.1 458.2 789.2C463.5 796.1 462.6 796 513.9 796C557.9 796 560.3 795.9 564 794C570.4 790.7 572.5 786.8 572.5 777.9C572.5 771.2 572.2 769.9 569.8 766.8C564.5 759.9 565.5 760 513.8 760C473 760 467.1 760.2 464.2 761.7Z" fill="white"/>
<path d="M1327.5 965.6C1322.8 968.2 1319.9 971.2 1317.9 975.5C1314.7 982.4 1316 990 1321.1 994.7C1322.4 995.8 1340.7 1006.4 1361.7 1018C1403.5 1041.2 1405.3 1041.9 1412.6 1038.2C1424.5 1032.1 1427.7 1017.4 1418.9 1009.3C1417.6 1008.2 1399.3 997.6 1378.2 985.9C1336.9 963 1334.2 961.9 1327.5 965.6Z" fill="white"/>
<path d="M604.5 969.9C596.7 973.5 529.5 1011.2 527.1 1013.3C518.3 1021.4 521.5 1036.1 533.4 1042.2C540.7 1045.9 542.5 1045.2 584.3 1022C605.3 1010.4 623.6 999.8 624.9 998.7C633.6 990.7 630.5 975.9 618.8 969.9C614.1 967.5 609.7 967.5 604.5 969.9Z" fill="white"/>
<path d="M866.2 1213.7C864.4 1214.6 861.7 1216.9 860.2 1218.8C857.8 1221.9 857.5 1223.2 857.5 1230C857.5 1236.8 857.8 1238.1 860.2 1241.2C865.7 1248.5 858 1248 973.9 1248C1075.7 1248 1078.2 1248 1082 1246C1088.4 1242.7 1090.5 1238.8 1090.5 1229.9C1090.5 1223.2 1090.2 1221.9 1087.8 1218.8C1082.3 1211.5 1090 1212 973.8 1212C879.3 1212 869.2 1212.2 866.2 1213.7Z" fill="white"/>
<path d="M910.2 1293.7C908.4 1294.6 905.7 1296.9 904.2 1298.8C901.8 1301.9 901.5 1303.2 901.5 1310C901.5 1316.8 901.8 1318.1 904.2 1321.2C909.6 1328.3 906.8 1328 975.9 1328C1035.9 1328 1038.2 1327.9 1042 1326C1048.4 1322.7 1050.5 1318.8 1050.5 1309.9C1050.5 1303.2 1050.2 1301.9 1047.8 1298.8C1042.4 1291.7 1045.3 1292 975.8 1292C920.2 1292 913.1 1292.2 910.2 1293.7Z" fill="white"/>
<path d="M707.4 1367.1C698.8 1368.2 691.6 1371.5 687.6 1376.2C683.9 1380.5 680.6 1389.6 679 1400C677.7 1408.6 677.7 1448 679 1461.1C684.9 1518.7 712 1559.9 759.9 1584C789.6 1598.9 827.8 1605.4 871.5 1603.1C892 1602 897.2 1600.9 905.8 1595.9C913.1 1591.8 914.5 1588.2 916.5 1569.7C922.1 1515.8 913 1470.1 889.8 1436.2C882.6 1425.7 865.4 1408.8 854.2 1401.1C823.9 1380.5 787.6 1369.6 740.7 1367C721.2 1365.9 716.1 1365.9 707.4 1367.1ZM759.2 1404.6C781.5 1407.2 801.5 1413.1 819 1422.1C857.5 1441.8 877.9 1475.4 882.1 1525.6C883.4 1541.5 882.3 1564.6 880.1 1566C877.7 1567.4 850.6 1568.1 836.5 1567C806.1 1564.7 781.8 1557.1 761.6 1543.6C727.7 1521 712.4 1483.7 714.4 1429C714.7 1419.4 715.3 1409.6 715.6 1407.3L716.3 1403.1L721.4 1402.8C730.3 1402.3 746.1 1403 759.2 1404.6Z" fill="white"/>
<path d="M1213.5 1366.7C1179.9 1368 1146.6 1375.8 1120.6 1388.4C1070.5 1412.7 1042.3 1455.5 1035.9 1517C1034.5 1530.8 1035.3 1566.4 1037.4 1579.3C1039 1589.2 1040.5 1592 1045.8 1595.3C1055.8 1601.5 1066.2 1603.2 1096 1603.3C1145 1603.5 1180 1594.3 1211.8 1573C1257.5 1542.5 1279.5 1487.8 1274.1 1418C1272 1390.5 1270.2 1382.9 1264.5 1376.3C1258.9 1369.7 1253.7 1367.9 1238 1366.9C1230.6 1366.5 1223.6 1366.2 1222.5 1366.2C1221.4 1366.3 1217.4 1366.5 1213.5 1366.7ZM1236.2 1404.8C1237.7 1406.3 1239.2 1431.5 1238.6 1445.5C1236.5 1494 1220.7 1525 1187.1 1546.1C1167.6 1558.3 1146.1 1564.6 1115.3 1567.1C1099.6 1568.3 1074.5 1567.3 1072.5 1565.4C1070.7 1563.6 1069.5 1543.7 1070.4 1529C1073.6 1470.6 1099.3 1433.8 1150.4 1414.6C1159.7 1411.1 1179 1406.4 1189.5 1405.1C1194.5 1404.5 1199.6 1403.8 1201 1403.6C1205.1 1402.9 1235.3 1403.9 1236.2 1404.8Z" fill="white"/>
<path d="M965.2 1372.6C963.4 1373.6 960.7 1375.9 959.2 1377.8L956.5 1381.3L956.2 1502.7C956 1622.1 956 1624.1 958 1627.9C961.3 1634.4 965.2 1636.5 974.1 1636.5C980.8 1636.5 982.1 1636.2 985.2 1633.8C992.5 1628.2 992 1637.8 992 1504.1C992 1386.4 992 1383.8 990 1380C987 1374.1 982.7 1371.6 975 1371.2C970.4 1371 967.5 1371.4 965.2 1372.6Z" fill="white"/>
</g>
<defs>
<linearGradient id="paint0_linear_12_20" x1="0" y1="0" x2="2099.34" y2="1844.14" gradientUnits="userSpaceOnUse">
<stop stop-color="#0C4C82"/>
<stop offset="0.359375" stop-color="#1C72B9"/>
<stop offset="0.854167" stop-color="#26B6CA"/>
<stop offset="1" stop-color="#30B9C7"/>
</linearGradient>
<clipPath id="clip0_12_20">
<rect width="1980" height="1980" fill="white"/>
</clipPath>
</defs>
</svg>
