<svg width="1980" height="1980" viewBox="0 0 1980 1980" fill="none" xmlns="http://www.w3.org/2000/svg">
<g clip-path="url(#clip0_12_38)">
<path d="M1980 990C1980 443.238 1536.76 0 990 0C443.238 0 0 443.238 0 990C0 1536.76 443.238 1980 990 1980C1536.76 1980 1980 1536.76 1980 990Z" fill="url(#paint0_linear_12_38)"/>
<path d="M965 337.1C953 338.4 937 342.2 926.4 346.2C900.8 355.8 884.1 371.7 875.4 394.5C870.2 408.3 869 417.3 868 448.5C865.6 525.3 872.7 557.7 898 585.3C913.9 602.6 937.9 615.4 964.7 620.7C977.8 623.2 1002.3 623 1015.7 620.1C1052.6 612.3 1081.6 591.4 1095.5 562.7C1100.7 552 1104.5 539.3 1106.6 526C1110.2 503.8 1109.1 430.6 1105.1 414.1C1100.5 395.7 1092.7 381.1 1080.6 368.3C1065.5 352.3 1048.5 343.5 1023 338.5C1012.9 336.5 977.9 335.6 965 337.1ZM1019.5 375.4C1041.5 381.1 1057.2 392.5 1065 408.4C1071.9 422.3 1072.2 425.1 1071.8 478.5L1071.4 525.5L1068.7 533.5C1064.9 545 1059.6 553.4 1050.9 562C1042.6 570.2 1036.3 574.4 1024.3 579.5C1012.8 584.5 1002.7 586.3 987.5 586.3C971.5 586.2 959.4 583.4 946.3 576.6C926.3 566.2 915.9 553.5 909.7 532C905.8 518.8 905 507.8 904.8 464C904.5 425 904.6 423.2 906.7 414.7C908 409.9 909.9 404.2 911 401.9C917.7 388.9 933.5 379.6 957 375C971.1 372.2 971 372.2 991 372.5C1007.2 372.7 1010.8 373.1 1019.5 375.4Z" fill="white"/>
<path d="M781 625.1C769 626.4 753 630.2 742.4 634.2C716.8 643.8 700.1 659.7 691.4 682.5C686.2 696.3 685 705.3 684 736.5C681.6 813.3 688.7 845.7 714 873.3C729.9 890.6 753.9 903.4 780.7 908.7C793.8 911.2 818.3 911 831.7 908.1C868.6 900.3 897.6 879.4 911.5 850.7C916.7 840 920.5 827.3 922.6 814C926.2 791.8 925.1 718.6 921.1 702.1C916.5 683.7 908.7 669.1 896.6 656.3C881.5 640.3 864.5 631.5 839 626.5C828.9 624.5 793.9 623.6 781 625.1ZM835.5 663.4C857.5 669.1 873.2 680.5 881 696.4C887.9 710.3 888.2 713.1 887.8 766.5L887.4 813.5L884.7 821.5C880.9 833 875.6 841.4 866.9 850C858.6 858.2 852.3 862.4 840.3 867.5C828.8 872.5 818.7 874.3 803.5 874.3C787.5 874.2 775.4 871.4 762.3 864.6C742.3 854.2 731.9 841.5 725.7 820C721.8 806.8 721 795.8 720.8 752C720.5 713 720.6 711.2 722.7 702.7C724 697.9 725.9 692.2 727 689.9C733.7 676.9 749.5 667.6 773 663C787.1 660.2 787 660.2 807 660.5C823.2 660.7 826.8 661.1 835.5 663.4Z" fill="white"/>
<path d="M1149 625.1C1137 626.4 1121 630.2 1110.4 634.2C1084.8 643.8 1068.1 659.7 1059.4 682.5C1054.2 696.3 1053 705.3 1052 736.5C1049.6 813.3 1056.7 845.7 1082 873.3C1097.9 890.6 1121.9 903.4 1148.7 908.7C1161.8 911.2 1186.3 911 1199.7 908.1C1236.6 900.3 1265.6 879.4 1279.5 850.7C1284.7 840 1288.5 827.3 1290.6 814C1294.2 791.8 1293.1 718.6 1289.1 702.1C1284.5 683.7 1276.7 669.1 1264.6 656.3C1249.5 640.3 1232.5 631.5 1207 626.5C1196.9 624.5 1161.9 623.6 1149 625.1ZM1203.5 663.4C1225.5 669.1 1241.2 680.5 1249 696.4C1255.9 710.3 1256.2 713.1 1255.8 766.5L1255.4 813.5L1252.7 821.5C1248.9 833 1243.6 841.4 1234.9 850C1226.6 858.2 1220.3 862.4 1208.3 867.5C1196.8 872.5 1186.7 874.3 1171.5 874.3C1155.5 874.2 1143.4 871.4 1130.3 864.6C1110.3 854.2 1099.9 841.5 1093.7 820C1089.8 806.8 1089 795.8 1088.8 752C1088.5 713 1088.6 711.2 1090.7 702.7C1092 697.9 1093.9 692.2 1095 689.9C1101.7 676.9 1117.5 667.6 1141 663C1155.1 660.2 1155 660.2 1175 660.5C1191.2 660.7 1194.8 661.1 1203.5 663.4Z" fill="white"/>
<path d="M589 913.1C577 914.4 561 918.2 550.4 922.2C524.8 931.8 508.1 947.7 499.4 970.5C494.2 984.3 493 993.3 492 1024.5C489.6 1101.3 496.7 1133.7 522 1161.3C537.9 1178.6 561.9 1191.4 588.7 1196.7C601.8 1199.2 626.3 1199 639.7 1196.1C676.6 1188.3 705.6 1167.4 719.5 1138.7C724.7 1128 728.5 1115.3 730.6 1102C734.2 1079.8 733.1 1006.6 729.1 990.1C724.5 971.7 716.7 957.1 704.6 944.3C689.5 928.3 672.5 919.5 647 914.5C636.9 912.5 601.9 911.6 589 913.1ZM643.5 951.4C665.5 957.1 681.2 968.5 689 984.4C695.9 998.3 696.2 1001.1 695.8 1054.5L695.4 1101.5L692.7 1109.5C688.9 1121 683.6 1129.4 674.9 1138C666.6 1146.2 660.3 1150.4 648.3 1155.5C636.8 1160.5 626.7 1162.3 611.5 1162.3C595.5 1162.2 583.4 1159.4 570.3 1152.6C550.3 1142.2 539.9 1129.5 533.7 1108C529.8 1094.8 529 1083.8 528.8 1040C528.5 1001 528.6 999.2 530.7 990.7C532 985.9 533.9 980.2 535 977.9C541.7 964.9 557.5 955.6 581 951C595.1 948.2 595 948.2 615 948.5C631.2 948.7 634.8 949.1 643.5 951.4Z" fill="white"/>
<path d="M965 913.1C953 914.4 937 918.2 926.4 922.2C900.8 931.8 884.1 947.7 875.4 970.5C870.2 984.3 869 993.3 868 1024.5C865.6 1101.3 872.7 1133.7 898 1161.3C913.9 1178.6 937.9 1191.4 964.7 1196.7C977.8 1199.2 1002.3 1199 1015.7 1196.1C1052.6 1188.3 1081.6 1167.4 1095.5 1138.7C1100.7 1128 1104.5 1115.3 1106.6 1102C1110.2 1079.8 1109.1 1006.6 1105.1 990.1C1100.5 971.7 1092.7 957.1 1080.6 944.3C1065.5 928.3 1048.5 919.5 1023 914.5C1012.9 912.5 977.9 911.6 965 913.1ZM1019.5 951.4C1041.5 957.1 1057.2 968.5 1065 984.4C1071.9 998.3 1072.2 1001.1 1071.8 1054.5L1071.4 1101.5L1068.7 1109.5C1064.9 1121 1059.6 1129.4 1050.9 1138C1042.6 1146.2 1036.3 1150.4 1024.3 1155.5C1012.8 1160.5 1002.7 1162.3 987.5 1162.3C971.5 1162.2 959.4 1159.4 946.3 1152.6C926.3 1142.2 915.9 1129.5 909.7 1108C905.8 1094.8 905 1083.8 904.8 1040C904.5 1001 904.6 999.2 906.7 990.7C908 985.9 909.9 980.2 911 977.9C917.7 964.9 933.5 955.6 957 951C971.1 948.2 971 948.2 991 948.5C1007.2 948.7 1010.8 949.1 1019.5 951.4Z" fill="white"/>
<path d="M1337 913.1C1325 914.4 1309 918.2 1298.4 922.2C1272.8 931.8 1256.1 947.7 1247.4 970.5C1242.2 984.4 1241 993.2 1240 1025C1237.6 1101.4 1244.7 1133.7 1270 1161.3C1285.9 1178.6 1309.9 1191.4 1336.7 1196.7C1349.8 1199.2 1374.3 1199 1387.7 1196.1C1424.6 1188.3 1453.6 1167.4 1467.5 1138.7C1472.7 1128 1476.5 1115.3 1478.6 1102C1482.2 1079.8 1481.1 1006.6 1477.1 990.1C1472.5 971.7 1464.7 957.1 1452.6 944.3C1437.5 928.3 1420.5 919.5 1395 914.5C1384.9 912.5 1349.9 911.6 1337 913.1ZM1391.5 951.4C1413.5 957.1 1429.2 968.5 1437 984.4C1443.9 998.3 1444.2 1001.1 1443.8 1054.5L1443.4 1101.5L1440.7 1109.5C1436.9 1121 1431.6 1129.4 1422.9 1138C1414.6 1146.2 1408.3 1150.4 1396.3 1155.5C1384.8 1160.5 1374.7 1162.3 1359.5 1162.3C1343.5 1162.2 1331.4 1159.4 1318.3 1152.6C1298.3 1142.2 1287.9 1129.5 1281.7 1108C1277.8 1094.8 1277 1083.8 1276.8 1040C1276.5 1001 1276.6 999.2 1278.7 990.7C1280 985.9 1281.9 980.2 1283 977.9C1289.7 964.9 1305.5 955.6 1329 951C1343.1 948.2 1343 948.2 1363 948.5C1379.2 948.7 1382.8 949.1 1391.5 951.4Z" fill="white"/>
<path d="M1277.5 1244.1C1268.7 1245.1 1259.9 1246.4 1258 1246.9C1250.1 1249.2 1244.3 1258.7 1245.2 1268.1C1245.8 1274 1248.2 1277.7 1253.2 1280.5C1256.6 1282.3 1257.4 1282.3 1270.1 1281.1C1277.5 1280.4 1283.9 1279.7 1284.4 1279.7C1284.9 1279.6 1298.9 1322 1315.5 1373.8C1332.1 1425.7 1346.6 1469.4 1347.7 1470.8C1350.5 1474.5 1356.6 1477.4 1362 1477.4C1367.3 1477.4 1374.1 1474 1376.7 1470.1C1377.6 1468.7 1392.9 1425 1410.6 1373L1442.7 1278.5L1448.6 1278.8C1468.2 1279.8 1494.3 1284.7 1511.3 1290.7C1548.6 1303.6 1567.8 1323.5 1572 1353.5C1572.6 1357.9 1572.7 1389.7 1572.3 1438L1571.7 1515.5L1573.8 1519.7C1577.3 1526.4 1581.1 1528.5 1590.1 1528.5C1596.8 1528.5 1598.1 1528.2 1601.2 1525.8C1608.5 1520.2 1608.1 1525.8 1607.7 1431.3C1607.4 1347.6 1607.4 1346.4 1605.2 1338.2C1600.1 1319.1 1591.5 1304.6 1576.8 1290.5C1553.3 1267.7 1520.9 1253.6 1475 1246.1C1460.2 1243.7 1443.2 1242 1433.5 1242C1424.6 1242 1419 1244.4 1415.6 1249.7C1414.3 1251.8 1401.9 1286.8 1388.1 1327.4C1374.2 1368.1 1362.8 1401.5 1362.6 1401.7C1362.5 1401.9 1351.6 1368.4 1338.4 1327.3C1321.7 1275.2 1313.7 1251.5 1311.9 1249C1308.6 1244.4 1303.5 1242 1297.8 1242.1C1295.5 1242.2 1286.3 1243.1 1277.5 1244.1Z" fill="white"/>
<path d="M519.5 1245.1C461.3 1250.2 411.1 1272.4 388.6 1303C376.5 1319.4 370.2 1339.3 368.1 1367C367.7 1373.3 367.5 1410 367.8 1448.5C368.2 1514.1 368.4 1518.7 370.1 1522.2C373.3 1528.4 377.3 1530.5 386.1 1530.5C392.8 1530.5 394.1 1530.2 397.2 1527.8C399.1 1526.3 401.5 1523.4 402.5 1521.3C404.2 1517.7 404.3 1513.4 403.7 1440C403.3 1391.7 403.4 1359.9 404 1355.5C408.2 1325.5 427.4 1305.6 464.7 1292.7C481.7 1286.7 507.8 1281.8 527.4 1280.8L533.3 1280.5L565.4 1375C583.1 1427 598.4 1470.7 599.3 1472.1C601.9 1476 608.7 1479.4 614 1479.4C619.4 1479.4 625.5 1476.5 628.3 1472.8C629.4 1471.4 643.7 1428.2 660.1 1376.8C676.5 1325.5 690.2 1283 690.4 1282.5C690.6 1281.8 695.4 1281.9 705 1282.9C718.7 1284.3 719.4 1284.3 722.8 1282.4C728 1279.6 730.3 1275.9 730.8 1269.6C731.2 1265 730.8 1263.1 728.6 1258.8C724.4 1250.1 722.2 1249.1 699.2 1246.3C688.4 1245 677.6 1244.1 675.3 1244.3C670.4 1244.8 665.9 1247.8 663.2 1252.3C662.1 1254 650.7 1288.1 638 1328C625.2 1367.9 614.4 1401.2 614 1402C613.2 1403.3 613.1 1403.3 612.6 1402C612.3 1401.2 601 1367.9 587.4 1328C573.9 1288.1 561.7 1253.8 560.4 1251.7C555.5 1244.1 547 1242.8 519.5 1245.1Z" fill="white"/>
<path d="M895.5 1251.1C837.3 1256.2 787.1 1278.4 764.6 1309C752.5 1325.4 746.2 1345.3 744.1 1373C743.7 1379.3 743.5 1416 743.8 1454.5C744.2 1520.1 744.4 1524.7 746.1 1528.2C749.3 1534.4 753.3 1536.5 762.1 1536.5C768.8 1536.5 770.1 1536.2 773.2 1533.8C775.1 1532.3 777.5 1529.4 778.5 1527.3C780.2 1523.7 780.3 1519.4 779.7 1446C779.3 1397.7 779.4 1365.9 780 1361.5C784.2 1331.5 803.4 1311.6 840.7 1298.7C857.7 1292.7 883.8 1287.8 903.4 1286.8L909.3 1286.5L941.4 1381C959.1 1433 974.4 1476.8 975.5 1478.3C978 1482.2 984.5 1485.3 990 1485.3C995.5 1485.3 1002 1482.2 1004.5 1478.3C1005.6 1476.8 1020.9 1433 1038.6 1381L1070.7 1286.5L1076.6 1286.8C1096.2 1287.8 1122.3 1292.7 1139.3 1298.7C1176.6 1311.6 1195.8 1331.5 1200 1361.5C1200.6 1365.9 1200.7 1397.7 1200.3 1446L1199.7 1523.5L1201.8 1527.7C1205.3 1534.4 1209.1 1536.5 1218.1 1536.5C1224.8 1536.5 1226.1 1536.2 1229.2 1533.8C1236.5 1528.2 1236.1 1533.8 1235.7 1439.3C1235.4 1355.6 1235.4 1354.4 1233.2 1346.2C1228.1 1327.1 1219.5 1312.6 1204.8 1298.5C1181.3 1275.7 1148.9 1261.6 1103 1254.1C1088.2 1251.7 1071.2 1250 1061.5 1250C1052.6 1250 1047 1252.4 1043.6 1257.7C1042.3 1259.8 1029.9 1294.8 1016.1 1335.4C1002.2 1376.1 990.7 1409.6 990.5 1409.9C990.2 1410.1 989.8 1410.1 989.5 1409.9C989.3 1409.6 977.8 1376.1 963.9 1335.4C950.1 1294.8 937.7 1259.8 936.4 1257.7C931.5 1250.1 923 1248.8 895.5 1251.1Z" fill="white"/>
</g>
<defs>
<linearGradient id="paint0_linear_12_38" x1="0" y1="0" x2="2099.34" y2="1844.14" gradientUnits="userSpaceOnUse">
<stop stop-color="#0C4C82"/>
<stop offset="0.359375" stop-color="#1C72B9"/>
<stop offset="0.854167" stop-color="#26B6CA"/>
<stop offset="1" stop-color="#30B9C7"/>
</linearGradient>
<clipPath id="clip0_12_38">
<rect width="1980" height="1980" fill="white"/>
</clipPath>
</defs>
</svg>
