<svg width="1980" height="1980" viewBox="0 0 1980 1980" fill="none" xmlns="http://www.w3.org/2000/svg">
<g clip-path="url(#clip0_12_49)">
<path d="M1980 990C1980 443.238 1536.76 0 990 0C443.238 0 0 443.238 0 990C0 1536.76 443.238 1980 990 1980C1536.76 1980 1980 1536.76 1980 990Z" fill="url(#paint0_linear_12_49)"/>
<path d="M980.414 410.589C957.814 414.089 937.014 429.589 926.214 450.989C922.214 458.789 912.114 490.689 896.914 542.989C885.614 581.989 840.314 732.789 839.014 736.089L838.114 738.189L715.714 737.689C583.814 737.289 562.514 737.789 550.414 741.489C523.914 749.789 503.314 770.289 494.914 796.989C491.514 807.689 491.014 826.389 493.814 837.389C496.514 848.289 501.714 858.589 508.514 866.889C517.214 877.389 539.614 895.289 588.414 930.489C607.614 944.389 736.014 1039.69 739.214 1042.59C739.714 1042.99 722.414 1101.89 700.914 1173.59C679.314 1245.29 660.814 1307.79 659.714 1312.49C656.714 1325.29 657.514 1341.89 661.614 1353.79C669.914 1377.59 688.014 1395.29 711.914 1402.69C718.014 1404.59 721.614 1404.99 731.414 1404.99C754.114 1404.89 769.514 1398.29 804.414 1373.59C812.614 1367.79 847.514 1343.59 881.814 1319.89C928.414 1287.89 944.914 1275.99 946.314 1273.49C952.314 1263.19 943.814 1248.29 932.814 1249.79C929.814 1250.19 914.014 1260.59 861.714 1296.59C824.714 1321.99 786.514 1348.39 776.814 1355.19C757.414 1368.69 749.314 1372.99 739.914 1374.69C727.214 1377.09 712.614 1372.29 702.814 1362.59C688.914 1348.59 685.614 1330.29 692.914 1306.99C710.814 1249.79 772.914 1040.29 772.914 1037.19C772.914 1034.89 772.014 1031.79 770.814 1029.89C769.514 1027.69 731.314 998.589 656.614 942.789C584.114 888.689 541.914 856.489 537.314 851.889C527.414 841.989 522.914 832.889 522.214 821.189C521.514 811.289 522.814 804.589 527.114 795.789C531.114 787.589 540.714 778.389 549.214 774.489C563.014 768.289 556.814 768.489 712.714 768.489H854.614L857.914 766.189C859.814 764.989 862.114 762.589 863.014 760.989C863.914 759.289 883.614 695.189 906.814 618.489C929.914 541.789 949.714 476.389 950.814 473.189C956.014 458.189 963.114 449.189 973.714 444.189C979.814 441.289 981.314 440.989 990.414 440.989C999.114 440.989 1001.11 441.289 1006.11 443.689C1013.01 446.889 1020.11 453.289 1024.61 460.289C1029.11 467.189 1034.11 482.589 1065.81 585.489C1109.41 726.889 1119.51 759.289 1121.31 761.889C1122.21 763.289 1124.11 765.289 1125.61 766.189C1128.11 767.889 1136.91 767.989 1271.41 768.489L1414.41 768.989L1421.91 771.289C1432.41 774.589 1438.51 778.089 1445.01 784.689C1453.81 793.389 1459.91 808.089 1459.91 819.989C1459.81 832.689 1453.41 847.789 1444.01 857.289C1436.61 864.689 1413.31 882.689 1371.41 913.289C1303.31 962.989 1218.41 1027.09 1216.71 1030.19C1215.71 1031.89 1214.91 1035.09 1214.91 1037.19C1214.91 1039.39 1226.91 1082.19 1242.01 1133.59C1295.11 1315.29 1297.01 1321.99 1297.61 1332.09C1299.11 1357.79 1285.71 1375.59 1262.01 1379.39C1250.31 1381.29 1238.51 1376.99 1220.91 1364.59C1215.71 1360.89 1152.81 1317.39 1081.11 1268.09C978.314 1197.19 950.014 1178.19 947.014 1177.79C936.014 1176.29 927.514 1191.19 933.514 1201.49C935.014 1204.09 968.614 1227.79 1072.81 1299.59C1148.31 1351.59 1213.71 1396.39 1218.01 1398.99C1239.81 1412.19 1264.11 1413.99 1285.71 1403.89C1305.41 1394.79 1319.51 1379.29 1326.61 1358.99C1329.11 1351.79 1329.31 1349.69 1329.31 1337.49C1329.31 1322.79 1328.61 1319.39 1320.91 1294.49C1316.21 1279.49 1247.91 1044.59 1247.91 1043.69C1247.91 1043.29 1263.71 1031.29 1283.11 1016.99C1370.91 951.989 1457.91 886.289 1463.51 880.789C1478.71 865.789 1487.41 846.389 1488.61 824.489C1490.91 782.989 1465.51 748.589 1426.71 740.389C1417.71 738.489 1412.81 738.489 1281.41 738.489L1145.41 738.589L1117.51 647.789C1054.71 443.289 1055.71 446.289 1040.11 430.489C1033.01 423.389 1029.81 420.989 1022.91 417.689C1018.21 415.389 1011.81 412.889 1008.61 412.089C1000.91 410.089 987.814 409.389 980.414 410.589Z" fill="white"/>
</g>
<defs>
<linearGradient id="paint0_linear_12_49" x1="0" y1="0" x2="2099.34" y2="1844.14" gradientUnits="userSpaceOnUse">
<stop stop-color="#0C4C82"/>
<stop offset="0.359375" stop-color="#1C72B9"/>
<stop offset="0.854167" stop-color="#26B6CA"/>
<stop offset="1" stop-color="#30B9C7"/>
</linearGradient>
<clipPath id="clip0_12_49">
<rect width="1980" height="1980" fill="white"/>
</clipPath>
</defs>
</svg>
