<svg width="1980" height="1980" viewBox="0 0 1980 1980" fill="none" xmlns="http://www.w3.org/2000/svg">
<g clip-path="url(#clip0_12_52)">
<path d="M1980 990C1980 443.238 1536.76 0 990 0C443.238 0 0 443.238 0 990C0 1536.76 443.238 1980 990 1980C1536.76 1980 1980 1536.76 1980 990Z" fill="url(#paint0_linear_12_52)"/>
<path d="M1071.5 417.351C1048.5 419.851 1027.5 438.651 1022 461.851C1021.2 465.251 1020.6 487.951 1020 532.851C1019.2 603.551 1018.8 609.051 1013.4 633.251C994.3 718.751 929.6 790.251 846.7 817.451C829.7 823.051 827.7 824.051 825 828.651C821.2 834.851 823.8 845.451 830.2 849.351C834.7 852.051 839.9 851.851 851.1 848.551C906.5 831.751 959 794.351 995.5 745.851C1022.3 710.151 1037.4 674.551 1044.5 630.051C1048.4 605.951 1049.1 592.051 1050 532.351C1050.9 467.551 1051.1 465.251 1056.8 456.851C1066.1 443.151 1089.2 445.851 1117 463.851C1135.5 475.751 1146.5 490.251 1152.3 510.351C1157.3 527.651 1157.4 527.951 1157.4 638.051L1157.5 741.251L1160.5 744.251C1166.3 750.451 1176.5 750.651 1182.9 744.851L1186.5 741.551L1187.1 656.651C1187.4 610.051 1188 568.651 1188.4 564.851C1189.4 556.051 1187.6 525.551 1185.5 514.351C1180.7 489.051 1172.3 472.851 1154.4 454.351C1129.5 428.651 1097.9 414.551 1071.5 417.351Z" fill="white"/>
<path d="M1101.5 728.751C1099.8 729.451 1097.1 731.651 1095.6 733.451L1092.7 736.851L1093.3 748.351C1094.9 780.051 1108.4 805.351 1129.4 816.051C1140.2 821.551 1135.8 821.351 1253.5 821.151C1416.9 820.751 1408.5 820.651 1416 822.751C1444.7 830.651 1464 862.151 1456.1 888.151C1453.8 895.851 1448.7 903.451 1442.5 908.351C1435.2 914.151 1430.6 915.851 1413.6 918.851C1398.8 921.551 1392.3 925.851 1390 934.451C1388.6 939.651 1389.9 943.951 1394.3 948.051C1398.6 952.151 1400.3 952.951 1412.3 956.451C1430.8 961.951 1443.7 969.951 1451.7 980.651C1468.3 1003.15 1458.6 1034.05 1430.9 1047.35C1418.5 1053.25 1409 1055.35 1392.1 1056.05C1378.8 1056.65 1377.6 1056.85 1374.9 1059.15C1370.8 1062.55 1369 1066.45 1369 1071.95C1369 1078.55 1371.8 1082.45 1379.6 1086.85C1412.7 1105.35 1427.5 1125.15 1422.6 1144.35C1421.7 1147.65 1420.2 1152.05 1419.1 1154.15C1413.9 1164.45 1402.2 1175.05 1390.2 1180.55C1378.7 1185.75 1373.7 1186.55 1344.2 1187.25L1316.8 1187.85L1313.5 1191.45C1307.7 1197.85 1307.9 1208.05 1314 1213.85L1317.1 1216.85L1336.5 1217.15L1355.9 1217.45L1357 1222.65C1359.1 1231.95 1359.4 1252.05 1357.6 1259.65C1354.6 1272.55 1349 1280.15 1339.5 1284.55L1334.5 1286.85L1191 1287.15C1036.4 1287.45 1031.1 1287.35 1011.6 1282.45C993.9 1277.95 986.1 1274.75 959.4 1261.25C922.4 1242.55 898.9 1234.05 866.2 1227.45C844.2 1222.95 840 1222.65 834.8 1225.25C829.5 1227.85 825.9 1232.85 825.3 1238.85C824.6 1244.15 826.3 1248.65 829.6 1250.85C831 1251.75 837.5 1253.35 844.2 1254.45C868.1 1258.35 892.8 1265.15 914.2 1273.95C920 1276.25 935.8 1283.85 949.2 1290.65C976 1304.35 992.7 1310.55 1013 1314.45C1024.5 1316.75 1024.7 1316.75 1175 1317.35C1265 1317.75 1328.5 1317.65 1333 1317.15C1362.1 1313.55 1381 1295.65 1387.1 1265.85C1388.9 1257.15 1389.1 1253.55 1388.6 1238.35C1388.3 1228.75 1387.7 1219.25 1387.3 1217.45L1386.4 1213.95L1395.5 1210.95C1418.6 1203.15 1437.3 1186.65 1447.5 1165.25C1459.6 1139.75 1454.5 1112.25 1433.4 1089.55C1429.8 1085.55 1426.9 1082.15 1427.1 1081.95C1427.3 1081.85 1430.9 1080.45 1435.1 1078.95C1452.2 1072.85 1471.2 1057.55 1479.8 1042.85C1490.6 1024.45 1493.3 1001.25 1487 982.751C1482.2 968.851 1468.1 951.651 1454.7 943.351C1451.6 941.451 1449.1 939.651 1449.1 939.351C1449.1 939.051 1451.6 937.351 1454.6 935.451C1468.4 927.151 1480.8 911.651 1485.6 896.951C1487.9 890.051 1488.3 887.051 1488.3 876.851C1488.4 863.851 1487 856.851 1482.3 845.351C1471 817.951 1447.1 798.351 1418.2 792.751C1412.1 791.551 1388.6 791.351 1281.4 791.351C1153.8 791.351 1152 791.351 1146.6 789.351C1132.3 783.951 1125.3 770.951 1123.4 746.651C1122.6 735.651 1120.8 732.051 1114.7 729.351C1109.8 727.051 1105.7 726.951 1101.5 728.751Z" fill="white"/>
<path d="M496.2 793.351C494.4 794.451 492.1 796.751 491 798.551C489 801.851 489 804.151 489 1054.35C489 1304.55 489 1306.85 491 1310.15C492.1 1311.95 494.4 1314.25 496.2 1315.35C499.5 1317.35 501.2 1317.35 637.2 1317.15L775 1316.85L778.7 1313.05L782.5 1309.35L782.7 1055.55C783 803.751 783 801.851 781 798.551C779.9 796.751 777.6 794.451 775.8 793.351C772.5 791.351 770.4 791.351 636 791.351C501.6 791.351 499.5 791.351 496.2 793.351ZM753 1054.35V1287.35H636H519V1054.35V821.351H636H753V1054.35Z" fill="white"/>
<path d="M625.6 1169.75C617.8 1172.65 609 1182.05 606.9 1189.65C605.4 1195.15 606.2 1206.95 608.4 1211.15C611 1216.15 616.8 1222.15 621.9 1225.15C626 1227.55 627.5 1227.85 636 1227.85C644.5 1227.85 646 1227.55 650.1 1225.15C655.2 1222.15 660.9 1216.25 663.7 1211.15C665.1 1208.65 665.5 1205.65 665.5 1198.35C665.5 1187.75 664.6 1185.25 658.3 1178.25C652.1 1171.45 646.9 1169.05 637.6 1168.65C632.3 1168.45 628.2 1168.85 625.6 1169.75Z" fill="white"/>
</g>
<defs>
<linearGradient id="paint0_linear_12_52" x1="0" y1="0" x2="2099.34" y2="1844.14" gradientUnits="userSpaceOnUse">
<stop stop-color="#0C4C82"/>
<stop offset="0.359375" stop-color="#1C72B9"/>
<stop offset="0.854167" stop-color="#26B6CA"/>
<stop offset="1" stop-color="#30B9C7"/>
</linearGradient>
<clipPath id="clip0_12_52">
<rect width="1980" height="1980" fill="white"/>
</clipPath>
</defs>
</svg>
