<svg width="200" height="200" viewBox="0 0 200 200" fill="none" xmlns="http://www.w3.org/2000/svg">
<path d="M99.3939 15.3344C98.4688 15.6561 88.1323 19.8591 86.7246 20.4825C86.4029 20.6233 84.6332 21.3472 82.8032 22.0913C80.9732 22.8354 79.2035 23.5593 78.8818 23.7001C78.5399 23.861 77.0116 24.4844 75.4631 25.1078C73.9146 25.7312 72.3863 26.3546 72.0444 26.5155C71.7227 26.6562 69.953 27.3802 68.123 28.1243C66.293 28.8683 64.5434 29.5923 64.2016 29.733C63.8798 29.8738 63.0955 30.1956 62.4922 30.4369C61.8889 30.6581 61.1247 30.9799 60.7829 31.1407C60.4611 31.2815 59.6768 31.6033 59.0735 31.8446C58.4702 32.0658 57.7061 32.3875 57.3642 32.5484C57.0424 32.6892 55.2728 33.4132 53.4428 34.1572C51.6128 34.8812 49.8632 35.6052 49.5213 35.7661C49.1996 35.9068 48.4153 36.2286 47.812 36.4699C47.2087 36.6911 46.4445 37.0129 46.1027 37.1536C45.7809 37.3145 44.7754 37.7167 43.8906 38.0787C43.0057 38.4407 42.0002 38.8429 41.6785 38.9836C41.3366 39.1445 39.8083 39.7679 38.2598 40.3913C36.7113 41.0147 35.183 41.6382 34.8411 41.799C34.5194 41.9398 33.7351 42.2616 33.1318 42.5029C32.5285 42.7241 31.7643 43.0458 31.4224 43.1866C31.1007 43.3475 30.0952 43.7497 29.2104 44.1117C28.3255 44.4736 27.3401 44.8758 26.9983 45.0166C26.6765 45.1574 25.1281 45.8009 23.5796 46.4243C22.0311 47.0477 20.5028 47.6711 20.1609 47.832C19.8392 47.9728 19.0549 48.2945 18.4516 48.5358C17.8483 48.7571 17.0841 49.0788 16.7422 49.2397C16.4205 49.3805 15.415 49.7827 14.5301 50.1446C13.6453 50.4865 12.5393 50.949 12.0767 51.1501C11.5941 51.3713 11.1316 51.5523 11.031 51.5523C10.5886 51.5523 9.62333 52.6383 9.3418 53.4225C9.06026 54.2672 9.10048 54.5085 9.66355 55.7352C9.90487 56.258 10.7093 56.7608 12.117 57.2836C12.68 57.4847 13.223 57.7059 13.3236 57.7864C13.4442 57.8668 14.0676 58.1283 14.7312 58.3897C15.3949 58.6511 16.2998 59.0131 16.7422 59.1941C17.1847 59.3952 18.2706 59.8376 19.1554 60.1996C20.0403 60.5616 21.0457 60.9637 21.3675 61.1045C21.7094 61.2453 22.4735 61.567 23.0768 61.8084C23.6801 62.0497 24.4644 62.3714 24.7862 62.5122C25.1281 62.6731 25.8922 62.9747 26.4955 63.2161C27.0988 63.4373 27.8831 63.759 28.2049 63.9199C28.5467 64.0607 29.3109 64.3824 29.9142 64.6237C30.5175 64.845 31.3018 65.1667 31.6235 65.3276C31.9654 65.4684 32.9508 65.8706 33.8356 66.2325C34.7205 66.5744 35.726 66.9766 36.0477 67.1375C36.3896 67.2783 37.1538 67.6 37.7571 67.8413C38.3604 68.0625 39.1446 68.3843 39.4664 68.5452C39.8083 68.6859 40.5724 69.0077 41.1757 69.2289C42.322 69.6713 42.4427 69.7317 44.0313 70.4355C44.5542 70.6768 45.057 70.8578 45.1173 70.8578C45.1776 70.8578 45.5396 70.9986 45.9217 71.1595C47.5908 71.9035 47.9729 72.0644 49.0186 72.4666C49.6219 72.6878 50.4062 73.0096 50.7279 73.1704C51.0698 73.3112 51.834 73.633 52.4373 73.8743C53.0406 74.0955 53.8249 74.4173 54.1466 74.5781C54.4885 74.7189 55.2527 75.0407 55.856 75.2619C56.4593 75.5032 57.143 75.7646 57.3642 75.8652C58.4099 76.3277 59.2746 76.6897 60.2801 77.0919C60.8834 77.3332 61.6677 77.655 61.9895 77.7957C62.3313 77.9566 63.0955 78.2582 63.6988 78.4996C64.3021 78.7208 65.0864 79.0425 65.4082 79.2034C65.75 79.3442 66.5142 79.6659 67.1175 79.8871C67.7208 80.1285 68.4045 80.3899 68.6257 80.4904C68.8469 80.591 69.4301 80.8524 69.9329 81.0736C70.4356 81.2948 71.059 81.5362 71.3406 81.6166C71.6221 81.697 72.3058 81.9786 72.8488 82.24C73.4119 82.4813 74.357 82.8835 74.9603 83.1248C75.5636 83.346 76.3479 83.6678 76.6697 83.8287C77.0116 83.9695 77.7757 84.2912 78.379 84.5124C79.5253 84.9548 79.646 85.0152 81.2346 85.719C81.7575 85.9603 82.2602 86.1413 82.3206 86.1413C82.4412 86.1413 82.6222 86.2218 84.6131 87.1066C85.1158 87.3077 85.7392 87.5691 86.0208 87.6496C86.3023 87.73 86.9861 88.0115 87.529 88.273C88.0921 88.5143 89.0373 88.9165 89.6406 89.1578C90.2439 89.379 91.0281 89.7008 91.3499 89.8616C91.6918 90.0024 92.4559 90.3242 93.0592 90.5454C94.2055 90.9878 94.3262 91.0481 95.9148 91.752C96.4377 91.9933 96.9405 92.1743 97.0008 92.1743C97.1214 92.1743 98.147 92.5966 99.052 93.039C99.6553 93.3407 101.546 93.3407 102.149 93.039C103.054 92.5966 104.079 92.1743 104.2 92.1743C104.26 92.1743 104.763 91.9732 105.286 91.752C107.136 90.9275 107.498 90.7666 107.619 90.7666C107.679 90.7666 108.122 90.6057 108.604 90.3845C110.877 89.379 111.299 89.198 111.761 89.0573C112.043 88.9768 112.807 88.6551 113.471 88.3534C114.134 88.0518 114.899 87.73 115.18 87.6496C115.462 87.5691 116.085 87.3077 116.588 87.1066C118.579 86.2218 118.76 86.1413 118.88 86.1413C118.941 86.1413 119.403 85.9603 119.906 85.7391C120.409 85.5179 121.213 85.1559 121.716 84.9347C122.219 84.7135 122.681 84.5325 122.741 84.5325C122.862 84.5325 123.224 84.3717 125.074 83.5471C125.597 83.3259 126.1 83.1248 126.16 83.1248C126.22 83.1248 126.582 82.9841 126.965 82.8232C127.347 82.6623 127.97 82.3808 128.352 82.2199C128.734 82.0389 129.418 81.7775 129.86 81.6166C130.303 81.4557 130.966 81.1943 131.328 81.0334C131.67 80.8725 132.575 80.4703 133.319 80.1486C134.687 79.5252 135.069 79.1029 135.37 77.856C135.551 77.112 134.968 75.7847 134.264 75.2619C133.259 74.558 132.555 74.5781 130.363 75.3825C129.257 75.8048 128.272 76.207 128.151 76.2674C128.05 76.3478 127.507 76.5891 126.944 76.7902C126.401 76.9913 125.577 77.3131 125.135 77.5142C124.39 77.8359 103.195 86.5234 101.385 87.2474L100.58 87.5691L89.721 83.1047C83.7685 80.6714 78.6203 78.5398 78.2785 78.3789C77.9567 78.2381 77.1724 77.9164 76.5691 77.6952C75.9658 77.4539 75.2017 77.1321 74.8598 76.9913C74.538 76.8304 73.7538 76.5087 73.1505 76.2875C72.5472 76.0462 71.783 75.7244 71.4411 75.5836C71.1194 75.4228 70.3351 75.101 69.7318 74.8798C69.1285 74.6385 68.304 74.3167 67.9219 74.1357C67.5398 73.9748 67.0371 73.7536 66.8158 73.6531C66.5946 73.5525 65.931 73.2911 65.3277 73.0699C64.7244 72.8286 63.8396 72.4666 63.3771 72.2454C62.8944 72.0443 62.4721 71.8633 62.3917 71.8633C62.3313 71.8633 61.8487 71.6823 61.3258 71.441C59.7372 70.7371 59.6165 70.6768 58.4702 70.2545C57.8669 70.0132 56.9218 69.611 56.3587 69.3697C55.8157 69.1083 55.132 68.8267 54.8505 68.7463C54.5689 68.6658 53.9455 68.4245 53.4428 68.2033C52.94 67.9821 52.3568 67.7207 52.1356 67.6201C51.9144 67.5196 51.2508 67.2581 50.6475 67.0369C50.0442 66.7956 49.1594 66.4336 48.6968 66.2124C48.2142 66.0113 47.7919 65.8303 47.7115 65.8303C47.6511 65.8303 47.1685 65.6292 46.6456 65.408C44.8961 64.6237 44.4939 64.4629 43.2873 64.0003C42.6237 63.759 42.0002 63.4976 41.8796 63.4172C41.779 63.3367 40.9948 63.015 40.1702 62.7133C39.3457 62.4117 38.5816 62.0899 38.4609 62.0095C38.3604 61.929 37.5761 61.6073 36.7516 61.3056C35.9271 60.9839 34.6802 60.4811 33.9764 60.1594C33.2927 59.8577 32.6693 59.5963 32.6089 59.5963C32.4883 59.5963 32.2671 59.4957 30.5175 58.7316C30.1354 58.5506 29.2707 58.2288 28.6071 57.9674C27.9434 57.7261 27.32 57.4646 27.1994 57.3842C27.0988 57.3038 26.4553 57.0423 25.7917 56.7809C25.1281 56.5195 24.1427 56.1173 23.5796 55.8759C23.0366 55.6346 22.011 55.2123 21.3072 54.971C20.4827 54.6694 20.0604 54.4079 20.1006 54.2269C20.1408 54.0459 28.8283 50.3859 41.6785 45.0971C53.5232 40.2506 63.3771 36.1884 63.5983 36.0677C63.8195 35.9672 64.5032 35.6856 65.1065 35.4443C65.7098 35.2231 66.4941 34.9013 66.8158 34.7605C67.1577 34.5996 67.9219 34.2779 68.5252 34.0567C69.1285 33.8153 69.9128 33.5137 70.2345 33.3528C70.5764 33.2121 71.3406 32.8903 71.9439 32.649C73.0901 32.1864 73.8543 31.8647 75.0408 31.3418C75.4229 31.181 75.7849 31.0402 75.8452 31.0402C75.9055 31.0402 76.4083 30.8592 76.9311 30.6179C78.5198 29.914 78.6405 29.8537 79.7867 29.4113C80.39 29.1901 81.1743 28.8683 81.4961 28.7275C81.8379 28.5667 82.6021 28.2449 83.2054 28.0237C83.8087 27.7824 84.7539 27.3802 85.3169 27.1389C85.8599 26.8774 86.5436 26.5959 86.8252 26.5155C87.1067 26.435 87.7301 26.1736 88.2329 25.9725C90.2237 25.0877 90.4047 25.0072 90.5254 25.0072C90.5857 25.0072 91.0885 24.8061 91.6113 24.5849C92.7978 24.0419 93.4614 23.7805 94.9697 23.1973C95.6333 22.9359 96.2768 22.6745 96.3774 22.594C96.498 22.5136 97.2622 22.1918 98.0867 21.8902C98.9112 21.5885 99.6754 21.2467 99.7759 21.1662C99.8966 21.0657 100.259 20.9852 100.6 20.9852C100.942 20.9852 101.304 21.0657 101.425 21.1662C101.526 21.2467 102.29 21.5885 103.114 21.8902C103.939 22.1918 104.723 22.5136 104.824 22.594C104.944 22.6745 105.568 22.9359 106.231 23.1772C107.418 23.6196 107.699 23.7403 109.549 24.5648C110.052 24.7659 110.676 25.0273 110.957 25.1078C111.239 25.1882 112.003 25.51 112.666 25.8116C113.33 26.1133 114.094 26.435 114.376 26.5155C114.657 26.5959 115.281 26.8573 115.783 27.0584C117.774 27.9433 117.955 28.0237 118.076 28.0237C118.136 28.0237 118.599 28.2047 119.102 28.4259C119.604 28.6471 120.409 29.0091 120.911 29.2303C121.414 29.4515 121.877 29.6325 121.937 29.6325C122.058 29.6325 122.239 29.7129 124.23 30.5978C124.732 30.7989 125.356 31.0603 125.637 31.1407C125.919 31.2212 126.683 31.5429 127.347 31.8446C128.01 32.1462 128.774 32.468 129.056 32.5484C129.337 32.6289 129.961 32.8903 130.464 33.0914C132.455 33.9762 132.636 34.0567 132.756 34.0567C132.816 34.0567 133.319 34.2578 133.842 34.479C135.732 35.3438 136.094 35.4845 136.899 35.7661C137.341 35.9269 138.025 36.1884 138.407 36.3694C138.789 36.5302 139.413 36.8118 139.795 36.9727C140.177 37.1335 140.539 37.2743 140.599 37.2743C140.659 37.2743 141.162 37.4553 141.685 37.6966C143.274 38.4005 143.394 38.4608 144.541 38.9032C145.144 39.1244 145.928 39.4462 146.25 39.5869C146.592 39.7478 147.356 40.0696 147.959 40.2908C148.563 40.5321 149.508 40.9343 150.071 41.1756C150.614 41.4371 151.297 41.7186 151.579 41.799C151.861 41.8795 152.484 42.1409 152.987 42.342C154.978 43.2268 155.159 43.3073 155.279 43.3073C155.34 43.3073 155.842 43.4883 156.365 43.7296C157.954 44.4334 158.075 44.4938 159.221 44.9161C159.824 45.1574 160.769 45.5596 161.332 45.8009C161.875 46.0623 162.559 46.3439 162.841 46.4243C163.122 46.5047 163.745 46.7662 164.248 46.9673C166.239 47.8521 166.42 47.9325 166.541 47.9325C166.601 47.9325 167.104 48.1135 167.627 48.3549C169.215 49.0587 169.336 49.119 170.482 49.5614C171.086 49.7827 171.87 50.1044 172.192 50.2452C172.534 50.4061 173.298 50.7278 173.901 50.949C174.504 51.1903 175.329 51.5121 175.711 51.6931C176.636 52.0953 177.46 52.4372 178.325 52.7589C178.707 52.8997 179.13 53.0807 179.23 53.1611C179.351 53.2214 179.813 53.4024 180.296 53.5633C180.98 53.7845 181.141 53.9253 181.141 54.3074C181.141 54.6694 181.04 54.7699 180.658 54.7699C180.376 54.7699 180.115 54.8503 180.055 54.9509C179.994 55.0514 179.693 55.1922 179.411 55.2525C179.13 55.333 178.466 55.5743 177.943 55.7955C176.374 56.4994 176.254 56.5597 175.108 57.0021C174.062 57.3842 173.7 57.5451 172.011 58.2891C171.629 58.45 171.267 58.5908 171.206 58.5908C171.146 58.5908 170.643 58.7919 170.12 59.0131C168.27 59.8376 167.908 59.9985 167.788 59.9985C167.727 59.9985 167.225 60.1795 166.702 60.4208C165.113 61.1246 164.992 61.185 163.846 61.6274C163.243 61.8486 162.479 62.1502 162.137 62.3111C161.815 62.4519 161.031 62.7736 160.427 63.015C159.422 63.4172 158.557 63.7791 157.511 64.2417C157.29 64.3422 156.606 64.6036 156.003 64.845C155.4 65.0662 154.636 65.3879 154.294 65.5287C153.972 65.6896 153.188 66.0113 152.585 66.2325C151.981 66.4739 151.217 66.7956 150.875 66.9364C150.553 67.0973 149.789 67.419 149.186 67.6402C148.583 67.8815 147.678 68.2435 147.175 68.4848C146.27 68.887 146.25 68.887 145.144 68.5251C144.541 68.324 143.897 68.1028 143.736 68.0223C143.575 67.9419 142.751 67.6201 141.926 67.3386C141.102 67.0369 140.237 66.7353 140.016 66.6347C139.795 66.5543 138.709 66.132 137.603 65.7298C136.497 65.3276 135.411 64.9254 135.189 64.8248C134.968 64.7444 134.104 64.4226 133.279 64.121C132.455 63.8395 131.59 63.5177 131.369 63.4172C131.147 63.3166 130.283 63.015 129.458 62.7133C128.634 62.4117 127.769 62.11 127.548 62.0095C127.326 61.929 126.241 61.5067 125.135 61.1045C124.028 60.7023 122.943 60.3001 122.721 60.1996C122.5 60.1191 121.635 59.7974 120.811 59.4957C119.986 59.2142 119.122 58.8924 118.9 58.7919C118.478 58.6109 115.482 57.5048 113.571 56.8211L112.465 56.4189L112.445 54.5487C112.425 51.9143 111.942 50.7278 110.173 48.9582C107.76 46.5249 104.944 45.5194 100.6 45.5194C96.3372 45.5194 93.4614 46.5249 91.0885 48.8777C86.4833 53.4024 88.7155 60.0387 95.573 62.2106C96.3573 62.4519 97.2622 62.7334 97.6041 62.834C98.4487 63.0753 102.591 63.0552 103.597 62.7937C105.628 62.2709 106.111 62.11 107.217 61.5469C108.584 60.8833 108.524 60.8632 111.862 62.1301C113.189 62.6329 115.1 63.3367 116.085 63.6987C117.091 64.0808 118.76 64.7042 119.805 65.0863C120.851 65.4885 122.621 66.132 123.727 66.5342C124.833 66.9364 125.919 67.3386 126.14 67.419C126.361 67.5196 127.226 67.8413 128.05 68.143C128.875 68.4245 129.74 68.7463 129.961 68.8468C130.484 69.068 133.641 70.2344 136.195 71.1595C137.301 71.5617 138.387 71.9639 138.608 72.0443C138.829 72.1448 139.694 72.4666 140.519 72.7481C141.343 73.0498 142.188 73.3715 142.369 73.4922C142.57 73.5928 142.851 73.6732 143.032 73.6732C143.193 73.6732 143.414 73.8542 143.535 74.0553C143.676 74.3167 143.736 86.3625 143.736 111.54C143.736 146.612 143.716 148.643 143.394 148.904C143.193 149.065 142.67 149.387 142.228 149.588C141.263 150.071 138.91 152.363 138.528 153.208C138.387 153.53 138.186 153.952 138.085 154.153C138.005 154.334 137.824 155.078 137.683 155.822C137.381 157.531 137.703 159.743 138.447 161.292C139.634 163.725 142.349 165.636 145.063 165.978C148.201 166.38 150.553 165.616 152.605 163.564C154.455 161.734 155.199 159.945 155.199 157.33C155.199 153.912 153.59 151.237 150.513 149.608L149.266 148.944L149.226 140.217L149.166 131.489L150.835 130.142C152.383 128.855 153.872 127.326 156.043 124.752C157.27 123.284 158.919 120.65 160.246 117.975L161.332 115.803V92.5966L160.528 91.7721C159.824 91.0481 159.643 90.9677 158.758 90.9677C157.532 90.9677 156.687 91.4503 156.184 92.4156C155.822 93.1195 155.802 93.7429 155.802 103.858V114.557L154.817 116.387C153.288 119.303 150.091 123.546 149.467 123.546C149.206 123.546 149.166 121.293 149.206 104.602L149.266 85.6587L151.177 84.8945C152.223 84.4722 153.308 84.0298 153.57 83.9292C153.831 83.8086 154.736 83.4466 155.581 83.1047C156.425 82.7629 157.391 82.3607 157.713 82.2199C158.054 82.0791 158.819 81.7574 159.422 81.516C160.025 81.2747 160.809 80.953 161.131 80.8122C161.473 80.6513 162.237 80.3497 162.841 80.1285C163.987 79.686 164.107 79.6257 165.696 78.9219C166.219 78.6806 166.722 78.4996 166.782 78.4996C166.842 78.4996 167.224 78.3588 167.627 78.1778C168.049 77.9968 168.552 77.7756 168.773 77.6952C168.994 77.6147 169.497 77.3935 169.919 77.2125C170.321 77.0315 170.704 76.8908 170.764 76.8908C170.824 76.8908 171.287 76.7098 171.789 76.4886C172.292 76.2674 173.097 75.9054 173.599 75.6842C174.102 75.463 174.565 75.282 174.625 75.282C174.685 75.282 175.067 75.1412 175.47 74.9602C175.892 74.7792 176.395 74.558 176.616 74.4776C176.837 74.3971 177.34 74.1759 177.762 73.995C178.164 73.814 178.546 73.6732 178.607 73.6732C178.667 73.6732 179.17 73.4721 179.693 73.2509C181.543 72.4264 181.905 72.2655 182.025 72.2655C182.086 72.2655 182.588 72.0644 183.111 71.8432C185.002 70.9785 185.364 70.8377 186.168 70.5562C186.61 70.3953 187.294 70.1339 187.676 69.9529C188.058 69.792 188.722 69.5104 189.144 69.3295C191.557 68.324 192 67.6201 192 64.8047C192 62.0296 191.095 60.7224 189.164 60.7224C187.415 60.7224 186.61 61.4866 186.429 63.3568L186.309 64.4629L185.183 64.9656C184.559 65.227 183.875 65.5287 183.654 65.6091C183.433 65.7097 182.086 66.2728 180.638 66.8358C179.21 67.419 177.762 68.0022 177.42 68.143C177.098 68.3039 176.314 68.6055 175.711 68.8267C174.605 69.2691 174.464 69.3093 173.056 69.9328C172.634 70.1137 171.93 70.3953 171.488 70.5562C171.045 70.717 170.362 70.9785 169.98 71.1595C169.597 71.3203 168.974 71.6019 168.592 71.7628C168.21 71.9236 167.848 72.0644 167.788 72.0644C167.727 72.0644 167.225 72.2655 166.702 72.4867C164.811 73.3514 164.449 73.4922 163.645 73.7737C162.881 74.0553 162.539 74.1759 160.789 74.9602C160.387 75.1412 160.005 75.282 159.945 75.282C159.884 75.282 159.382 75.463 158.859 75.7043C157.27 76.4081 157.149 76.4685 156.003 76.9109C155.4 77.1321 154.636 77.4539 154.294 77.5946C152.866 78.218 149.568 79.5051 149.387 79.5051C149.246 79.5051 149.166 78.5197 149.166 76.6293C149.166 73.8341 149.186 73.7335 149.628 73.5324C150.634 73.0498 151.981 72.4666 152.102 72.4666C152.162 72.4666 152.524 72.3258 152.906 72.165C154.575 71.4209 154.957 71.26 156.003 70.8578C156.606 70.6366 157.391 70.3148 157.713 70.154C158.054 70.0132 158.819 69.6914 159.422 69.4501C160.025 69.2289 160.809 68.9072 161.131 68.7664C161.473 68.6055 164.309 67.419 167.466 66.132C170.623 64.845 173.479 63.6585 173.8 63.5177C174.142 63.3769 174.906 63.0552 175.51 62.8139C176.113 62.5725 176.897 62.2508 177.219 62.11C177.561 61.9692 178.325 61.6475 178.928 61.4062C180.075 60.9436 180.839 60.6219 182.025 60.099C182.407 59.9381 182.769 59.7974 182.83 59.7974C182.89 59.7974 183.393 59.6164 183.916 59.3751C185.504 58.6712 185.625 58.6109 186.751 58.1886C188.139 57.6456 189.506 57.0624 190.391 56.62C191.296 56.1776 192.06 54.7498 191.879 53.865C191.578 52.417 190.894 51.8741 187.978 50.7479C186.892 50.3256 186.409 50.1245 184.921 49.4609C184.519 49.2799 184.137 49.1391 184.077 49.1391C184.016 49.1391 183.514 48.938 182.991 48.7168C181.141 47.8923 180.779 47.7314 180.658 47.7314C180.598 47.7314 180.095 47.5303 179.572 47.3091C177.279 46.2835 176.917 46.1227 176.797 46.1227C176.736 46.1227 176.375 45.9819 175.992 45.821C175.61 45.6601 174.987 45.3786 174.605 45.2177C174.223 45.0367 173.539 44.7753 173.097 44.6144C172.654 44.4535 171.97 44.1921 171.588 44.0111C171.206 43.8502 170.583 43.5687 170.201 43.4078C169.819 43.2469 169.457 43.1062 169.396 43.1062C169.336 43.1062 168.833 42.9051 168.31 42.6839C166.018 41.6583 165.656 41.4974 165.535 41.4974C165.415 41.4974 165.053 41.3365 163.203 40.512C162.68 40.2908 162.177 40.0897 162.117 40.0897C161.996 40.0897 161.674 39.9489 159.985 39.2049C159.563 39.0239 158.859 38.7423 158.416 38.5815C157.612 38.2999 157.25 38.1591 155.36 37.2944C154.837 37.0732 154.334 36.8721 154.274 36.8721C154.153 36.8721 153.791 36.7112 151.941 35.8867C151.418 35.6655 150.915 35.4644 150.855 35.4644C150.734 35.4644 150.372 35.3035 148.522 34.479C147.999 34.2578 147.497 34.0567 147.436 34.0567C147.376 34.0567 147.014 33.9159 146.632 33.755C144.943 33.011 144.581 32.8501 143.535 32.468C142.389 32.0256 142.268 31.9652 140.679 31.2614C140.157 31.0201 139.674 30.8391 139.614 30.8391C139.533 30.8391 139.111 30.6782 138.648 30.457C138.186 30.2559 137.08 29.7934 136.195 29.4314C135.31 29.0694 134.325 28.6672 133.983 28.5264C133.661 28.3857 132.877 28.0639 132.274 27.8226C131.67 27.5813 130.906 27.2595 130.564 27.1188C127.709 25.8921 102.571 15.5958 101.727 15.3143C100.46 14.892 100.661 14.892 99.3939 15.3344ZM103.496 51.3512C103.677 51.4317 104.26 51.7132 104.783 51.9746C105.93 52.5176 106.935 53.5834 106.935 54.2672C106.935 55.2928 104.22 57.1831 102.752 57.1831C102.451 57.1831 101.887 57.2836 101.505 57.3842C100.781 57.6054 99.0922 57.4043 97.403 56.9217C95.7942 56.4591 94.2658 55.0716 94.2658 54.0862C94.2658 53.322 95.6735 52.2159 97.7851 51.3311C98.6699 50.9691 102.752 50.9691 103.496 51.3512ZM147.376 154.314C148.985 154.756 150.01 156.586 149.528 158.175C148.804 160.648 145.948 161.352 144.138 159.542C142.831 158.235 142.831 156.425 144.158 155.098C145.104 154.153 145.988 153.932 147.376 154.314Z" fill="url(#paint0_linear_17_128)"/>
<path d="M11.2322 60.6623C9.78429 61.1248 9 62.5727 9 64.8049C9 67.198 9.82451 68.6258 11.5137 69.2291C11.9562 69.3699 12.6801 69.6715 13.1225 69.8525C13.5649 70.0536 14.6509 70.496 15.5357 70.858C16.4205 71.1999 17.426 71.6021 17.7478 71.7629C18.0897 71.9037 18.8538 72.2255 19.4571 72.4668C20.0604 72.688 20.8447 73.0098 21.1665 73.1706C21.5083 73.3114 22.2725 73.6332 22.8758 73.8745C23.4791 74.0957 24.2634 74.4174 24.5852 74.5783C24.927 74.7191 25.6912 75.0408 26.2945 75.2621C26.8978 75.5034 27.5815 75.7648 27.8027 75.8654C28.0239 75.9659 28.5267 76.1871 28.9088 76.348C29.2909 76.529 30.1154 76.8507 30.7187 77.0921C31.322 77.3133 32.1063 77.635 32.428 77.7959C32.7699 77.9367 33.5341 78.2584 34.1374 78.4998C34.7407 78.721 35.5249 79.0427 35.8467 79.2036C36.1886 79.3444 36.9527 79.6661 37.556 79.8873C38.1593 80.1287 38.8431 80.3901 39.0643 80.4906C39.2855 80.5912 39.8687 80.8526 40.3714 81.0738C40.8742 81.295 41.4976 81.5363 41.7791 81.6168C42.0606 81.6972 42.7444 81.9788 43.2874 82.2402C43.8504 82.4815 44.7956 82.8837 45.3989 83.125C46.5452 83.5473 46.6658 83.6077 48.2545 84.3115C48.7773 84.5528 49.2801 84.7338 49.3404 84.7338C49.4611 84.7338 49.6421 84.8143 51.633 85.6991C52.1357 85.9002 52.7591 86.1616 53.0406 86.2421C53.3222 86.3225 54.0059 86.604 54.5489 86.8655C55.112 87.1068 56.0571 87.509 56.6604 87.7503C57.2637 87.9715 58.048 88.2933 58.3698 88.4541C58.7116 88.5949 59.4758 88.9167 60.0791 89.1379C60.6824 89.3792 61.3661 89.6406 61.5873 89.7412C61.8086 89.8417 62.3917 90.1032 62.8945 90.3244C63.3972 90.5456 64.0206 90.7869 64.3022 90.8673C64.5837 90.9478 65.3479 91.2695 66.0115 91.5712C66.6751 91.8728 67.4393 92.1946 67.7209 92.275C68.0024 92.3555 68.6861 92.637 69.2291 92.8984C69.7922 93.1397 70.7373 93.5419 71.3406 93.7833C72.4869 94.2056 72.6076 94.2659 74.1962 94.9697C74.7191 95.2111 75.2218 95.3921 75.2822 95.3921C75.3425 95.3921 75.7246 95.5328 76.1268 95.7138C77.8763 96.4981 78.2182 96.6188 78.9824 96.9003C79.7466 97.1818 80.0884 97.3025 81.838 98.0868C82.2402 98.2678 82.6223 98.4085 82.6826 98.4085C82.7429 98.4085 83.2055 98.5895 83.7082 98.8107C84.211 99.0319 85.0154 99.3939 85.5181 99.6151C86.0209 99.8363 86.4834 100.017 86.5437 100.017C86.6644 100.017 86.8454 100.098 88.8362 100.983C89.339 101.184 89.9624 101.445 90.2439 101.526C90.5255 101.606 91.2896 101.928 91.9533 102.229C92.6169 102.531 93.3811 102.853 93.6626 102.933C93.9441 103.014 94.5676 103.275 95.0703 103.476C97.0612 104.361 97.2422 104.442 97.3628 104.442C97.4232 104.442 97.8656 104.602 98.3482 104.803C100.5 105.749 100.681 105.749 102.853 104.803C103.335 104.602 103.778 104.442 103.838 104.442C103.959 104.442 104.321 104.281 106.171 103.456C106.694 103.235 107.197 103.034 107.257 103.034C107.378 103.034 107.559 102.953 109.549 102.069C110.052 101.867 110.676 101.606 110.957 101.526C111.239 101.445 111.922 101.164 112.465 100.902C113.028 100.661 113.974 100.259 114.577 100.017C115.723 99.595 115.844 99.5347 117.432 98.8308C117.955 98.5895 118.458 98.4085 118.518 98.4085C118.639 98.4085 118.82 98.3281 120.811 97.4433C121.314 97.2422 121.937 96.9807 122.219 96.9003C122.5 96.8199 123.184 96.5383 123.727 96.297C124.29 96.0356 125.235 95.6334 125.838 95.3921C126.442 95.1507 127.226 94.829 127.548 94.6882C127.89 94.5273 128.654 94.2257 129.257 93.9844C129.86 93.7632 130.725 93.4012 131.168 93.2001C131.61 92.999 132.434 92.6772 132.977 92.4761C133.541 92.275 134.063 92.0337 134.184 91.9332C134.285 91.8527 134.486 91.7723 134.626 91.7723C135.069 91.7723 136.235 90.9076 136.577 90.3445C137.02 89.6004 136.979 88.1927 136.517 87.4889C135.934 86.5839 135.35 86.2823 134.204 86.3024C133.319 86.3024 130.826 87.2677 117.01 92.9588C108.122 96.6188 100.741 99.6151 100.601 99.6151C100.399 99.6151 89.1781 95.0904 86.9258 94.0849C86.604 93.9441 84.8344 93.2202 83.0044 92.4761C81.1744 91.7321 79.4248 91.0081 79.0829 90.8472C78.7612 90.7065 77.9769 90.3847 77.3736 90.1635C76.7703 89.9222 75.9458 89.6004 75.5637 89.4194C75.1816 89.2585 74.5783 88.977 74.2163 88.8362C73.8745 88.6754 73.5326 88.5547 73.4723 88.5547C73.412 88.5547 72.9092 88.3737 72.3864 88.1324C70.7977 87.4285 70.677 87.3682 69.5307 86.9258C68.9275 86.7046 68.1633 86.3828 67.8214 86.2421C67.4996 86.0812 66.7154 85.7594 66.1121 85.5382C65.5088 85.2969 64.5636 84.8947 64.0005 84.6534C63.4576 84.3919 62.7738 84.1104 62.4923 84.03C62.2108 83.9495 61.5873 83.6881 61.0846 83.487C59.0937 82.6022 58.9127 82.5217 58.7921 82.5217C58.7317 82.5217 58.229 82.3407 57.7061 82.0994C56.1175 81.3956 55.9968 81.3352 54.8505 80.9129C54.2472 80.6716 53.3021 80.2694 52.739 80.0281C52.196 79.7667 51.5123 79.4851 51.2308 79.4047C50.9492 79.3243 50.185 79.0025 49.5214 78.7009C48.8578 78.3992 48.0936 78.0774 47.8121 77.997C47.5305 77.9166 46.8468 77.635 46.3038 77.3736C45.7408 77.1323 44.7956 76.7301 44.1923 76.4888C43.046 76.0665 42.9254 76.0061 41.3367 75.3023C40.8138 75.061 40.3111 74.88 40.2508 74.88C40.1301 74.88 39.9491 74.7995 37.9582 73.9147C37.4555 73.7136 36.8321 73.4522 36.5505 73.3717C36.269 73.2913 35.5048 72.9695 34.8412 72.6679C34.1776 72.3662 33.4134 72.0445 33.1319 71.964C32.8503 71.8836 32.1666 71.6021 31.6236 71.3406C31.0605 71.0993 30.1154 70.6971 29.5121 70.4558C28.9088 70.2346 28.1446 69.9128 27.8027 69.752C27.481 69.6112 26.6967 69.2894 26.0934 69.0682C25.4901 68.8269 24.8064 68.5655 24.5852 68.4649C24.364 68.3644 23.8612 68.1432 23.4791 67.9823C23.097 67.8013 22.2725 67.4795 21.6692 67.2382C21.0659 67.017 20.3018 66.6952 19.9599 66.5344C19.6381 66.3936 18.8538 66.0718 18.2505 65.8305C17.6472 65.6093 16.7624 65.2272 16.2999 65.0261C15.8173 64.8049 15.3547 64.6239 15.2341 64.6239C15.1335 64.6239 15.033 64.4631 15.0129 64.262C14.9324 62.6129 14.3492 61.4064 13.4242 60.9639C12.3785 60.4813 11.9964 60.421 11.2322 60.6623Z" fill="url(#paint1_linear_17_128)"/>
<path d="M40.693 91.6714C40.1903 92.154 39.9691 92.6165 39.8685 93.2198C39.8082 93.7025 39.768 99.0115 39.8082 105.044L39.8685 116.004L40.3914 117.01C41.3164 118.739 42.7844 121.173 43.7497 122.54C48.0935 128.734 55.0314 134.988 61.5269 138.588C63.1356 139.473 66.7353 141.303 67.4191 141.584C67.7609 141.725 68.7061 142.107 69.5306 142.449C71.0992 143.112 72.708 143.655 75.5636 144.54C78.1778 145.345 78.5197 145.425 80.7921 145.888C81.9585 146.129 83.2656 146.41 83.7081 146.511C84.6733 146.732 85.9604 146.893 90.7465 147.456C93.6423 147.778 95.593 147.878 100.48 147.878C103.838 147.878 107.357 147.798 108.323 147.677C109.268 147.577 110.957 147.376 112.063 147.255C115.421 146.893 116.286 146.732 120.409 145.888C122.641 145.405 123.707 145.123 124.27 144.842C124.471 144.741 124.732 144.661 124.873 144.661C125.597 144.661 131.368 142.569 133.822 141.443C134.526 141.101 135.189 140.84 135.29 140.84C135.37 140.84 135.773 140.478 136.175 140.036C136.758 139.392 136.899 139.07 136.899 138.407C136.899 136.798 135.712 135.41 134.305 135.41C133.802 135.41 132.314 135.933 130.564 136.718C130.242 136.858 129.559 137.16 129.056 137.381C127.347 138.145 122.822 139.573 120.61 140.076C120.107 140.176 119.343 140.357 118.9 140.458C118.016 140.679 115.079 141.202 113.37 141.443C110.917 141.825 105.829 142.268 104.663 142.208L103.416 142.147L103.355 127.95L103.315 113.752L102.631 113.048C101.485 111.862 99.7356 111.862 98.5693 113.048L97.8855 113.752L97.8453 127.95L97.785 142.147L95.8745 142.107C93.8837 142.087 90.1432 141.765 88.2328 141.463C87.6295 141.363 86.4229 141.182 85.5783 141.061C78.5599 140.076 69.1284 136.617 62.8943 132.736C55.695 128.251 49.3805 121.756 46.0221 115.421L45.3987 114.215V103.597C45.3987 91.9529 45.4188 92.2546 44.2122 91.3898C43.7899 91.0882 43.3274 90.9675 42.5029 90.9675C41.4974 90.9675 41.3164 91.0279 40.693 91.6714Z" fill="url(#paint2_linear_17_128)"/>
<path d="M135.693 167.224C134.989 167.707 134.446 168.813 134.084 170.502C133.983 170.945 133.501 172.936 132.978 174.927C132.455 176.917 131.952 178.908 131.831 179.351C131.711 179.793 131.59 180.678 131.53 181.301C131.409 182.729 131.892 183.534 133.199 184.117C133.963 184.438 134.184 184.459 134.868 184.258C135.874 183.956 136.598 183.212 136.899 182.166C137.181 181.181 138.89 174.585 139.111 173.619C139.192 173.237 139.413 172.272 139.614 171.508C140.318 168.592 139.594 167.003 137.462 166.822C136.577 166.762 136.276 166.822 135.693 167.224Z" fill="url(#paint3_linear_17_128)"/>
<path d="M154.254 167.023C154.012 167.164 153.61 167.546 153.349 167.888C152.685 168.733 152.786 170.06 153.791 173.921C154.636 177.139 154.837 177.983 155.179 179.391C156.104 183.373 156.305 183.715 158.034 184.258C158.617 184.439 158.899 184.418 159.542 184.157C160.789 183.654 161.212 182.991 161.232 181.583C161.232 180.919 161.131 180.115 161.031 179.773C160.85 179.23 160.648 178.426 159.824 175.027C159.723 174.645 159.422 173.378 159.12 172.212C158.818 171.045 158.537 169.879 158.477 169.597C158.316 168.753 157.873 167.908 157.33 167.405C156.707 166.822 154.957 166.621 154.254 167.023Z" fill="url(#paint4_linear_17_128)"/>
<path d="M145.224 170.08C144.883 170.241 144.42 170.603 144.179 170.904C143.756 171.447 143.736 171.628 143.736 176.978C143.736 181.824 143.777 182.568 144.078 183.091C144.44 183.694 145.385 184.257 146.19 184.318C147.014 184.378 148.161 183.855 148.663 183.192L149.166 182.528V171.729L148.643 170.965C147.879 169.879 146.511 169.517 145.224 170.08Z" fill="url(#paint5_linear_17_128)"/>
<defs>
<linearGradient id="paint0_linear_17_128" x1="9.17114" y1="15" x2="203.883" y2="169.623" gradientUnits="userSpaceOnUse">
<stop offset="0.49069" stop-color="#26B6CA"/>
<stop offset="0.56019" stop-color="#30B9C7"/>
<stop offset="0.68036" stop-color="#4DBFBE"/>
<stop offset="0.83676" stop-color="#7ACBAF"/>
<stop offset="1" stop-color="#B1D89E"/>
</linearGradient>
<linearGradient id="paint1_linear_17_128" x1="9" y1="60.5244" x2="58.5753" y2="153.004" gradientUnits="userSpaceOnUse">
<stop offset="0.49069" stop-color="#26B6CA"/>
<stop offset="0.56019" stop-color="#30B9C7"/>
<stop offset="0.68036" stop-color="#4DBFBE"/>
<stop offset="0.83676" stop-color="#7ACBAF"/>
<stop offset="1" stop-color="#B1D89E"/>
</linearGradient>
<linearGradient id="paint2_linear_17_128" x1="39.792" y1="90.9675" x2="114.617" y2="174.749" gradientUnits="userSpaceOnUse">
<stop offset="0.49069" stop-color="#26B6CA"/>
<stop offset="0.56019" stop-color="#30B9C7"/>
<stop offset="0.68036" stop-color="#4DBFBE"/>
<stop offset="0.83676" stop-color="#7ACBAF"/>
<stop offset="1" stop-color="#B1D89E"/>
</linearGradient>
<linearGradient id="paint3_linear_17_128" x1="131.512" y1="166.802" x2="144.746" y2="170.932" gradientUnits="userSpaceOnUse">
<stop offset="0.49069" stop-color="#26B6CA"/>
<stop offset="0.56019" stop-color="#30B9C7"/>
<stop offset="0.68036" stop-color="#4DBFBE"/>
<stop offset="0.83676" stop-color="#7ACBAF"/>
<stop offset="1" stop-color="#B1D89E"/>
</linearGradient>
<linearGradient id="paint4_linear_17_128" x1="152.927" y1="166.813" x2="166.082" y2="170.895" gradientUnits="userSpaceOnUse">
<stop offset="0.49069" stop-color="#26B6CA"/>
<stop offset="0.56019" stop-color="#30B9C7"/>
<stop offset="0.68036" stop-color="#4DBFBE"/>
<stop offset="0.83676" stop-color="#7ACBAF"/>
<stop offset="1" stop-color="#B1D89E"/>
</linearGradient>
<linearGradient id="paint5_linear_17_128" x1="143.736" y1="169.817" x2="152.629" y2="172.001" gradientUnits="userSpaceOnUse">
<stop offset="0.49069" stop-color="#26B6CA"/>
<stop offset="0.56019" stop-color="#30B9C7"/>
<stop offset="0.68036" stop-color="#4DBFBE"/>
<stop offset="0.83676" stop-color="#7ACBAF"/>
<stop offset="1" stop-color="#B1D89E"/>
</linearGradient>
</defs>
</svg>
