<svg width="200" height="200" viewBox="0 0 200 200" fill="none" xmlns="http://www.w3.org/2000/svg">
<path d="M68 22C62.9609 22 58.1282 24.1493 54.565 27.975C51.0018 31.8008 49 36.9896 49 42.4C49 47.2246 49.9547 50.3815 52.5625 53.875L68 73L83.4375 53.875C86.0453 50.3815 87 47.2246 87 42.4C87 36.9896 84.9982 31.8008 81.435 27.975C77.8718 24.1493 73.0391 22 68 22V22Z" stroke="url(#paint0_linear_17_62)" stroke-width="5" stroke-linecap="round" stroke-linejoin="round"/>
<path d="M167 101.5C170.98 141.298 142.787 178.126 100.15 178.497C99.731 178.5 99.3107 178.364 98.9714 178.118C87.7967 170.024 83.4188 164.797 83.161 157.67C83.0488 154.568 84.347 151.644 85.5284 148.773C87.8681 143.088 87.6919 139.058 85.6576 134.284C84.421 131.382 81.9708 129.253 79.7382 127.024C75.8961 123.189 76.4373 119.565 80.4578 114.196C82.3166 111.714 83.6972 108.815 83.6203 105.715C83.4091 97.1881 80.4031 94.8607 73.205 96.1791C70.0885 96.7499 68.1325 99.7049 67.9968 102.87C67.552 113.244 64.2492 118.68 55.8979 123.991C53.8771 125.276 51.1762 125.135 49.5851 123.345C46.2965 119.647 45.8863 115.469 48.1276 108.068C48.7317 106.074 47.2927 104 45.2084 104H33C33 140 49.5 165 84 176.5M34.5 95.4999C37.8108 82.6763 40.706 76.1769 49.5 66.9999M125.5 48.4999C148.074 60.7237 158.054 69.5724 165 93.4999C155.044 97.5589 149.27 98.1682 140.88 97.7199C138.839 97.6108 137.105 96.1983 136.421 94.2714C130.25 76.8815 125.125 81.2142 116.613 95.8026C115.452 97.7932 112.842 98.4684 110.997 97.0873C105.355 92.8644 102.875 88.8032 103.131 81.2159C103.224 78.4664 104.436 75.8255 106.561 74.0776C108.148 72.7721 109.697 71.9089 111.602 71.4352C114.536 70.7052 117.499 69.3518 118.579 66.5274C120.829 60.6462 120.392 56.0195 117.801 49.534C117.026 47.5946 115.335 46.1722 113.314 45.6457C107.675 44.1769 103.537 43.4839 96 44.4999M125.5 135C129.463 136.932 131.921 137.032 134.935 135.041C136.688 133.883 137.467 131.8 137.945 129.754C138.841 125.913 141.067 123.103 145.473 119.489C146.618 118.549 146.445 116.726 145.066 116.185C136.655 112.882 131.157 115.123 122.584 121.663C121.929 122.163 121.038 122.211 120.307 121.83C117.474 120.352 115.463 120.258 112.84 122.591C111.709 123.597 111.761 125.349 112.815 126.437C117.232 130.997 120.328 132.944 125.5 135ZM95.9903 161.13C94.8609 158.347 96.4447 154.944 101.448 153.183C101.785 153.064 102.166 153.151 102.423 153.399C106.945 157.766 107.717 161.806 104.35 163.569C101.441 165.091 97.2248 164.173 95.9903 161.13Z" stroke="url(#paint1_linear_17_62)" stroke-width="5" stroke-linecap="round" stroke-linejoin="round"/>
<circle cx="68" cy="42" r="5" fill="url(#paint2_linear_17_62)"/>
<defs>
<linearGradient id="paint0_linear_17_62" x1="49" y1="22" x2="98.9725" y2="54.7081" gradientUnits="userSpaceOnUse">
<stop offset="0.49069" stop-color="#26B6CA"/>
<stop offset="0.56019" stop-color="#30B9C7"/>
<stop offset="0.68036" stop-color="#4DBFBE"/>
<stop offset="0.83676" stop-color="#7ACBAF"/>
<stop offset="1" stop-color="#B1D89E"/>
</linearGradient>
<linearGradient id="paint1_linear_17_62" x1="33" y1="44.0188" x2="175.572" y2="169.159" gradientUnits="userSpaceOnUse">
<stop offset="0.49069" stop-color="#26B6CA"/>
<stop offset="0.56019" stop-color="#30B9C7"/>
<stop offset="0.68036" stop-color="#4DBFBE"/>
<stop offset="0.83676" stop-color="#7ACBAF"/>
<stop offset="1" stop-color="#B1D89E"/>
</linearGradient>
<linearGradient id="paint2_linear_17_62" x1="63" y1="37" x2="73.6027" y2="46.3139" gradientUnits="userSpaceOnUse">
<stop offset="0.49069" stop-color="#26B6CA"/>
<stop offset="0.56019" stop-color="#30B9C7"/>
<stop offset="0.68036" stop-color="#4DBFBE"/>
<stop offset="0.83676" stop-color="#7ACBAF"/>
<stop offset="1" stop-color="#B1D89E"/>
</linearGradient>
</defs>
</svg>
