<svg width="200" height="200" viewBox="0 0 200 200" fill="none" xmlns="http://www.w3.org/2000/svg">
<path d="M51.214 11.3766C50.9025 11.5768 50.5242 11.9329 50.3685 12.1554C50.2127 12.3779 49.9457 12.5559 49.7899 12.5559C49.6119 12.5559 49.4339 12.6894 49.3672 12.8674C49.3004 13.0454 48.7219 13.3792 48.1211 13.6017C47.498 13.8243 46.9862 14.1135 46.9862 14.2693C46.9862 14.4251 46.786 14.5586 46.5412 14.5586C46.2964 14.5586 46.0962 14.6698 46.0962 14.8033C46.0962 14.9146 45.9849 14.9591 45.8291 14.8701C45.6956 14.7811 45.6511 14.8033 45.7401 14.9591C45.8069 15.0926 45.4286 15.4041 44.8278 15.7157C43.604 16.2942 43.1812 16.6502 42.4024 17.6961C41.9351 18.3191 41.8684 18.6529 41.9129 19.81C41.9574 20.5665 42.0464 21.0783 42.1132 20.9671C42.2022 20.8336 42.3801 20.9671 42.5359 21.2563C42.6916 21.5456 43.1144 22.0351 43.4482 22.3244C43.8042 22.6137 44.0267 22.9475 43.9377 23.081C43.871 23.2145 43.9155 23.2367 44.049 23.1477C44.1825 23.0587 44.4718 23.1922 44.6943 23.4593C44.9168 23.704 45.2061 23.9043 45.3618 23.9043C45.4954 23.9043 45.6956 24.1046 45.7624 24.3493C45.8291 24.5941 46.0294 24.7944 46.1852 24.7944C46.7192 24.7944 47.0975 25.5064 47.0975 26.5522C47.142 32.716 47.231 35.0301 47.4313 34.9188C47.5648 34.8298 47.6538 35.0969 47.6538 35.5641C47.6538 36.4097 47.8095 36.6545 49.5452 38.4791C50.1682 39.1244 51.1695 40.237 51.7703 40.9268C52.3934 41.6166 52.9942 42.3064 53.1277 42.4399C53.2612 42.5957 53.328 42.8405 53.2612 43.0185C53.1945 43.1965 53.2612 43.2632 53.3947 43.1742C53.6617 43.0185 54.396 43.6415 54.6186 44.2201C54.6853 44.4203 54.9078 44.5983 55.1081 44.5983C55.5976 44.5983 55.5309 44.9989 54.9968 45.1546C54.7521 45.2214 54.5518 45.4439 54.5518 45.6219C54.5518 45.8222 54.396 46.1115 54.218 46.2895C54.04 46.4897 53.8843 46.8235 53.8843 47.0683C53.8843 47.2908 53.7952 47.4911 53.6617 47.4911C53.5505 47.4911 53.4392 47.6468 53.4392 47.8248C53.4392 48.0029 53.239 48.3366 52.9942 48.5369C52.7494 48.7594 52.5491 49.1377 52.5491 49.3825C52.5491 49.6272 52.3489 49.9833 52.1041 50.1613C51.8593 50.3393 51.6591 50.6508 51.6591 50.8733C51.6591 51.0736 51.5701 51.2961 51.4588 51.3629C51.3476 51.4296 51.1918 51.7411 51.125 52.0749C51.036 52.3864 50.7913 52.8537 50.5465 53.0985C50.3017 53.3655 50.1682 53.6548 50.235 53.7661C50.3017 53.8551 50.1905 54.0108 50.0125 54.0776C49.8122 54.1443 49.6564 54.4559 49.6564 54.7229C49.6564 55.0121 49.5452 55.2792 49.4117 55.3237C49.2781 55.3682 49.1001 55.9467 49.0334 56.6143C48.9444 57.5711 48.7886 57.9494 48.2101 58.5279C47.8095 58.9284 47.409 59.1955 47.2977 59.1065C47.2087 59.0175 47.2087 59.0842 47.2977 59.24C47.3868 59.3957 47.32 59.5737 47.1197 59.6405C46.9195 59.7073 46.7637 59.8853 46.7637 59.9965C46.7637 60.13 46.5189 60.4193 46.2074 60.6641C45.8959 60.9089 45.6511 61.2426 45.6511 61.4206C45.6511 61.5987 45.4509 61.7322 45.2061 61.7322C44.9613 61.7322 44.761 61.8657 44.761 61.9992C44.761 62.333 43.4482 63.8461 41.2676 66.0713C40.3775 66.9613 39.6432 67.8069 39.6432 67.9181C39.6432 68.2519 39.3094 68.3187 38.2859 68.2297C37.7741 68.1629 37.418 68.0294 37.418 67.8514C37.418 67.5399 36.7282 67.2951 35.8159 67.2951C35.4599 67.2951 35.1929 67.2061 35.1929 67.0948C35.1929 66.8278 33.3015 66.6053 32.2779 66.7611C31.8106 66.8501 31.4768 66.9836 31.5436 67.0948C31.6103 67.2061 31.4323 67.2951 31.1876 67.2951C30.8983 67.2951 30.6535 67.4731 30.5868 67.7401C30.52 67.9849 30.3865 68.1852 30.2975 68.1852C29.986 68.1852 29.4074 69.5425 29.4074 70.2323C29.4074 70.5661 29.3184 70.8554 29.1849 70.8554C29.0737 70.8554 28.9624 71.0111 28.9624 71.1891C28.9624 71.3672 28.8734 71.5229 28.7621 71.5229C28.6509 71.5229 28.5174 71.9012 28.4506 72.3462C28.3616 73.125 28.0501 74.1486 27.5828 75.1945C27.4715 75.4392 27.249 76.0845 27.071 76.6408C26.9152 77.1971 26.7595 77.4641 26.7595 77.2416C26.7372 77.0413 26.6482 76.8633 26.5592 76.8633C26.2477 76.8633 26.5592 79.6003 26.9152 80.2011C27.3158 80.8019 28.4284 81.9812 28.6509 81.9812C29.0514 81.9812 30.52 84.6514 30.52 85.4302C30.52 85.5638 30.7203 85.8753 30.965 86.0978C31.2098 86.3203 31.4101 86.6763 31.4101 86.9211C31.4101 87.1436 31.4991 87.3216 31.5881 87.3216C31.9219 87.3216 32.2556 88.323 32.1666 89.0128C32.1221 89.3688 32.1444 89.4801 32.2111 89.2575C32.2779 89.0573 32.4337 88.8793 32.5449 88.8793C32.6562 88.8793 32.7452 89.0573 32.7674 89.2575C32.7897 89.7693 32.8787 90.2589 33.079 90.8597C33.1902 91.2602 33.1235 91.327 32.5894 91.327C32.2334 91.327 31.7884 91.5272 31.5658 91.772C31.3433 92.039 30.9205 92.217 30.5423 92.217C30.1862 92.217 29.7412 92.3728 29.5409 92.5508C29.3629 92.7288 28.9179 92.8846 28.5396 92.8846C28.1613 92.8846 27.8498 92.9736 27.8498 93.1071C27.8498 93.2184 27.5828 93.3296 27.249 93.3296C26.893 93.3296 26.2922 93.5299 25.8917 93.7746C25.4911 94.0194 25.0016 94.2197 24.7791 94.2197C24.5788 94.2197 24.1115 94.3754 23.7555 94.5535C23.4217 94.7315 22.8654 94.8872 22.5761 94.8872C22.1979 94.8872 21.6638 95.221 21.063 95.8441L20.1062 96.7786L20.0395 98.8258C19.9504 100.717 19.995 100.873 20.351 100.762C20.5512 100.695 20.7293 100.739 20.7293 100.873C20.7293 101.162 22.3759 102.23 22.8432 102.23C23.0212 102.23 23.1769 102.319 23.1769 102.453C23.1769 102.564 23.2882 102.675 23.4217 102.675C23.5552 102.675 23.7777 102.809 23.9335 102.965C24.1783 103.209 24.1783 103.321 23.9335 103.677C23.7555 103.899 23.622 104.522 23.622 105.034C23.622 106.347 24.2228 107.571 25.5356 108.995C25.6469 109.128 25.9584 109.573 26.1809 109.952C26.4257 110.352 26.6927 110.686 26.7817 110.686C26.8707 110.686 26.9597 110.797 26.9597 110.908C26.9597 111.264 28.4061 113.289 29.2739 114.157C29.6967 114.58 30.2307 114.914 30.4755 114.914C30.7203 114.914 30.965 115.047 31.0318 115.203C31.0986 115.359 31.5436 115.626 32.0554 115.782C32.5672 115.915 32.9677 116.138 32.9677 116.249C32.9677 116.382 33.168 116.471 33.4127 116.471C33.6575 116.471 33.8578 116.56 33.8578 116.694C33.8578 116.805 34.058 116.916 34.3028 116.916C34.5476 116.916 34.7478 117.005 34.7478 117.139C34.7478 117.25 34.8813 117.361 35.0594 117.361C35.2151 117.361 35.8159 117.606 36.3945 117.918C38.6196 119.097 40.2663 118.541 42.1799 115.915C42.5581 115.426 42.9142 114.981 42.9809 114.914C43.0699 114.847 43.2479 114.602 43.3814 114.357C43.604 113.957 43.6262 113.957 43.871 114.58C44.0267 114.958 44.2938 115.581 44.494 115.982C44.8056 116.627 44.8056 116.827 44.5608 117.428C43.6707 119.52 43.604 124.482 44.4495 125.172C44.6275 125.305 44.761 125.75 44.761 126.129C44.761 126.574 44.9168 126.952 45.2061 127.152C45.4731 127.33 45.6511 127.731 45.6511 128.087C45.6511 128.421 45.7624 128.754 45.8736 128.821C46.0071 128.888 46.0962 129.288 46.0962 129.667C46.0962 130.29 46.5189 131.402 46.5412 130.824C46.5634 130.379 46.9862 131.269 46.9862 131.758C46.9862 132.025 47.142 132.381 47.32 132.582C47.498 132.76 47.6538 133.205 47.6538 133.583C47.6538 133.961 47.7428 134.273 47.854 134.273C48.0766 134.273 48.4103 135.519 48.3436 136.097C48.2991 136.364 48.4103 136.453 48.6328 136.364C48.8999 136.253 48.9889 136.387 48.9889 136.876C48.9889 137.232 49.1446 137.722 49.3226 137.967C49.5007 138.189 49.6564 138.612 49.6564 138.901C49.6564 139.168 49.7677 139.591 49.8789 139.836C50.0125 140.08 50.2127 140.481 50.324 140.726C50.4352 140.971 50.5465 141.349 50.5465 141.594C50.5465 141.838 50.6132 142.061 50.7245 142.105C50.9248 142.194 51.6591 144.331 51.6591 144.887C51.6591 145.132 51.8593 145.532 52.1041 145.799C52.3489 146.066 52.5491 146.511 52.5491 146.823C52.5491 147.134 52.7494 147.713 52.9719 148.113C53.2167 148.514 53.5282 149.493 53.684 150.25C53.8175 151.028 54.0845 151.718 54.2403 151.785C54.4183 151.852 54.5518 152.141 54.5518 152.452C54.5518 152.764 54.7298 153.276 54.9523 153.587C55.4419 154.299 56.1094 156.346 56.1094 157.125C56.1094 157.415 56.1984 157.593 56.3319 157.526C56.4432 157.459 56.5545 157.593 56.5545 157.837C56.5545 158.082 56.6657 158.349 56.777 158.416C56.9105 158.483 56.9995 158.75 56.9995 158.994C56.9995 159.217 57.1108 159.417 57.222 159.417C57.3555 159.417 57.4445 159.662 57.4445 159.951C57.4445 160.263 57.5335 160.552 57.6448 160.619C57.7338 160.686 58.0231 161.398 58.2456 162.199C58.4681 163 58.7351 163.645 58.8241 163.645C58.9354 163.645 59.0021 163.934 59.0021 164.29C59.0021 164.669 59.0912 165.002 59.2024 165.069C59.3137 165.136 59.4694 165.536 59.5362 165.959C59.6252 166.382 59.8255 166.827 60.0035 166.983C60.1815 167.139 60.3373 167.584 60.3373 167.984C60.3373 168.385 60.493 168.83 60.671 168.985C60.849 169.141 61.0048 169.542 61.0048 169.898C61.0048 170.254 61.1161 170.543 61.2273 170.543C61.3608 170.543 61.4498 170.743 61.4498 171.01C61.4498 171.3 61.5388 171.411 61.6946 171.3C61.8949 171.188 61.9171 171.322 61.8059 171.745C61.7169 172.145 61.7614 172.368 61.9839 172.457C62.1619 172.523 62.3622 173.013 62.4512 173.569C62.5402 174.148 62.7182 174.548 62.8739 174.548C63.052 174.548 63.23 174.927 63.2967 175.483C63.3635 176.017 63.5415 176.462 63.6528 176.507C63.7863 176.551 63.8975 176.929 63.8975 177.352C63.8975 177.775 63.9865 178.109 64.0755 178.109C64.1645 178.109 64.3648 178.554 64.5206 179.11C64.6763 179.666 64.8766 180.111 65.0101 180.111C65.1214 180.111 65.2326 180.378 65.2326 180.712C65.2549 181.068 65.3884 181.58 65.5664 181.891C65.7444 182.203 65.8779 182.648 65.9002 182.915C65.9002 183.16 66.0782 183.761 66.323 184.25C66.5455 184.717 66.9015 185.541 67.1463 186.075C67.3688 186.587 67.6136 187.009 67.7248 187.009C67.8138 187.009 67.9028 187.21 67.9028 187.454C67.9028 187.744 68.0586 187.899 68.3479 187.899C68.5926 187.899 68.7929 187.988 68.7929 188.122C68.7929 188.255 69.5272 188.344 70.5285 188.344C71.9526 188.344 72.3532 188.255 72.7537 187.899C73.0207 187.655 73.31 187.454 73.4213 187.454C73.5548 187.454 73.9331 187.299 74.2668 187.121C74.6229 186.943 75.2014 186.787 75.5352 186.787C75.8912 186.787 76.1137 186.698 76.0247 186.564C75.9357 186.431 76.1582 186.342 76.5143 186.342C76.8925 186.342 77.2708 186.164 77.4711 185.897C77.6491 185.652 77.9161 185.452 78.0941 185.452C78.4947 185.452 79.4515 184.317 79.4737 183.85C79.4737 183.649 79.585 183.405 79.7185 183.316C79.852 183.249 80.119 182.826 80.297 182.403C80.4751 181.98 80.6976 181.513 80.8311 181.357C81.2984 180.801 82.0104 179.956 82.767 178.999C83.6348 177.953 84.6139 176.863 85.4149 175.995C85.7042 175.705 85.9267 175.349 85.9267 175.216C85.9267 175.105 86.0825 174.993 86.2605 174.993C86.5498 174.993 86.6165 174.882 86.5943 174.415C86.572 174.348 86.8836 174.014 87.2618 173.658C87.6179 173.325 87.9294 172.813 87.9294 172.546C87.9294 172.301 88.0406 172.145 88.1519 172.212C88.2854 172.301 88.3744 171.945 88.3744 171.322C88.3744 170.743 88.4634 170.343 88.5747 170.432C88.7082 170.499 88.7749 170.098 88.7749 169.497C88.7527 168.407 89.3535 164.557 89.7318 163.289C89.843 162.911 89.932 162.399 89.932 162.132C89.932 161.887 90.0433 161.598 90.1546 161.531C90.2881 161.464 90.3771 160.73 90.3993 159.907C90.3993 158.794 90.4661 158.549 90.5996 158.928C90.7109 159.195 90.8444 159.417 90.8666 159.417C90.9111 159.417 90.9334 158.46 90.9334 157.303C90.9334 155.345 90.7776 154.655 90.5328 155.568C90.4661 155.79 90.4216 155.634 90.3993 155.234C90.3993 154.856 90.2881 154.522 90.1991 154.522C89.9098 154.522 89.4202 152.897 89.4425 152.007C89.4648 151.54 89.6873 150.761 89.932 150.25C90.1768 149.738 90.3993 149.003 90.3993 148.647C90.4438 147.958 90.4438 147.958 90.5328 148.558C90.5773 148.914 90.7331 149.181 90.8666 149.181C91.0001 149.181 91.0446 148.892 90.9556 148.38C90.7554 147.357 91.6009 144.509 92.0905 144.509C92.2685 144.509 92.58 144.353 92.7803 144.153C93.0695 143.863 93.4478 143.819 94.6494 143.886C95.495 143.952 96.2293 143.908 96.296 143.819C96.3628 143.708 96.2515 143.618 96.0513 143.618C95.851 143.618 95.762 143.507 95.8287 143.396C95.8955 143.262 96.2293 143.173 96.5408 143.173C97.2084 143.173 98.2097 142.194 99.8118 139.991C100.435 139.168 100.991 138.501 101.08 138.501C101.169 138.501 101.325 138.3 101.392 138.056C101.481 137.789 101.725 137.611 102.037 137.611C102.304 137.611 102.749 137.41 103.016 137.165C103.283 136.921 103.617 136.72 103.773 136.72C104.129 136.72 105.731 135.252 105.731 134.94C105.731 134.829 105.82 134.718 105.931 134.718C106.176 134.718 109.736 131.202 109.736 130.957C109.736 130.868 109.936 130.557 110.181 130.267C110.426 129.978 110.626 129.578 110.626 129.355C110.626 129.133 110.737 128.888 110.849 128.821C110.982 128.754 111.071 128.487 111.071 128.243C111.071 127.998 111.182 127.864 111.294 127.931C111.427 127.998 111.516 127.82 111.516 127.508C111.516 126.685 111.739 126.262 112.206 126.262C112.429 126.262 112.629 126.173 112.629 126.062C112.629 125.862 115.722 124.259 116.145 124.259C116.278 124.259 116.412 124.148 116.412 124.037C116.412 123.903 116.567 123.814 116.745 123.814C116.923 123.814 117.079 123.703 117.079 123.592C117.079 123.458 117.257 123.369 117.457 123.369C117.658 123.369 117.991 123.214 118.214 123.013C118.414 122.835 119.082 122.479 119.66 122.257C120.261 122.034 120.728 121.723 120.706 121.612C120.662 121.478 120.884 121.367 121.196 121.367C121.507 121.367 121.752 121.278 121.752 121.167C121.752 120.877 123.043 119.609 123.176 119.765C123.243 119.831 123.31 119.631 123.31 119.32C123.31 119.008 123.465 118.452 123.643 118.118C123.844 117.74 123.977 116.872 123.977 116.071C123.977 114.847 124.044 114.625 124.422 114.535C124.645 114.469 124.912 114.246 124.979 114.024C125.045 113.801 125.357 113.556 125.668 113.49C125.98 113.401 126.18 113.267 126.113 113.156C126.047 113.067 126.247 112.844 126.536 112.689C126.848 112.533 127.092 112.31 127.092 112.199C127.092 112.11 127.27 112.021 127.471 112.021C127.671 112.021 127.76 112.088 127.671 112.177C127.493 112.355 129.74 112.867 130.831 112.889C131.209 112.911 131.543 113 131.543 113.111C131.543 113.49 132.945 113.668 133.189 113.312C133.323 113.134 133.701 112.911 134.035 112.844C134.369 112.755 134.769 112.533 134.925 112.333C135.081 112.155 135.437 111.776 135.726 111.532C136.149 111.131 136.216 110.819 136.216 109.529C136.216 108.439 136.082 107.726 135.771 107.081C135.526 106.569 135.326 105.946 135.326 105.702C135.326 105.435 135.17 104.834 134.992 104.344C134.814 103.855 134.68 103.12 134.658 102.72C134.658 102.342 134.569 102.008 134.435 102.008C134.324 102.008 134.213 101.763 134.213 101.474C134.213 101.162 134.124 100.851 133.99 100.784C133.879 100.717 133.768 100.361 133.768 99.9829C133.768 99.6268 133.679 99.1596 133.545 98.937C133.434 98.7368 133.234 98.1137 133.123 97.5574C132.5 94.7982 132.121 93.4409 131.966 93.3741C131.854 93.3296 131.765 92.9736 131.765 92.5731C131.765 92.0168 131.899 91.772 132.322 91.5495C132.633 91.3937 132.878 91.1712 132.878 91.0599C132.878 90.9709 133.123 90.8819 133.412 90.8819C133.723 90.8819 134.013 90.7929 134.079 90.6817C134.168 90.5704 134.613 90.4146 135.103 90.3256C135.593 90.2366 135.949 90.0809 135.86 89.9696C135.793 89.8583 136.015 89.7693 136.371 89.7693C136.839 89.7693 136.905 89.8361 136.683 89.9696C136.438 90.1254 136.572 90.2144 137.172 90.3256C137.617 90.4146 137.996 90.5704 137.996 90.6817C137.996 90.7929 138.129 90.8819 138.285 90.8819C138.441 90.8819 138.708 91.0822 138.886 91.327C139.064 91.5717 139.375 91.772 139.598 91.772C139.932 91.772 140.065 91.9723 140.043 92.4395C140.043 92.5063 140.31 92.5731 140.621 92.5731C141.489 92.6176 143.559 92.9291 143.559 93.0181C143.559 93.1071 143.336 93.3741 142.402 94.4867C142.179 94.7537 142.001 95.043 142.001 95.132C142.001 95.221 141.868 95.4435 141.712 95.5993C141.222 96.1111 140.666 97.0901 140.666 97.4462C140.666 97.6242 140.577 97.78 140.443 97.78C140.332 97.78 140.221 98.225 140.221 98.7813C140.221 99.3376 140.332 99.7826 140.443 99.7826C140.577 99.7826 140.666 99.9829 140.666 100.228C140.666 100.472 140.755 100.673 140.866 100.673C140.977 100.673 141.133 100.851 141.2 101.073C141.445 101.808 142.824 102.342 144.404 102.297C145.272 102.275 145.94 102.364 146.095 102.52C146.585 103.054 147.119 104.01 147.119 104.389C147.119 104.722 147.163 104.745 147.341 104.455C147.542 104.166 147.564 104.166 147.564 104.455C147.564 104.633 147.92 105.19 148.343 105.657C148.766 106.147 149.122 106.636 149.122 106.725C149.122 106.925 149.233 107.103 150.123 108.105C150.434 108.461 150.924 109.039 151.191 109.395C151.458 109.751 151.903 110.018 152.192 110.018C152.459 110.018 152.682 110.107 152.682 110.241C152.682 110.352 153.082 110.463 153.572 110.463C154.061 110.463 154.462 110.352 154.462 110.241C154.462 110.107 154.685 110.018 154.974 109.996C155.953 109.974 157.355 107.615 157.355 106.013C157.355 105.39 157.466 104.901 157.577 104.901C157.711 104.901 157.8 104.3 157.8 103.543C157.8 102.787 157.911 101.54 158.045 100.784C158.289 99.4711 158.334 99.4266 158.89 99.4933C159.202 99.5601 159.691 99.6936 159.958 99.8271C160.492 100.094 162.028 99.6046 162.806 98.937C163.63 98.225 164.253 97.1347 164.253 96.4448C164.253 96.0443 164.342 95.7996 164.475 95.8886C164.609 95.9776 164.698 95.5325 164.698 94.7315C164.72 94.0194 164.876 92.6398 165.054 91.6607C165.254 90.6817 165.477 89.2798 165.566 88.5232C165.744 87.2549 166.478 85.764 166.967 85.764C167.057 85.764 167.146 85.6305 167.146 85.4525C167.146 85.2745 167.257 85.0965 167.413 85.052C167.546 85.0075 167.702 84.3844 167.769 83.6724L167.88 82.3818L168.725 82.4708C169.371 82.5375 169.504 82.493 169.326 82.2705C169.148 82.048 169.304 81.9812 170.016 81.9812C170.684 81.9812 170.995 81.87 171.195 81.5362C171.373 81.2469 171.729 81.0912 172.152 81.0912C172.508 81.0912 173.02 80.9354 173.242 80.7574C173.487 80.5794 173.955 80.4236 174.311 80.4236C174.644 80.4236 174.934 80.3124 174.934 80.2011C174.934 80.0676 175.178 79.9786 175.468 79.9786C175.957 79.9786 177.226 78.9327 178.049 77.8647C178.627 77.0859 178.894 75.9288 179.028 73.5256C179.184 70.6329 179.006 69.7205 178.205 69.3423C177.849 69.1642 177.604 68.875 177.604 68.6079C177.604 68.3854 177.448 68.1852 177.27 68.1852C177.092 68.1852 176.936 68.0294 176.936 67.8514C176.936 67.6734 176.736 67.3173 176.491 67.0726C176.246 66.8278 176.046 66.5163 176.046 66.405C176.046 66.2715 175.957 66.1825 175.824 66.1825C175.712 66.1825 175.601 66.0267 175.601 65.8487C175.601 65.6707 175.245 65.1367 174.822 64.6916C174.4 64.2466 174.044 63.6903 174.044 63.4455C174.044 63.223 173.932 63.1118 173.821 63.1785C173.71 63.2453 173.599 63.2008 173.599 63.0673C173.599 62.9338 173.087 62.2662 172.464 61.5987L171.307 60.3971H165.009C160.937 60.3971 158.69 60.4861 158.69 60.6196C158.69 60.7308 158.534 60.8421 158.356 60.8421C158.178 60.8421 158.022 60.9311 158.022 61.0646C158.022 61.1759 157.911 61.2871 157.8 61.2871C157.555 61.2871 157.11 61.6209 156.62 62.1327C156.465 62.2885 156.198 62.6 155.997 62.8003C155.797 63.0005 155.575 63.3565 155.508 63.5568C155.419 63.7793 155.152 63.9573 154.907 63.9573C154.64 63.9573 154.507 64.0463 154.573 64.1799C154.64 64.2911 154.551 64.4024 154.373 64.4024C154.173 64.4024 154.017 64.4914 154.017 64.6249C154.017 64.7361 153.861 64.8474 153.683 64.8474C153.505 64.8474 153.349 64.9364 153.349 65.0699C153.349 65.1812 153.194 65.2924 153.016 65.2924C152.838 65.2924 152.17 65.6485 151.569 66.0713C150.969 66.494 150.368 66.8501 150.234 66.8501C150.123 66.8501 150.012 66.9391 150.012 67.0726C150.012 67.1838 149.811 67.2951 149.589 67.2951C149.344 67.2951 149.077 67.4954 149.01 67.7401C148.944 67.9849 148.721 68.1852 148.521 68.1852C148.343 68.1852 147.898 68.4299 147.519 68.7415C147.163 69.053 146.674 69.2978 146.429 69.2978C146.207 69.2978 145.895 69.498 145.739 69.7428C145.584 69.9876 145.361 70.1878 145.228 70.1878C144.872 70.1878 143.114 71.968 143.114 72.324C143.114 72.502 143.025 72.6355 142.891 72.6355C142.758 72.6355 142.669 73.2141 142.669 73.9039V75.1945L140.799 75.1277C139.064 75.0609 138.864 74.9942 138.241 74.3934C137.862 74.0374 137.506 73.7481 137.439 73.7481C137.284 73.7481 136.883 73.4366 136.104 72.68C135.815 72.413 135.481 72.1905 135.348 72.1905C135.237 72.1905 135.103 72.1237 135.059 72.0125C135.036 71.9235 134.502 71.4562 133.879 70.9666C133.278 70.4771 132.633 69.9208 132.477 69.6983C132.322 69.4758 132.032 69.2978 131.854 69.2978C131.676 69.2978 131.587 69.1865 131.654 69.0752C131.721 68.9417 131.654 68.8527 131.476 68.8527C131.298 68.8527 131.031 68.697 130.875 68.5189C130.719 68.3409 130.408 68.1852 130.185 68.1852C129.941 68.1852 129.763 68.0517 129.763 67.8736C129.763 67.2061 128.339 67.0948 127.938 67.7401C127.782 67.9849 127.537 68.1852 127.382 68.1852C126.959 68.1852 125.535 69.765 125.379 70.4103C125.312 70.7219 125.068 71.2336 124.845 71.5674C124.6 71.8789 124.422 72.3685 124.422 72.6355C124.422 72.8803 124.333 73.036 124.2 72.9693C124.088 72.9025 123.977 73.036 123.977 73.2808C123.977 73.5478 123.888 73.7481 123.755 73.7481C123.643 73.7481 123.532 73.9706 123.51 74.2376C123.51 74.7272 123.488 74.7272 123.31 74.3044C123.154 73.9484 123.132 74.0374 123.132 74.6604C123.154 75.1277 122.976 75.7062 122.731 76.04C122.264 76.6853 121.418 76.8411 121.24 76.3293C121.173 76.1513 120.773 75.9733 120.372 75.9288C119.972 75.8843 119.683 75.773 119.705 75.6617C119.816 75.3725 119.282 75.0832 118.592 75.0832C118.258 75.0832 117.925 74.9719 117.858 74.8607C117.791 74.7272 117.502 74.6382 117.235 74.6382C116.946 74.6382 116.59 74.4379 116.412 74.1931C116.234 73.9484 115.833 73.7481 115.522 73.7481C115.21 73.7481 114.765 73.5923 114.542 73.4143C114.298 73.2363 113.875 73.0805 113.586 73.0805C113.296 73.0805 113.074 73.0138 113.074 72.9025C113.074 72.7245 111.983 72.1905 111.583 72.1905C111.427 72.1905 111.294 72.0792 111.294 71.968C111.294 71.8344 111.093 71.7454 110.849 71.7454C110.604 71.7454 109.647 71.3894 108.757 70.9666C107.845 70.5438 106.955 70.1878 106.754 70.1878C106.554 70.1878 106.398 70.0766 106.398 69.9653C106.398 69.8318 106.198 69.7428 105.953 69.7428C105.709 69.7428 105.508 69.6315 105.508 69.5203C105.508 69.3868 105.263 69.2978 104.974 69.2978C104.663 69.2978 104.351 69.1865 104.284 69.0752C104.218 68.9417 103.973 68.8527 103.75 68.8527C103.528 68.8527 103.216 68.697 103.061 68.5189C102.905 68.3409 102.482 68.1852 102.126 68.1852C101.703 68.1852 101.525 68.0962 101.636 67.9404C101.837 67.5844 101.303 67.2951 100.457 67.2951C100.057 67.2951 99.7228 67.2283 99.7228 67.1171C99.7228 67.0281 99.389 66.8501 99.0107 66.6943C98.6102 66.5608 97.8091 66.2715 97.2306 66.0713C96.6298 65.8487 96.1625 65.604 96.1625 65.4927C96.1625 65.3814 95.8733 65.2924 95.495 65.2924C95.1389 65.2924 94.8274 65.1812 94.8274 65.0699C94.8274 64.9364 94.7384 64.8474 94.6049 64.8474C94.4936 64.8474 93.8483 64.6026 93.1808 64.2911C92.5132 63.9796 91.8234 63.7348 91.6232 63.7348C91.4452 63.7348 91.2226 63.6236 91.1559 63.5123C91.0891 63.3788 90.7776 63.2898 90.4661 63.2898C90.1323 63.2898 89.932 63.1563 89.932 62.956C89.932 62.778 90.0433 62.6222 90.1546 62.6222C90.2881 62.6222 90.3993 62.1995 90.3993 61.6654C90.4216 61.1536 90.4661 60.9311 90.5328 61.1759C90.7776 62.155 91.0891 62.0437 90.9334 61.0424C90.7999 60.1078 90.9779 58.9952 91.7122 56.1692C91.9792 55.1457 92.1795 53.9886 92.0237 54.3446C91.8679 54.7006 91.4897 54.4781 91.4897 54.0108C91.4897 53.8106 91.1781 53.3655 90.7776 53.0095C90.3993 52.6757 90.1768 52.3864 90.2881 52.3864C90.7999 52.3642 89.754 51.9414 89.22 51.9414C88.864 51.9414 88.5969 51.8302 88.5969 51.7189C88.5969 51.5854 88.4412 51.4964 88.2632 51.4964C88.0851 51.4964 87.9294 51.3851 87.9294 51.2739C87.9294 51.1403 87.6401 51.0513 87.2841 51.0513C86.9058 51.0513 86.5943 50.9178 86.5053 50.6953C86.3495 50.2725 84.3691 47.2908 83.9908 46.868C83.8573 46.7345 83.6571 46.4007 83.5903 46.156C83.5013 45.9112 83.3678 45.7554 83.2565 45.8222C83.1675 45.8889 83.034 45.7332 82.9672 45.4884C82.9005 45.1991 82.9673 45.0434 83.1675 45.0434C83.3455 45.0434 83.479 44.9544 83.479 44.8431C83.479 44.7319 83.7016 44.5983 83.9908 44.5538C84.3024 44.5093 84.5026 44.3091 84.5471 43.9753C84.5916 43.686 84.7474 43.4858 84.8809 43.5525C85.0812 43.6193 85.1479 43.1297 85.1479 41.8169C85.1479 40.4373 85.0812 40.0145 84.8809 40.0812C84.7029 40.148 84.5916 40.0145 84.5916 39.7252C84.5916 39.4804 84.3691 39.0799 84.1021 38.8129C83.8351 38.5681 83.6793 38.3011 83.7683 38.2344C83.8573 38.1453 83.8128 37.9451 83.6793 37.7671C83.5013 37.5668 83.5013 37.3888 83.6571 37.1885C83.8796 36.9215 83.9241 36.8102 83.9241 36.2985C83.9241 36.0982 83.9908 36.1204 84.1243 36.343C84.2579 36.5655 84.3691 36.3652 84.4804 35.7199C84.5694 35.2304 84.7251 34.8076 84.8364 34.8076C84.9477 34.8076 85.0367 34.5628 85.0367 34.2735C85.0367 33.9175 85.1924 33.6727 85.4817 33.5837C85.7487 33.4947 85.9267 33.25 85.9267 32.9385C85.9267 32.6492 86.0825 32.2932 86.2605 32.1374C86.4385 31.9817 86.5943 31.7591 86.5943 31.6256C86.5943 31.4921 86.9726 30.5798 87.4621 29.6007C88.9085 26.5967 89.487 25.2839 89.487 25.0169C89.487 24.9056 89.6205 24.5941 89.754 24.3493C89.9765 23.9933 89.9765 23.8153 89.754 23.4593C89.6205 23.2145 89.487 22.8807 89.487 22.7249C89.487 22.3467 88.3077 21.0116 87.9961 21.0116C87.8626 21.0116 87.7069 20.8781 87.6401 20.7C87.5734 20.522 87.1506 20.2773 86.7278 20.1215C86.2828 19.988 85.9267 19.7655 85.9267 19.6542C85.9267 19.543 85.7932 19.4539 85.6375 19.4539C85.4817 19.4539 85.1257 19.2537 84.8586 19.0089C84.5916 18.7641 84.2801 18.5639 84.1466 18.5639C84.0131 18.5639 83.5235 18.3191 83.034 18.0076C82.5445 17.6961 81.9882 17.4513 81.8102 17.4513C81.6322 17.4513 81.2761 17.34 81.0314 17.1843C80.7198 16.984 80.3638 16.984 79.5405 17.162C78.9397 17.3178 76.403 17.4513 73.6883 17.4735C67.6581 17.518 67.8583 17.5403 67.2798 17.0063C67.0128 16.7615 66.5232 16.5612 66.1895 16.539C65.8557 16.539 65.6999 16.4722 65.8557 16.4055C66.3675 16.2052 66.1227 15.8937 65.5664 16.0272C65.2104 16.1162 64.8098 16.0272 64.4538 15.8047C64.1645 15.6044 63.7195 15.4486 63.4747 15.4486C63.23 15.4486 62.9184 15.2484 62.7849 15.0036C62.6292 14.7143 62.3177 14.5586 61.8949 14.5586C61.4943 14.5586 61.2496 14.4473 61.2718 14.2915C61.3163 14.1358 60.938 13.9133 60.404 13.7798C59.8922 13.6685 59.4027 13.4905 59.3137 13.3792C59.2247 13.2902 58.9799 13.2235 58.7796 13.2235C58.5571 13.2235 58.2678 13.0677 58.1121 12.8897C57.9563 12.7117 57.6225 12.5559 57.3555 12.5559C56.9105 12.5337 55.8202 11.8884 56.2429 11.8884C56.3542 11.8661 56.0427 11.6881 55.5531 11.4433C54.3738 10.887 51.9929 10.8425 51.214 11.3766ZM53.8175 18.8531C53.7285 19.0757 53.8843 19.1202 54.3515 19.0534C54.7298 18.9867 54.9968 19.0534 54.9968 19.2092C54.9968 19.3427 55.1526 19.4539 55.3306 19.4539C55.5086 19.4539 55.6644 19.543 55.6644 19.6765C55.6644 19.7877 55.9092 19.899 56.2207 19.899C56.5322 19.899 56.777 19.988 56.777 20.1215C56.777 20.2328 57.133 20.3885 57.5558 20.4775C58.2901 20.611 58.8686 21.0116 58.3346 21.0116C58.2011 21.0116 58.1566 21.1228 58.2456 21.2563C58.3346 21.4343 58.4459 21.4343 58.6239 21.2563C59.0021 20.8781 59.5584 20.9671 60.0035 21.4566C60.226 21.7014 60.582 21.9016 60.8268 21.9016C61.0493 21.9016 61.4276 22.1019 61.6724 22.3467C61.9171 22.5914 62.3622 22.7917 62.6737 22.7917C62.9852 22.7917 63.23 22.8807 63.23 23.0142C63.23 23.1255 63.4747 23.2367 63.764 23.2367C64.0755 23.2367 64.4538 23.3925 64.6541 23.5705C64.8321 23.7485 65.1436 23.9043 65.3439 23.9043C65.5442 23.9043 65.9002 24.1046 66.1672 24.3493C66.6345 24.7721 66.9683 24.7944 72.954 24.7944C77.0038 24.7944 79.2512 24.7054 79.2512 24.5718C79.2512 24.4383 79.407 24.3493 79.585 24.3493C79.763 24.3493 79.9188 24.4383 79.9188 24.5718C79.9188 24.6831 80.1413 24.7944 80.4306 24.7944C80.6976 24.7944 81.0981 24.9279 81.2984 25.1059C81.6544 25.3507 81.6322 25.4397 81.1426 26.263C80.8311 26.7303 80.5863 27.3088 80.5863 27.5091C80.5863 27.7316 80.4973 27.9096 80.3638 27.9096C80.2525 27.9096 80.1413 28.1099 80.1413 28.3546C80.1413 28.5994 80.0523 28.7997 79.9188 28.7997C79.8075 28.7997 79.6295 29.0667 79.5627 29.4005C79.4737 29.7565 79.229 30.2905 79.0064 30.6243C78.7617 30.9358 78.5837 31.4254 78.5837 31.6701C78.5837 32.1819 78.2276 32.3154 78.0719 31.8482C78.0274 31.7146 78.0274 31.8259 78.0719 32.1374C78.1164 32.4935 77.9829 32.894 77.6936 33.1833C77.4488 33.4502 77.2486 33.873 77.2486 34.1178C77.2486 34.3403 77.115 34.5851 76.937 34.6518C76.7813 34.7186 76.581 35.0746 76.5143 35.4751C76.4252 35.8534 76.2695 36.1204 76.1582 36.0537C75.9135 35.8979 75.6909 36.6767 75.6909 37.8116C75.6909 38.4569 75.8022 38.7906 76.136 38.9909C76.759 39.3692 76.6923 39.703 76.0025 39.703C75.3794 39.703 75.2014 39.8365 74.2891 41.0603C73.7995 41.7056 73.6883 42.1062 73.6883 43.0852C73.6883 43.9085 73.7995 44.4203 74.0221 44.5983C74.2001 44.7541 74.3558 45.0211 74.3558 45.1769C74.3558 45.3549 74.5561 45.5997 74.8009 45.7554C75.0456 45.9112 75.2459 46.2227 75.2459 46.423C75.2459 46.6455 75.3572 46.8235 75.4684 46.8235C75.6019 46.8235 75.6909 46.957 75.6909 47.1128C75.6909 47.2686 75.8912 47.5356 76.136 47.7136C76.3807 47.8916 76.581 48.2699 76.581 48.5369C76.581 48.8262 76.7145 49.0487 76.8925 49.0487C77.0483 49.0487 77.3153 49.338 77.4711 49.7162C77.6268 50.0723 77.8494 50.3838 77.9606 50.3838C78.0719 50.3838 78.1164 50.4728 78.0274 50.5841C77.9606 50.7176 78.0496 50.8733 78.2054 50.9846C78.3834 51.0736 78.6504 51.4074 78.8062 51.6966C78.9619 52.0082 79.1845 52.3642 79.2957 52.4755C79.407 52.609 80.0078 53.5213 80.6531 54.5004C81.8992 56.4363 82.6335 57.2818 83.0785 57.2818C83.2343 57.2818 83.5458 57.4376 83.7683 57.5933C84.1021 57.8381 84.1021 57.9271 83.8351 58.1496C83.5458 58.3944 83.4123 58.8617 83.123 60.9089C83.034 61.3539 82.9005 61.7989 82.7892 61.8657C82.678 61.9324 82.589 62.2662 82.589 62.6445C82.589 63.0005 82.5 63.2898 82.3665 63.2898C82.2329 63.2898 82.1439 63.9351 82.1439 64.7584C82.1439 65.9155 82.2329 66.316 82.5445 66.6053C82.767 66.8056 83.0118 67.1393 83.1008 67.3396C83.1675 67.5621 83.4123 67.7401 83.6126 67.7401C83.8351 67.7401 83.9241 67.8514 83.8573 68.0517C83.7238 68.4077 84.1466 68.6302 84.9477 68.6302C85.2592 68.6302 85.4372 68.7192 85.3704 68.8527C85.2814 68.9862 85.5039 69.0752 85.8822 69.0752C86.2383 69.0752 86.661 69.231 86.8168 69.409C86.9726 69.587 87.3063 69.7428 87.5734 69.7428C87.8404 69.7428 88.2854 69.9431 88.5524 70.1878C88.8195 70.4326 89.2867 70.6329 89.5983 70.6329C89.9098 70.6329 90.1546 70.7219 90.1546 70.8331C90.1546 70.9444 90.4883 71.1001 90.9111 71.1669C91.3339 71.2559 91.7789 71.4562 91.9347 71.6119C92.0682 71.7899 92.58 71.9902 93.0695 72.0792C93.5368 72.1682 93.9374 72.324 93.9374 72.4352C93.9374 72.5465 94.1376 72.6355 94.3824 72.6355C94.6272 72.6355 94.8274 72.7245 94.8274 72.858C94.8274 72.9693 94.9832 73.0805 95.1612 73.0805C95.495 73.0805 95.6952 73.1473 96.9858 73.8371C97.3641 74.0374 97.8982 74.1931 98.1429 74.1931C98.4099 74.1931 98.6102 74.2821 98.6102 74.4156C98.6102 74.5269 98.7437 74.6382 98.8995 74.6382C99.3 74.6382 100.39 75.1722 100.39 75.3502C100.39 75.4615 100.68 75.5282 101.036 75.5282C101.392 75.5282 101.725 75.6617 101.792 75.8398C101.859 76.0178 102.326 76.218 102.816 76.307C103.305 76.3961 103.817 76.5963 103.973 76.7743C104.106 76.9523 104.462 77.0859 104.752 77.0859C105.041 77.0859 105.286 77.1749 105.286 77.3084C105.286 77.4196 105.597 77.5309 105.976 77.5309C106.354 77.5309 106.599 77.6199 106.51 77.7534C106.443 77.8647 106.532 77.9759 106.71 77.9759C106.91 77.9759 107.066 78.0649 107.066 78.1984C107.066 78.3097 107.4 78.421 107.8 78.421C108.178 78.421 108.712 78.5767 108.935 78.7547C109.18 78.9327 109.536 79.0885 109.714 79.0885C109.914 79.0885 110.315 79.2888 110.626 79.5335C110.938 79.7783 111.405 79.9786 111.694 79.9786C111.961 79.9786 112.184 80.0676 112.184 80.2011C112.184 80.3124 112.406 80.4236 112.696 80.4236C112.963 80.4236 113.385 80.5794 113.608 80.7574C113.853 80.9354 114.275 81.0912 114.565 81.0912C114.832 81.0912 115.165 81.2914 115.299 81.5362C115.477 81.8477 115.766 81.9812 116.345 81.9812C116.968 81.9812 117.079 82.048 116.901 82.2705C116.701 82.493 116.812 82.5375 117.391 82.4708C117.858 82.4263 118.214 82.5153 118.392 82.7378C118.57 82.9381 118.971 83.0938 119.304 83.0938C119.727 83.0938 119.95 83.2273 120.039 83.5389C120.105 83.8504 120.35 83.9839 120.751 83.9839C121.084 83.9839 121.641 84.1842 121.997 84.4512C122.753 84.9852 125.335 85.1632 125.49 84.6959C125.535 84.5402 125.668 84.4289 125.78 84.4289C126.024 84.4289 126.87 83.7169 126.87 83.4943C126.87 83.4053 127.026 83.1383 127.204 82.9381C127.382 82.7155 127.56 82.4263 127.56 82.315C127.582 82.1815 127.782 81.7365 128.005 81.3137C128.25 80.8909 128.428 80.4236 128.428 80.2678C128.428 80.1121 128.539 79.9786 128.65 79.9786C128.784 79.9786 128.873 79.8006 128.873 79.578C128.873 79.3333 129.073 78.9773 129.318 78.7547C129.562 78.5322 129.763 78.0649 129.763 77.7089C129.763 77.3751 129.852 77.0859 129.941 77.0859C130.386 77.0859 131.342 77.6866 131.454 78.0204C131.521 78.2429 131.676 78.421 131.788 78.421C132.032 78.421 133.434 79.4223 133.99 79.9786C134.858 80.8464 136.394 81.959 136.905 82.048C137.417 82.137 137.395 82.137 136.816 82.1815C135.993 82.2037 134.168 82.671 133.857 82.8936C133.746 83.0048 133.412 83.0271 133.145 82.9381C132.878 82.8713 132.655 82.9158 132.655 83.0493C132.655 83.1828 132.833 83.3386 133.056 83.3831C133.256 83.4498 133.056 83.4943 132.611 83.5166C132.032 83.5389 131.676 83.6724 131.498 83.9839C131.342 84.2287 131.009 84.4289 130.742 84.4289C130.475 84.4289 129.963 84.5847 129.629 84.7627C129.273 84.9407 128.695 85.0965 128.361 85.0965C128.005 85.0965 127.782 85.1855 127.871 85.319C127.96 85.4525 127.76 85.5415 127.448 85.5415C127.137 85.5415 126.87 85.6305 126.87 85.764C126.87 85.8753 126.736 85.9865 126.558 85.9865C126.38 85.9865 126.202 86.0533 126.158 86.1423C126.136 86.2536 125.802 86.4983 125.424 86.6986C125.068 86.8989 124.667 87.2326 124.533 87.4552C124.422 87.6554 124.133 88.0337 123.933 88.2562C123.666 88.5232 123.532 89.0128 123.532 89.7248C123.532 90.7707 123.933 91.9945 124.266 91.9945C124.355 91.9945 124.422 92.3728 124.422 92.8401C124.422 93.3074 124.511 93.7746 124.6 93.8859C124.978 94.3309 125.357 95.9776 125.223 96.5339C125.134 96.9344 125.157 97.0901 125.357 97.0679C125.535 97.0234 125.713 97.4462 125.846 98.2695C125.958 98.9815 126.136 99.5601 126.247 99.5601C126.336 99.5601 126.425 99.9384 126.425 100.406C126.425 100.873 126.514 101.34 126.603 101.451C126.848 101.741 127.315 103.387 127.315 103.966C127.315 104.233 127.493 104.522 127.693 104.656C127.916 104.767 128.005 104.945 127.916 105.034C127.827 105.123 127.626 105.079 127.493 104.945C127.337 104.789 126.736 104.678 126.136 104.678C125.246 104.678 125.023 104.745 124.934 105.123C124.867 105.368 124.622 105.568 124.4 105.568C124.155 105.568 123.91 105.724 123.844 105.902C123.755 106.08 123.599 106.236 123.488 106.236C123.354 106.236 122.954 106.525 122.598 106.903C122.264 107.259 121.886 107.571 121.797 107.571C121.707 107.571 121.374 107.815 121.04 108.127C120.706 108.439 120.328 108.683 120.194 108.683C120.083 108.683 119.972 108.772 119.972 108.906C119.972 109.017 119.838 109.128 119.705 109.128C119.149 109.128 117.079 111.487 117.079 112.088C117.079 112.399 116.968 112.733 116.834 112.8C116.701 112.889 116.612 113.512 116.634 114.224C116.679 116.026 116.679 116.026 116.078 116.026C115.766 116.026 115.522 116.115 115.522 116.227C115.522 116.316 114.743 116.805 113.808 117.272C112.851 117.762 112.05 118.207 112.006 118.296C111.961 118.407 111.783 118.474 111.605 118.474C111.427 118.474 111.294 118.563 111.294 118.697C111.294 118.808 111.049 118.919 110.76 118.919C110.47 118.919 110.181 119.075 110.092 119.253C110.025 119.431 109.758 119.587 109.514 119.587C109.002 119.587 108.334 120.121 108.557 120.343C108.646 120.41 108.423 120.477 108.089 120.477C107.733 120.477 107.533 120.566 107.622 120.699C107.689 120.81 107.555 120.922 107.311 120.922C106.999 120.922 106.643 121.256 106.265 121.856C105.931 122.39 105.575 122.835 105.486 122.88C105.375 122.924 105.286 123.258 105.286 123.614C105.286 123.97 105.197 124.259 105.063 124.259C104.952 124.259 104.841 124.504 104.841 124.794C104.841 125.083 104.685 125.439 104.507 125.595C104.329 125.75 104.173 126.062 104.173 126.284C104.173 126.774 100.969 130.067 99.9898 130.579C99.6115 130.779 99.033 130.935 98.7215 130.935C98.3877 130.935 98.1874 131.024 98.2764 131.158C98.3432 131.269 98.2764 131.38 98.0984 131.38C97.9204 131.38 97.4086 131.803 96.9636 132.292C96.5186 132.804 96.1625 133.138 96.1625 133.027C96.1625 132.915 95.9623 133.205 95.7175 133.65C95.2947 134.429 94.8497 135.052 94.2266 135.719C94.0709 135.875 94.0264 136.053 94.0931 136.142C94.1821 136.209 94.0709 136.275 93.8706 136.275C93.6703 136.275 93.4923 136.387 93.4923 136.52C93.4923 136.676 93.0695 136.698 92.224 136.587C91.0446 136.453 90.9556 136.453 91.2449 136.809C91.5119 137.121 91.4674 137.165 90.8666 137.165C90.4216 137.165 90.0878 137.321 89.9543 137.588C89.8208 137.811 89.4648 138.078 89.1532 138.145C88.8417 138.234 88.5969 138.389 88.5969 138.501C88.5969 138.634 88.3967 138.723 88.1519 138.723C87.9071 138.723 87.7069 138.812 87.7069 138.946C87.7069 139.057 87.5734 139.168 87.4398 139.168C86.7278 139.19 85.0367 141.238 85.0367 142.061C85.0367 142.306 84.9699 142.506 84.8809 142.506C84.5694 142.506 84.1466 143.685 84.1466 144.464C84.1466 144.865 84.0576 145.154 83.9463 145.065C83.8128 144.998 83.6571 145.31 83.5903 145.777C83.4123 146.8 83.0563 148.047 82.7892 148.558C82.678 148.781 82.589 149.137 82.589 149.382C82.589 149.626 82.4777 149.849 82.322 149.893C81.9659 150.027 81.9882 154.366 82.3442 154.477C82.4777 154.522 82.589 154.744 82.589 154.967C82.589 155.189 82.7892 155.835 83.034 156.413C83.2788 156.992 83.4123 157.548 83.3455 157.659C83.1898 157.926 82.8337 159.929 82.6557 161.464C82.589 162.065 82.4555 162.532 82.3442 162.532C82.2329 162.532 82.1439 163.222 82.1439 164.046C82.1439 164.869 82.0549 165.648 81.9214 165.781C81.8102 165.892 81.6321 166.805 81.5654 167.762C81.4096 169.72 81.1204 170.321 79.4515 172.19C78.9174 172.791 78.3166 173.458 78.1386 173.703C77.0928 175.06 76.2695 175.883 75.9802 175.883C75.7799 175.883 75.6909 176.017 75.7577 176.195C75.8244 176.351 75.5797 176.818 75.2014 177.241C74.8231 177.641 74.3781 178.309 74.2223 178.687C73.844 179.6 73.3323 180.111 72.7982 180.111C72.5089 180.111 72.4199 180 72.5089 179.689C72.5757 179.422 72.4199 179.043 72.1529 178.754C71.8859 178.465 71.6856 177.975 71.6856 177.619C71.6856 177.285 71.5966 176.996 71.4631 176.996C71.3519 176.996 71.2406 176.774 71.2406 176.484C71.2183 176.217 71.0403 175.594 70.7956 175.105C70.5508 174.615 70.3728 174.037 70.3505 173.814C70.3505 173.592 70.1948 173.369 70.0167 173.302C69.7942 173.213 69.683 172.857 69.683 172.256C69.683 171.767 69.6162 171.433 69.5272 171.5C69.3269 171.722 68.7929 170.12 68.9487 169.742C69.0377 169.52 68.9487 169.475 68.7039 169.564C68.4146 169.675 68.3479 169.542 68.3479 168.919C68.3479 168.496 68.1921 168.029 68.0141 167.873C67.8361 167.717 67.6803 167.406 67.6803 167.161C67.6803 166.938 67.4801 166.315 67.2353 165.826C66.9905 165.314 66.7902 164.713 66.7902 164.491C66.7902 164.268 66.7012 164.09 66.59 164.09C66.4787 164.09 66.3452 163.69 66.2562 163.222C66.1895 162.733 66.0114 162.31 65.8779 162.265C65.6554 162.199 65.1881 160.708 65.2104 160.018C65.2104 159.818 65.1214 159.684 64.9879 159.751C64.8766 159.84 64.7876 159.528 64.7876 159.106C64.7876 158.661 64.6986 158.305 64.5873 158.305C64.3871 158.305 63.23 154.9 63.23 154.344C63.23 154.188 63.141 154.121 63.0075 154.188C62.8739 154.277 62.7849 154.01 62.7849 153.565C62.7849 153.142 62.6069 152.63 62.3399 152.341C62.0951 152.074 61.8949 151.629 61.8949 151.34C61.8949 151.073 61.7836 150.717 61.6279 150.561C61.4943 150.428 61.3831 149.849 61.3608 149.293C61.3386 148.336 61.1383 147.98 60.9603 148.558C60.8935 148.714 60.7378 148.358 60.5598 147.78C60.404 147.201 60.1815 146.667 60.0925 146.6C59.9812 146.533 59.8922 146.289 59.8922 146.044C59.8922 145.821 59.8032 145.421 59.6697 145.176C59.5584 144.931 59.3582 144.531 59.2247 144.286C59.1134 144.041 59.0021 143.707 59.0021 143.529C59.0021 143.374 58.8464 142.929 58.6684 142.595C58.4904 142.239 58.3346 141.727 58.3346 141.438C58.3346 141.171 58.2456 140.948 58.1121 140.948C58.0008 140.948 57.8896 140.704 57.8896 140.392C57.8896 140.08 57.8006 139.836 57.667 139.836C57.5558 139.836 57.4445 139.635 57.4445 139.413C57.4445 139.168 57.3555 138.901 57.222 138.834C57.1108 138.768 56.9995 138.434 56.9995 138.1C56.9995 137.766 56.8437 137.299 56.6657 137.076C56.4877 136.832 56.3319 136.476 56.3319 136.275C56.3319 135.808 55.8202 134.718 55.6199 134.718C55.5086 134.718 55.4419 134.473 55.4419 134.162C55.4419 133.85 55.3529 133.427 55.2416 133.205C55.1081 133.004 54.9523 132.426 54.8633 131.936C54.7966 131.447 54.6631 131.18 54.6186 131.336C54.4405 131.825 54.1068 131.38 54.1068 130.623C54.1068 130.201 53.951 129.756 53.773 129.6C53.595 129.444 53.4392 128.977 53.4392 128.576C53.4392 128.154 53.3502 127.82 53.2167 127.82C53.1054 127.82 52.9942 127.531 52.9942 127.197C52.9942 126.841 52.7939 126.351 52.5491 126.084C52.3044 125.817 52.1041 125.439 52.1041 125.239C52.1041 125.038 51.9706 124.616 51.7926 124.304C51.125 122.991 50.7468 121.189 51.214 121.478C51.3476 121.567 51.4366 121.077 51.4366 120.187C51.4366 119.386 51.5923 118.318 51.7703 117.807C52.2376 116.494 52.1931 115.782 51.5478 114.513C51.2363 113.89 50.9915 113.2 50.9915 112.933C50.9915 112.666 50.9025 112.466 50.769 112.466C50.6578 112.466 50.5465 112.266 50.5465 112.021C50.5465 111.776 50.4575 111.576 50.324 111.576C50.2127 111.576 50.1015 111.398 50.1015 111.175C50.1015 110.975 49.9457 110.53 49.7677 110.174C49.5452 109.707 49.4562 108.817 49.5007 106.614C49.5452 103.766 49.5229 103.61 48.9889 102.942C48.6773 102.564 48.2991 102.253 48.1656 102.253C48.0098 102.23 47.8763 102.119 47.8763 102.008C47.8763 101.874 47.676 101.785 47.4313 101.785C47.1865 101.785 46.9862 101.674 46.9862 101.563C46.9862 101.429 46.5412 101.34 45.9849 101.34C45.4286 101.34 44.9836 101.429 44.9836 101.563C44.9836 101.674 44.8278 101.785 44.6498 101.785C44.4718 101.785 44.316 101.874 44.316 102.008C44.316 102.119 44.1825 102.23 44.049 102.23C43.8932 102.23 43.515 102.586 43.2034 103.031C42.8919 103.454 42.3134 104.166 41.9351 104.611C41.5346 105.056 41.2008 105.524 41.2008 105.613C41.2008 105.724 40.9338 106.08 40.6 106.436C39.888 107.148 39.4652 107.749 39.2872 108.283C39.1982 108.505 39.0202 108.683 38.8644 108.683C38.7086 108.683 38.3749 109.062 38.1524 109.507C37.6406 110.486 37.0175 110.664 36.4167 110.018C36.1942 109.774 35.8382 109.573 35.5934 109.573C35.3709 109.573 35.1929 109.462 35.1929 109.351C35.1929 109.217 35.0371 109.128 34.8368 109.128C34.3696 109.128 33.1902 107.793 33.1902 107.281C33.1902 107.037 32.99 106.814 32.7452 106.747C32.5004 106.681 32.3002 106.525 32.3002 106.414C32.3002 106.302 32.4114 106.28 32.5227 106.347C32.6562 106.414 32.7452 106.391 32.7452 106.258C32.7452 106.124 32.99 105.969 33.2792 105.88C33.5908 105.813 34.058 105.412 34.3473 104.99C34.6366 104.567 34.9259 104.233 35.0371 104.233C35.1261 104.233 35.1929 103.521 35.1929 102.675C35.1929 101.808 35.1261 101.118 35.0371 101.118C34.9259 101.118 34.6588 100.806 34.4141 100.45C34.1693 100.094 33.8355 99.7826 33.6798 99.7826C33.524 99.7826 33.435 99.6936 33.5017 99.5823C33.5685 99.4711 33.3237 99.3376 32.9455 99.2486C32.0776 99.0706 32.3224 98.67 33.3237 98.67C33.7465 98.67 34.0803 98.5588 34.0803 98.4475C34.0803 98.314 34.4141 98.225 34.8146 98.225C35.9272 98.225 36.5057 98.0025 36.3722 97.6464C36.2832 97.4239 36.439 97.3349 36.9285 97.3349C37.2845 97.3349 37.7073 97.1792 37.8631 97.0011C38.0188 96.8231 38.2414 96.6674 38.3749 96.6674C38.4861 96.6674 38.7531 96.4893 38.9534 96.2668C39.1537 96.0443 39.4875 95.7995 39.71 95.7105C40.1328 95.5548 40.155 95.3768 40.0883 90.5481C40.066 88.946 39.9547 87.6109 39.8435 87.5887C39.7322 87.5442 39.6432 87.2994 39.6432 87.0769C39.6432 86.8321 39.5542 86.6986 39.4207 86.7654C39.2872 86.8321 39.2649 86.7431 39.3317 86.5651C39.4207 86.3648 39.3094 86.1646 39.1092 86.0755C38.9089 86.0088 38.7531 85.7195 38.7531 85.4525C38.7531 85.1855 38.5529 84.8517 38.3081 84.6959C38.0633 84.5402 37.8631 84.2509 37.8631 84.0284C37.8631 83.8059 37.7073 83.4276 37.5293 83.1828C37.3513 82.9603 37.1955 82.582 37.1955 82.3595C37.1955 82.1592 37.1065 81.9812 36.973 81.9812C36.8618 81.9812 36.7505 81.7587 36.7505 81.4694C36.7505 81.2024 36.5502 80.8241 36.3055 80.6461C36.0607 80.4681 35.8604 80.2011 35.8604 80.0453C35.8604 79.489 35.1039 78.1984 34.6811 78.0649C34.3918 77.9759 34.3251 77.8202 34.4363 77.5754C34.5031 77.3529 34.6366 76.9746 34.6811 76.6853C34.7478 76.4183 34.8813 76.1958 34.9926 76.1958C35.1039 76.1958 35.1929 75.8398 35.1929 75.417C35.1929 74.6604 35.4599 74.3934 35.7492 74.8607C35.8159 74.9719 36.0829 75.0832 36.3277 75.0832C36.5502 75.0832 36.7505 75.1722 36.7505 75.3057C36.7505 75.417 37.0843 75.5282 37.5071 75.5282C37.9298 75.5282 38.3081 75.6395 38.3526 75.7953C38.4194 75.951 39.0647 76.129 39.9325 76.1958C41.2231 76.307 41.4456 76.2625 41.5569 75.9288C41.6236 75.7062 41.7794 75.5282 41.8906 75.5282C42.0909 75.5282 43.6485 74.0374 43.6485 73.8148C43.6485 73.7703 44.4273 72.9248 45.3841 71.9457C46.3187 70.9666 47.498 69.7205 47.9875 69.1642C48.4771 68.6302 49.3449 67.6734 49.9234 67.0726C50.502 66.4495 50.9248 65.96 50.858 65.96C50.7468 65.96 51.9706 64.6249 54.1068 62.4442C56.1094 60.3748 56.3319 59.9743 56.3319 58.3277C56.3319 57.2596 56.4209 56.859 56.6657 56.7478C56.8437 56.681 56.9995 56.4585 56.9995 56.2582C56.9995 56.058 57.1775 55.6352 57.4223 55.3237C57.6448 54.9899 58.0453 54.3001 58.3123 53.7661C58.6016 53.1875 58.8909 52.876 59.0467 52.965C59.2024 53.0762 59.2469 53.0095 59.1802 52.787C59.0912 52.609 59.2247 52.1194 59.4694 51.7411C59.692 51.3629 59.8922 50.8956 59.8922 50.7398C59.8922 50.5618 59.959 50.3838 60.0702 50.3393C60.3373 50.228 61.8949 47.4911 61.8949 47.1573C61.8949 46.9793 62.0951 46.7345 62.3399 46.601C62.6069 46.4675 62.7849 46.1337 62.7849 45.7999C62.7849 45.4884 62.8739 45.3104 63.0075 45.3772C63.141 45.4662 63.23 45.0434 63.23 44.2868C63.23 43.597 63.141 43.0407 63.0075 43.0407C62.8962 43.0407 62.7849 42.9072 62.7849 42.7292C62.7849 42.5734 62.0061 41.6389 61.0716 40.6598C60.1147 39.6807 58.7796 38.2566 58.1121 37.5C57.4445 36.7212 56.4877 35.6754 55.9982 35.1636C54.7966 33.8953 54.4183 33.25 54.7743 33.0275C55.1081 32.8272 54.8633 31.2251 54.4851 30.9803C54.307 30.8691 54.1958 29.534 54.1513 26.975C54.0845 22.6582 53.862 21.8571 52.6159 21.0338C52.2154 20.789 51.8816 20.4553 51.8816 20.344C51.8816 20.2105 51.7036 20.1215 51.5033 20.1215C51.2808 20.1215 51.5701 19.81 52.2154 19.3649C53.3725 18.5639 54.0178 18.3636 53.8175 18.8531ZM168.703 68.0294C168.703 68.2074 168.903 68.5189 169.148 68.7415C169.393 68.964 169.593 69.2532 169.593 69.409C169.593 69.5648 169.838 69.9653 170.149 70.3213C170.461 70.6774 170.839 71.2336 170.995 71.5674C171.129 71.9235 171.329 72.1905 171.418 72.1905C171.529 72.1905 171.596 72.5465 171.596 72.9693C171.596 73.5923 171.507 73.7481 171.151 73.7481C170.906 73.7481 170.706 73.8371 170.706 73.9706C170.706 74.0819 170.55 74.1931 170.372 74.1931C170.194 74.1931 170.038 74.2821 170.038 74.4156C170.038 74.5269 169.704 74.6382 169.282 74.6382C168.859 74.6382 168.481 74.7272 168.436 74.8607C168.414 74.9719 167.902 75.1054 167.324 75.1277C166.545 75.1722 166.278 75.2835 166.322 75.5282C166.344 75.7285 166.077 75.8843 165.477 75.9955C165.009 76.0845 164.564 76.2625 164.52 76.396C164.475 76.5296 164.142 76.6408 163.786 76.6408C163.429 76.6408 163.14 76.7298 163.14 76.8633C163.14 76.9746 163.007 77.0859 162.829 77.0859C162.25 77.0859 160.915 78.9105 160.915 79.7116C160.915 80.7796 160.448 82.5153 160.092 82.7155C159.936 82.8045 159.802 83.0048 159.802 83.1606C159.802 83.3163 159.602 83.5611 159.357 83.7169C159.068 83.8949 158.912 84.2287 158.912 84.6292C158.912 85.0075 158.823 85.3412 158.712 85.408C158.623 85.4748 158.467 86.2981 158.378 87.2549C158.289 88.2117 158.111 89.4356 158 89.9919C157.867 90.5481 157.755 91.2602 157.755 91.6162C157.733 92.128 157.666 92.1948 157.266 92.0835C157.021 91.9945 156.687 91.7942 156.509 91.6385C156.064 91.1934 155.063 91.2602 154.462 91.772C154.173 92.0168 153.705 92.2838 153.438 92.3505C153.149 92.4173 152.86 92.6621 152.793 92.8846C152.726 93.1071 152.526 93.3519 152.348 93.4186C152.126 93.4854 152.014 93.8637 152.014 94.4422C152.014 94.9317 151.925 95.3323 151.836 95.3323C151.458 95.3323 151.124 96.7786 151.347 97.5352C151.525 98.1582 151.503 98.225 151.236 98.0025C151.058 97.8467 150.902 97.5797 150.902 97.3794C150.902 97.2014 150.701 96.8676 150.434 96.6451C149.878 96.1556 149.989 95.666 150.902 94.6202C151.258 94.2197 151.569 93.7969 151.569 93.7079C151.569 93.6189 151.77 93.3296 152.014 93.0626C152.259 92.7956 152.459 92.4395 152.459 92.2838C152.459 92.128 152.571 91.9945 152.682 91.9945C152.815 91.9945 152.904 91.8387 152.904 91.6607C152.904 91.4827 152.993 91.327 153.082 91.327C153.171 91.327 153.372 91.0154 153.505 90.6594C153.705 90.1254 153.705 89.8138 153.483 89.302C153.327 88.946 153.149 88.7235 153.06 88.8125C152.971 88.8793 152.904 88.7458 152.904 88.4787C152.904 88.2117 152.815 87.9892 152.704 87.9892C152.593 87.9892 152.437 87.8112 152.348 87.5887C152.192 87.0769 150.724 86.4316 149.722 86.4316C149.277 86.4316 148.855 86.3203 148.788 86.2091C148.721 86.0755 148.009 85.9865 147.23 85.9865C146.451 85.9865 145.739 85.8753 145.673 85.764C145.606 85.6305 144.894 85.5415 144.093 85.5415C143.314 85.5415 142.669 85.4747 142.669 85.3635C142.669 85.2745 142.29 85.0075 141.845 84.7627C141.378 84.5179 140.866 84.1396 140.71 83.9394C140.555 83.7169 140.199 83.5389 139.932 83.5166C139.598 83.5166 139.553 83.4721 139.776 83.3831C139.976 83.2941 139.709 83.0938 138.997 82.849L137.884 82.4708L142.513 82.4485C145.539 82.4263 147.097 82.3595 147.008 82.2037C146.941 82.0702 147.119 81.9812 147.43 81.9812C147.764 81.9812 148.031 81.8255 148.12 81.5585C148.187 81.3137 148.387 81.0912 148.543 81.0244C149.055 80.8241 149.567 79.5335 149.567 78.4877C149.567 77.9537 149.678 77.2861 149.811 77.0413C149.989 76.7076 149.989 76.5518 149.789 76.4183C149.589 76.307 149.589 76.218 149.767 76.1068C149.9 76.0178 149.967 75.8398 149.9 75.7285C149.811 75.6172 149.923 75.5282 150.101 75.5282C150.301 75.5282 150.457 75.417 150.457 75.3057C150.457 75.1722 150.612 75.0832 150.79 75.0832C150.969 75.0832 151.124 74.9942 151.124 74.8829C151.124 74.7717 151.525 74.5047 152.014 74.2821C152.504 74.0596 152.904 73.8148 152.904 73.7036C152.904 73.6146 153.038 73.5256 153.194 73.5256C153.349 73.5256 153.705 73.3253 153.972 73.0805C154.24 72.8358 154.551 72.6355 154.685 72.6355C154.796 72.6355 154.907 72.5243 154.907 72.413C154.907 72.2795 155.018 72.1905 155.13 72.1905C155.397 72.1905 157.221 71.0334 157.31 70.7886C157.355 70.6996 157.555 70.6329 157.778 70.6329C157.978 70.6329 158.289 70.4326 158.467 70.1878C158.645 69.9431 158.89 69.7428 159.024 69.7428C159.335 69.7428 160.915 68.2519 160.915 67.9626C160.915 67.8291 162.361 67.7401 164.809 67.7401C167.924 67.7401 168.703 67.8069 168.703 68.0294Z" fill="url(#paint0_linear_17_107)"/>
<defs>
<linearGradient id="paint0_linear_17_107" x1="20" y1="11" x2="172.706" y2="144.975" gradientUnits="userSpaceOnUse">
<stop offset="0.49069" stop-color="#26B6CA"/>
<stop offset="0.56019" stop-color="#30B9C7"/>
<stop offset="0.68036" stop-color="#4DBFBE"/>
<stop offset="0.83676" stop-color="#7ACBAF"/>
<stop offset="1" stop-color="#B1D89E"/>
</linearGradient>
</defs>
</svg>
