<svg width="200" height="200" viewBox="0 0 200 200" fill="none" xmlns="http://www.w3.org/2000/svg">
<path d="M91.8763 19.0982C91.7487 19.2076 90.7094 19.4081 89.0138 19.6269C88.558 19.6816 88.0292 19.791 87.8287 19.8822C87.6281 19.9734 87.227 20.0827 86.917 20.1374C85.6043 20.3562 84.3462 20.6297 83.9998 20.7756C83.7993 20.8668 82.6688 21.2496 81.4837 21.6143C80.2986 21.9972 79.2958 22.3801 79.2411 22.4712C79.1864 22.5442 79.0223 22.6171 78.8764 22.6171C78.53 22.6171 73.9901 24.805 73.9172 25.0238C73.8807 25.0967 73.7713 25.1697 73.6801 25.1697C73.4431 25.1697 70.5259 27.0294 70.453 27.2117C70.4165 27.3029 70.2706 27.3576 70.143 27.3576C70.0154 27.3576 69.8695 27.4123 69.833 27.4852C69.8148 27.5764 69.1584 28.1233 68.4109 28.7068C66.223 30.4571 63.3058 33.4473 61.5372 35.7811C60.3885 37.2943 58.9117 39.5552 58.2918 40.722C58.0912 41.0867 57.8907 41.3967 57.836 41.3967C57.7813 41.3967 57.6354 41.6701 57.4895 41.9801C57.3619 42.3083 56.8514 43.4205 56.3591 44.4597C55.8668 45.499 55.4657 46.4653 55.4657 46.593C55.4657 46.7388 55.3928 46.9029 55.2834 46.9576C55.1922 47.0123 55.1011 47.2311 55.1011 47.4317C55.1011 47.614 55.0281 47.7781 54.9187 47.7781C54.8276 47.7781 54.7364 47.9604 54.7364 48.1792C54.7364 48.4162 54.6088 48.8356 54.4629 49.1273C54.3171 49.4008 54.1894 49.8019 54.1894 49.9842C54.1894 50.1848 54.1165 50.3307 54.0071 50.3307C53.9159 50.3307 53.8248 50.5312 53.8248 50.7865C53.8248 51.0417 53.7519 51.3881 53.6425 51.5705C53.4784 51.8804 53.1502 53.1932 52.9679 54.3054C52.9132 54.6336 52.8038 54.9435 52.7126 54.9982C52.6214 55.0529 52.5485 55.3264 52.5485 55.6181C52.5485 55.9098 52.4756 56.3292 52.3662 56.5662C52.275 56.8032 52.0927 57.7696 51.9833 58.7177C51.8739 59.6658 51.7098 60.9785 51.6186 61.6349C51.1993 64.5156 51.1993 65.4455 51.6369 66.3754C51.9833 67.1047 52.2203 67.3417 53.0226 67.7246C53.5513 67.9799 54.1712 68.1986 54.4082 68.1986C54.9917 68.1804 56.3956 67.4329 56.6326 67.0135C56.742 66.813 56.8696 66.6124 56.9243 66.5577C57.1796 66.3389 57.4713 64.8621 57.4895 63.8046C57.4895 62.273 57.9089 59.0823 58.3647 57.0767C58.4559 56.6209 58.6382 55.8004 58.7476 55.2535C58.857 54.7065 59.0029 54.0866 59.094 53.886C59.3493 53.2661 59.6592 52.2268 59.6592 51.9898C59.6592 51.8622 59.7869 51.4611 59.951 51.0964C60.115 50.7135 60.3338 50.2213 60.425 49.966C60.5344 49.7107 60.6803 49.3643 60.7714 49.2002C60.8626 49.0179 60.9355 48.7809 60.9355 48.6532C60.9355 48.5256 61.3549 47.5775 61.8471 46.5565C62.3577 45.5355 62.7588 44.6056 62.7588 44.5144C62.7588 44.405 62.8135 44.3139 62.9046 44.3139C62.9776 44.3139 63.2693 43.8763 63.561 43.3475C63.8527 42.837 64.1445 42.363 64.1992 42.3083C64.2539 42.2536 64.4726 41.9254 64.655 41.579C64.9467 41.0502 66.0407 39.5734 66.4053 39.2087C66.46 39.154 66.7335 38.7894 67.0252 38.3883C67.7545 37.3855 70.8176 34.3771 72.2398 33.2467C74.5371 31.4599 77.9101 29.4726 80.5356 28.3604C80.9367 28.1963 81.3925 27.9957 81.5384 27.9228C81.6843 27.8499 82.3042 27.6493 82.9059 27.467C83.5075 27.2846 84.1457 27.0659 84.3098 26.9747C84.4921 26.8835 84.802 26.8106 84.9844 26.8106C85.1849 26.8106 85.3855 26.7377 85.4402 26.6465C85.4949 26.5736 85.8048 26.4459 86.133 26.373C86.4612 26.3183 87.3546 26.136 88.1022 25.9719C91.8398 25.2061 95.5958 24.805 99.771 24.7685C103.199 24.7503 106.955 25.042 107.338 25.3702C107.429 25.4614 107.793 25.5343 108.158 25.5343C108.523 25.5343 108.887 25.6072 108.979 25.6802C109.088 25.7713 109.544 25.9719 110 26.1542C110.911 26.4824 111.969 27.4305 111.64 27.6128C111.531 27.6858 111.44 27.941 111.44 28.178C111.44 28.4151 111.367 28.6703 111.258 28.725C111.002 28.8891 111.039 30.5665 111.312 31.0406C112.023 32.2986 112.935 32.7544 114.995 32.9003C117.858 33.1191 121.176 33.6296 122.106 33.9943C122.762 34.2495 123.182 34.4318 123.875 34.7236C124.239 34.8877 124.622 35.0153 124.732 35.0153C124.841 35.0153 125.497 35.3799 126.19 35.8358C126.883 36.2916 127.539 36.6562 127.631 36.6562C127.74 36.6562 127.849 36.7109 127.886 36.8021C127.922 36.875 128.196 37.1303 128.487 37.349C130.019 38.5341 131.842 40.5215 133.1 42.363C133.611 43.1288 134.048 43.8763 134.048 44.0222C134.048 44.168 134.103 44.3139 134.194 44.3503C134.267 44.3686 134.559 44.8973 134.832 45.499C135.124 46.1007 135.434 46.7388 135.525 46.9029C135.616 47.0852 135.689 47.3587 135.689 47.5046C135.689 47.6505 135.762 47.7781 135.853 47.7781C135.945 47.7781 136.072 48.1245 136.145 48.5439C136.218 48.9814 136.327 49.4008 136.4 49.5102C136.674 49.8931 137.513 53.2661 137.513 53.9954C137.513 54.2507 137.586 54.5242 137.677 54.6153C137.987 54.9435 138.096 57.1679 138.205 67.0135C138.315 75.8746 138.37 76.9138 138.643 77.4426C139.062 78.1901 139.901 78.7736 140.74 78.883C141.724 79.0288 142.454 79.3388 142.982 79.8128L143.438 80.2322L143.493 86.7048C143.529 92.521 143.511 93.2138 143.238 93.6332C142.855 94.1984 142.217 94.563 141.25 94.7271C140.849 94.8001 140.266 94.9642 139.974 95.0918C139.117 95.4747 138.242 96.6233 138.242 97.3709C138.242 97.5714 138.169 97.7355 138.06 97.7355C137.968 97.7355 137.877 97.9361 137.877 98.1731C137.877 98.4284 137.804 98.6836 137.695 98.7383C137.604 98.793 137.513 99.0118 137.513 99.1941C137.513 99.5406 136.765 101.656 136.419 102.312C136.327 102.476 136.2 102.914 136.145 103.278C136.072 103.643 135.945 103.989 135.853 104.044C135.762 104.099 135.689 104.299 135.689 104.5C135.689 104.682 135.616 105.01 135.507 105.211C135.069 106.104 134.997 106.268 134.869 106.852C134.796 107.198 134.668 107.599 134.595 107.763C134.522 107.909 134.358 108.274 134.231 108.584C134.103 108.876 133.939 109.259 133.866 109.404C133.793 109.569 133.666 109.97 133.593 110.316C133.52 110.662 133.392 111.064 133.319 111.228C133.046 111.756 132.407 113.233 132.407 113.343C132.407 113.47 131.933 114.601 131.66 115.093C131.569 115.275 131.496 115.549 131.496 115.695C131.496 115.841 131.423 115.968 131.314 115.968C131.222 115.968 131.095 116.26 131.022 116.606C130.967 116.953 130.839 117.299 130.748 117.354C130.657 117.409 130.584 117.609 130.584 117.81C130.584 117.992 130.53 118.156 130.438 118.156C130.365 118.156 130.147 118.521 129.946 118.977C129.746 119.432 129.527 119.797 129.454 119.797C129.363 119.797 129.308 119.87 129.308 119.979C129.308 120.071 128.706 120.982 127.995 121.985C127.266 123.006 126.537 124.027 126.391 124.246C126.026 124.811 123.802 127.309 122.562 128.549C121.431 129.679 118.241 132.378 118.04 132.378C117.949 132.378 117.73 132.523 117.53 132.706C117.201 133.016 116.399 133.526 115.178 134.237C114.193 134.821 111.677 136.006 111.185 136.133C110.929 136.188 110.656 136.316 110.601 136.407C110.547 136.498 110.328 136.571 110.091 136.571C109.872 136.571 109.617 136.626 109.544 136.699C109.38 136.863 108.03 137.246 106.791 137.483C106.298 137.574 105.35 137.756 104.694 137.884C103.162 138.176 97.8384 138.176 96.3068 137.884C95.6505 137.756 94.7206 137.574 94.2101 137.483C92.9703 137.246 91.6211 136.863 91.457 136.699C91.384 136.626 91.1288 136.571 90.91 136.571C90.673 136.571 90.4542 136.498 90.3995 136.407C90.3448 136.316 90.0713 136.188 89.816 136.133C89.3237 136.006 86.8076 134.821 85.8231 134.237C84.6015 133.526 83.7993 133.016 83.4711 132.706C83.2705 132.523 83.0517 132.378 82.9605 132.378C82.76 132.378 79.5693 129.679 78.4389 128.549C77.199 127.309 74.9747 124.811 74.61 124.246C74.4641 124.027 73.7348 123.006 73.0238 121.985C72.2945 120.982 71.6928 120.071 71.6928 119.979C71.6928 119.87 71.6381 119.797 71.5651 119.797C71.474 119.797 71.2552 119.432 71.0546 118.977C70.8541 118.521 70.6353 118.156 70.5623 118.156C70.4712 118.156 70.4165 117.992 70.4165 117.81C70.4165 117.609 70.3436 117.409 70.2524 117.354C70.1612 117.299 70.0336 116.953 69.9789 116.606C69.906 116.26 69.7783 115.968 69.6872 115.968C69.5778 115.968 69.5049 115.841 69.5049 115.695C69.5049 115.549 69.4319 115.275 69.3408 115.093C69.0673 114.601 68.5932 113.47 68.5932 113.343C68.5932 113.233 67.9551 111.756 67.6816 111.228C67.6087 111.064 67.481 110.662 67.4081 110.316C67.3352 109.97 67.2075 109.569 67.1346 109.404C67.0617 109.259 66.8976 108.876 66.77 108.584C66.6423 108.274 66.4782 107.909 66.4053 107.763C66.3324 107.599 66.2047 107.198 66.1318 106.852C66.0042 106.268 65.9313 106.104 65.4937 105.211C65.4025 105.01 65.3114 104.682 65.3114 104.5C65.3114 104.299 65.2384 104.099 65.1473 104.044C65.0561 103.989 64.9285 103.643 64.8555 103.278C64.8008 102.914 64.6732 102.476 64.582 102.312C64.2356 101.656 63.4881 99.5406 63.4881 99.1941C63.4881 99.0118 63.4152 98.793 63.3058 98.7383C63.1964 98.6836 63.1234 98.4284 63.1234 98.1731C63.1234 97.9361 63.0505 97.7355 62.9411 97.7355C62.8499 97.7355 62.7588 97.5714 62.7588 97.3709C62.7588 96.3681 61.2272 94.8183 60.2244 94.8183C59.4951 94.8183 58.4559 94.3625 57.9818 93.8702L57.4713 93.3232L57.4895 86.9965C57.4895 83.5323 57.5625 80.5239 57.6354 80.3416C57.7448 80.0499 57.836 80.1046 58.2371 80.7974C59.1305 82.3107 61.519 84.061 62.6859 84.061C62.9229 84.061 63.1599 84.134 63.2146 84.2434C63.3787 84.5169 65.7307 84.4622 66.2777 84.1887C67.0981 83.7693 67.8639 83.0582 67.8639 82.7301C67.8639 82.566 67.9186 82.4201 68.0098 82.4201C68.1556 82.4201 68.7756 81.0891 68.7756 80.7792C68.7756 80.6698 68.8667 80.5968 68.9579 80.5968C69.0673 80.5968 69.1402 80.4327 69.1402 80.2322C69.1402 80.0316 69.1949 79.8675 69.2861 79.8675C69.4137 79.8675 69.8148 79.0471 70.2524 77.8072C70.38 77.4426 70.5624 77.1326 70.6353 77.1326C70.7082 77.1326 70.7811 77.0232 70.7811 76.8774C70.7811 76.7497 70.9088 76.3851 71.0546 76.1116C71.2005 75.8199 71.3281 75.437 71.3281 75.2729C71.3281 75.1088 71.4193 74.9083 71.5104 74.8536C71.6198 74.7989 71.6928 74.5436 71.6928 74.2883C71.6928 74.0513 71.7839 73.8508 71.8751 73.8508C71.9845 73.8508 72.0574 73.6684 72.0574 73.4314C72.0574 73.1944 72.1304 72.9391 72.2215 72.8297C72.3856 72.6474 72.6773 71.517 73.2608 68.7092C73.3884 68.1075 73.6984 68.0345 76.5244 67.8158C79.6969 67.597 83.5622 67.0864 86.1877 66.5759C86.6982 66.4848 87.7922 66.2842 88.6491 66.1201C89.5061 65.9743 90.5453 65.7555 90.9829 65.6461C94.4471 64.8074 95.6869 64.5156 96.2704 64.4245C96.5986 64.3698 96.9085 64.2604 96.9632 64.1692C97.0179 64.0781 97.2002 64.0051 97.3826 64.0051C97.5467 64.0051 98.5495 63.7316 99.607 63.3852C100.646 63.057 101.959 62.6377 102.506 62.4736C103.491 62.1819 104.092 61.9448 104.73 61.6167C104.913 61.5255 105.15 61.4526 105.259 61.4526C105.368 61.4526 105.751 61.3249 106.116 61.1608C106.499 60.9967 106.955 60.8144 107.155 60.7233C109.416 59.8663 115.943 56.5115 116.363 55.9828C116.527 55.7822 117.347 55.2535 117.511 55.2535C117.584 55.2535 117.621 55.3264 117.548 55.4176C117.493 55.5087 117.53 55.6364 117.639 55.7093C117.73 55.764 117.821 56.0192 117.821 56.2745C117.821 56.5115 117.894 56.7121 117.985 56.7121C118.058 56.7121 118.186 56.9856 118.241 57.3138C118.35 57.9884 119.098 59.684 119.316 59.7752C119.389 59.8116 119.462 59.9393 119.462 60.0487C119.462 60.2857 120.392 62.2183 120.574 62.3642C120.629 62.4189 120.83 62.7288 120.994 63.057C121.413 63.8593 123.291 66.7583 123.583 67.0682C123.729 67.1958 123.838 67.3599 123.838 67.4329C123.838 67.5058 124.112 67.8705 124.44 68.2351C124.75 68.5998 125.388 69.3655 125.844 69.949C128.25 72.9938 129.691 73.9602 131.131 73.4861C131.532 73.3585 131.86 73.1762 131.86 73.085C131.86 73.0121 131.952 72.9391 132.061 72.9391C132.316 72.9391 132.772 72.4833 132.772 72.2281C132.772 72.1187 132.845 72.0275 132.918 72.0275C132.991 72.0275 133.173 71.6446 133.301 71.1888C133.483 70.5689 133.501 70.3136 133.337 70.1495C133.228 70.0401 133.137 69.8031 133.137 69.6208C133.137 69.2379 133.1 69.1832 131.587 67.4693C130.347 66.0837 129.709 65.2814 128.67 63.8228C128.269 63.2758 127.904 62.7835 127.831 62.7288C127.74 62.6377 127.266 61.9084 126.154 60.0304C125.534 58.9729 124.002 55.8369 123.929 55.454C123.893 55.2899 123.747 54.7976 123.583 54.3418C123.419 53.886 123.291 53.3755 123.291 53.1932C123.291 53.0291 123.218 52.8832 123.127 52.8832C123.054 52.8832 122.835 51.6799 122.671 50.2213C122.325 47.2493 122.106 46.8118 120.666 46.1189C119.316 45.4625 118.277 45.809 116.964 47.3405C116.49 47.9239 115.761 48.7262 115.36 49.1638C113.555 51.06 107.72 54.2871 103.509 55.7093C103.016 55.8734 102.433 56.0739 102.232 56.1651C102.032 56.2563 101.211 56.5297 100.409 56.8032C99.607 57.0585 98.7865 57.3502 98.5859 57.4232C98.1666 57.6055 97.0908 57.9154 96.0334 58.1525C95.304 58.3348 94.3924 58.5718 93.2073 58.9182C92.2592 59.2099 90.2901 59.6475 89.5608 59.7387C89.2143 59.7934 88.7585 59.9028 88.558 59.994C88.3574 60.0851 87.9016 60.1945 87.5552 60.2492C87.2088 60.3039 86.2242 60.468 85.3673 60.6321C84.5103 60.778 83.1976 60.9967 82.45 61.1061C81.7025 61.1973 80.5174 61.3614 79.8063 61.4708C77.8736 61.7443 74.7376 61.9631 72.6044 61.9813C71.5104 61.9995 70.38 62.1089 69.9607 62.2548C69.049 62.5648 67.8639 63.604 67.8639 64.0963C67.8639 64.3151 67.791 64.5521 67.6998 64.6615C67.6087 64.7527 67.4993 65.4455 67.4446 66.1931C67.3716 67.7428 66.9888 69.8396 66.7517 70.0948C66.6606 70.2042 66.5876 70.496 66.5876 70.7694C66.5876 71.0429 66.5329 71.2982 66.46 71.3347C66.3141 71.3894 65.5119 73.4496 65.366 74.1607C65.3114 74.3977 65.202 74.5801 65.1108 74.5801C65.0196 74.5801 64.9467 74.6712 64.9467 74.7806C64.9467 74.89 64.655 75.5829 64.3086 76.3304C63.9621 77.0597 63.6704 77.7525 63.6704 77.8619C63.6704 78.2266 63.3058 77.8437 63.0323 77.1873C62.8864 76.8409 62.7588 76.2939 62.7588 76.0022C62.7588 75.4005 62.23 74.2701 61.7195 73.8143C61.5372 73.632 61.0084 73.3767 60.5709 73.2126C59.8233 72.9574 59.6228 72.9574 58.2006 73.2308C57.3437 73.3949 56.4503 73.6684 56.195 73.8325C55.9398 73.9966 55.5204 74.2519 55.2469 74.3795C54.2624 74.8718 52.8038 76.458 52.3115 77.5885C51.7827 78.7371 51.6916 78.9924 51.4728 79.7946C51.2175 80.7792 51.1993 93.6514 51.4545 93.8155C51.5639 93.8702 51.6369 94.1984 51.6369 94.5448C51.6369 94.8912 51.7098 95.2012 51.801 95.2741C51.8921 95.3288 52.0198 95.6205 52.0927 95.9123C52.1656 96.2222 52.275 96.4592 52.3479 96.4592C52.4209 96.4592 52.6032 96.678 52.7673 96.9698C53.2778 97.7902 54.9187 99.3765 55.2834 99.3765C55.3928 99.3765 55.4657 99.4494 55.4657 99.5406C55.4657 99.7046 55.6116 99.7776 56.8332 100.179C57.3802 100.343 57.5807 100.525 57.6172 100.853C57.6536 101.09 57.7448 101.364 57.836 101.473C57.9454 101.637 58.2371 102.512 58.2735 102.877C58.2918 102.932 58.3465 103.059 58.4376 103.132C58.5106 103.205 58.5653 103.461 58.5653 103.698C58.5653 103.916 58.6564 104.117 58.7476 104.117C58.857 104.117 58.9299 104.281 58.9299 104.482C58.9299 104.682 59.0029 104.992 59.094 105.174C59.1852 105.339 59.4951 106.141 59.7504 106.943C60.0057 107.745 60.2974 108.566 60.3885 108.766C60.4797 108.967 60.7532 109.751 61.0267 110.498C61.2819 111.246 61.5737 112.012 61.6831 112.176C61.7742 112.358 61.8471 112.595 61.8471 112.705C61.8471 112.814 61.9748 113.197 62.1389 113.561C62.4306 114.254 62.6312 114.728 62.9229 115.458C62.9958 115.695 63.2146 116.187 63.3787 116.57C63.5428 116.953 63.6704 117.372 63.6704 117.518C63.6704 117.664 63.7616 117.791 63.8527 117.791C63.9621 117.791 64.0351 117.901 64.0351 118.028C64.0351 118.156 64.2356 118.703 64.4909 119.214C64.7461 119.742 64.9467 120.289 64.9467 120.435C64.9467 120.581 65.0014 120.709 65.0926 120.709C65.1655 120.709 65.3478 120.982 65.4754 121.31C65.6213 121.62 65.8583 122.003 65.986 122.131C66.1136 122.258 66.223 122.495 66.223 122.641C66.223 122.787 66.2777 122.897 66.3688 122.897C66.4418 122.897 66.6059 123.17 66.7517 123.498C66.9888 124.009 67.7728 125.194 68.0462 125.449C68.1192 125.504 68.3562 125.868 68.5932 126.251C69.7236 128.129 74.0266 132.87 76.2874 134.748C76.5974 135.003 76.9985 135.331 77.1808 135.495C77.3631 135.641 77.7278 135.933 78.0013 136.133C78.2565 136.316 78.6941 136.644 78.9676 136.863C80.4991 138.084 86.4794 141.494 87.0994 141.494C87.227 141.494 88.3392 141.968 88.8679 142.241C89.0503 142.333 89.342 142.405 89.5243 142.405C89.7066 142.405 89.9254 142.478 90.0166 142.57C90.126 142.661 90.6183 142.825 91.1105 142.934C91.6211 143.025 92.2774 143.171 92.5692 143.226C92.8791 143.299 93.2802 143.408 93.4808 143.499C93.9001 143.682 94.5018 143.755 97.9842 144.065C99.9716 144.247 101.029 144.247 102.998 144.065C106.499 143.755 107.101 143.682 107.52 143.499C107.72 143.408 108.14 143.299 108.432 143.226C108.742 143.171 109.398 143.025 109.89 142.934C110.401 142.825 110.875 142.661 110.984 142.57C111.075 142.478 111.294 142.405 111.476 142.405C111.659 142.405 111.95 142.333 112.133 142.241C112.662 141.968 113.774 141.494 113.901 141.494C114.157 141.494 117.566 139.78 118.496 139.178C119.025 138.85 119.535 138.577 119.645 138.577C119.736 138.577 119.827 138.504 119.827 138.431C119.827 138.34 120.137 138.103 120.52 137.884C120.903 137.683 121.504 137.264 121.869 136.99C122.234 136.717 122.726 136.334 122.963 136.17C123.747 135.605 124.622 134.839 125.789 133.763C126.427 133.18 127.084 132.56 127.266 132.396C127.667 132.031 129.873 129.497 130.967 128.184C132.061 126.853 134.048 124.027 134.048 123.808C134.048 123.699 134.121 123.626 134.194 123.626C134.267 123.626 134.486 123.261 134.668 122.805C134.869 122.35 135.069 121.985 135.142 121.985C135.197 121.985 135.361 121.693 135.507 121.347C135.653 121 135.817 120.709 135.908 120.709C135.981 120.709 136.054 120.581 136.054 120.435C136.054 120.289 136.255 119.742 136.51 119.214C136.765 118.703 136.966 118.156 136.966 118.028C136.966 117.901 137.057 117.791 137.148 117.791C137.257 117.791 137.33 117.664 137.33 117.518C137.33 117.372 137.458 116.953 137.622 116.57C137.786 116.187 138.005 115.695 138.078 115.458C138.37 114.728 138.57 114.254 138.862 113.561C139.026 113.197 139.154 112.814 139.154 112.705C139.154 112.595 139.226 112.358 139.318 112.176C139.427 112.012 139.719 111.246 139.974 110.498C140.248 109.751 140.521 108.967 140.612 108.766C140.703 108.566 140.995 107.745 141.25 106.943C141.506 106.141 141.816 105.339 141.907 105.174C141.998 104.992 142.071 104.682 142.071 104.482C142.071 104.281 142.162 104.117 142.253 104.117C142.362 104.117 142.435 103.916 142.435 103.698C142.435 103.461 142.49 103.205 142.581 103.132C142.654 103.059 142.709 102.932 142.727 102.877C142.764 102.512 143.055 101.637 143.165 101.473C143.256 101.364 143.347 101.09 143.384 100.853C143.42 100.525 143.621 100.343 144.168 100.179C145.389 99.7776 145.535 99.7046 145.535 99.5406C145.535 99.4494 145.608 99.3765 145.717 99.3765C146.082 99.3765 147.723 97.7902 148.233 96.9515C148.397 96.678 148.58 96.4592 148.653 96.4592C148.726 96.4592 148.835 96.2222 148.908 95.9123C148.981 95.6205 149.109 95.3288 149.2 95.2741C149.291 95.2012 149.364 94.8912 149.364 94.563C149.364 94.2531 149.455 93.8884 149.546 93.7973C149.674 93.6696 149.71 91.2812 149.674 86.7777C149.601 80.1775 149.51 78.5912 149.163 78.5912C149.072 78.5912 148.999 78.5001 148.999 78.3907C148.999 78.0443 148.379 76.8774 147.96 76.4033C147.723 76.1481 147.541 75.8928 147.541 75.8199C147.541 75.6558 145.827 74.3613 144.988 73.9055L144.35 73.5408L144.259 64.3516C144.204 59.3011 144.095 55.0711 144.022 54.9435C143.949 54.8159 143.803 54.2142 143.712 53.5761C143.621 52.9379 143.456 52.0628 143.347 51.6069C143.238 51.1511 143.074 50.4583 142.964 50.0572C142.873 49.656 142.764 49.2367 142.727 49.1455C142.709 49.0361 142.618 48.7079 142.545 48.4162C142.417 47.8875 142.326 47.614 141.925 46.6841C141.834 46.4289 141.633 45.9366 141.524 45.5902C141.177 44.6238 139.464 41.1232 139.299 41.0685C139.226 41.032 139.154 40.9226 139.154 40.8314C139.154 40.6491 138.06 38.8623 137.677 38.4247C137.586 38.2971 137.093 37.6772 136.583 37.0209C135.471 35.617 133.611 33.7572 132.225 32.6997C131.678 32.2622 131.022 31.7516 130.767 31.5511C130.511 31.3505 130.201 31.1864 130.092 31.1864C129.964 31.1864 129.855 31.1135 129.855 31.0406C129.855 30.9676 129.636 30.8035 129.363 30.6942C129.071 30.5665 128.524 30.2748 128.123 30.0378C127.703 29.8008 127.175 29.5273 126.938 29.4543C126.682 29.3814 126.026 29.1079 125.479 28.8527C124.932 28.5974 124.02 28.2874 123.473 28.1598C122.927 28.0322 122.142 27.8316 121.741 27.7222C121.34 27.5946 120.556 27.4305 120.009 27.3393C117.548 26.9565 117.694 27.0294 117.584 26.2819C117.274 23.9298 114.831 21.4684 111.713 20.3562C111.221 20.1739 110.638 19.9734 110.437 19.8822C110.237 19.791 109.835 19.6816 109.526 19.6087C109.234 19.554 108.65 19.4081 108.249 19.2987C107.429 19.0617 92.0951 18.8794 91.8763 19.0982Z" fill="url(#paint0_linear_17_112)"/>
<path d="M80.9914 83.9882C80.2074 84.1341 79.4234 84.6263 78.9858 85.2827C78.4024 86.1396 78.3842 87.8353 78.9494 88.4552C79.1682 88.674 79.3505 88.9292 79.3505 88.9839C79.3505 89.0386 79.6787 89.2757 80.098 89.4945C80.6997 89.8226 81.1555 89.8956 82.4683 89.8956H84.091V90.4243C84.091 90.8254 84.2915 91.1354 84.9115 91.6824C86.133 92.7581 87.2817 92.8675 88.5944 92.0106C89.2326 91.5912 90.0166 90.3696 89.8343 90.0779C89.7613 89.9685 90.3083 89.8956 91.3476 89.8956C92.6968 89.8956 93.1344 89.8226 93.7361 89.4945C94.7388 88.9657 95.2129 88.127 95.2129 86.8872C95.2129 85.7203 94.8118 84.9363 93.9184 84.3528C93.3167 83.9882 93.0979 83.97 87.3729 83.9517C84.1092 83.9335 81.2467 83.9517 80.9914 83.9882Z" fill="url(#paint1_linear_17_112)"/>
<path d="M108.158 83.9882C107.338 84.1341 106.517 84.681 106.152 85.3009C105.66 86.1214 105.66 87.653 106.152 88.4734C106.754 89.4945 107.739 89.8956 109.653 89.8956C110.692 89.8956 111.239 89.9685 111.166 90.0779C110.984 90.3696 111.768 91.5912 112.406 92.0106C113.719 92.8675 114.868 92.7581 116.089 91.6824C116.709 91.1354 116.91 90.8254 116.91 90.4243V89.8956H118.532C119.845 89.8956 120.301 89.8226 120.903 89.4945C121.322 89.2757 121.65 89.0386 121.65 88.9839C121.65 88.9292 121.832 88.674 122.051 88.4552C122.616 87.8353 122.598 86.1396 122.015 85.2827C121.121 83.97 121.14 83.97 114.539 83.9517C111.276 83.9335 108.413 83.9517 108.158 83.9882Z" fill="url(#paint2_linear_17_112)"/>
<path d="M99.0419 106.068C97.6197 107.034 97.2004 108.912 98.0938 110.261C98.8231 111.41 100.902 111.848 102.123 111.118C102.944 110.626 103.6 109.569 103.6 108.693C103.6 107.946 103.29 107.034 103.035 107.034C102.962 107.034 102.834 106.87 102.78 106.67C102.725 106.469 102.579 106.305 102.488 106.305C102.378 106.305 102.178 106.177 102.032 106.032C101.631 105.63 99.6253 105.667 99.0419 106.068Z" fill="url(#paint3_linear_17_112)"/>
<path d="M90.8918 116.934C89.8343 117.645 89.5061 118.265 89.5061 119.432C89.5061 120.982 90.0895 121.766 92.1134 122.951C93.5537 123.79 94.356 124.154 94.7024 124.173C94.8665 124.173 95.0671 124.246 95.1218 124.355C95.1765 124.446 95.4135 124.537 95.6505 124.537C95.8693 124.537 96.1246 124.61 96.2157 124.683C96.3251 124.774 97.3279 124.957 98.4583 125.066C100.081 125.248 100.92 125.248 102.561 125.066C103.673 124.957 104.676 124.774 104.785 124.683C104.876 124.61 105.131 124.537 105.35 124.537C105.587 124.537 105.824 124.446 105.879 124.355C105.934 124.246 106.134 124.173 106.298 124.173C106.645 124.154 107.447 123.79 108.887 122.951C110.911 121.766 111.495 120.982 111.495 119.432C111.495 118.229 111.13 117.609 110.018 116.934C109.015 116.314 108.03 116.369 106.9 117.135C105.733 117.919 104.092 118.703 103.618 118.703C103.418 118.703 103.199 118.776 103.144 118.885C103.071 118.995 101.995 119.068 100.5 119.068C99.0053 119.068 97.9296 118.995 97.8567 118.885C97.802 118.776 97.5832 118.703 97.3826 118.703C96.9086 118.703 95.2676 117.919 94.1007 117.135C92.9521 116.369 91.8216 116.296 90.8918 116.934Z" fill="url(#paint4_linear_17_112)"/>
<path d="M81.1553 143.7C81.0095 143.791 80.736 143.864 80.5354 143.864C80.3349 143.882 79.8243 144.229 79.3868 144.648L78.6028 145.432L78.4934 147.182C78.4022 148.568 78.3293 148.969 78.0922 149.079C77.9281 149.152 75.2115 149.261 72.0572 149.334C66.2957 149.48 60.206 149.771 58.8386 149.99C58.4374 150.045 57.4164 150.173 56.5595 150.264C52.7489 150.665 48.5918 151.285 45.8934 151.886C45.4011 151.996 44.4348 152.178 43.7602 152.306C43.1038 152.433 42.4839 152.579 42.411 152.652C42.338 152.743 42.0828 152.798 41.8457 152.798C41.6087 152.798 41.2805 152.871 41.0982 152.962C40.6789 153.181 38.8921 153.71 38.5821 153.71C38.4362 153.71 38.181 153.783 37.9987 153.874C37.5064 154.129 36.85 154.384 35.8654 154.731C35.3732 154.895 34.3521 155.314 33.6411 155.642C32.9118 155.989 32.2371 156.262 32.1277 156.262C32.0366 156.262 31.9454 156.335 31.9454 156.426C31.9454 156.517 31.7996 156.627 31.6355 156.682C31.1614 156.827 29.3929 157.867 28.8276 158.323C28.5541 158.541 28.0619 158.924 27.7154 159.179C25.5458 160.802 22.7744 164.303 22.0086 166.381C21.8263 166.874 21.6075 167.366 21.5528 167.475C21.4799 167.566 21.3705 167.895 21.3158 168.205C21.2611 168.496 21.1152 169.116 21.0058 169.572C20.8964 170.028 20.6959 170.848 20.5683 171.395C20.4406 171.942 20.2948 172.526 20.2401 172.672C20.1671 172.817 20.076 173.146 20.0395 173.401C19.8389 174.422 19.3284 176.245 19.1643 176.537C19.0732 176.719 19.0002 177.704 19.0002 178.743C19.0002 180.566 19.0185 180.621 19.5655 181.296L20.1124 181.97H21.644C23.0479 181.97 23.1938 181.934 23.6678 181.46C24.47 180.712 24.8894 179.618 25.1446 177.722C25.1993 177.357 25.3087 177.047 25.3999 177.047C25.4911 177.047 25.564 176.774 25.564 176.428C25.564 176.081 25.6369 175.753 25.7281 175.698C25.8193 175.644 25.9469 175.097 26.0198 174.495C26.0927 173.893 26.2204 173.346 26.3115 173.292C26.4027 173.237 26.4756 172.927 26.4756 172.58C26.4756 172.234 26.5486 171.924 26.6397 171.869C26.7309 171.815 26.8403 171.505 26.895 171.177C27.0591 170.156 27.4055 168.934 27.5878 168.752C27.679 168.66 27.7519 168.478 27.7519 168.35C27.7519 167.639 29.7393 165.178 31.4349 163.792C32.7841 162.68 36.2666 160.857 38.3268 160.164C38.8738 159.982 39.4026 159.763 39.4937 159.69C39.6031 159.617 39.8584 159.544 40.0589 159.544C40.2777 159.544 40.5148 159.489 40.5877 159.416C40.6606 159.325 41.1529 159.161 41.6634 159.034C43.5961 158.541 43.906 158.468 44.6171 158.268C45.2735 158.086 45.9663 157.94 49.2664 157.338C51.4179 156.955 56.3042 156.317 59.2032 156.062C64.2537 155.624 65.694 155.533 69.9605 155.369C76.6701 155.114 78.7304 155.114 78.7668 155.387C78.8398 156.007 79.168 157.52 79.3503 158.177C79.4597 158.578 79.5691 158.997 79.5873 159.125C79.6238 159.252 79.6967 159.416 79.7696 159.471C79.8426 159.544 79.8973 159.763 79.8973 159.945C79.8973 160.128 79.9702 160.419 80.0614 160.602C80.1525 160.766 80.6266 161.732 81.1189 162.735C81.5929 163.738 82.0487 164.631 82.1217 164.74C82.2128 164.832 82.5775 165.36 82.9604 165.889C83.6532 166.837 85.2759 168.569 86.1146 169.299C87.4274 170.429 89.8888 171.888 91.475 172.489C92.733 172.982 93.5353 173.219 93.8635 173.219C94.064 173.219 94.3011 173.292 94.3922 173.383C94.611 173.583 95.5044 173.711 98.3487 173.966C100.938 174.203 106.134 173.839 106.608 173.383C106.699 173.292 106.936 173.219 107.137 173.219C107.465 173.219 108.267 172.982 109.525 172.489C111.13 171.888 113.609 170.447 114.703 169.481C116.673 167.767 118.678 165.36 119.298 163.956C119.444 163.628 119.608 163.373 119.681 163.373C119.772 163.373 119.827 163.264 119.827 163.118C119.827 162.99 120.027 162.498 120.264 162.042C120.647 161.331 121.212 159.909 121.358 159.271C121.395 159.161 121.468 158.833 121.541 158.541C121.614 158.231 121.741 157.83 121.832 157.63C121.978 157.32 122.124 156.536 122.233 155.515C122.27 155.241 122.653 155.223 126.117 155.278C128.214 155.332 130.529 155.405 131.222 155.46C131.933 155.515 133.574 155.624 134.869 155.733C139.245 156.043 144.568 156.627 146.683 156.992C147.249 157.083 148.16 157.247 148.689 157.338C151.278 157.794 153.831 158.323 154.925 158.632C155.326 158.742 156.128 158.942 156.693 159.052C157.258 159.179 157.787 159.325 157.86 159.416C157.933 159.489 158.188 159.544 158.407 159.544C158.644 159.544 158.881 159.617 158.936 159.726C158.99 159.818 159.246 159.909 159.483 159.909C159.72 159.909 159.957 159.982 160.012 160.073C160.066 160.164 160.413 160.292 160.777 160.365C161.142 160.419 161.58 160.547 161.744 160.638C161.908 160.711 162.236 160.857 162.491 160.948C162.929 161.13 163.421 161.331 164.588 161.823C166.375 162.553 169.183 164.157 170.295 165.069C172.282 166.691 173.558 168.405 173.741 169.663C173.795 170.119 173.923 170.538 173.996 170.593C174.087 170.648 174.16 170.976 174.16 171.322C174.16 171.669 174.251 171.942 174.342 171.942C174.452 171.942 174.525 172.216 174.525 172.562C174.525 172.909 174.598 173.237 174.689 173.292C174.78 173.346 174.908 173.893 174.98 174.495C175.053 175.097 175.181 175.644 175.272 175.698C175.363 175.753 175.436 176.081 175.436 176.428C175.436 176.774 175.509 177.047 175.6 177.047C175.692 177.047 175.801 177.357 175.856 177.74C176.056 179.108 176.421 180.512 176.567 180.512C176.64 180.512 176.713 180.621 176.713 180.749C176.713 180.876 176.968 181.204 177.278 181.478C177.788 181.934 177.971 181.97 179.356 181.97H180.888L181.435 181.296C181.982 180.621 182 180.566 182 178.743C182 177.704 181.927 176.719 181.836 176.537C181.745 176.373 181.581 175.862 181.453 175.407C181.344 174.951 181.161 174.331 181.07 174.021C180.979 173.711 180.906 173.31 180.906 173.091C180.906 172.89 180.851 172.672 180.778 172.599C180.651 172.471 180.286 171.012 180.049 169.609C179.994 169.28 179.885 168.97 179.794 168.916C179.703 168.861 179.63 168.588 179.63 168.314C179.63 168.041 179.429 167.384 179.174 166.874C178.919 166.345 178.718 165.889 178.718 165.834C178.718 165.488 177.114 163.446 175.965 162.334C174.342 160.766 173.558 160.109 171.936 159.052C170.896 158.377 170.131 157.94 167.997 156.827C167.286 156.445 165.572 155.715 165.408 155.715C165.299 155.715 165.08 155.642 164.898 155.551C164.369 155.278 163.713 155.041 162.673 154.694C162.126 154.512 161.598 154.293 161.488 154.22C161.397 154.147 161.142 154.074 160.923 154.074C160.686 154.074 160.467 154.001 160.413 153.91C160.358 153.837 159.957 153.71 159.537 153.637C158.772 153.509 157.878 153.272 157.113 152.962C156.73 152.816 156.474 152.762 154.286 152.324C153.539 152.178 152.554 151.978 152.099 151.868C151.023 151.631 149.692 151.394 147.449 151.048C142.964 150.373 140.266 150.081 136.418 149.881C134.559 149.771 132.498 149.607 131.806 149.516C131.131 149.407 128.779 149.334 126.591 149.334H122.616L122.507 147.383L122.416 145.432L121.614 144.685C120.665 143.755 119.954 143.536 118.824 143.791C118.022 143.973 117.475 144.393 116.982 145.177C116.563 145.833 116.545 145.979 116.545 149.516C116.545 151.522 116.472 153.509 116.363 153.928C116.271 154.366 116.107 155.168 116.016 155.715C115.779 157.064 115.56 157.885 115.214 158.632C114.047 161.203 113.774 161.696 112.734 163.027C111.914 164.066 109.963 165.67 108.887 166.163C108.431 166.363 108.03 166.6 107.976 166.655C107.884 166.764 106.426 167.22 105.058 167.566C102.013 168.332 98.5675 168.259 95.0304 167.348C93.8635 167.038 91.5479 165.962 90.7457 165.342C89.67 164.522 87.9743 162.717 87.3544 161.732C86.7345 160.766 86.0964 159.508 86.0964 159.289C86.0964 159.234 85.9505 158.833 85.7682 158.395C84.8201 156.262 84.6195 154.767 84.5101 149.698C84.4372 145.797 84.4372 145.778 83.9449 145.086C83.2885 144.138 81.7023 143.354 81.1553 143.7Z" fill="url(#paint5_linear_17_112)"/>
<defs>
<linearGradient id="paint0_linear_17_112" x1="51.272" y1="19" x2="176.453" y2="105.438" gradientUnits="userSpaceOnUse">
<stop offset="0.49069" stop-color="#26B6CA"/>
<stop offset="0.56019" stop-color="#30B9C7"/>
<stop offset="0.68036" stop-color="#4DBFBE"/>
<stop offset="0.83676" stop-color="#7ACBAF"/>
<stop offset="1" stop-color="#B1D89E"/>
</linearGradient>
<linearGradient id="paint1_linear_17_112" x1="78.5366" y1="83.9446" x2="86.6155" y2="97.6488" gradientUnits="userSpaceOnUse">
<stop offset="0.49069" stop-color="#26B6CA"/>
<stop offset="0.56019" stop-color="#30B9C7"/>
<stop offset="0.68036" stop-color="#4DBFBE"/>
<stop offset="0.83676" stop-color="#7ACBAF"/>
<stop offset="1" stop-color="#B1D89E"/>
</linearGradient>
<linearGradient id="paint2_linear_17_112" x1="105.783" y1="83.9446" x2="113.861" y2="97.6507" gradientUnits="userSpaceOnUse">
<stop offset="0.49069" stop-color="#26B6CA"/>
<stop offset="0.56019" stop-color="#30B9C7"/>
<stop offset="0.68036" stop-color="#4DBFBE"/>
<stop offset="0.83676" stop-color="#7ACBAF"/>
<stop offset="1" stop-color="#B1D89E"/>
</linearGradient>
<linearGradient id="paint3_linear_17_112" x1="97.6248" y1="105.748" x2="103.725" y2="111.339" gradientUnits="userSpaceOnUse">
<stop offset="0.49069" stop-color="#26B6CA"/>
<stop offset="0.56019" stop-color="#30B9C7"/>
<stop offset="0.68036" stop-color="#4DBFBE"/>
<stop offset="0.83676" stop-color="#7ACBAF"/>
<stop offset="1" stop-color="#B1D89E"/>
</linearGradient>
<linearGradient id="paint4_linear_17_112" x1="89.5061" y1="116.503" x2="96.4719" y2="131.969" gradientUnits="userSpaceOnUse">
<stop offset="0.49069" stop-color="#26B6CA"/>
<stop offset="0.56019" stop-color="#30B9C7"/>
<stop offset="0.68036" stop-color="#4DBFBE"/>
<stop offset="0.83676" stop-color="#7ACBAF"/>
<stop offset="1" stop-color="#B1D89E"/>
</linearGradient>
<linearGradient id="paint5_linear_17_112" x1="19.0002" y1="143.616" x2="39.4982" y2="220.141" gradientUnits="userSpaceOnUse">
<stop offset="0.49069" stop-color="#26B6CA"/>
<stop offset="0.56019" stop-color="#30B9C7"/>
<stop offset="0.68036" stop-color="#4DBFBE"/>
<stop offset="0.83676" stop-color="#7ACBAF"/>
<stop offset="1" stop-color="#B1D89E"/>
</linearGradient>
</defs>
</svg>
