<svg width="200" height="200" viewBox="0 0 200 200" fill="none" xmlns="http://www.w3.org/2000/svg">
<path d="M178 146.5V106C178 103.239 175.761 101 173 101H103C100.239 101 98 103.239 98 106V146.5M178 146.5H98M178 146.5V157.5C178 160.261 175.761 162.5 173 162.5H143.5M98 146.5V157.5C98 160.261 100.239 162.5 103 162.5H132.5M132.5 162.5V178.5M132.5 162.5H143.5M132.5 178.5H143.5M132.5 178.5H117.5M143.5 178.5V162.5M143.5 178.5H157.5M74.5 130H87.5M60 120C55.1828 108.354 54.2486 101.77 53.5 90H22C22.7653 102.819 23.4652 109.992 30.5 122.5M22 77C25.0978 66.0666 27.5541 59.9356 35.5 49H55M55 79.5C59.5263 53.3779 65.4119 40.1044 89.5 22M89.5 22C97.4887 27.9812 101.149 31.504 106 38M89.5 22C69.5065 23.1672 59.7353 26.5835 45 38M89.5 22C114.979 24.1182 126.731 29.6665 142.5 48.5L125.5 49M77.5 48.5H114C122.311 63.6979 124.415 72.8193 124 90H64.5M134.5 90H156.5C156.489 76.0358 155.325 68.7368 148.5 56.5M35.5 130H64.5C72.1318 141.65 77.386 147.387 87.5 157C63.0957 153.983 51.4256 148.595 35.5 130Z" stroke="url(#paint0_linear_17_87)" stroke-width="5" stroke-linecap="round" stroke-linejoin="round"/>
<circle cx="137.5" cy="155" r="2.5" fill="url(#paint1_linear_17_87)"/>
<defs>
<linearGradient id="paint0_linear_17_87" x1="22" y1="22" x2="187.864" y2="167.235" gradientUnits="userSpaceOnUse">
<stop offset="0.49069" stop-color="#26B6CA"/>
<stop offset="0.56019" stop-color="#30B9C7"/>
<stop offset="0.68036" stop-color="#4DBFBE"/>
<stop offset="0.83676" stop-color="#7ACBAF"/>
<stop offset="1" stop-color="#B1D89E"/>
</linearGradient>
<linearGradient id="paint1_linear_17_87" x1="135" y1="152.5" x2="140.301" y2="157.157" gradientUnits="userSpaceOnUse">
<stop offset="0.49069" stop-color="#26B6CA"/>
<stop offset="0.56019" stop-color="#30B9C7"/>
<stop offset="0.68036" stop-color="#4DBFBE"/>
<stop offset="0.83676" stop-color="#7ACBAF"/>
<stop offset="1" stop-color="#B1D89E"/>
</linearGradient>
</defs>
</svg>
