<svg width="200" height="200" viewBox="0 0 200 200" fill="none" xmlns="http://www.w3.org/2000/svg">
<path d="M16.1555 26.3752C14.9189 27.2064 15.0203 24.2669 15 63.0686C15 86.0779 15.0608 98.7483 15.2027 98.9915C15.8717 100.228 18.345 100.634 19.7235 99.7011C20.129 99.4173 20.4736 99.0524 20.4736 98.8902C20.4736 98.728 20.575 98.5861 20.6763 98.5861C20.8182 98.5861 20.879 88.3282 20.879 68.2178V37.8697H179.613V152.41L180.221 153.14C181.336 154.498 183.627 154.599 184.945 153.363L185.492 152.835V90.1933C185.472 31.2812 185.452 27.5105 185.127 27.1253C184.438 26.2941 183.81 26.0103 182.654 26.0103C181.924 26.0103 181.357 26.1319 181.032 26.3549C180.323 26.8415 180.019 27.1658 180.019 27.4091C180.019 27.5307 179.938 27.6321 179.816 27.6321C179.694 27.6321 179.613 28.443 179.613 29.6594V31.6866H20.879V29.6594C20.879 28.443 20.798 27.6321 20.6763 27.6321C20.575 27.6321 20.4736 27.5307 20.4736 27.4091C20.4736 27.1658 20.1695 26.8415 19.46 26.3549C18.7707 25.8684 16.9056 25.8887 16.1555 26.3752Z" fill="url(#paint0_linear_17_122)"/>
<path d="M62.134 43.1409C61.3029 43.5058 60.5933 44.2964 60.269 45.2289C60.0662 45.8371 60.0054 56.1559 60.0054 100.127C60.0054 159.809 59.9041 155.066 61.242 156.363C62.3165 157.377 63.9383 157.417 65.1952 156.465C66.6143 155.39 66.4926 160.539 66.4926 100.087C66.4926 57.5547 66.4318 45.3708 66.2494 44.9249C65.9047 44.1748 65.1952 43.5058 64.3235 43.1409C63.472 42.776 62.9449 42.776 62.134 43.1409Z" fill="url(#paint1_linear_17_122)"/>
<path d="M135.946 43.242C135.034 43.7082 134.608 44.1137 134.244 44.9246C134.061 45.3706 134 57.0071 134 100.086C134 160.762 133.879 155.37 135.358 156.525C135.967 156.971 136.311 157.072 137.224 157.072C138.582 157.072 139.433 156.566 140.001 155.41C140.366 154.66 140.386 152.957 140.447 100.309C140.487 51.0875 140.467 45.8977 140.163 45.1679C139.758 44.1542 139.149 43.4852 138.278 43.1203C137.386 42.7554 136.899 42.7757 135.946 43.242Z" fill="url(#paint2_linear_17_122)"/>
<path d="M34.1578 54.3919C34.0969 54.4933 33.8739 54.5947 33.6712 54.5947C33.4685 54.5947 32.9617 54.9596 32.5562 55.4056L31.8264 56.2165V75.6578L32.4549 76.3674C33.6104 77.7054 33.6509 77.7054 40.5639 77.7054C46.7673 77.7054 46.8281 77.7054 47.6796 77.2188C48.1864 76.935 48.7337 76.4079 48.9973 75.9619C49.4635 75.1713 49.4635 75.1308 49.4635 65.9473C49.4635 56.7638 49.4635 56.7233 48.9973 55.9327C48.7337 55.4867 48.1864 54.9596 47.6796 54.6758C46.8281 54.1892 46.7673 54.1892 40.5436 54.1892C36.5905 54.1892 34.2389 54.2703 34.1578 54.3919ZM43.179 71.2182H38.1109V60.6764H43.179V71.2182Z" fill="url(#paint3_linear_17_122)"/>
<path d="M78.9803 54.6756C77.095 55.7703 77.0342 56.0947 77.0342 65.9471C77.0342 74.6238 77.095 75.2725 77.987 76.4483C78.8993 77.6444 79.2642 77.7052 86.0757 77.7052C91.9548 77.7052 92.2589 77.6849 92.9887 77.2795C93.8401 76.8132 94.3064 76.3672 94.651 75.7388C94.9957 75.0901 94.9754 56.7839 94.6308 56.1758C94.205 55.446 93.7996 55.0608 92.9887 54.6148C92.2589 54.2093 91.9751 54.1891 85.9947 54.2093C79.8926 54.2093 79.7507 54.2296 78.9803 54.6756ZM88.5895 71.218H83.5214V60.6763H88.5895V71.218Z" fill="url(#paint4_linear_17_122)"/>
<path d="M107.443 54.6352C106.672 55.0812 106.267 55.4664 105.882 56.1759C105.517 56.7841 105.497 75.0902 105.841 75.739C106.186 76.3674 106.652 76.8134 107.504 77.2797C108.233 77.6851 108.538 77.7054 114.417 77.7054C121.228 77.7054 121.593 77.6446 122.505 76.4485C123.397 75.2727 123.458 74.624 123.458 65.9473C123.458 56.0543 123.397 55.6894 121.431 54.6352C120.6 54.2095 120.438 54.1892 114.376 54.2095C108.497 54.2095 108.112 54.25 107.443 54.6352ZM116.971 71.2182H111.903V60.6764H116.971V71.2182Z" fill="url(#paint5_linear_17_122)"/>
<path d="M152.752 54.6757C152.306 54.9392 151.738 55.5068 151.495 55.9326C151.029 56.7232 151.029 56.7637 151.029 65.9472C151.029 75.1307 151.029 75.1712 151.495 75.9619C151.759 76.4079 152.306 76.9349 152.813 77.2188C153.664 77.7053 153.725 77.7053 159.928 77.7053C166.841 77.7053 166.882 77.7053 168.037 76.3673L168.666 75.6578V56.2164L167.936 55.4055C167.531 54.9595 167.024 54.5946 166.821 54.5946C166.618 54.5946 166.395 54.4932 166.335 54.3919C166.253 54.2702 163.902 54.1891 159.888 54.2094C153.664 54.2094 153.543 54.2297 152.752 54.6757ZM162.381 71.2181H157.313V60.6763H162.381V71.2181Z" fill="url(#paint6_linear_17_122)"/>
<path d="M34.4618 88.4298C33.4482 88.6325 32.9414 88.9568 32.3332 89.7475C31.8264 90.4165 31.8264 90.4367 31.8264 94.3493C31.8264 97.8565 31.867 98.343 32.2116 98.8701C32.84 99.8027 33.6104 100.208 34.8673 100.208C37.1784 100.208 38.2731 98.6674 38.0906 95.6062L38.0298 94.6332L43.1588 94.5115L43.2196 102.175C43.2804 109.473 43.3007 109.858 43.6859 110.385C44.3143 111.216 45.0644 111.561 46.2199 111.561C47.5579 111.561 48.5107 111.013 49.0581 109.919C49.4433 109.189 49.4635 108.702 49.4635 100.147C49.4635 90.4773 49.4433 90.2746 48.4094 89.342C47.3552 88.3689 47.2538 88.3487 41.0504 88.3081C37.8271 88.2879 34.847 88.3487 34.4618 88.4298Z" fill="url(#paint7_linear_17_122)"/>
<path d="M79.6088 88.5307C78.433 88.8551 77.6221 89.7066 77.2775 90.9635C77.1153 91.6325 77.0342 94.2882 77.0342 100.167C77.0342 109.432 77.0747 109.817 78.3722 110.952L79.0817 111.56H93.009L93.6577 111.033C94.8943 109.979 94.874 110.222 94.874 100.127C94.874 90.4566 94.8538 90.2539 93.9618 89.3619C93.009 88.4091 92.6643 88.3483 86.4609 88.3078C82.1023 88.2672 80.3386 88.328 79.6088 88.5307ZM88.5895 105.479H83.42L83.5417 94.5314H88.5895V105.479Z" fill="url(#paint8_linear_17_122)"/>
<path d="M108.558 88.3892C107.281 88.673 106.449 89.2406 105.882 90.234C105.679 90.5583 105.618 92.9099 105.618 100.005C105.618 110.243 105.598 109.979 106.835 111.034L107.483 111.561H121.431L122.201 110.871C122.708 110.405 123.032 109.878 123.215 109.25C123.559 107.912 123.559 92.2815 123.215 90.9435C122.85 89.6258 121.938 88.7541 120.64 88.4702C119.627 88.2675 109.47 88.1864 108.558 88.3892ZM117.072 105.479H111.903V94.5317H116.951L117.072 105.479Z" fill="url(#paint9_linear_17_122)"/>
<path d="M154.171 88.3483C154.07 88.3889 153.725 88.47 153.421 88.5308C153.137 88.5916 152.61 88.8957 152.245 89.1795C151.029 90.2134 151.029 90.2539 151.029 100.147C151.029 110.385 150.988 110.06 152.651 111.216C153.097 111.52 153.867 111.56 159.949 111.56C167.49 111.56 167.429 111.56 168.281 110.162C168.646 109.553 168.666 109.026 168.666 99.9645V90.4161L168.139 89.7269C167.105 88.3686 166.983 88.3483 160.354 88.3078C157.07 88.2875 154.293 88.2875 154.171 88.3483ZM162.483 105.479H157.313V94.5112L162.402 94.6328L162.483 105.479Z" fill="url(#paint10_linear_17_122)"/>
<path d="M27.1636 105.661C27.0014 105.742 26.3324 106.087 25.6634 106.391C24.2443 107.08 22.4198 108.803 21.3251 110.466C21.2034 110.669 21.021 110.993 20.9399 111.155C20.8588 111.317 20.7574 111.5 20.6763 111.56C20.2303 111.905 18.1625 116.994 17.9193 118.352C17.8382 118.798 17.7165 119.203 17.6355 119.264C17.5746 119.325 17.3922 119.913 17.2705 120.582C17.1286 121.251 16.9259 122.204 16.8043 122.71C16.6826 123.217 16.4799 124.352 16.338 125.244C16.1961 126.136 16.0339 127.008 15.9731 127.17C15.892 127.333 15.7907 128.022 15.7096 128.691C15.6487 129.36 15.4866 130.536 15.3649 131.326C15.0811 133.313 14.9189 146.835 15.2027 146.835C15.3041 146.835 15.4055 147.058 15.4055 147.342C15.4055 147.625 15.4663 147.848 15.5677 147.848C15.6487 147.848 15.8717 148.274 16.0947 148.781C16.6421 150.119 17.7165 151.639 19.0748 152.957C20.798 154.66 22.9469 155.917 25.4404 156.687L26.0486 156.87L26.1499 164.594C26.2513 172.824 26.2107 172.459 27.3055 173.534C27.6906 173.939 27.9745 174 29.2516 174H30.7518L31.5424 173.149L32.3331 172.277L32.3736 164.573L32.4344 156.87L32.9818 156.687C33.3061 156.586 33.7319 156.444 33.9549 156.343C34.1779 156.261 34.6847 156.038 35.1104 155.876C37.6242 154.883 41.0097 151.741 41.9828 149.511C42.145 149.166 42.3274 148.862 42.4085 148.862C42.4693 148.862 42.6112 148.578 42.6721 148.213C42.7531 147.848 42.8951 147.423 42.9761 147.24C43.6857 145.821 43.8681 143.267 43.5843 138.624C43.3411 134.631 43.1383 132.482 42.6923 129.096C42.2666 125.934 41.5976 122.305 41.1516 120.785C41.03 120.339 40.8273 119.568 40.7259 119.061C40.6043 118.555 40.4421 117.967 40.3407 117.744C40.2394 117.521 40.0164 116.872 39.8339 116.325C39.6514 115.757 39.3474 114.926 39.1244 114.48C38.9216 114.013 38.6784 113.385 38.5973 113.101C38.5365 112.817 38.3946 112.574 38.2932 112.574C38.1918 112.574 38.1107 112.493 38.1107 112.392C38.1107 111.885 36.4484 109.493 35.2523 108.317C33.6305 106.695 33.6508 106.715 32.0695 106.026C31.0153 105.58 30.5085 105.479 29.13 105.499C28.2177 105.499 27.3257 105.58 27.1636 105.661ZM31.0153 112.757C31.4208 113.182 31.9073 113.892 32.1303 114.318C32.3533 114.764 32.5763 115.149 32.6574 115.21C32.7182 115.27 32.921 115.757 33.1237 116.325C33.3467 116.872 33.5697 117.419 33.6508 117.541C33.7319 117.642 33.8738 118.129 33.9549 118.595C34.036 119.082 34.1779 119.507 34.2792 119.588C34.3806 119.649 34.4617 119.893 34.4617 120.156C34.4617 120.399 34.5428 120.683 34.6441 120.805C34.7455 120.906 34.9279 121.535 35.0496 122.204C35.3334 123.602 35.5767 124.819 35.7591 125.549C36.1038 126.887 36.8133 132.38 37.0971 135.786C37.5026 140.51 37.5634 143.186 37.2998 144.057C36.4889 146.733 36.0227 147.585 34.6644 148.801C33.8332 149.572 32.1709 150.484 31.6235 150.484C31.4005 150.484 31.1775 150.565 31.1167 150.687C31.0559 150.788 30.1842 150.889 29.1908 150.889C28.1975 150.889 27.3257 150.788 27.2649 150.687C27.2041 150.565 26.9811 150.484 26.7581 150.484C26.0283 150.484 24.2849 149.389 23.2915 148.294C21.3251 146.145 20.7777 144.037 21.0818 139.78C21.1832 138.259 21.3251 135.908 21.3859 134.57C21.467 133.232 21.6089 131.853 21.69 131.529C21.7913 131.184 21.9738 130.15 22.0751 129.198C22.1765 128.245 22.3792 127.008 22.4806 126.461C22.6022 125.893 22.805 124.798 22.9671 124.028C23.109 123.237 23.2915 122.467 23.3523 122.305C23.5753 121.656 23.8997 120.562 24.0213 119.872C24.1024 119.487 24.2443 119.041 24.3254 118.859C24.4065 118.696 24.6295 118.068 24.8322 117.48C25.2782 116.142 26.5757 113.608 27.2041 112.878C28.3394 111.54 29.8598 111.5 31.0153 112.757Z" fill="url(#paint11_linear_17_122)"/>
<path d="M73.1821 122.873C71.2156 124.17 70.9724 126.461 72.655 127.9C73.4862 128.63 74.0943 128.792 75.8986 128.792H77.1352L77.0744 140.996C77.0136 153.849 77.0541 154.863 77.9056 155.998C78.6759 157.032 80.4802 157.498 81.5546 156.951C82.2034 156.606 83.1156 155.714 83.1156 155.41C83.1156 155.268 83.217 155.147 83.3183 155.147C83.4603 155.147 83.5211 150.626 83.5211 141.969V128.792H97.1037V139.456L96.4347 139.699C96.0698 139.82 95.4616 140.266 95.0764 140.652C94.4277 141.321 94.3872 141.442 94.4074 142.699C94.4074 143.997 94.448 144.078 95.1981 144.808C95.6441 145.213 96.232 145.618 96.5563 145.7L97.1037 145.821V150.301C97.1037 155.065 97.1848 155.552 98.1984 156.444C99.3337 157.437 101.158 157.437 102.293 156.444C103.307 155.552 103.388 155.065 103.388 150.301V145.821L103.956 145.7C104.26 145.618 104.848 145.213 105.294 144.808C106.044 144.078 106.084 143.997 106.084 142.699C106.105 141.442 106.064 141.321 105.415 140.652C105.03 140.266 104.422 139.82 104.057 139.699L103.388 139.456V128.792H116.971V141.969C116.971 150.626 117.032 155.147 117.174 155.147C117.295 155.147 117.376 155.268 117.376 155.41C117.376 155.552 117.68 155.978 118.045 156.322C119.241 157.478 121.147 157.458 122.323 156.282C123.458 155.147 123.478 154.66 123.417 140.996L123.357 128.792H124.593C126.398 128.792 127.006 128.63 127.837 127.9C129.519 126.441 129.256 124.109 127.269 122.852C126.762 122.528 124.897 122.508 100.205 122.528C75.8175 122.528 73.6483 122.548 73.1821 122.873Z" fill="url(#paint12_linear_17_122)"/>
<path d="M152.914 122.791C152.651 122.933 152.245 123.217 152.022 123.44C151.049 124.292 151.029 124.555 151.029 134.164C151.029 142.76 151.049 143.246 151.434 143.997C151.657 144.422 152.124 144.99 152.488 145.253C153.157 145.72 153.239 145.72 159.239 145.781C162.584 145.821 165.686 145.801 166.132 145.72C166.983 145.598 168.037 144.848 168.443 144.057C168.605 143.753 168.666 140.753 168.666 134.144C168.666 124.981 168.646 124.657 168.26 124.008C168.017 123.643 167.51 123.156 167.125 122.933C166.436 122.528 166.152 122.508 159.888 122.528C155.104 122.548 153.239 122.609 152.914 122.791ZM162.381 139.537H157.313V128.792H162.381V139.537Z" fill="url(#paint13_linear_17_122)"/>
<path d="M163.598 151.011C163.213 151.072 162.706 151.173 162.483 151.274C162.26 151.376 161.672 151.619 161.165 151.822C159.685 152.43 158.287 153.403 157.212 154.599C155.935 156.018 155.692 156.302 155.692 156.505C155.692 156.586 154.881 156.667 153.908 156.687C152.286 156.687 151.982 156.768 150.583 157.437C149.164 158.127 146.772 160.154 146.772 160.681C146.772 160.782 146.589 161.127 146.366 161.431C145.272 162.972 145.19 167.006 146.204 169.135C146.995 170.756 148.718 172.459 150.461 173.372L151.698 174H179.593L180.566 173.473C182.614 172.338 184.012 170.979 185.067 169.074C185.452 168.405 185.492 167.979 185.492 165.283C185.492 163.6 185.432 162.242 185.33 162.242C185.249 162.242 185.026 161.857 184.823 161.411C184.621 160.944 183.952 160.032 183.343 159.404C182.33 158.35 181.742 157.964 179.471 156.91C179.228 156.809 178.235 156.687 177.302 156.687C175.782 156.667 175.559 156.626 175.397 156.262C175.032 155.511 173.491 153.93 172.214 153.018C171.525 152.511 170.876 152.106 170.795 152.106C170.714 152.106 170.369 151.984 170.024 151.822C169.659 151.68 169.112 151.437 168.788 151.315C168.159 151.051 164.794 150.869 163.598 151.011ZM166.943 157.377C167.004 157.478 167.227 157.579 167.409 157.579C167.592 157.579 168.18 157.883 168.707 158.228C169.68 158.897 170.511 160.154 170.795 161.39C170.977 162.222 171.869 163.154 172.883 163.56C173.815 163.945 174.322 163.884 175.64 163.235C176.086 163.033 176.633 162.85 176.876 162.85C177.789 162.85 179.188 163.843 179.37 164.634C179.694 166.033 179.025 167.371 177.829 167.716C177.363 167.837 172.802 167.918 165.422 167.918C154.719 167.918 153.705 167.898 153.077 167.553C151.293 166.661 151.232 164.249 152.975 163.235C153.806 162.728 154.637 162.769 155.854 163.357C156.442 163.641 157.09 163.864 157.334 163.864C158.084 163.864 159.645 162.87 159.989 162.181C160.537 161.086 160.963 160.052 160.963 159.85C160.963 159.465 162.99 157.762 163.598 157.64C163.943 157.579 164.267 157.437 164.328 157.356C164.47 157.113 166.781 157.133 166.943 157.377Z" fill="url(#paint14_linear_17_122)"/>
<path d="M56.8627 162.404C55.9707 162.708 55.1193 163.377 54.7949 164.066C54.5111 164.614 54.4098 165.425 54.3692 167.776C54.2679 171.344 54.4706 172.358 55.4437 173.331C56.0721 173.959 56.1735 174 57.6128 174C59.0522 174 59.1333 173.98 59.7212 173.331C60.5929 172.398 60.8159 171.75 60.8159 170.047V168.526H99.3337C134.73 168.526 137.933 168.506 138.521 168.202C139.94 167.472 140.649 165.952 140.244 164.593C139.96 163.681 138.723 162.546 137.811 162.363C136.98 162.201 57.3898 162.242 56.8627 162.404Z" fill="url(#paint15_linear_17_122)"/>
<defs>
<linearGradient id="paint0_linear_17_122" x1="4.661" y1="15.0224" x2="155.59" y2="203.399" gradientUnits="userSpaceOnUse">
<stop offset="0.49069" stop-color="#26B6CA"/>
<stop offset="0.56019" stop-color="#30B9C7"/>
<stop offset="0.68036" stop-color="#4DBFBE"/>
<stop offset="0.83676" stop-color="#7ACBAF"/>
<stop offset="1" stop-color="#B1D89E"/>
</linearGradient>
<linearGradient id="paint1_linear_17_122" x1="59.61" y1="33.0832" x2="74.2671" y2="33.8647" gradientUnits="userSpaceOnUse">
<stop offset="0.49069" stop-color="#26B6CA"/>
<stop offset="0.56019" stop-color="#30B9C7"/>
<stop offset="0.68036" stop-color="#4DBFBE"/>
<stop offset="0.83676" stop-color="#7ACBAF"/>
<stop offset="1" stop-color="#B1D89E"/>
</linearGradient>
<linearGradient id="paint2_linear_17_122" x1="133.606" y1="33.09" x2="148.203" y2="33.8657" gradientUnits="userSpaceOnUse">
<stop offset="0.49069" stop-color="#26B6CA"/>
<stop offset="0.56019" stop-color="#30B9C7"/>
<stop offset="0.68036" stop-color="#4DBFBE"/>
<stop offset="0.83676" stop-color="#7ACBAF"/>
<stop offset="1" stop-color="#B1D89E"/>
</linearGradient>
<linearGradient id="paint3_linear_17_122" x1="30.7569" y1="52.176" x2="57.4578" y2="70.9743" gradientUnits="userSpaceOnUse">
<stop offset="0.49069" stop-color="#26B6CA"/>
<stop offset="0.56019" stop-color="#30B9C7"/>
<stop offset="0.68036" stop-color="#4DBFBE"/>
<stop offset="0.83676" stop-color="#7ACBAF"/>
<stop offset="1" stop-color="#B1D89E"/>
</linearGradient>
<linearGradient id="paint4_linear_17_122" x1="75.9508" y1="52.1922" x2="102.754" y2="71.3191" gradientUnits="userSpaceOnUse">
<stop offset="0.49069" stop-color="#26B6CA"/>
<stop offset="0.56019" stop-color="#30B9C7"/>
<stop offset="0.68036" stop-color="#4DBFBE"/>
<stop offset="0.83676" stop-color="#7ACBAF"/>
<stop offset="1" stop-color="#B1D89E"/>
</linearGradient>
<linearGradient id="paint5_linear_17_122" x1="104.512" y1="52.1924" x2="131.314" y2="71.3162" gradientUnits="userSpaceOnUse">
<stop offset="0.49069" stop-color="#26B6CA"/>
<stop offset="0.56019" stop-color="#30B9C7"/>
<stop offset="0.68036" stop-color="#4DBFBE"/>
<stop offset="0.83676" stop-color="#7ACBAF"/>
<stop offset="1" stop-color="#B1D89E"/>
</linearGradient>
<linearGradient id="paint6_linear_17_122" x1="149.959" y1="52.1945" x2="176.647" y2="70.9975" gradientUnits="userSpaceOnUse">
<stop offset="0.49069" stop-color="#26B6CA"/>
<stop offset="0.56019" stop-color="#30B9C7"/>
<stop offset="0.68036" stop-color="#4DBFBE"/>
<stop offset="0.83676" stop-color="#7ACBAF"/>
<stop offset="1" stop-color="#B1D89E"/>
</linearGradient>
<linearGradient id="paint7_linear_17_122" x1="30.7569" y1="86.3132" x2="57.2606" y2="105.181" gradientUnits="userSpaceOnUse">
<stop offset="0.49069" stop-color="#26B6CA"/>
<stop offset="0.56019" stop-color="#30B9C7"/>
<stop offset="0.68036" stop-color="#4DBFBE"/>
<stop offset="0.83676" stop-color="#7ACBAF"/>
<stop offset="1" stop-color="#B1D89E"/>
</linearGradient>
<linearGradient id="paint8_linear_17_122" x1="75.9523" y1="86.3042" x2="102.56" y2="105.457" gradientUnits="userSpaceOnUse">
<stop offset="0.49069" stop-color="#26B6CA"/>
<stop offset="0.56019" stop-color="#30B9C7"/>
<stop offset="0.68036" stop-color="#4DBFBE"/>
<stop offset="0.83676" stop-color="#7ACBAF"/>
<stop offset="1" stop-color="#B1D89E"/>
</linearGradient>
<linearGradient id="paint9_linear_17_122" x1="104.535" y1="86.278" x2="131.169" y2="105.446" gradientUnits="userSpaceOnUse">
<stop offset="0.49069" stop-color="#26B6CA"/>
<stop offset="0.56019" stop-color="#30B9C7"/>
<stop offset="0.68036" stop-color="#4DBFBE"/>
<stop offset="0.83676" stop-color="#7ACBAF"/>
<stop offset="1" stop-color="#B1D89E"/>
</linearGradient>
<linearGradient id="paint10_linear_17_122" x1="149.959" y1="86.3039" x2="176.469" y2="105.17" gradientUnits="userSpaceOnUse">
<stop offset="0.49069" stop-color="#26B6CA"/>
<stop offset="0.56019" stop-color="#30B9C7"/>
<stop offset="0.68036" stop-color="#4DBFBE"/>
<stop offset="0.83676" stop-color="#7ACBAF"/>
<stop offset="1" stop-color="#B1D89E"/>
</linearGradient>
<linearGradient id="paint11_linear_17_122" x1="13.3166" y1="99.632" x2="69.5362" y2="121.709" gradientUnits="userSpaceOnUse">
<stop offset="0.49069" stop-color="#26B6CA"/>
<stop offset="0.56019" stop-color="#30B9C7"/>
<stop offset="0.68036" stop-color="#4DBFBE"/>
<stop offset="0.83676" stop-color="#7ACBAF"/>
<stop offset="1" stop-color="#B1D89E"/>
</linearGradient>
<linearGradient id="paint12_linear_17_122" x1="68.0533" y1="119.555" x2="106.1" y2="178.702" gradientUnits="userSpaceOnUse">
<stop offset="0.49069" stop-color="#26B6CA"/>
<stop offset="0.56019" stop-color="#30B9C7"/>
<stop offset="0.68036" stop-color="#4DBFBE"/>
<stop offset="0.83676" stop-color="#7ACBAF"/>
<stop offset="1" stop-color="#B1D89E"/>
</linearGradient>
<linearGradient id="paint13_linear_17_122" x1="149.959" y1="120.53" x2="176.48" y2="139.392" gradientUnits="userSpaceOnUse">
<stop offset="0.49069" stop-color="#26B6CA"/>
<stop offset="0.56019" stop-color="#30B9C7"/>
<stop offset="0.68036" stop-color="#4DBFBE"/>
<stop offset="0.83676" stop-color="#7ACBAF"/>
<stop offset="1" stop-color="#B1D89E"/>
</linearGradient>
<linearGradient id="paint14_linear_17_122" x1="143.066" y1="148.989" x2="167.838" y2="189.362" gradientUnits="userSpaceOnUse">
<stop offset="0.49069" stop-color="#26B6CA"/>
<stop offset="0.56019" stop-color="#30B9C7"/>
<stop offset="0.68036" stop-color="#4DBFBE"/>
<stop offset="0.83676" stop-color="#7ACBAF"/>
<stop offset="1" stop-color="#B1D89E"/>
</linearGradient>
<linearGradient id="paint15_linear_17_122" x1="49.1298" y1="161.255" x2="53.162" y2="188.987" gradientUnits="userSpaceOnUse">
<stop offset="0.49069" stop-color="#26B6CA"/>
<stop offset="0.56019" stop-color="#30B9C7"/>
<stop offset="0.68036" stop-color="#4DBFBE"/>
<stop offset="0.83676" stop-color="#7ACBAF"/>
<stop offset="1" stop-color="#B1D89E"/>
</linearGradient>
</defs>
</svg>
