<svg width="200" height="200" viewBox="0 0 200 200" fill="none" xmlns="http://www.w3.org/2000/svg">
<path d="M130.3 77.5997C134.331 77.5997 137.6 74.3315 137.6 70.2999C137.6 66.2683 134.331 63 130.3 63C126.268 63 123 66.2683 123 70.2999C123 74.3315 126.268 77.5997 130.3 77.5997Z" stroke="url(#paint0_linear_32_2)" stroke-width="4" stroke-miterlimit="10"/>
<path d="M62.1531 40.385L62.1598 40.3816" stroke="url(#paint1_linear_32_2)" stroke-width="4" stroke-miterlimit="10"/>
<path d="M67.4656 24C67.4723 24.0023 67.4791 24.0056 67.4858 24.0079" stroke="url(#paint2_linear_32_2)" stroke-width="4" stroke-miterlimit="10"/>
<path d="M150.703 113.933C148.795 111.031 143.954 110.322 140.158 111.031C141.315 111.937 142.307 113.034 143.094 114.275C144.268 116.139 144.794 118.339 144.59 120.533C144.386 122.671 146.894 123.99 148.525 122.592L148.57 122.553C150.083 121.196 151.027 119.318 151.214 117.294C151.327 116.148 151.152 114.993 150.703 113.933Z" stroke="url(#paint3_linear_32_2)" stroke-width="4" stroke-miterlimit="10"/>
<path d="M95.8591 81.866C95.8594 81.866 95.8596 81.866 95.8598 81.8659C95.8601 81.8658 95.8603 81.8657 95.8605 81.8655C95.8606 81.8653 95.8608 81.8651 95.8608 81.8649C95.8609 81.8646 95.861 81.8644 95.861 81.8642C95.861 81.8639 95.861 81.8637 95.8611 81.8634C95.8612 81.8632 95.8613 81.863 95.8615 81.8628C95.8617 81.8627 95.8619 81.8625 95.8621 81.8624C95.8624 81.8623 95.8626 81.8623 95.8628 81.8623" stroke="url(#paint4_linear_32_2)" stroke-width="4" stroke-miterlimit="10"/>
<path d="M150.898 114.488C150.209 112.158 147.607 110.712 145.557 109.757C141.892 108.05 137.862 107.405 133.863 107.085C126.257 106.476 117.957 107.99 111.84 112.851C111.054 113.475 110.312 114.153 109.62 114.88C105.131 119.614 101.438 128.492 98.8691 135.322C95.9029 143.206 89.898 151.83 88.0832 143.601C82.3012 117.404 78.779 156.782 62.1598 171.524C48.2408 183.871 26.6079 173.648 33.2293 151.53C33.2829 151.351 33.3455 151.174 33.4072 150.997C39.885 132.412 56.6369 118.486 74.1721 108.754C78.5193 106.345 83.0824 104.347 87.8017 102.788C93.0147 101.064 99.2461 99.1767 102.585 98.5452C107.118 97.6685 111.723 97.2159 116.341 97.1934H116.357C133.733 97.4545 148.046 104.84 150.898 114.488Z" stroke="url(#paint5_linear_32_2)" stroke-width="4" stroke-miterlimit="10"/>
<path d="M151.322 76.574C149.414 79.4759 144.573 80.1843 140.778 79.4758C141.934 78.5697 142.927 77.4724 143.713 76.2314C144.887 74.3674 145.413 72.1677 145.209 69.974C145.005 67.8351 147.513 66.5166 149.144 67.9147L149.189 67.9536C150.702 69.3104 151.647 71.189 151.833 73.2129C151.947 74.3584 151.771 75.514 151.322 76.574V76.574Z" stroke="url(#paint6_linear_32_2)" stroke-width="4" stroke-miterlimit="10"/>
<path d="M62.7665 26.4312C62.5327 26.4338 62.2994 26.453 62.0684 26.4886C59.2554 26.4886 56.8332 28.6257 55.3887 30.922C54.535 32.2775 54.0221 33.6886 53.9684 34.7498L53.9665 34.5923C53.0702 40.3035 52.035 45.0183 48.9777 38.2757C48.0646 36.194 47.4217 34.004 47.0647 31.759C46.461 28.2294 41.7739 31.696 41.3332 39.2442C41.1654 42.0663 41.7032 44.8857 42.898 47.4479V47.4498C47.4017 56.809 41.0128 54.7201 38.8647 52.2146C33.6388 46.1183 32.3128 35.5461 36.4147 27.6016C36.6888 27.072 36.9702 26.5423 37.2684 26.0164C37.9756 24.7391 38.7766 23.516 39.6647 22.3572C39.785 22.2016 39.9091 22.0479 40.0351 21.896C42.9825 19.8639 46.5074 18.8377 50.0851 18.9701C52.3798 19.2013 54.6011 19.9084 56.6073 21.046C58.7388 22.0683 60.8276 23.9664 62.7665 26.4312Z" stroke="url(#paint7_linear_32_2)" stroke-width="4" stroke-miterlimit="10"/>
<path d="M68.504 27.6088C78.404 41.6918 79.4213 57.2385 76.9004 62.3895C74.2653 67.7741 63.5205 58.8325 65.5446 66.182C68.407 76.5717 78.4371 82.6901 87.9002 86.3087C97.721 90.0642 108.893 92.4634 119.439 92.4634H119.46C135.393 92.2089 148.572 85.1742 151.61 75.8904C150.861 78.1798 148.167 79.9785 146.145 80.9384C139.899 83.9034 131.298 83.1623 124.853 81.2741C117.632 79.1586 111.457 74.4395 107.686 67.9409C105.496 64.169 103.398 59.3012 101.173 54.0933C98.7559 48.4371 96.1868 42.3811 93.1819 36.8928C91.3182 32.9857 88.8785 29.3804 85.9445 26.1976C73.0925 12.2408 54.9504 7.69284 41.1985 20.7352L40.0891 21.8446C45.3319 17.1097 58.3303 13.1328 68.504 27.6088Z" stroke="url(#paint8_linear_32_2)" stroke-width="4" stroke-miterlimit="10"/>
<defs>
<linearGradient id="paint0_linear_32_2" x1="123" y1="63" x2="138.48" y2="76.598" gradientUnits="userSpaceOnUse">
<stop offset="0.49069" stop-color="#26B6CA"/>
<stop offset="0.56019" stop-color="#30B9C7"/>
<stop offset="0.68036" stop-color="#4DBFBE"/>
<stop offset="0.83676" stop-color="#7ACBAF"/>
<stop offset="1" stop-color="#B1D89E"/>
</linearGradient>
<linearGradient id="paint1_linear_32_2" x1="62.1531" y1="40.3816" x2="62.1562" y2="40.3871" gradientUnits="userSpaceOnUse">
<stop offset="0.49069" stop-color="#26B6CA"/>
<stop offset="0.56019" stop-color="#30B9C7"/>
<stop offset="0.68036" stop-color="#4DBFBE"/>
<stop offset="0.83676" stop-color="#7ACBAF"/>
<stop offset="1" stop-color="#B1D89E"/>
</linearGradient>
<linearGradient id="paint2_linear_32_2" x1="67.4656" y1="24" x2="67.4718" y2="24.0141" gradientUnits="userSpaceOnUse">
<stop offset="0.49069" stop-color="#26B6CA"/>
<stop offset="0.56019" stop-color="#30B9C7"/>
<stop offset="0.68036" stop-color="#4DBFBE"/>
<stop offset="0.83676" stop-color="#7ACBAF"/>
<stop offset="1" stop-color="#B1D89E"/>
</linearGradient>
<linearGradient id="paint3_linear_32_2" x1="140.158" y1="110.776" x2="153.034" y2="120.896" gradientUnits="userSpaceOnUse">
<stop offset="0.49069" stop-color="#26B6CA"/>
<stop offset="0.56019" stop-color="#30B9C7"/>
<stop offset="0.68036" stop-color="#4DBFBE"/>
<stop offset="0.83676" stop-color="#7ACBAF"/>
<stop offset="1" stop-color="#B1D89E"/>
</linearGradient>
<linearGradient id="paint4_linear_32_2" x1="95.8591" y1="81.8623" x2="95.8631" y2="81.8658" gradientUnits="userSpaceOnUse">
<stop offset="0.49069" stop-color="#26B6CA"/>
<stop offset="0.56019" stop-color="#30B9C7"/>
<stop offset="0.68036" stop-color="#4DBFBE"/>
<stop offset="0.83676" stop-color="#7ACBAF"/>
<stop offset="1" stop-color="#B1D89E"/>
</linearGradient>
<linearGradient id="paint5_linear_32_2" x1="32" y1="97.1934" x2="114.113" y2="204.882" gradientUnits="userSpaceOnUse">
<stop offset="0.49069" stop-color="#26B6CA"/>
<stop offset="0.56019" stop-color="#30B9C7"/>
<stop offset="0.68036" stop-color="#4DBFBE"/>
<stop offset="0.83676" stop-color="#7ACBAF"/>
<stop offset="1" stop-color="#B1D89E"/>
</linearGradient>
<linearGradient id="paint6_linear_32_2" x1="140.778" y1="67.3374" x2="153.653" y2="77.4576" gradientUnits="userSpaceOnUse">
<stop offset="0.49069" stop-color="#26B6CA"/>
<stop offset="0.56019" stop-color="#30B9C7"/>
<stop offset="0.68036" stop-color="#4DBFBE"/>
<stop offset="0.83676" stop-color="#7ACBAF"/>
<stop offset="1" stop-color="#B1D89E"/>
</linearGradient>
<linearGradient id="paint7_linear_32_2" x1="34" y1="18.9587" x2="69.7834" y2="44.5155" gradientUnits="userSpaceOnUse">
<stop offset="0.49069" stop-color="#26B6CA"/>
<stop offset="0.56019" stop-color="#30B9C7"/>
<stop offset="0.68036" stop-color="#4DBFBE"/>
<stop offset="0.83676" stop-color="#7ACBAF"/>
<stop offset="1" stop-color="#B1D89E"/>
</linearGradient>
<linearGradient id="paint8_linear_32_2" x1="40.0891" y1="13" x2="123.223" y2="115.489" gradientUnits="userSpaceOnUse">
<stop offset="0.49069" stop-color="#26B6CA"/>
<stop offset="0.56019" stop-color="#30B9C7"/>
<stop offset="0.68036" stop-color="#4DBFBE"/>
<stop offset="0.83676" stop-color="#7ACBAF"/>
<stop offset="1" stop-color="#B1D89E"/>
</linearGradient>
</defs>
</svg>
