<svg width="1155" height="1507" viewBox="0 0 1155 1507" fill="none" xmlns="http://www.w3.org/2000/svg">
<path d="M577.006 749.401C577.006 749.401 376.773 604.996 188.887 505.622C-39.7983 384.669 33.7458 292.568 72.3168 239.469C113.732 404.226 421.249 566.928 630.072 718.311L719.665 788.343L809.258 858.375C904.275 931.919 986.78 1029.48 1010.22 1127.32C1033.11 1222.87 985.515 1233.61 943.117 1233.61C976.209 1104.24 823.215 956.613 758.259 899.173L577.006 749.401Z" fill="url(#paint0_linear_172_1297)"/>
<path d="M1126.76 1023.35C1198.41 1149.59 1118.04 1227.17 1047.8 1227.17C1096.57 1044.68 892.119 873.941 837.277 832.565L655.382 700.223C508.832 597.155 470.18 577.554 332.216 471.266C173.561 349.037 56.2925 209.835 86.3633 107.071C108.522 31.3468 165.276 -9.41901 273.177 1.85377C225.937 89.8925 398.246 407.137 738.052 643.32L911.176 775.831C924.865 789.124 1054.16 895.441 1126.76 1023.35Z" fill="url(#paint1_linear_172_1297)"/>
<path d="M1107.19 492.198C1155.17 279.822 986.613 283.043 962.456 351.755C1078.95 716.255 93.6197 933.373 13.7191 1255.86C-50.5236 1515.14 190.573 1525.16 266.942 1494.69C43.6711 1082.37 1045.51 765.204 1107.19 492.198Z" fill="url(#paint2_linear_172_1297)"/>
<circle cx="759.706" cy="415.368" r="87.1299" fill="url(#paint3_linear_172_1297)"/>
<mask id="mask0_172_1297" style="mask-type:alpha" maskUnits="userSpaceOnUse" x="0" y="1" width="1152" height="1507">
<path d="M964.704 344.349C964.622 344.208 964.569 344.027 964.547 343.805C964.6 343.986 964.652 344.168 964.704 344.349C969.23 352.073 1063.69 243.089 1112.18 402.319C1208.8 719.579 34.2987 1055.09 258.862 1498.65C182.494 1529.12 -93.5201 1485.48 34.2994 1211.74C173.8 912.984 1068.32 704.221 964.704 344.349Z" fill="url(#paint4_linear_172_1297)"/>
<path d="M964.547 343.805C965.757 356.152 1062.8 240.174 1112.18 402.319C1208.8 719.579 34.2987 1055.09 258.862 1498.65C182.494 1529.12 -93.5201 1485.48 34.2995 1211.74C173.87 912.834 1069.23 704.011 964.547 343.805Z" stroke="#001948" stroke-opacity="0.13"/>
<path d="M1120.8 1025.33C1181.94 1142.55 1148.2 1195.8 1048.89 1230.16C1095.59 1047.64 887.288 861.595 836.29 835.828L910.371 778.925C927.745 781.648 1059.67 908.097 1120.8 1025.33Z" fill="url(#paint5_linear_172_1297)"/>
<path d="M278.535 429.393C91.9998 278 -54.8292 18.7897 270.483 1.01172C236.663 60.0618 307.053 193.499 395.577 316.431C496.049 455.954 660.75 590.439 735.905 641.437L655.919 700.487C514.74 596.344 410.889 536.812 278.535 429.393Z" fill="url(#paint6_linear_172_1297)"/>
<path d="M236.127 532.526C15.2129 399.455 -9.19885 366.649 71.3236 236.676C102.459 412.278 566.808 661.899 629.615 718.202L583 759C423.028 632.311 372.479 614.659 236.127 532.526Z" fill="url(#paint7_linear_172_1297)"/>
<path d="M1005 1102.5C1046.68 1236.25 977.666 1230.93 940.971 1230.93C974.889 1095.25 806.351 942.019 757.5 898L806.766 855.691C892.12 919.036 981.916 1028.42 1005 1102.5Z" fill="url(#paint8_linear_172_1297)"/>
<circle cx="759.706" cy="415.368" r="87.1299" fill="url(#paint9_linear_172_1297)"/>
</mask>
<g mask="url(#mask0_172_1297)">
<path d="M635.197 439.684C635.197 439.684 570.294 409.949 390.403 448.126C327.926 466.788 99.4655 570.512 -51.2238 464.715C-171.775 380.078 -210.109 246.044 -210.302 188.44" stroke="#001948" stroke-opacity="0.15"/>
<path d="M845.432 373.867C771.136 391.904 700.669 378.161 674.723 369.035L667.208 469.42C730.731 480.693 855.416 485.74 854.558 450.095C853.699 414.45 848.116 384.424 845.432 373.867Z" fill="#F5F5F5" fill-opacity="0.09"/>
<path d="M667.74 469.007L675.173 369.721C701.618 378.851 771.417 392.218 845.068 374.469C847.786 385.399 853.212 415.027 854.058 450.107C854.161 454.396 852.384 458.085 849.017 461.258C845.637 464.441 840.662 467.095 834.415 469.265C821.923 473.605 804.49 475.961 785.003 476.852C746.223 478.627 699.464 474.597 667.74 469.007Z" stroke="#001948" stroke-opacity="0.15"/>
<path d="M-31.6969 1222.78C84.5689 1150.64 394.145 1204.86 507.236 1238.71C156.484 1208.27 20.7767 1325.44 256.908 1375.42C407.393 1401.58 487.973 1462.82 -31.6969 1496.36C66.9173 1470.2 281.148 1457.25 84.107 1402.83C-147.501 1338.87 -127.724 1282.36 -31.6969 1222.78Z" fill="#F5F5F5" fill-opacity="0.07" stroke="#001948" stroke-opacity="0.15"/>
<path d="M1129.64 1164.46C1124.01 1113.61 1273.59 882.962 1129.65 889.75C1042.97 936.237 892.866 1295.37 701.556 906.174" stroke="#001948" stroke-opacity="0.15"/>
<path d="M623.189 496.263C680.622 309.987 85.5186 448.641 -28.3158 363.943L-138.348 278.944L-244.304 185.445C47.9413 338.593 372.79 172.819 654.325 413.593C923.648 712.439 60.805 797.438 623.189 937.686C1073.1 1049.89 863.684 378.163 962.995 413.593L1561.03 712.439C558.52 1171.43 192.146 1107.68 212.523 937.686C232.899 767.688 623.189 578.934 623.189 496.263Z" fill="#F5F5F5" fill-opacity="0.07"/>
<path d="M606.77 532.306C617.47 518.915 623.659 506.834 623.689 496.339C630.877 472.969 627.856 454.606 616.749 440.264C605.655 425.94 586.555 415.705 561.77 408.434C512.197 393.891 439.565 391.116 361.66 391.511C332.545 391.659 302.695 392.25 273.025 392.837C223.262 393.822 174.009 394.797 129.595 393.655C94.1541 392.744 61.822 390.486 34.8023 385.813C7.77264 381.139 -13.88 374.059 -28.0133 363.545C-28.0146 363.544 -28.016 363.543 -28.0174 363.542L-138.029 278.559L-240.916 187.768C-113.439 253.369 20.1711 259.016 153.511 264.652C172.019 265.434 190.521 266.217 209.001 267.159C361.905 274.954 513.347 293.697 653.975 413.952C687.579 451.247 703.483 485.159 706.748 516.214C710.014 547.271 700.646 575.54 683.577 601.562C650.793 651.541 589.679 693.125 535.393 730.061C533.108 731.616 530.836 733.162 528.578 734.701C500.648 753.73 474.967 771.547 456.572 788.659C438.201 805.748 426.954 822.261 428.173 838.692C429.395 855.148 443.091 871.255 473.873 887.599C504.683 903.958 552.759 920.638 623.068 938.172C735.655 966.249 807.131 945.308 852.482 898.496C897.791 851.728 916.911 779.244 925.063 704.482C930.944 650.548 931.123 595.349 931.277 547.681C931.336 529.271 931.392 511.983 931.772 496.326C932.453 468.199 934.179 445.373 938.811 430.693C941.128 423.35 944.148 418.129 948.051 415.277C951.912 412.456 956.721 411.893 962.799 414.054L1559.87 712.419C1059.15 941.599 717.289 1040.27 503.147 1060.44C396 1070.53 320.894 1060.96 273.87 1038.31C250.365 1026.98 233.894 1012.4 223.929 995.389C213.965 978.38 210.483 958.902 213.019 937.746C218.094 895.408 246.216 851.834 285.654 808.96C325.08 766.098 375.749 724.004 425.806 684.62C441.283 672.443 456.702 660.525 471.712 648.923C505.235 623.011 536.714 598.679 562.215 576.584C580.677 560.589 596.029 545.747 606.77 532.306Z" stroke="#001948" stroke-opacity="0.15"/>
</g>
<defs>
<linearGradient id="paint0_linear_172_1297" x1="966.495" y1="1214.17" x2="111.505" y2="396.326" gradientUnits="userSpaceOnUse">
<stop stop-color="#339DDC"/>
<stop offset="0.332112" stop-color="#2C1B77"/>
<stop offset="0.407749"/>
<stop offset="0.482841" stop-color="#2C1B77"/>
<stop offset="1" stop-color="#AD59AE"/>
</linearGradient>
<linearGradient id="paint1_linear_172_1297" x1="1196.5" y1="1145.46" x2="181.932" y2="146.582" gradientUnits="userSpaceOnUse">
<stop stop-color="#339DDC"/>
<stop offset="0.341434" stop-color="#2C1B77"/>
<stop offset="0.399755"/>
<stop offset="0.473739" stop-color="#2C1B77"/>
<stop offset="1" stop-color="#FD95FF"/>
</linearGradient>
<linearGradient id="paint2_linear_172_1297" x1="117.503" y1="1560.24" x2="1039.76" y2="309.985" gradientUnits="userSpaceOnUse">
<stop stop-color="#26A8F5"/>
<stop offset="0.984416" stop-color="#AD59AE"/>
</linearGradient>
<linearGradient id="paint3_linear_172_1297" x1="689.75" y1="351.986" x2="815.907" y2="502.168" gradientUnits="userSpaceOnUse">
<stop stop-color="#FD95FF"/>
<stop offset="1" stop-color="#339DDC"/>
</linearGradient>
<linearGradient id="paint4_linear_172_1297" x1="1188.22" y1="842.017" x2="23.9044" y2="842.017" gradientUnits="userSpaceOnUse">
<stop stop-color="#C630C9"/>
<stop offset="1" stop-color="#339DDC"/>
</linearGradient>
<linearGradient id="paint5_linear_172_1297" x1="1116.15" y1="669.316" x2="168.748" y2="669.316" gradientUnits="userSpaceOnUse">
<stop stop-color="#F16BF3"/>
<stop offset="0.38" stop-color="#002873"/>
<stop offset="1" stop-color="#3696CF"/>
</linearGradient>
<linearGradient id="paint6_linear_172_1297" x1="1116.15" y1="669.316" x2="168.748" y2="669.316" gradientUnits="userSpaceOnUse">
<stop stop-color="#F16BF3"/>
<stop offset="0.38" stop-color="#002873"/>
<stop offset="1" stop-color="#3696CF"/>
</linearGradient>
<linearGradient id="paint7_linear_172_1297" x1="1100.9" y1="1174.27" x2="197.436" y2="190.814" gradientUnits="userSpaceOnUse">
<stop stop-color="#3C61A7"/>
<stop offset="0.414057" stop-color="#2C1B77"/>
<stop offset="1" stop-color="#AE26B0"/>
</linearGradient>
<linearGradient id="paint8_linear_172_1297" x1="1100.9" y1="1174.27" x2="197.436" y2="190.814" gradientUnits="userSpaceOnUse">
<stop stop-color="#3C61A7"/>
<stop offset="0.414057" stop-color="#2C1B77"/>
<stop offset="1" stop-color="#AE26B0"/>
</linearGradient>
<linearGradient id="paint9_linear_172_1297" x1="759.706" y1="328.238" x2="759.706" y2="502.498" gradientUnits="userSpaceOnUse">
<stop stop-color="#F16BF3"/>
<stop offset="1" stop-color="#339DDC"/>
</linearGradient>
</defs>
</svg>
