<svg width="200" height="200" viewBox="0 0 200 200" fill="none" xmlns="http://www.w3.org/2000/svg">
<path d="M92.0066 19.1168C91.8645 19.1879 91.1007 19.3655 90.3191 19.4721C89.5375 19.5964 88.596 19.7563 88.2408 19.8629C87.8678 19.9517 87.2638 20.0938 86.9085 20.1826C83.5335 21.0175 79.2881 22.4385 78.7908 22.9004C78.6842 22.9714 78.471 23.0425 78.3111 23.0425C78.1335 23.0425 77.9736 23.0958 77.9381 23.1846C77.9204 23.2557 76.6059 23.9484 75.0427 24.73C71.8809 26.3109 69.8381 27.5544 68.6657 28.6557C68.5591 28.7445 68.346 28.8866 68.1861 28.9399C68.0262 29.0109 66.9072 29.8458 65.6993 30.8228C63.7276 32.4215 60.7966 35.2636 58.6295 37.6972C57.617 38.8163 55.0591 42.1735 54.917 42.5643C54.7749 42.9373 53.9578 44.2163 53.7091 44.4472C53.1407 44.9446 50.5117 50.1314 49.8367 52.0854C49.6591 52.565 49.4459 53.1512 49.3571 53.3643C49.2683 53.5953 49.1262 53.9683 49.0196 54.217C48.9308 54.4657 48.7709 54.8564 48.6643 55.1051C48.5755 55.3538 48.4157 55.7268 48.3268 55.94C47.8295 57.1834 47.2255 59.2973 46.888 60.967C46.7814 61.5532 46.6216 62.3525 46.5328 62.7433C46.3196 63.7203 46.0532 65.6032 45.8045 67.717C45.5735 69.7243 45.6979 78.5881 45.9821 81.2171C46.4617 85.6223 47.4209 90.6316 47.9716 91.6441C48.0604 91.8217 48.1314 92.1592 48.1314 92.3901C48.1314 92.6388 48.2203 92.8875 48.3091 92.9408C48.4157 92.9941 48.4867 93.2072 48.4867 93.4026C48.4867 93.5803 48.5755 93.9 48.6643 94.0954C48.7709 94.2908 48.9308 94.6105 49.0196 94.8059C49.1084 95.0013 49.1972 95.3033 49.1972 95.4809C49.1972 95.6586 49.2683 95.8717 49.3393 95.9605C49.4104 96.0671 49.6236 96.5822 49.8012 97.1151C50.1387 98.1276 50.3696 98.7671 50.6361 99.2823C50.7249 99.4599 50.7959 99.7263 50.7959 99.8684C50.7959 100.011 50.867 100.135 50.9558 100.135C51.0446 100.135 51.169 100.348 51.24 100.614C51.4532 101.52 53.2295 104.878 53.8157 105.499C54.0111 105.713 54.1709 105.943 54.1709 106.015C54.1709 106.388 57.3861 111.201 58.3808 112.338C58.6473 112.64 59.4466 113.564 60.1216 114.363C62.5729 117.241 66.9072 121.415 69.7848 123.636C72.7513 125.945 72.8401 126.016 74.1901 126.975C75.9486 128.219 76.5881 129.107 77.3697 131.38C77.7427 132.446 77.7427 132.553 77.4763 132.766C77.3164 132.89 77.0855 132.997 76.9611 132.997C76.5881 132.997 73.7105 135.981 73.7105 136.354C73.7105 136.461 73.6394 136.549 73.5684 136.549C73.4796 136.549 73.2486 137.065 73.0355 137.686C72.2006 140.102 72.6624 143.513 74.0125 145.04C74.7052 145.822 74.723 145.964 74.1723 146.479C73.7815 146.834 73.3197 147.669 72.8401 148.859C72.5736 149.517 72.5914 152.75 72.8578 153.673C72.9644 154.064 73.2131 154.615 73.3907 154.881C73.5684 155.13 73.7105 155.396 73.7105 155.45C73.7105 155.503 73.9059 155.752 74.1546 156.018C74.6875 156.604 74.7052 156.622 74.2078 157.155C73.7282 157.652 73.1776 158.718 72.8401 159.73C72.4848 160.814 72.6447 164.136 73.071 165.059C73.6394 166.232 74.9006 167.937 75.7177 168.577C77.8671 170.317 80.7802 170.957 82.5566 170.104C83.6401 169.571 84.0131 168.896 84.0131 167.422C84.0131 166.321 83.9598 166.161 83.4447 165.557C82.6098 164.598 82.4322 164.491 81.5263 164.402C80.2296 164.278 79.3947 163.78 79.0039 162.892C78.6842 162.146 78.6664 162.075 78.9684 161.329C79.6256 159.571 78.8618 159.642 95.0796 159.642H109.095L109.645 159.251C110.818 158.434 111.013 158.061 111.013 156.675V155.414L110.161 154.508L109.29 153.602H95.3283C80.6204 153.602 80.0875 153.567 79.4302 152.803C79.2526 152.607 79.0217 152.163 78.8973 151.808C78.5776 150.867 79.0927 149.712 80.0342 149.232C80.6914 148.913 81.402 148.895 95.0263 148.806C106.093 148.735 109.415 148.664 109.717 148.486C109.93 148.362 110.32 148.007 110.569 147.669C110.942 147.172 111.013 146.905 111.013 145.875C111.013 144.845 110.942 144.578 110.551 144.063C109.557 142.767 110.765 142.873 94.7421 142.767C80.5316 142.678 80.3006 142.678 79.821 142.305C79.5546 142.109 79.2704 141.825 79.1993 141.683C78.6486 140.546 78.6309 140.475 78.8618 139.889C78.9862 139.569 79.2171 139.161 79.3769 138.965C80.0697 138.148 79.9631 138.148 94.8842 138.148C108.438 138.148 108.988 138.13 109.521 137.811C109.841 137.615 110.285 137.189 110.551 136.851C110.942 136.336 111.013 136.07 111.013 135.04C111.013 134.009 110.942 133.743 110.551 133.228C109.663 132.055 110.374 132.109 96.5362 132.109H84.0131L83.8355 131.647C83.7289 131.398 83.6579 131.007 83.6579 130.794C83.6579 130.315 83.0895 128.485 82.6454 127.526C81.6506 125.341 79.448 122.978 76.7125 121.167C75.7 120.492 74.5631 119.621 74.1546 119.248C73.7638 118.857 72.6802 117.951 71.7565 117.223C69.323 115.287 64.5979 110.366 62.8572 107.933C62.04 106.814 61.3118 105.872 61.2407 105.855C61.1696 105.819 61.0986 105.695 61.0986 105.57C61.0986 105.464 60.9387 105.251 60.7433 105.109C60.5479 104.966 60.3881 104.753 60.3881 104.629C60.3881 104.505 60.317 104.398 60.2104 104.398C60.1216 104.398 60.0328 104.274 60.0328 104.132C60.0328 103.99 59.9618 103.865 59.8552 103.865C59.7664 103.865 59.6775 103.794 59.6775 103.723C59.6775 103.634 59.2867 102.87 58.8071 102C57.9545 100.472 56.6223 97.6125 55.5565 94.9836C55.4499 94.7349 55.3078 94.3974 55.219 94.2375C55.1302 94.0599 55.0591 93.7757 55.0591 93.5803C55.0591 93.3849 54.9881 93.2072 54.8815 93.1717C54.7927 93.1362 54.5973 92.6388 54.4374 92.0526C54.2775 91.4664 54.0644 90.7026 53.9578 90.3651C53.6025 89.0862 53.4249 88.2868 53.1762 86.9013C53.0341 86.1197 52.8387 85.0006 52.7321 84.4144C52.3769 82.3717 52.217 80.6486 52.0216 76.6519C51.7729 71.7315 52.0038 67.6637 52.7144 63.8091C53.1584 61.4644 53.3183 60.7538 53.4426 60.3453C53.5315 60.0966 53.6913 59.5459 53.8157 59.1019C53.94 58.6578 54.0999 58.1426 54.1709 57.9472C54.242 57.7519 54.4019 57.2545 54.5262 56.8282C54.6505 56.4196 54.8282 56.0821 54.917 56.0821C54.988 56.0821 55.0591 55.8867 55.0591 55.638C55.0591 55.3893 55.1479 55.1939 55.2367 55.1939C55.3433 55.1939 55.4144 55.0696 55.4144 54.9275C55.4144 54.7854 55.8407 53.7729 56.3558 52.6716C56.8887 51.5703 57.4216 50.3979 57.5637 50.0781C57.6881 49.7762 57.8657 49.5097 57.9367 49.5097C58.0256 49.5097 58.0788 49.4387 58.0788 49.3321C58.0788 49.1545 59.9795 45.9216 60.1749 45.7794C60.246 45.7262 60.619 45.2465 61.0098 44.7137C61.8269 43.559 64.7223 40.0064 65.3795 39.3847C65.6282 39.136 66.4453 38.3722 67.2091 37.6972C67.973 37.0044 68.9144 36.1517 69.323 35.7787C70.6197 34.6063 74.0657 32.2438 75.9309 31.2846C76.6236 30.9294 77.2098 30.5563 77.2276 30.4853C77.2631 30.3965 77.4408 30.3254 77.6361 30.3254C77.8138 30.3254 77.9736 30.2366 77.9736 30.1478C77.9736 30.0412 78.0802 29.9701 78.2223 29.9701C78.3644 29.9701 78.5065 29.8991 78.5421 29.828C78.5954 29.6682 80.2118 28.9044 81.171 28.5491C81.9881 28.2649 82.4145 28.105 82.9473 27.8741C84.2085 27.3234 88.5605 26.1333 90.852 25.6892C93.1967 25.2451 94.2092 25.1386 96.1809 25.0497C97.3533 25.0142 98.3836 24.9076 98.4902 24.8011C98.579 24.7122 99.254 24.6412 100 24.6412C100.746 24.6412 101.421 24.7122 101.528 24.8011C101.616 24.9076 102.647 25.0142 103.819 25.0497C106.128 25.1386 108.597 25.4938 110.747 26.0445C111.138 26.1511 111.777 26.2932 112.168 26.3997C113.198 26.6307 114.708 27.057 115.72 27.3945C116.573 27.6609 116.751 27.732 117.763 28.1583C118.012 28.2471 118.492 28.4425 118.829 28.5491C119.575 28.8155 121.369 29.6504 121.494 29.7925C121.547 29.8458 121.831 30.0057 122.115 30.1478C122.417 30.2899 122.684 30.4498 122.737 30.503C122.79 30.5563 123.146 30.7695 123.536 30.9827C125.153 31.8531 125.721 32.1728 127.338 33.2563C128.279 33.8781 129.434 34.7307 129.931 35.157C131.441 36.4715 134.176 38.9228 134.638 39.3847C135.296 40.0242 138.191 43.5768 138.99 44.7137C139.381 45.2465 139.754 45.7262 139.825 45.7794C140.021 45.9216 141.921 49.1545 141.921 49.3321C141.921 49.4387 141.975 49.5097 142.063 49.5097C142.134 49.5097 142.294 49.7762 142.436 50.0781C142.863 51.0551 143.893 53.2933 144.248 53.9683C144.444 54.3236 144.586 54.7499 144.586 54.9097C144.586 55.0696 144.675 55.1939 144.763 55.1939C144.87 55.1939 144.941 55.3893 144.941 55.638C144.941 55.8867 145.012 56.0821 145.083 56.0821C145.172 56.0821 145.35 56.4196 145.474 56.8282C145.598 57.2545 145.758 57.7519 145.829 57.9472C145.9 58.1426 146.06 58.6578 146.184 59.1019C146.309 59.5459 146.469 60.0611 146.54 60.2565C146.628 60.4519 146.788 61.1269 146.895 61.7663C147.019 62.4058 147.179 63.3117 147.286 63.8091C147.996 67.5571 148.227 71.8736 147.978 76.7052C147.783 80.6664 147.623 82.3894 147.268 84.4144C147.161 85.0006 146.966 86.1197 146.824 86.9013C146.575 88.2868 146.398 89.0862 146.042 90.3651C145.936 90.7026 145.723 91.4664 145.563 92.0526C145.403 92.6388 145.207 93.1362 145.119 93.1717C145.012 93.2072 144.941 93.3849 144.941 93.5803C144.941 93.7757 144.87 94.0599 144.781 94.2375C144.603 94.5572 144.568 94.6461 143.253 97.7369C142.792 98.8026 142.028 100.455 141.53 101.378C140.305 103.652 140.287 103.705 139.932 104.114C139.754 104.309 139.612 104.558 139.612 104.665C139.612 104.771 139.452 104.966 139.257 105.109C139.061 105.251 138.901 105.464 138.901 105.57C138.901 105.695 138.83 105.819 138.759 105.855C138.688 105.872 137.96 106.832 137.143 107.951C135.402 110.384 130.713 115.251 128.244 117.205C127.32 117.951 126.236 118.857 125.828 119.248C125.437 119.621 124.176 120.563 123.039 121.344C121.76 122.197 120.605 123.138 120.037 123.795C119.522 124.382 119.007 124.95 118.918 125.057C118.19 125.874 116.875 128.272 116.875 128.787C116.875 128.911 116.804 129.089 116.715 129.178C116.413 129.497 116.111 131.629 116.04 133.938C115.969 136.176 115.969 136.194 116.467 136.905C117.017 137.669 117.799 138.077 118.989 138.219C119.77 138.308 120.552 138.734 120.801 139.232C121.44 140.528 121.44 140.386 120.801 141.683C120.552 142.18 119.77 142.607 118.989 142.696C117.799 142.838 117.017 143.246 116.484 144.01C116.058 144.596 115.987 144.863 115.987 145.946C115.987 147.19 116.005 147.207 116.751 147.971C117.39 148.646 117.621 148.771 118.42 148.859C119.877 149.019 120.588 149.446 120.978 150.369C121.28 151.044 121.298 151.257 121.103 151.808C120.978 152.163 120.747 152.607 120.57 152.803C120.268 153.158 119.007 153.602 118.278 153.602C117.71 153.602 117.017 154.082 116.484 154.846C116.058 155.432 115.987 155.698 115.987 156.728C115.987 157.741 116.058 158.007 116.449 158.523C116.964 159.215 117.728 159.642 118.42 159.642C118.918 159.642 119.966 159.961 120.392 160.246C120.534 160.317 120.783 160.743 120.978 161.187C121.565 162.573 120.961 163.798 119.433 164.225C118.9 164.384 114.85 164.438 104.707 164.438H90.7099L89.8572 165.273L89.0046 166.125L88.9868 170.531C88.9868 172.946 89.0579 175.06 89.1467 175.238C89.2355 175.398 89.573 176.09 89.8928 176.783C90.6388 178.346 91.9 179.625 93.4454 180.371L94.6 180.958H105.4L106.555 180.371C107.194 180.069 108.136 179.394 108.615 178.915C109.503 178.027 110.658 176.055 110.658 175.433C110.658 175.238 110.747 175.096 110.836 175.096C110.942 175.096 111.013 174.207 111.013 172.786V170.477H115.596C120.499 170.477 121.227 170.371 123.003 169.518C123.803 169.109 124.975 168.044 125.952 166.818C126.112 166.623 126.467 165.983 126.751 165.397C127.213 164.455 127.267 164.136 127.32 162.342C127.373 161.045 127.302 160.121 127.178 159.766C126.769 158.718 126.094 157.332 125.97 157.332C125.899 157.332 125.739 157.173 125.615 156.959C125.419 156.64 125.455 156.498 126.041 155.716C127.071 154.295 127.355 153.353 127.355 151.204C127.355 150.192 127.267 149.126 127.16 148.859C126.645 147.58 126.165 146.728 125.81 146.444C125.295 146.017 125.295 145.751 125.846 145.236C126.076 145.005 126.29 144.703 126.29 144.578C126.29 144.472 126.361 144.365 126.432 144.365C126.521 144.365 126.751 143.868 126.965 143.264C127.515 141.719 127.515 139.267 126.965 137.686C126.751 137.065 126.521 136.549 126.432 136.549C126.361 136.549 126.29 136.461 126.29 136.354C126.29 135.981 123.412 132.997 123.039 132.997C122.915 132.997 122.684 132.89 122.524 132.766C122.257 132.553 122.257 132.446 122.63 131.38C123.412 129.089 124.176 128.041 125.863 126.94C126.503 126.531 127.249 125.98 127.515 125.732C127.782 125.483 128.226 125.11 128.51 124.915C130.002 123.867 132.4 121.913 133.715 120.669C136.646 117.88 138.493 116.033 138.884 115.5C139.115 115.198 139.719 114.488 140.234 113.901C140.749 113.315 141.388 112.587 141.637 112.303C142.632 111.166 145.829 106.388 145.829 106.032C145.829 105.961 146.042 105.659 146.291 105.375C146.788 104.789 148.849 100.792 148.849 100.384C148.849 100.241 148.938 100.135 149.027 100.135C149.133 100.135 149.204 100.011 149.204 99.8684C149.204 99.7263 149.364 99.2645 149.542 98.8382C149.719 98.4296 150.092 97.4526 150.359 96.6711C150.821 95.25 151.069 94.6283 151.353 94.0599C151.442 93.8822 151.513 93.5803 151.513 93.4026C151.513 93.2072 151.584 92.9941 151.691 92.9408C151.798 92.8875 151.869 92.6388 151.869 92.3901C151.869 92.1592 151.94 91.8217 152.028 91.6441C152.242 91.2533 152.721 89.4237 152.97 88.0914C153.396 85.6934 153.485 85.2493 153.645 84.148C154.284 79.8138 154.515 70.1506 154.053 66.5624C153.787 64.644 153.521 62.9032 153.396 62.3881C153.361 62.1927 153.219 61.5532 153.112 60.967C152.988 60.3808 152.828 59.7058 152.757 59.4571C152.686 59.2084 152.526 58.6578 152.402 58.2137C152.153 57.29 151.904 56.5084 151.673 55.94C151.584 55.7268 151.442 55.3538 151.336 55.1051C151.247 54.8564 151.087 54.4657 150.98 54.217C150.892 53.9683 150.732 53.5953 150.643 53.3643C150.554 53.1512 150.252 52.3696 149.986 51.6413C149.453 50.167 147.232 45.7262 146.806 45.2465C146.664 45.0867 146.54 44.8558 146.54 44.7492C146.54 44.6426 146.433 44.4827 146.309 44.4117C146.167 44.3406 145.687 43.6301 145.207 42.8485C144.746 42.0669 144.142 41.1432 143.893 40.8057C140.838 36.6669 135.438 31.3734 131.725 28.8688C131.139 28.4603 130.606 28.0695 130.553 28.0162C130.304 27.6609 127.16 25.7958 125.135 24.8011C123.874 24.1793 122.808 23.6109 122.772 23.5399C122.737 23.4688 122.559 23.3978 122.364 23.3978C122.186 23.3978 122.026 23.3089 122.026 23.2201C122.026 23.1135 121.92 23.0425 121.796 23.0425C121.653 23.0425 121.316 22.9359 121.032 22.7938C119.131 21.8879 117.586 21.355 114.477 20.5201C114.086 20.4313 113.589 20.2714 113.358 20.1826C113.127 20.0938 112.683 20.0227 112.345 20.0227C112.008 20.0227 111.706 19.9517 111.653 19.8629C111.599 19.7918 111.138 19.6675 110.622 19.5964C110.107 19.5431 109.29 19.401 108.793 19.2767C107.745 19.028 92.4151 18.8859 92.0066 19.1168ZM105.151 171.703C105.151 172.378 105.063 173.159 104.956 173.444C104.707 174.101 103.926 174.918 103.535 174.918C103.357 174.918 103.162 174.989 103.109 175.096C103.038 175.202 101.812 175.273 100 175.273C98.1882 175.273 96.9625 175.202 96.8915 175.096C96.8382 174.989 96.6428 174.918 96.4652 174.918C96.0744 174.918 95.2928 174.101 95.0441 173.444C94.9375 173.159 94.8487 172.378 94.8487 171.703V170.477H105.151V171.703Z" fill="url(#paint0_linear_17_117)"/>
<path d="M38.6282 19.8983C37.367 20.6266 36.9407 21.3016 36.9407 22.5983C36.9407 23.3621 37.0473 23.7529 37.367 24.2325C37.8111 24.8898 38.0775 25.1207 41.5946 27.9273C42.696 28.7977 43.8328 29.7569 44.1348 30.0589C45.9999 31.8885 48.6289 33.9135 49.5703 34.2332C50.5118 34.5707 51.7197 34.1977 52.6078 33.3095C53.2473 32.6701 53.2828 32.5812 53.2828 31.4622C53.2828 30.8227 53.194 30.1299 53.0874 29.9168C52.8565 29.4904 50.9914 27.6786 50.1743 27.0747C49.5348 26.6128 45.8223 23.5042 43.6019 21.5681C42.7315 20.8042 41.7723 20.0759 41.4881 19.9338C40.8841 19.6319 39.1433 19.6141 38.6282 19.8983Z" fill="url(#paint1_linear_17_117)"/>
<path d="M158.494 19.9162C158.281 20.0405 157.375 20.7688 156.452 21.5504C152.917 24.5524 150.341 26.7017 149.826 27.0747C149.542 27.2701 148.707 28.0162 148.014 28.7089L146.717 29.9701V31.3024C146.717 32.6169 146.735 32.6524 147.392 33.3096C148.28 34.1978 149.488 34.5708 150.43 34.2333C151.371 33.9136 154 31.8886 155.865 30.0589C156.167 29.757 157.304 28.7978 158.405 27.9274C161.923 25.1208 162.189 24.8899 162.633 24.2326C162.935 23.7708 163.059 23.3622 163.059 22.705C163.059 21.3194 162.58 20.5556 161.319 19.8806C160.786 19.6142 159.009 19.6319 158.494 19.9162Z" fill="url(#paint2_linear_17_117)"/>
<path d="M25.8565 43.0972C25.7854 43.2038 25.5367 43.2926 25.288 43.2926C25.0571 43.2926 24.8617 43.3459 24.8617 43.4347C24.8617 43.5057 24.542 43.8788 24.1512 44.2696C23.4762 44.9623 23.4584 45.0156 23.4407 46.188C23.4407 47.3781 23.4584 47.4136 24.2045 48.1597C24.7196 48.6748 25.2525 49.0123 25.9275 49.2255C26.8867 49.5097 27.4907 49.7584 28.0946 50.0604C28.2723 50.1492 28.5387 50.2202 28.6808 50.2202C28.8229 50.2202 28.9473 50.2913 28.9473 50.3979C28.9473 50.4867 29.0894 50.5755 29.267 50.5755C29.4624 50.5755 29.8354 50.6998 30.1196 50.8419C30.4039 50.9841 31.4874 51.3748 32.4999 51.7301C33.5302 52.0854 34.5249 52.4406 34.7203 52.5295C34.9157 52.6183 35.7151 52.8847 36.4966 53.1334C37.2782 53.3998 38.1664 53.6841 38.4861 53.7906C39.0901 53.986 40.3157 53.6841 41.1506 53.1334C42.0743 52.5472 42.5184 50.8064 42.0565 49.7406C41.4526 48.4084 40.6177 47.911 36.9407 46.6854C36.3012 46.4722 35.6262 46.2235 35.4308 46.1347C35.2354 46.0459 34.2052 45.6906 33.1216 45.3353C32.0558 44.9978 31.0256 44.6248 30.8657 44.536C30.6881 44.4294 30.3861 44.3584 30.2085 44.3584C30.0131 44.3584 29.7999 44.2696 29.7466 44.1807C29.6933 44.0742 29.4802 44.0031 29.2848 44.0031C29.1071 44.0031 28.9473 43.9143 28.9473 43.8255C28.9473 43.7189 28.7519 43.6478 28.5032 43.6478C28.2545 43.6478 28.0591 43.5768 28.0591 43.488C28.0591 43.3992 27.8282 43.2926 27.5262 43.2215C27.242 43.1682 26.7624 43.0617 26.4782 43.0084C26.194 42.9551 25.9098 42.9906 25.8565 43.0972Z" fill="url(#paint3_linear_17_117)"/>
<path d="M172.918 43.115C172.865 43.2038 172.616 43.2926 172.368 43.2926C172.137 43.2926 171.941 43.3637 171.941 43.4703C171.941 43.5591 171.746 43.6479 171.497 43.6479C171.249 43.6479 171.053 43.7189 171.053 43.8255C171.053 43.9143 170.893 44.0032 170.716 44.0032C170.52 44.0032 170.307 44.0742 170.254 44.1808C170.201 44.2696 169.988 44.3584 169.792 44.3584C169.615 44.3584 169.313 44.4295 169.135 44.536C168.975 44.6249 168.193 44.9091 167.412 45.1578C166.63 45.4242 165.849 45.7084 165.689 45.7972C165.511 45.8861 165.245 45.9571 165.103 45.9571C164.961 45.9571 164.694 46.0282 164.516 46.1347C164.357 46.2236 163.699 46.4722 163.06 46.6854C159.489 47.8755 158.726 48.3196 157.962 49.6519C157.447 50.54 157.837 52.3519 158.708 53.0269C159.418 53.5953 160.893 54.0038 161.443 53.7907C161.692 53.7019 162.58 53.4177 163.415 53.1512C164.25 52.9025 165.085 52.6183 165.28 52.5295C165.476 52.4407 166.453 52.0854 167.465 51.7479C168.478 51.3927 169.597 50.9841 169.952 50.8242C170.307 50.6644 170.769 50.4867 170.965 50.3979C171.355 50.2558 172.084 49.9538 172.705 49.6874C172.918 49.5986 173.54 49.3854 174.073 49.2255C174.748 49.0124 175.281 48.6749 175.814 48.1597C176.542 47.4137 176.56 47.3604 176.56 46.2236C176.56 45.0689 176.542 45.0157 175.814 44.2341C174.784 43.1505 173.256 42.5643 172.918 43.115Z" fill="url(#paint4_linear_17_117)"/>
<path d="M78.0627 56.6327C76.1087 57.2544 75.6646 57.4143 74.8653 57.8406C74.3857 58.0893 73.9594 58.3557 73.9238 58.4268C73.8883 58.5156 73.7462 58.5689 73.6219 58.5689C73.4975 58.5689 73.3554 58.6222 73.3199 58.711C73.3021 58.7821 72.8225 59.1906 72.2896 59.5992C70.8508 60.736 69.2521 62.7788 68.5416 64.3775C68.4172 64.6972 68.2396 64.9637 68.1686 64.9637C68.0797 64.9637 68.0264 65.1413 68.0264 65.3722C68.0264 65.6031 67.9554 65.8518 67.8666 65.9406C67.5291 66.2959 67.3159 68.09 67.3159 70.417C67.3159 73.0815 67.6001 74.4137 68.5416 76.2078C70.6021 80.1157 73.7107 82.6736 77.5653 83.6328C78.7199 83.917 79.6081 83.9703 83.9423 83.9703H88.987V122.747L89.4489 123.351C90.0706 124.168 90.7456 124.47 91.9713 124.47C93.1614 124.47 93.9785 124.044 94.5114 123.138C94.7956 122.641 94.8311 121.362 94.8311 103.279L94.8489 83.9703H105.152V122.747L105.613 123.351C106.235 124.151 106.91 124.47 108.083 124.47C109.255 124.47 109.93 124.151 110.552 123.351L111.013 122.747V83.9703H116.058C121.867 83.9703 122.719 83.8282 125.366 82.5137C128.404 81.0039 131.175 77.6288 132.329 74.0407C132.898 72.2288 132.809 67.4328 132.169 65.9406C131.85 65.1768 131.175 63.8091 131.086 63.7202C131.033 63.667 130.837 63.3472 130.66 63.0097C130.056 61.9262 128.812 60.4518 127.871 59.7235C127.373 59.3327 126.858 58.9064 126.734 58.7821C126.592 58.6755 126.414 58.5689 126.325 58.5689C126.219 58.5689 126.112 58.5156 126.077 58.4268C125.988 58.2136 123.945 57.2189 123.092 56.9702C122.648 56.8459 122.062 56.686 121.778 56.5972C120.943 56.3485 116.84 56.4018 115.774 56.686C113.838 57.2011 111.724 58.1071 111.724 58.4268C111.724 58.4979 111.635 58.5689 111.546 58.5689C111.44 58.5689 111.173 58.7288 110.96 58.9419C110.747 59.1373 110.338 59.4748 110.036 59.688C108.065 61.1268 106.431 63.5248 105.702 66.065C105.596 66.438 105.436 67.0064 105.329 67.3262C105.223 67.6637 105.152 70.115 105.152 72.9749V78.0196H94.9377L94.8311 72.7795C94.7246 67.4683 94.6713 66.8821 93.9785 65.1413C93.0015 62.69 92.0423 61.34 90.1417 59.8301C89.4666 59.2972 88.8805 58.7821 88.8449 58.711C88.8094 58.64 88.6673 58.5689 88.5252 58.5689C88.3831 58.5689 88.2765 58.4979 88.2765 58.409C88.2765 58.2136 86.3226 57.29 85.2568 56.988C84.8127 56.8459 84.2265 56.686 83.9423 56.5972C83.2673 56.384 78.7377 56.4196 78.0627 56.6327ZM82.1837 62.6722C85.4166 63.4183 86.6068 64.2887 87.9035 66.8821C88.7916 68.6762 88.8272 68.8893 88.9338 73.9696L89.0048 77.9308H84.7772C80.0521 77.9308 78.9863 77.7709 77.2278 76.8295C76.1087 76.2433 74.2436 74.3782 74.2436 73.863C74.2436 73.7032 74.1725 73.49 74.1015 73.3834C73.7284 72.9749 73.4442 71.5005 73.4442 70.115C73.462 67.1663 74.8475 64.8748 77.441 63.5426C78.7377 62.8676 78.8442 62.8321 79.3416 62.8143C79.6258 62.8143 79.9989 62.7433 80.1943 62.6544C80.6916 62.4413 81.2068 62.4413 82.1837 62.6722ZM120.428 62.761C121.725 62.9742 123.252 63.7558 124.336 64.7683C124.94 65.3367 125.419 66.0295 125.863 67.0064C126.485 68.3209 126.521 68.5518 126.538 70.115C126.538 71.1275 126.45 72.0512 126.308 72.4242C126.183 72.7617 126.023 73.2058 125.935 73.4012C125.562 74.3782 125.242 74.84 124.318 75.6926C122.275 77.5933 120.925 77.9308 115.223 77.9308H110.996L111.067 73.9696C111.173 68.8893 111.209 68.6762 112.097 66.8821C113.358 64.342 114.495 63.4893 117.675 62.69C118.35 62.5123 119.06 62.5301 120.428 62.761Z" fill="url(#paint5_linear_17_117)"/>
<path d="M20.4211 70.257C19.0888 70.932 19 71.0919 19 72.8682V74.4669L19.7283 75.2307L20.4566 75.9767H36.4257L37.2961 75.0886L38.1843 74.2182V73.0103C38.1843 71.909 38.131 71.7313 37.6336 71.1274C36.6566 69.9373 36.6744 69.9373 28.4323 69.9373C21.6822 69.9373 20.9717 69.9728 20.4211 70.257Z" fill="url(#paint6_linear_17_117)"/>
<path d="M163.38 70.2748C162.172 70.8965 161.816 71.5004 161.816 73.0458C161.816 74.2182 161.816 74.2182 162.705 75.0886L163.575 75.9767H179.544L180.272 75.2307L181.001 74.4669V72.8682C181.001 71.0919 180.912 70.932 179.58 70.257C179.029 69.9728 178.318 69.9373 171.497 69.9373C164.587 69.955 163.984 69.9728 163.38 70.2748Z" fill="url(#paint7_linear_17_117)"/>
<defs>
<linearGradient id="paint0_linear_17_117" x1="45.6841" y1="19" x2="197.143" y2="108.224" gradientUnits="userSpaceOnUse">
<stop offset="0.49069" stop-color="#26B6CA"/>
<stop offset="0.56019" stop-color="#30B9C7"/>
<stop offset="0.68036" stop-color="#4DBFBE"/>
<stop offset="0.83676" stop-color="#7ACBAF"/>
<stop offset="1" stop-color="#B1D89E"/>
</linearGradient>
<linearGradient id="paint1_linear_17_117" x1="36.9407" y1="19.6958" x2="52.612" y2="35.0413" gradientUnits="userSpaceOnUse">
<stop offset="0.49069" stop-color="#26B6CA"/>
<stop offset="0.56019" stop-color="#30B9C7"/>
<stop offset="0.68036" stop-color="#4DBFBE"/>
<stop offset="0.83676" stop-color="#7ACBAF"/>
<stop offset="1" stop-color="#B1D89E"/>
</linearGradient>
<linearGradient id="paint2_linear_17_117" x1="146.717" y1="19.6914" x2="162.393" y2="35.0368" gradientUnits="userSpaceOnUse">
<stop offset="0.49069" stop-color="#26B6CA"/>
<stop offset="0.56019" stop-color="#30B9C7"/>
<stop offset="0.68036" stop-color="#4DBFBE"/>
<stop offset="0.83676" stop-color="#7ACBAF"/>
<stop offset="1" stop-color="#B1D89E"/>
</linearGradient>
<linearGradient id="paint3_linear_17_117" x1="23.4407" y1="42.9839" x2="34.1104" y2="59.1999" gradientUnits="userSpaceOnUse">
<stop offset="0.49069" stop-color="#26B6CA"/>
<stop offset="0.56019" stop-color="#30B9C7"/>
<stop offset="0.68036" stop-color="#4DBFBE"/>
<stop offset="0.83676" stop-color="#7ACBAF"/>
<stop offset="1" stop-color="#B1D89E"/>
</linearGradient>
<linearGradient id="paint4_linear_17_117" x1="157.731" y1="42.9048" x2="168.5" y2="59.1808" gradientUnits="userSpaceOnUse">
<stop offset="0.49069" stop-color="#26B6CA"/>
<stop offset="0.56019" stop-color="#30B9C7"/>
<stop offset="0.68036" stop-color="#4DBFBE"/>
<stop offset="0.83676" stop-color="#7ACBAF"/>
<stop offset="1" stop-color="#B1D89E"/>
</linearGradient>
<linearGradient id="paint5_linear_17_117" x1="67.3159" y1="56.4382" x2="139.026" y2="116.986" gradientUnits="userSpaceOnUse">
<stop offset="0.49069" stop-color="#26B6CA"/>
<stop offset="0.56019" stop-color="#30B9C7"/>
<stop offset="0.68036" stop-color="#4DBFBE"/>
<stop offset="0.83676" stop-color="#7ACBAF"/>
<stop offset="1" stop-color="#B1D89E"/>
</linearGradient>
<linearGradient id="paint6_linear_17_117" x1="19" y1="69.9373" x2="23.1016" y2="81.3821" gradientUnits="userSpaceOnUse">
<stop offset="0.49069" stop-color="#26B6CA"/>
<stop offset="0.56019" stop-color="#30B9C7"/>
<stop offset="0.68036" stop-color="#4DBFBE"/>
<stop offset="0.83676" stop-color="#7ACBAF"/>
<stop offset="1" stop-color="#B1D89E"/>
</linearGradient>
<linearGradient id="paint7_linear_17_117" x1="161.816" y1="69.9373" x2="165.918" y2="81.3821" gradientUnits="userSpaceOnUse">
<stop offset="0.49069" stop-color="#26B6CA"/>
<stop offset="0.56019" stop-color="#30B9C7"/>
<stop offset="0.68036" stop-color="#4DBFBE"/>
<stop offset="0.83676" stop-color="#7ACBAF"/>
<stop offset="1" stop-color="#B1D89E"/>
</linearGradient>
</defs>
</svg>
