<svg width="200" height="200" viewBox="0 0 200 200" fill="none" xmlns="http://www.w3.org/2000/svg">
<path d="M97.8822 19.0778C97.4806 19.2238 97.0973 19.6802 96.5313 20.6295L96.0384 21.4692L96.075 41.2582L95.6733 41.6964C95.4543 41.9337 95.1622 42.1345 95.0526 42.1345C94.9249 42.1345 94.6328 42.3171 94.3772 42.5544C94.1216 42.7917 93.647 43.0838 93.3001 43.2298C92.9533 43.3576 92.5334 43.595 92.3508 43.7593C91.9127 44.1244 90.9269 44.7085 89.6673 45.3475C89.1196 45.6396 88.5902 45.9682 88.4807 46.096C88.3894 46.2237 88.006 46.4611 87.6592 46.6071C87.3123 46.7714 86.6916 47.1 86.29 47.3556C85.8884 47.5929 85.4137 47.8485 85.2494 47.9033C85.0669 47.9763 84.9208 48.0858 84.9208 48.1771C84.9208 48.2684 84.8113 48.3414 84.6653 48.3414C84.5192 48.3414 84.3732 48.4144 84.3367 48.4874C84.3184 48.5604 83.8073 48.8525 83.2413 49.1264C82.6572 49.4002 82.1825 49.674 82.1825 49.7653C82.1825 49.8383 81.8904 50.0209 81.5436 50.1487C81.1967 50.2765 80.9046 50.459 80.9046 50.5503C80.9046 50.6416 80.7038 50.8059 80.4482 50.8972C80.1927 50.9884 79.9919 51.1527 79.9919 51.244C79.9919 51.3353 79.7545 51.4631 79.4442 51.5361C79.1521 51.6091 78.8418 51.7552 78.7687 51.883C78.6775 52.0107 78.3489 52.2116 78.0385 52.3393C77.7099 52.4854 77.4361 52.6497 77.4361 52.7227C77.4361 52.814 77.1988 52.96 76.8884 53.0696C76.5963 53.1608 76.3408 53.3251 76.3408 53.4347C76.3408 53.5259 76.1034 53.6537 75.8113 53.7268C75.5193 53.7815 75.2272 53.9458 75.1907 54.0919C75.1359 54.2197 74.8438 54.384 74.5335 54.457C74.2231 54.53 73.9675 54.6578 73.9675 54.7491C73.9675 54.8403 73.6937 55.0229 73.3469 55.1689C73.0183 55.315 72.6714 55.5158 72.6166 55.6253C72.5436 55.7349 72.3245 55.8261 72.142 55.8261C71.9412 55.8261 71.7039 55.9904 71.5943 56.1912C71.4848 56.3921 71.2475 56.5564 71.0467 56.5564C70.8458 56.5564 70.5538 56.7024 70.3712 56.9032C70.1886 57.0858 69.8053 57.2866 69.5315 57.3596C69.2576 57.4326 69.0568 57.5422 69.1116 57.6334C69.1663 57.7065 68.8925 57.889 68.4909 58.0168C68.0893 58.1446 67.8154 58.3271 67.8702 58.4002C67.925 58.4914 67.7607 58.601 67.5051 58.674C67.2678 58.7288 67.0122 58.8931 66.9574 59.0209C66.9209 59.1486 66.6288 59.3129 66.3367 59.386C66.0264 59.4407 65.7343 59.6233 65.6795 59.7693C65.6248 59.9154 65.4605 60.0249 65.2962 60.0249C65.1501 60.0249 64.8763 60.1709 64.6937 60.3352C64.5294 60.5178 63.9088 60.9012 63.3246 61.1933C62.7587 61.4671 62.284 61.7592 62.284 61.8322C62.284 61.9052 61.9737 62.0695 61.6086 62.1973C61.2252 62.3434 60.8783 62.5077 60.8236 62.5807C60.6593 62.818 59.2353 63.6395 58.8885 63.7125C58.7059 63.749 58.067 64.2419 57.5011 64.8261C56.5335 65.7936 56.0771 66.6516 56.0771 67.5279C56.0771 67.9295 56.9717 69.5725 57.282 69.7551C57.4281 69.8464 57.7019 70.0654 57.8844 70.2662C58.1218 70.5218 58.4686 70.6313 59.1076 70.6313C60.8236 70.6679 61.1704 70.6131 61.499 70.2662C61.6816 70.0654 62.2475 69.7003 62.7587 69.4447C63.2698 69.1892 63.7992 68.8423 63.927 68.6963C64.0548 68.5502 64.2921 68.4224 64.4564 68.4224C64.639 68.4224 64.9676 68.2216 65.2049 67.966C65.424 67.7287 65.6795 67.5644 65.7526 67.6009C65.8256 67.6557 65.9899 67.5827 66.0994 67.4549C66.209 67.3088 66.6288 67.0898 67.0304 66.962C67.4138 66.8342 67.7059 66.6517 67.6511 66.5604C67.5964 66.4874 67.7059 66.3596 67.8885 66.2865C68.071 66.2135 68.6734 65.8667 69.2211 65.4833C69.7688 65.1182 70.645 64.5888 71.1379 64.3149C71.6491 64.0411 72.1602 63.7308 72.288 63.6395C72.5436 63.4204 73.4199 62.9093 74.2961 62.4711C74.6065 62.3068 74.8803 62.106 74.8803 62.0148C74.8803 61.9235 75.0264 61.8505 75.1907 61.8505C75.355 61.8505 75.6288 61.7409 75.7748 61.5949C76.213 61.2115 77.4178 60.5726 77.7099 60.5726C77.8377 60.5726 78.1115 60.3718 78.3123 60.1162C78.5132 59.8606 78.787 59.6598 78.933 59.6598C79.0791 59.6598 79.3529 59.5137 79.5537 59.3312C80.2474 58.7288 81.0689 58.1994 81.3428 58.1994C81.4888 58.1994 81.7261 58.0533 81.8539 57.8708C81.9817 57.6882 82.3103 57.4691 82.5841 57.4144C82.858 57.3413 83.1866 57.177 83.3144 57.0493C83.4421 56.9397 83.8073 56.7024 84.0993 56.5746C84.4097 56.4286 84.9026 56.1182 85.1947 55.9174C85.505 55.6983 86.3083 55.2055 86.9837 54.8038C87.6774 54.4205 88.5354 53.9093 88.9005 53.6902C89.2839 53.4712 89.7038 53.2339 89.8498 53.1791C89.9959 53.1061 90.2514 52.9783 90.3975 52.887C90.5435 52.7957 90.9452 52.6132 91.2738 52.4489C91.6024 52.3028 91.8397 52.102 91.7667 51.9925C91.7119 51.8829 91.8214 51.8099 92.0405 51.8099C92.3873 51.8099 92.7342 51.5909 93.8295 50.6963C93.9573 50.6051 94.3042 50.4225 94.5963 50.313C94.9066 50.2217 95.1439 50.0574 95.1439 49.9661C95.1439 49.8748 95.3447 49.7105 95.5821 49.6193C95.8376 49.528 96.4583 49.1629 96.9512 48.7978C97.4624 48.4509 98.0465 48.1588 98.2474 48.1588C98.4482 48.1588 98.6125 48.0493 98.6125 47.9033C98.6125 47.3556 100.328 47.2461 100.621 47.7937C100.73 47.9945 100.967 48.1588 101.15 48.1588C101.333 48.1588 101.661 48.3231 101.898 48.5239C102.136 48.7247 102.428 48.889 102.574 48.889C102.702 48.889 102.866 48.9986 102.921 49.1446C102.976 49.2907 103.268 49.4915 103.56 49.601C103.852 49.6923 104.089 49.8748 104.089 49.9661C104.089 50.0757 104.217 50.1669 104.381 50.1669C104.692 50.1669 106.535 51.317 106.736 51.6274C106.791 51.7369 107.01 51.8099 107.211 51.8099C107.412 51.8099 107.539 51.883 107.466 51.9742C107.357 52.175 107.685 52.4306 108.142 52.4489C108.324 52.4671 108.616 52.6132 108.799 52.7775C108.982 52.9418 109.274 53.0878 109.438 53.0878C109.602 53.0878 109.748 53.1608 109.748 53.2521C109.748 53.3434 110.022 53.5442 110.351 53.7085C110.661 53.8728 111.264 54.2197 111.665 54.457C112.067 54.7126 112.724 55.0777 113.126 55.2785C113.527 55.4975 114.221 55.8992 114.677 56.1912C115.134 56.4651 115.608 56.7207 115.736 56.7207C115.846 56.7389 115.955 56.8119 115.955 56.9032C115.955 56.9945 116.284 57.1953 116.685 57.3596C117.105 57.5239 117.47 57.7795 117.525 57.9073C117.58 58.0533 117.872 58.2359 118.164 58.2906C118.456 58.3637 118.694 58.4914 118.694 58.5827C118.694 58.674 118.821 58.747 118.967 58.747C119.095 58.747 119.296 58.8566 119.369 58.9661C119.552 59.2582 120.263 59.6598 120.592 59.6598C120.738 59.6598 120.884 59.7876 120.957 59.9336C121.012 60.0797 121.487 60.4083 122.016 60.6638C122.545 60.9194 123.349 61.3758 123.805 61.6679C124.261 61.9417 124.736 62.1973 124.864 62.1973C124.973 62.2156 125.083 62.2886 125.083 62.3981C125.083 62.4894 125.43 62.745 125.868 62.9458C126.288 63.1466 126.854 63.5117 127.128 63.7673C127.401 64.0229 127.73 64.2237 127.858 64.2237C127.986 64.2237 128.405 64.4245 128.771 64.6801C129.136 64.9356 129.537 65.1364 129.629 65.1364C129.738 65.1364 129.829 65.2095 129.829 65.319C129.829 65.4103 129.975 65.5016 130.158 65.5016C130.322 65.5016 130.578 65.6659 130.687 65.8484C130.815 66.0492 131.162 66.25 131.454 66.3231C131.764 66.3961 132.075 66.5421 132.148 66.6517C132.312 66.9072 132.842 67.2541 133.48 67.5279C133.736 67.6374 134.083 67.8565 134.265 68.0208C134.448 68.1851 134.722 68.3312 134.868 68.3494C135.032 68.3677 135.306 68.532 135.507 68.7145C135.872 69.0431 136.219 69.2439 137.278 69.7916C137.588 69.9742 137.862 70.175 137.862 70.2662C137.862 70.3575 137.917 70.4123 138.008 70.394C138.081 70.3758 138.391 70.4671 138.683 70.5948C139.012 70.7409 139.614 70.7956 140.199 70.7409C141.02 70.6496 141.257 70.5401 141.86 69.9011C142.261 69.4813 142.645 68.9884 142.699 68.7875C142.773 68.5867 142.9 68.4589 142.992 68.5137C143.083 68.5867 143.156 68.0756 143.156 67.3271C143.156 66.6151 143.083 66.0675 142.992 66.1222C142.9 66.177 142.7 65.9579 142.553 65.6293C142.389 65.319 142.079 64.9174 141.86 64.7713C141.641 64.6253 141.294 64.3332 141.075 64.1141C140.856 63.9133 140.472 63.676 140.217 63.6212C139.961 63.5482 139.56 63.3474 139.34 63.1466C139.103 62.9458 138.556 62.5989 138.117 62.3799C137.679 62.1791 137.351 61.9417 137.405 61.8505C137.46 61.7774 137.132 61.6131 136.675 61.5036C136.219 61.3941 135.854 61.2298 135.854 61.1385C135.854 61.029 135.671 60.9012 135.452 60.8281C135.215 60.7551 134.959 60.5908 134.85 60.4448C134.758 60.317 134.466 60.1709 134.211 60.1162C133.955 60.0614 133.681 59.9336 133.572 59.7876C133.48 59.6598 133.188 59.459 132.933 59.3312C132.13 58.9113 131.746 58.6557 131.29 58.2359C131.052 58.0168 130.669 57.8342 130.432 57.8342C130.176 57.8342 130.03 57.7612 130.103 57.6699C130.158 57.5787 129.921 57.4144 129.574 57.2866C129.227 57.177 128.898 56.9762 128.844 56.8302C128.789 56.6841 128.588 56.5564 128.405 56.5564C128.223 56.5564 127.913 56.3921 127.73 56.1912C127.547 55.9904 127.255 55.8261 127.091 55.8261C126.908 55.8261 126.671 55.6983 126.543 55.5523C126.416 55.4063 126.215 55.2785 126.087 55.2785C125.977 55.2785 125.722 55.1142 125.539 54.9134C125.357 54.7126 125.046 54.5117 124.846 54.4387C124.627 54.3657 124.079 54.0371 123.604 53.7085C123.13 53.3799 122.527 53.0513 122.272 52.9783C122.016 52.9235 121.797 52.7957 121.797 52.6862C121.797 52.5949 121.56 52.4306 121.249 52.3393C120.957 52.2298 120.702 52.0655 120.702 51.9925C120.702 51.9012 120.172 51.5909 119.533 51.2623C118.894 50.9519 118.31 50.5868 118.255 50.4408C118.201 50.2947 118.036 50.1669 117.909 50.1669C117.762 50.1669 117.452 50.0209 117.215 49.8201C116.978 49.6375 116.357 49.2542 115.827 48.9986C115.316 48.7247 114.787 48.3779 114.659 48.2319C114.55 48.0858 114.294 47.9763 114.111 47.9763C113.911 47.9763 113.765 47.9033 113.765 47.812C113.765 47.7207 113.454 47.5199 113.089 47.3556C112.176 46.954 111.063 46.2968 110.533 45.8221C110.296 45.6213 110.113 45.4935 110.113 45.53C110.113 45.6578 109 45.0189 108.69 44.745C108.562 44.6173 108.251 44.453 108.014 44.3982C107.758 44.3434 107.521 44.1244 107.466 43.9418C107.393 43.7593 107.229 43.595 107.101 43.595C106.7 43.595 105.531 42.9925 105.038 42.5361C104.783 42.3171 104.454 42.1345 104.272 42.1345C104.107 42.1345 103.779 41.9337 103.56 41.6964C103.158 41.2765 103.158 41.2582 103.122 33.2075L103.085 25.1569H114.86V26.8729C114.86 27.8222 114.915 28.7167 114.969 28.881C115.061 29.1366 114.586 29.1731 110.716 29.2096C107.357 29.2461 106.389 29.3191 106.426 29.4834C106.444 29.6112 106.335 29.7207 106.189 29.7207C105.896 29.7207 104.819 30.7065 104.819 30.9804C104.819 31.0899 104.692 31.2359 104.527 31.3272C104.345 31.4185 104.199 31.8201 104.144 32.3313C104.071 33.0067 104.126 33.2623 104.436 33.6639C104.637 33.9378 104.819 34.2664 104.819 34.3941C104.819 34.5219 105.002 34.741 105.239 34.8505C105.458 34.9601 105.823 35.2887 106.061 35.5807L106.481 36.0919H119.497L120.483 35.1061C121.998 33.5361 121.98 33.6274 121.98 27.311C121.98 21.2867 121.925 20.9946 120.939 19.7532L120.373 19.0413L109.255 19.0047C103.158 18.9865 98.0283 19.023 97.8822 19.0778Z" fill="url(#paint0_linear_17_127)"/>
<path d="M78.9693 67.4732C78.4581 67.9661 77.9652 68.532 77.9104 68.7511C77.8374 68.9701 77.6914 69.1527 77.6001 69.1527C77.5088 69.1527 77.4358 72.7308 77.4358 78.2074C77.4358 83.2824 77.5088 87.2074 77.6001 87.1526C77.6731 87.0978 77.9835 87.4082 78.2573 87.8463C78.5311 88.3027 78.8962 88.7043 79.0605 88.7591C79.2248 88.8321 79.5534 88.9964 79.809 89.1425C80.1924 89.3798 81.2329 89.4163 86.381 89.3615C89.74 89.325 92.6426 89.2703 92.8434 89.2155C93.2268 89.1242 94.2309 88.321 94.2309 88.1019C94.2309 88.0106 94.3952 87.7916 94.596 87.5907C94.9428 87.2439 94.9611 86.9883 94.9611 78.0249V68.8241L93.8475 67.7105L92.7522 66.5969H79.9003L78.9693 67.4732ZM88.2248 77.8606C88.2065 80.3068 88.2065 82.3514 88.2065 82.4244C88.2065 82.5157 87.3485 82.5705 86.2897 82.5705H84.3729V77.9518L84.3911 73.3332L88.2248 73.4427V77.8606Z" fill="url(#paint1_linear_17_127)"/>
<path d="M105.786 67.2906C105.257 67.6557 104.837 68.1121 104.819 68.2947C104.819 68.4772 104.709 68.6598 104.563 68.7146C104.417 68.7693 104.253 68.9519 104.198 69.0979C104.125 69.2622 104.089 73.3697 104.089 78.2622V87.1344L104.545 87.463C104.801 87.6455 104.965 87.8646 104.91 87.9559C104.855 88.0289 105.257 88.3757 105.768 88.7043L106.736 89.325H119.332L120.172 88.8139C120.646 88.54 121.084 88.1749 121.139 87.9924C121.212 87.8281 121.413 87.3899 121.614 87.0431C121.942 86.4407 121.961 85.9478 121.979 78.1709C121.979 72.2926 121.924 69.7551 121.76 69.317C121.523 68.605 120.61 67.2906 120.464 67.4367C120.427 67.4914 120.153 67.3271 119.88 67.0716L119.368 66.5969H113.052L106.736 66.6152L105.786 67.2906ZM114.878 82.5157H111.007L110.934 73.3515H114.951L114.878 82.5157Z" fill="url(#paint2_linear_17_127)"/>
<path d="M133.188 72.2743C132.385 72.6394 131.29 73.7348 131.29 74.1729C131.29 74.3007 131.198 74.4467 131.107 74.4833C130.979 74.5198 130.925 88.0471 130.925 115.284V156.049L131.308 156.724C131.728 157.491 132.549 158.422 132.805 158.422C132.896 158.422 133.17 158.586 133.426 158.787C133.681 158.988 134.083 159.152 134.32 159.152C134.831 159.152 135.671 158.787 135.671 158.568C135.671 158.495 135.781 158.422 135.908 158.422C136.018 158.422 136.365 158.221 136.639 157.984C136.931 157.728 137.241 157.509 137.314 157.473C137.405 157.436 137.533 157.162 137.624 156.87C137.697 156.56 137.789 137.994 137.807 115.576C137.862 73.4609 137.862 73.3514 137.186 73.4792C137.058 73.5157 136.912 73.3514 136.858 73.1506C136.712 72.7307 135.014 71.891 134.357 71.9092C134.119 71.9092 133.59 72.0735 133.188 72.2743Z" fill="url(#paint3_linear_17_127)"/>
<path d="M63.7987 74.8119C63.5614 74.9032 63.3788 75.0675 63.3788 75.177C63.3788 75.2683 63.251 75.3596 63.105 75.3596C62.9589 75.3596 62.5756 75.7429 62.247 76.2176L61.6445 77.0939V156.706L62.1009 157.236C62.3382 157.546 62.9407 158.094 63.4336 158.495C64.2733 159.152 64.4011 159.189 65.1861 159.079C65.6425 159.025 66.1171 158.842 66.2267 158.696C66.3362 158.55 66.5005 158.422 66.5918 158.422C66.8291 158.422 67.5776 157.582 67.5776 157.345C67.5776 157.217 67.6506 157.162 67.7419 157.236C67.8514 157.29 68.0157 157.181 68.107 156.98C68.326 156.597 68.3991 77.459 68.1983 76.674C68.1252 76.4549 67.9609 76.2724 67.8331 76.2724C67.6871 76.2724 67.5776 76.1993 67.5776 76.0898C67.5776 75.9985 67.1942 75.6334 66.7378 75.2683C66.0258 74.7389 65.7338 74.6294 65.0401 74.6476C64.5837 74.6476 64.0177 74.7206 63.7987 74.8119Z" fill="url(#paint4_linear_17_127)"/>
<path d="M21.4823 77.3493C21.2815 77.4406 20.9347 77.5501 20.7156 77.6414C20.4783 77.7144 20.2957 77.897 20.2957 78.0248C20.2957 78.1708 20.1679 78.2804 20.0219 78.2804C19.8758 78.2804 19.748 78.3534 19.748 78.4629C19.748 78.5542 19.6385 78.6455 19.4925 78.6455C19.3464 78.6455 19.1821 78.7732 19.1274 78.9375C19.0726 79.1018 19.0178 86.5501 19.0178 95.477C19.0178 111.542 19.0361 112.473 19.5837 112.144C19.6568 112.09 19.8211 112.199 19.9123 112.4C20.46 113.404 22.3586 113.806 23.5452 113.167C24.2024 112.82 25.4072 111.432 25.4072 111.012C25.4072 110.866 25.4985 110.812 25.5898 110.866C25.7176 110.958 25.7724 107.562 25.7358 100.15L25.6811 89.3249H55.255L56.113 88.7042C57.6282 87.6272 58.1028 85.9842 57.3179 84.688C56.8432 83.9396 56.0947 83.2276 55.7661 83.2093C55.6384 83.2093 55.5288 83.0998 55.5288 82.9538C55.5288 82.826 55.3463 82.6617 55.1272 82.5886C54.8899 82.5339 48.2631 82.4791 40.3768 82.4791C32.4904 82.4791 25.9549 82.4791 25.8636 82.4791C25.7541 82.4791 25.6993 81.9132 25.7541 81.0004C25.7906 79.9964 25.7541 79.5582 25.6263 79.6313C25.5168 79.686 25.389 79.5947 25.3342 79.4122C25.1882 78.9741 24.1841 77.9518 23.5817 77.6414C22.961 77.3128 21.9387 77.185 21.4823 77.3493Z" fill="url(#paint5_linear_17_127)"/>
<path d="M176.162 77.4773C175.34 77.7329 174.501 78.5361 173.898 79.6497C173.606 80.2156 173.57 81.9499 173.843 82.1325C173.989 82.2055 174.044 82.3333 173.989 82.388C173.916 82.4428 167.217 82.4793 159.093 82.4793C144.507 82.4793 144.306 82.4793 143.977 82.8444C143.795 83.0452 143.558 83.2095 143.448 83.2095C143.028 83.2278 142.134 84.2501 141.915 84.9803C141.44 86.5686 141.823 87.7734 143.119 88.7044L143.977 89.3251L173.734 89.4347L173.697 133.595C173.643 175.382 173.661 177.791 173.971 178.156C174.135 178.375 174.574 178.868 174.939 179.27L175.614 179.964H177.184C178.517 179.964 178.809 179.909 179.119 179.599C179.32 179.398 179.63 179.233 179.831 179.233C180.032 179.233 180.288 178.996 180.47 178.613C180.744 178.047 180.762 173.757 180.762 128.775C180.762 92.6476 180.707 79.4489 180.561 79.1203C180.434 78.8647 180.087 78.5361 179.776 78.3718C179.466 78.2075 178.973 77.9337 178.663 77.7329C177.86 77.2582 177.129 77.167 176.162 77.4773Z" fill="url(#paint6_linear_17_127)"/>
<path d="M37.8212 98.5441C37.8212 98.6171 37.5109 98.818 37.1275 98.964C36.7624 99.11 36.0504 99.6029 35.5758 100.059L34.7178 100.899V104.66C34.7178 108.366 34.8273 109.132 35.3385 109.132C35.4662 109.132 35.6671 109.333 35.7766 109.589C35.8861 109.844 36.0869 110.045 36.233 110.045C36.3608 110.045 36.5981 110.209 36.7806 110.41C37.018 110.702 37.3101 110.775 38.2228 110.775C39.2086 110.775 39.4277 110.702 39.8111 110.319C40.0484 110.063 40.3405 109.863 40.4865 109.863C40.6326 109.863 40.7421 109.771 40.7421 109.662C40.7421 109.552 40.9429 109.224 41.1985 108.913C41.6001 108.439 41.6549 108.201 41.6549 106.978V105.572H45.4885V111.871C45.5068 115.339 45.5615 118.497 45.6528 118.917C45.7624 119.465 45.9997 119.867 46.5839 120.378C47.6609 121.363 48.0078 121.528 49.0118 121.546C49.9429 121.546 50.0889 121.473 51.1477 120.396C52.5899 118.917 52.4621 119.958 52.4439 110.082L52.4256 101.228L51.7319 100.388C51.3485 99.9315 50.7096 99.3839 50.2897 99.1831C49.8881 98.9823 49.4317 98.7084 49.2674 98.5806C49.0666 98.3981 47.7157 98.3616 43.4074 98.3616C40.3405 98.3798 37.8212 98.4528 37.8212 98.5441Z" fill="url(#paint7_linear_17_127)"/>
<path d="M80.539 98.5259C80.539 98.6171 80.1374 98.8727 79.6445 99.0918C79.0238 99.3839 78.6222 99.7125 78.3301 100.224C78.0928 100.625 77.7825 101.063 77.6729 101.191C77.3808 101.502 77.3261 118.99 77.6182 118.99C77.7094 118.99 77.9102 119.264 78.0563 119.574C78.4397 120.432 78.9143 120.925 79.4985 121.071C79.7723 121.126 79.9549 121.272 79.9001 121.364C79.8453 121.455 82.3646 121.528 86.2895 121.546C90.5065 121.546 92.7702 121.491 92.7702 121.364C92.7702 121.272 92.971 121.144 93.1901 121.071C93.4274 121.017 93.9203 120.579 94.2854 120.104L94.9609 119.228V100.99L94.5045 100.351C93.9386 99.6029 93.3361 99.11 92.9345 99.0918C92.7885 99.0918 92.4781 98.9275 92.2591 98.7267C91.894 98.3798 91.6201 98.3616 86.1982 98.3616C82.8757 98.3616 80.539 98.4346 80.539 98.5259ZM88.2063 110.063L88.2246 114.7L84.391 114.81L84.3727 110.191V105.572L86.0339 105.627C87.038 105.664 87.7865 105.609 87.896 105.499C88.0055 105.39 88.1151 105.335 88.1516 105.353C88.1698 105.39 88.2063 107.508 88.2063 110.063Z" fill="url(#paint8_linear_17_127)"/>
<path d="M107.21 98.7449C106.991 98.964 106.754 99.0735 106.699 99.0188C106.517 98.8362 105.604 99.4204 105.111 100.041C104.417 100.899 104.362 100.99 104.216 101.228C104.143 101.355 104.089 105.372 104.089 110.173C104.089 118.589 104.107 118.899 104.454 119.264C104.655 119.483 104.819 119.757 104.819 119.885C104.819 120.195 105.713 120.98 106.225 121.108C106.444 121.181 106.59 121.29 106.535 121.382C106.48 121.473 109.218 121.546 113.034 121.546C117.05 121.546 119.588 121.473 119.515 121.382C119.46 121.29 119.588 121.163 119.788 121.09C119.989 121.035 120.153 120.889 120.153 120.779C120.153 120.688 120.263 120.633 120.373 120.67C120.628 120.761 121.614 119.501 121.614 119.082C121.614 118.936 121.705 118.808 121.796 118.808C121.924 118.808 121.979 115.832 121.979 110.228C121.979 101.867 121.961 101.648 121.596 100.972C120.975 99.8403 120.135 99.11 119.423 99.0553C119.368 99.0553 119.113 98.891 118.839 98.7084C118.401 98.3798 117.963 98.3616 112.997 98.3616C107.794 98.3616 107.612 98.3798 107.21 98.7449ZM113.216 105.646C114.239 105.591 114.859 105.646 114.859 105.755C114.859 105.846 114.878 107.927 114.896 110.374L114.951 114.792H110.934L110.971 110.191C111.007 107.654 111.026 105.499 111.026 105.408C111.026 105.317 111.154 105.353 111.3 105.481C111.482 105.627 112.103 105.682 113.216 105.646Z" fill="url(#paint9_linear_17_127)"/>
<path d="M149.563 101.483C148.595 101.867 147.573 102.907 147.208 103.893C146.879 104.769 146.843 105.39 146.825 111.871C146.806 115.741 146.879 119.52 146.971 120.286C147.263 122.55 147.883 123.353 149.91 124.138C151.096 124.613 160.334 124.631 161.685 124.175C163.017 123.718 164.222 122.605 164.514 121.546C164.788 120.56 164.751 104.824 164.459 104.021C164.094 102.962 163.51 102.323 162.47 101.775L161.466 101.282L155.733 101.301C152.466 101.301 149.818 101.374 149.563 101.483ZM157.814 108.201C157.997 108.22 157.979 108.767 157.778 108.767C157.504 108.767 157.522 116.416 157.778 116.727C158.088 117.11 157.449 117.566 156.975 117.311C156.61 117.128 154.766 117.183 154.291 117.402C154.054 117.512 154.017 116.946 154.017 112.838V108.128L155.843 108.165C156.847 108.183 157.723 108.201 157.814 108.201Z" fill="url(#paint10_linear_17_127)"/>
<path d="M30.5557 114.919C30.3184 114.956 30.0811 115.12 30.0263 115.266C29.9716 115.412 29.7707 115.522 29.5882 115.522C29.3874 115.522 29.0953 115.686 28.931 115.887C28.7484 116.088 28.5294 116.252 28.4198 116.252C28.3103 116.252 28.0365 116.453 27.8174 116.708C27.5983 116.964 27.3063 117.165 27.1785 117.165C27.0324 117.165 26.8316 117.365 26.7221 117.621C26.6125 117.877 26.43 118.077 26.357 118.077C26.2657 118.077 25.9553 118.424 25.6815 118.844C25.3894 119.282 25.0608 119.702 24.9148 119.775C24.787 119.848 24.6775 120.067 24.6775 120.232C24.6775 120.414 24.6044 120.633 24.5132 120.724C24.2211 121.035 23.0345 123.518 23.0345 123.828C23.0345 123.992 22.9614 124.065 22.8519 124.01C22.7424 123.937 22.6694 124.102 22.6694 124.376C22.6694 124.631 22.5051 125.179 22.3042 125.599C22.1034 126 21.9026 126.676 21.8296 127.096C21.7748 127.497 21.6653 127.881 21.5923 127.935C21.428 128.063 20.9898 129.104 21.0446 129.323C21.1359 129.852 21.0081 131.094 20.8621 130.893C20.6613 130.564 20.5152 131.112 20.3874 132.846C20.3327 133.558 20.1866 134.38 20.0771 134.653C19.9675 134.927 19.858 135.767 19.8215 136.515C19.7485 137.866 19.5112 139.035 19.1826 139.655C19.0913 139.838 19.0183 143.142 19 147.031C19 153.968 19 154.077 19.3651 154.351C19.5842 154.497 19.7485 154.771 19.7485 154.953C19.7485 155.136 19.9493 155.684 20.2049 156.158C20.4604 156.633 20.6613 157.126 20.6613 157.272C20.6613 157.418 20.7343 157.473 20.8438 157.418C20.9351 157.363 21.0264 157.418 21.0264 157.546C21.0264 157.966 24.0568 161.343 24.4401 161.343C24.5679 161.343 24.6775 161.416 24.6775 161.489C24.6775 161.69 26.1014 162.621 26.4117 162.621C26.5395 162.621 26.8499 162.785 27.0872 162.986C27.3428 163.187 27.8357 163.369 28.1643 163.424C29.4239 163.588 29.3326 163.059 29.2778 170.288L29.2231 176.86L29.6795 177.828C29.9168 178.357 30.4279 179.051 30.7931 179.398C31.359 179.89 31.6146 180 32.3083 180C34.2616 180 34.7362 179.964 34.6267 179.781C34.5719 179.671 34.5902 179.598 34.6632 179.598C35.0648 179.598 35.9959 178.485 35.9959 178.028C35.9959 177.755 36.1237 177.371 36.3062 177.189C36.4705 177.006 36.5253 176.86 36.4157 176.86C36.3062 176.86 36.2514 176.641 36.288 176.349C36.3975 175.454 36.3792 164.775 36.288 164.665C35.8681 164.246 36.4705 163.534 37.2555 163.534C37.6754 163.534 38.1865 163.315 39.1906 162.712C39.5922 162.456 40.0851 162.183 40.2859 162.091C40.505 162 40.7788 161.799 40.9066 161.635C41.0344 161.471 41.2535 161.343 41.363 161.343C41.4908 161.343 41.7646 161.16 41.9837 160.923C42.1845 160.704 42.6956 160.211 43.0973 159.809C43.4989 159.426 43.8822 158.951 43.937 158.769C44.01 158.568 44.1378 158.422 44.2291 158.422C44.3204 158.422 44.3934 158.294 44.3934 158.148C44.3934 158.002 44.4847 157.874 44.576 157.874C44.6855 157.874 44.868 157.655 44.9776 157.363C45.1054 157.089 45.3427 156.669 45.5252 156.432C45.7078 156.195 46.0181 155.41 46.2372 154.698C46.4563 153.986 46.6936 153.31 46.7849 153.201C47.0404 152.891 46.8396 144.018 46.5293 141.079C46.365 139.619 46.1824 137.885 46.1459 137.191C46.0912 136.515 45.9634 135.822 45.8721 135.621C45.7626 135.438 45.653 134.836 45.6165 134.288C45.5618 133.722 45.4887 133.193 45.434 133.102C45.3244 132.937 44.9228 130.874 44.8315 130.035C44.8133 129.724 44.576 128.885 44.3021 128.136C44.0465 127.388 43.791 126.493 43.7727 126.146C43.7362 125.781 43.5902 125.416 43.4441 125.307C43.2981 125.197 43.1155 124.868 43.0425 124.558C42.9695 124.266 42.7504 123.682 42.5496 123.244C42.367 122.824 42.2027 122.422 42.2027 122.367C42.2027 122.294 42.0384 122.039 41.8376 121.783C41.6368 121.528 41.4725 121.163 41.4725 120.98C41.4725 120.779 41.3812 120.633 41.29 120.633C41.1804 120.633 41.0161 120.451 40.9066 120.213C40.6145 119.556 39.866 118.607 38.8072 117.548C38.2778 117.019 37.8214 116.489 37.8214 116.416C37.8214 116.325 37.7119 116.252 37.5658 116.252C37.4381 116.252 37.1095 116.088 36.8539 115.887C36.5983 115.686 36.2514 115.522 36.0871 115.522C35.9228 115.522 35.8316 115.449 35.8863 115.357C35.9411 115.266 35.8498 115.138 35.6673 115.065C35.3022 114.901 31.1764 114.773 30.5557 114.919ZM34.0608 122.167C34.864 123.043 35.0831 123.335 35.0831 123.554C35.0831 123.664 35.1926 123.791 35.3387 123.846C35.4847 123.901 35.649 124.211 35.7038 124.558C35.7768 124.887 35.9411 125.252 36.0871 125.38C36.2332 125.507 36.361 125.708 36.361 125.854C36.361 125.982 36.4705 126.365 36.6166 126.694C36.7626 127.023 36.9634 127.753 37.0912 128.3C37.219 128.848 37.3833 129.378 37.4563 129.487C37.5293 129.578 37.6936 130.327 37.8214 131.13C37.931 131.933 38.1135 132.682 38.2048 132.81C38.4056 133.047 39.0628 137.008 39.2819 139.254C39.3549 140.112 39.5557 141.773 39.72 142.96C39.9391 144.53 40.0121 146.045 39.9756 148.619C39.9025 152.854 39.72 153.511 38.1865 155.118C37.0912 156.268 36.1967 156.724 34.0425 157.235C32.8012 157.528 32.6734 157.528 31.6693 157.235C29.3691 156.56 28.6389 156.177 27.5983 155.118C26.7768 154.296 26.503 153.84 26.1562 152.799C25.7363 151.54 25.718 151.412 25.8458 147.341C26.0466 141.463 26.4117 137.702 26.9777 135.822C27.1602 135.256 27.3063 134.58 27.3245 134.325C27.3975 133.01 27.4706 132.444 27.5436 132.718C27.6714 133.193 28 133.12 27.9452 132.627C27.8539 131.915 28.1643 129.761 28.3833 129.524C28.5111 129.414 28.6206 129.067 28.6389 128.757C28.6572 128.1 29.077 126.84 29.2413 126.84C29.3144 126.84 29.4421 126.566 29.4969 126.238C29.5517 125.909 29.7707 125.307 29.9716 124.923C30.1724 124.522 30.3367 124.065 30.3367 123.883C30.3367 123.7 30.4097 123.554 30.501 123.554C30.5922 123.554 30.7565 123.335 30.8661 123.043C31.1582 122.386 32.3083 121.564 32.9655 121.546C33.3123 121.546 33.6592 121.728 34.0608 122.167Z" fill="url(#paint11_linear_17_127)"/>
<path d="M98.6304 130.82L74.6609 130.856L74.0768 131.24C73.7664 131.459 73.237 131.934 72.9084 132.299C72.306 132.919 72.2877 132.992 72.3607 134.252C72.3973 135.165 72.5068 135.639 72.7441 135.858C72.9084 136.041 73.0545 136.26 73.0545 136.351C73.0545 136.443 73.2553 136.607 73.5108 136.735C73.7482 136.844 73.9125 136.99 73.876 137.082C73.7117 137.337 75.0626 137.629 76.2492 137.593L77.4358 137.556L77.4905 150.171C77.5088 158.495 77.4723 162.804 77.3445 162.804C77.2532 162.804 71.8496 162.804 65.3506 162.804C57.7929 162.804 53.5028 162.877 53.4298 162.986C53.375 163.096 53.1925 163.169 53.0464 163.169C52.6996 163.169 51.3304 164.282 51.3304 164.574C51.3304 164.702 51.2026 164.866 51.0383 164.958C50.6002 165.195 50.6002 167.167 51.0383 167.404C51.2026 167.495 51.3304 167.733 51.3304 167.915C51.3304 168.116 51.4217 168.28 51.513 168.28C51.6225 168.28 51.8781 168.481 52.0971 168.737C52.3162 168.992 52.6813 169.193 52.9186 169.193C53.156 169.193 53.3385 169.266 53.3385 169.376C53.3385 169.923 55.1093 169.941 100.091 169.887C143.028 169.832 145.511 169.814 145.839 169.503C146.04 169.339 146.332 169.193 146.496 169.193C147.062 169.193 148.212 167.842 148.358 167.039C148.504 166.09 148.304 164.666 147.957 164.392C147.792 164.264 147.464 163.954 147.208 163.662C146.934 163.388 146.588 163.169 146.423 163.169C146.277 163.169 146.095 163.132 146.058 163.096C146.003 163.041 140.6 162.968 134.028 162.913C127.456 162.858 122.034 162.804 121.979 162.804C121.924 162.804 121.906 157.363 121.943 150.718C121.979 143.142 121.924 138.451 121.815 138.122L121.632 137.611H124.827L125.612 136.899C126.434 136.169 127.091 134.964 127.091 134.252C127.091 134.033 126.963 133.467 126.799 132.992C126.379 131.751 125.192 130.911 123.713 130.838C123.111 130.802 111.829 130.783 98.6304 130.82ZM96.0746 142.175C96.0746 144.676 96.0746 146.812 96.0564 146.903C96.0564 146.994 95.8738 147.14 95.6548 147.195C94.8515 147.451 93.5006 149.386 93.5006 150.28C93.5006 150.81 94.4499 152.562 94.7968 152.672C94.9793 152.745 95.1436 152.891 95.1436 153.037C95.1436 153.165 95.3627 153.329 95.6548 153.384L96.1477 153.512L96.1111 162.804L90.2329 162.858L84.3729 162.895V137.52L96.0746 137.593V142.175ZM114.86 150.207L114.878 162.822H109.073C105.878 162.804 103.231 162.804 103.176 162.804C103.121 162.804 103.085 160.704 103.085 158.148C103.085 153.767 103.103 153.493 103.413 153.493C103.778 153.493 105.166 152.197 105.513 151.54C105.641 151.321 105.732 150.718 105.732 150.189C105.732 149.368 105.641 149.112 105.002 148.272C104.436 147.524 104.125 147.268 103.632 147.177C102.957 147.049 102.884 146.867 103.158 146.136C103.267 145.881 103.286 145.643 103.249 145.589C103.14 145.479 103.158 137.794 103.249 137.629C103.286 137.574 105.914 137.538 109.091 137.556L114.86 137.593V150.207Z" fill="url(#paint12_linear_17_127)"/>
<path d="M149.344 133.759C149.07 133.814 148.669 134.015 148.431 134.197C148.194 134.38 147.884 134.58 147.774 134.654C147.647 134.727 147.519 134.964 147.482 135.146C147.446 135.347 147.281 135.804 147.135 136.15C146.898 136.698 146.843 137.976 146.843 144.639C146.825 151.631 146.862 152.599 147.154 153.493C147.482 154.534 147.939 155.136 148.943 155.83C149.509 156.232 149.618 156.232 155.715 156.232H161.922L162.689 155.793C163.492 155.337 163.967 154.753 164.423 153.694C164.788 152.872 164.825 137.374 164.478 136.059C164.223 135.092 163.182 134.033 162.269 133.759C161.63 133.576 150.111 133.576 149.344 133.759ZM157.943 140.477C157.943 140.587 157.87 140.751 157.76 140.806C157.651 140.879 157.577 142.412 157.577 144.822C157.577 147.232 157.651 148.765 157.76 148.838C157.87 148.893 157.943 149.075 157.943 149.221C157.943 149.422 157.559 149.477 155.989 149.477H154.018V140.258H155.989C157.377 140.258 157.943 140.313 157.943 140.477Z" fill="url(#paint13_linear_17_127)"/>
<path d="M42.5677 173.574C42.3121 173.775 42.0565 173.939 41.9835 173.939C41.7462 173.939 41.0525 174.688 40.5231 175.473C39.9024 176.385 39.8293 177.517 40.377 178.138C40.5778 178.357 40.7786 178.686 40.8334 178.85C40.8882 179.014 41.2168 179.325 41.5636 179.544L42.2026 179.964H157.486L157.815 179.544C157.979 179.325 158.326 178.886 158.581 178.576C158.819 178.266 158.983 177.955 158.91 177.882C158.855 177.828 158.91 177.773 159.038 177.773C159.366 177.773 159.147 175.746 158.8 175.546C158.654 175.473 158.435 175.162 158.326 174.888C158.198 174.596 157.888 174.231 157.614 174.103C157.34 173.957 157.011 173.702 156.884 173.519C156.665 173.227 153.725 173.209 99.8352 173.209C43.736 173.209 43.0241 173.227 42.5677 173.574Z" fill="url(#paint14_linear_17_127)"/>
<defs>
<linearGradient id="paint0_linear_17_127" x1="43.8914" y1="12.2505" x2="109.559" y2="105.827" gradientUnits="userSpaceOnUse">
<stop offset="0.49069" stop-color="#26B6CA"/>
<stop offset="0.56019" stop-color="#30B9C7"/>
<stop offset="0.68036" stop-color="#4DBFBE"/>
<stop offset="0.83676" stop-color="#7ACBAF"/>
<stop offset="1" stop-color="#B1D89E"/>
</linearGradient>
<linearGradient id="paint1_linear_17_127" x1="74.9833" y1="63.6256" x2="103.103" y2="81.9442" gradientUnits="userSpaceOnUse">
<stop offset="0.49069" stop-color="#26B6CA"/>
<stop offset="0.56019" stop-color="#30B9C7"/>
<stop offset="0.68036" stop-color="#4DBFBE"/>
<stop offset="0.83676" stop-color="#7ACBAF"/>
<stop offset="1" stop-color="#B1D89E"/>
</linearGradient>
<linearGradient id="paint2_linear_17_127" x1="101.585" y1="63.6333" x2="129.889" y2="82.5054" gradientUnits="userSpaceOnUse">
<stop offset="0.49069" stop-color="#26B6CA"/>
<stop offset="0.56019" stop-color="#30B9C7"/>
<stop offset="0.68036" stop-color="#4DBFBE"/>
<stop offset="0.83676" stop-color="#7ACBAF"/>
<stop offset="1" stop-color="#B1D89E"/>
</linearGradient>
<linearGradient id="paint3_linear_17_127" x1="129.958" y1="60.5327" x2="145.666" y2="61.5856" gradientUnits="userSpaceOnUse">
<stop offset="0.49069" stop-color="#26B6CA"/>
<stop offset="0.56019" stop-color="#30B9C7"/>
<stop offset="0.68036" stop-color="#4DBFBE"/>
<stop offset="0.83676" stop-color="#7ACBAF"/>
<stop offset="1" stop-color="#B1D89E"/>
</linearGradient>
<linearGradient id="paint4_linear_17_127" x1="60.7109" y1="63.6297" x2="75.8902" y2="64.6451" gradientUnits="userSpaceOnUse">
<stop offset="0.49069" stop-color="#26B6CA"/>
<stop offset="0.56019" stop-color="#30B9C7"/>
<stop offset="0.68036" stop-color="#4DBFBE"/>
<stop offset="0.83676" stop-color="#7ACBAF"/>
<stop offset="1" stop-color="#B1D89E"/>
</linearGradient>
<linearGradient id="paint5_linear_17_127" x1="13.6058" y1="72.5579" x2="62.1958" y2="116.532" gradientUnits="userSpaceOnUse">
<stop offset="0.49069" stop-color="#26B6CA"/>
<stop offset="0.56019" stop-color="#30B9C7"/>
<stop offset="0.68036" stop-color="#4DBFBE"/>
<stop offset="0.83676" stop-color="#7ACBAF"/>
<stop offset="1" stop-color="#B1D89E"/>
</linearGradient>
<linearGradient id="paint6_linear_17_127" x1="136.255" y1="63.9089" x2="217.098" y2="89.9506" gradientUnits="userSpaceOnUse">
<stop offset="0.49069" stop-color="#26B6CA"/>
<stop offset="0.56019" stop-color="#30B9C7"/>
<stop offset="0.68036" stop-color="#4DBFBE"/>
<stop offset="0.83676" stop-color="#7ACBAF"/>
<stop offset="1" stop-color="#B1D89E"/>
</linearGradient>
<linearGradient id="paint7_linear_17_127" x1="32.2357" y1="95.3384" x2="60.784" y2="113.838" gradientUnits="userSpaceOnUse">
<stop offset="0.49069" stop-color="#26B6CA"/>
<stop offset="0.56019" stop-color="#30B9C7"/>
<stop offset="0.68036" stop-color="#4DBFBE"/>
<stop offset="0.83676" stop-color="#7ACBAF"/>
<stop offset="1" stop-color="#B1D89E"/>
</linearGradient>
<linearGradient id="paint8_linear_17_127" x1="74.9705" y1="95.3384" x2="103.385" y2="113.543" gradientUnits="userSpaceOnUse">
<stop offset="0.49069" stop-color="#26B6CA"/>
<stop offset="0.56019" stop-color="#30B9C7"/>
<stop offset="0.68036" stop-color="#4DBFBE"/>
<stop offset="0.83676" stop-color="#7ACBAF"/>
<stop offset="1" stop-color="#B1D89E"/>
</linearGradient>
<linearGradient id="paint9_linear_17_127" x1="101.585" y1="95.3384" x2="130.233" y2="114.064" gradientUnits="userSpaceOnUse">
<stop offset="0.49069" stop-color="#26B6CA"/>
<stop offset="0.56019" stop-color="#30B9C7"/>
<stop offset="0.68036" stop-color="#4DBFBE"/>
<stop offset="0.83676" stop-color="#7ACBAF"/>
<stop offset="1" stop-color="#B1D89E"/>
</linearGradient>
<linearGradient id="paint10_linear_17_127" x1="144.32" y1="98.2542" x2="172.989" y2="116.949" gradientUnits="userSpaceOnUse">
<stop offset="0.49069" stop-color="#26B6CA"/>
<stop offset="0.56019" stop-color="#30B9C7"/>
<stop offset="0.68036" stop-color="#4DBFBE"/>
<stop offset="0.83676" stop-color="#7ACBAF"/>
<stop offset="1" stop-color="#B1D89E"/>
</linearGradient>
<linearGradient id="paint11_linear_17_127" x1="15.0955" y1="106.361" x2="71.4459" y2="126.804" gradientUnits="userSpaceOnUse">
<stop offset="0.49069" stop-color="#26B6CA"/>
<stop offset="0.56019" stop-color="#30B9C7"/>
<stop offset="0.68036" stop-color="#4DBFBE"/>
<stop offset="0.83676" stop-color="#7ACBAF"/>
<stop offset="1" stop-color="#B1D89E"/>
</linearGradient>
<linearGradient id="paint12_linear_17_127" x1="37.0381" y1="125.701" x2="77.7993" y2="211.954" gradientUnits="userSpaceOnUse">
<stop offset="0.49069" stop-color="#26B6CA"/>
<stop offset="0.56019" stop-color="#30B9C7"/>
<stop offset="0.68036" stop-color="#4DBFBE"/>
<stop offset="0.83676" stop-color="#7ACBAF"/>
<stop offset="1" stop-color="#B1D89E"/>
</linearGradient>
<linearGradient id="paint13_linear_17_127" x1="144.337" y1="130.674" x2="172.544" y2="149.568" gradientUnits="userSpaceOnUse">
<stop offset="0.49069" stop-color="#26B6CA"/>
<stop offset="0.56019" stop-color="#30B9C7"/>
<stop offset="0.68036" stop-color="#4DBFBE"/>
<stop offset="0.83676" stop-color="#7ACBAF"/>
<stop offset="1" stop-color="#B1D89E"/>
</linearGradient>
<linearGradient id="paint14_linear_17_127" x1="23.3285" y1="172.328" x2="24.5423" y2="190.472" gradientUnits="userSpaceOnUse">
<stop offset="0.49069" stop-color="#26B6CA"/>
<stop offset="0.56019" stop-color="#30B9C7"/>
<stop offset="0.68036" stop-color="#4DBFBE"/>
<stop offset="0.83676" stop-color="#7ACBAF"/>
<stop offset="1" stop-color="#B1D89E"/>
</linearGradient>
</defs>
</svg>
