<svg width="200" height="200" viewBox="0 0 200 200" fill="none" xmlns="http://www.w3.org/2000/svg">
<path d="M26.3895 19.1895C26.3895 19.2842 26.2758 19.3789 26.1621 19.3789C25.8779 19.3789 24.04 20.2884 23.4526 20.7053C22.1263 21.6716 20.4589 23.68 19.7579 25.12L19 26.6737V101.592L19.6821 102.141C20.0421 102.444 20.6674 102.785 21.0653 102.918C22.1263 103.221 40.2211 103.183 42.0211 102.861C43.9158 102.52 45.3747 101.8 46.5495 100.606C47.5537 99.5642 48.5579 97.8211 48.5579 97.1011C48.5579 96.8926 48.6526 96.6463 48.7474 96.5895C49.0505 96.4 48.9747 93.2358 48.6526 92.4021C47.7811 90.2611 47.08 89.4274 44.6358 87.6842C42.9874 86.5284 41.6421 84.899 41.4337 83.819C41.3579 83.4968 41.2253 83.1747 41.1495 83.1179C40.9032 82.9853 40.9411 79.2526 41.1684 79.2526C41.2821 79.2526 41.3579 79.0821 41.3579 78.8737C41.3579 77.7747 43.9347 75.0653 45.5263 74.4968C45.7916 74.4021 46.1705 74.2505 46.3789 74.1558C47.6484 73.6063 48.6337 73.4737 51.4 73.4737C54.2989 73.4737 55.1326 73.6063 56.6484 74.2505C56.9705 74.4021 57.2926 74.5158 57.3684 74.5158C57.7663 74.5158 59.9832 76.3347 60.5326 77.1116C61.9347 79.0442 62.2189 81.64 61.2905 83.9326C60.5895 85.6758 59.9263 86.4526 58.2211 87.6463C56.5347 88.8021 55.1516 90.1474 54.7916 90.9811C54.64 91.3032 54.4695 91.5684 54.3937 91.5684C54.2989 91.5684 54.2421 91.7768 54.2421 92.0232C54.2421 92.2884 54.1663 92.5537 54.0526 92.6105C53.9389 92.6674 53.8632 93.5958 53.8632 94.6947C53.8632 95.7937 53.9389 96.7221 54.0526 96.7789C54.1663 96.8358 54.2421 97.0442 54.2421 97.2147C54.2421 97.7642 55.2463 99.5263 56.0989 100.493C57.1221 101.629 58.8842 102.52 60.7411 102.861C61.7832 103.051 66.16 103.107 79.5368 103.107L96.9684 103.126L96.7789 139.126L96.3053 139.581C96.04 139.865 95.5095 140.112 95.0547 140.187C94.3726 140.282 94.2021 140.244 93.5958 139.695C93.1979 139.354 92.8947 139.013 92.8947 138.899C92.8947 138.672 92.0611 137.535 91.1137 136.512C89.4084 134.674 86.8695 133.177 84.2737 132.476C83.0421 132.135 79.0442 132.135 78.0211 132.457C76.5053 132.949 75.16 133.575 74.3832 134.143C74.0611 134.389 73.7389 134.579 73.6821 134.579C73.6253 134.579 73.0947 135.034 72.5074 135.583C71.3516 136.663 69.6463 138.975 69.1158 140.168C68.9453 140.585 68.7179 141.097 68.6232 141.305C68.2442 142.177 67.8842 143.427 67.8842 143.882C67.8842 144.147 67.7705 144.469 67.6568 144.583C67.3347 144.905 67.3158 152.2 67.6189 152.598C67.7326 152.749 67.8842 153.109 67.9411 153.432C68.1116 154.379 68.4526 155.611 68.6232 155.952C68.7179 156.122 68.9453 156.615 69.1347 157.032C69.6653 158.263 71.2568 160.461 72.3937 161.503C74.1937 163.171 76.4674 164.421 78.04 164.648C78.4947 164.705 78.9305 164.838 78.9874 164.914C79.12 165.141 82.7579 165.122 83.4968 164.914C86.5663 164.004 86.6989 163.947 88.6316 162.754C89.7116 162.091 92.2316 159.627 92.4211 159.04C92.4779 158.813 92.6295 158.642 92.7242 158.642C92.819 158.642 92.8947 158.528 92.8947 158.396C92.8947 158.263 93.1411 157.922 93.4253 157.638C94.1074 156.975 95.5663 156.918 96.3053 157.524C96.8358 157.979 96.7979 157.069 96.9116 170.352L96.9684 175.316L62.5221 175.278C37.4547 175.24 28.0379 175.164 27.9432 175.013C27.8674 174.899 27.64 174.747 27.4316 174.672C26.7874 174.482 25.8589 173.554 25.3095 172.568L24.7789 171.621L24.6842 140.737C24.5895 110.648 24.5705 109.815 24.2295 109.284C23.7179 108.507 23.2442 108.166 22.3347 107.882C21.4253 107.617 20.6105 107.863 19.5874 108.735L19 109.227V173.326L19.7579 174.88C20.4589 176.32 22.1263 178.328 23.4526 179.295C24.04 179.712 25.8779 180.621 26.1621 180.621C26.2758 180.621 26.3895 180.697 26.3895 180.811C26.3895 180.943 39.0274 181 63.9242 181H101.459L102.084 180.375C102.425 180.034 102.804 179.408 102.918 179.011C103.051 178.499 103.126 175.069 103.126 168.798C103.126 159.665 103.032 157.543 102.52 156.368C101.876 154.891 101.611 154.474 100.663 153.526C98.9958 151.878 96.9495 151.063 94.4295 151.063C93.5958 151.063 92.8758 151.139 92.819 151.234C92.7621 151.309 92.4589 151.442 92.1368 151.499C90.8863 151.764 89.0105 153.337 87.9116 155.08C87.5516 155.629 87.0021 156.349 86.6989 156.672C85.9979 157.448 84.1221 158.642 83.6295 158.642C83.4211 158.642 83.1937 158.718 83.1368 158.832C82.9853 159.059 79.5558 159.078 79.1011 158.851C78.9305 158.756 78.4379 158.528 78.04 158.339C76.9411 157.808 74.8947 155.705 74.8947 155.099C74.8947 154.966 74.819 154.853 74.7432 154.853C74.6484 154.853 74.4211 154.36 74.2316 153.754C74.0421 153.166 73.7958 152.465 73.6821 152.219C73.3789 151.556 73.3979 145.284 73.72 144.962C73.8337 144.848 73.9474 144.564 73.9474 144.356C73.9474 144.128 74.1937 143.427 74.5158 142.764C75.9368 139.752 78.1916 138.179 81.1095 138.179C84.0274 138.179 86.2253 139.467 87.9116 142.158C89.0674 143.977 90.4316 145.095 92.5158 145.872C93.3305 146.194 96.0968 146.213 96.8168 145.928C97.1011 145.796 97.6505 145.587 98.0105 145.436C99.3179 144.905 99.6211 144.697 100.663 143.674C101.611 142.726 101.895 142.291 102.52 140.832C103.088 139.486 103.145 137.194 103.088 120.217L103.032 103.126H120.842C130.638 103.126 138.823 103.183 139.032 103.24C139.638 103.411 140.131 104.244 140.149 105.154C140.168 106.063 139.789 106.518 138.179 107.56C137.099 108.242 134.787 110.592 134.295 111.52C134.086 111.899 133.859 112.221 133.783 112.221C133.688 112.221 133.632 112.316 133.632 112.429C133.632 112.619 133.499 112.96 132.855 114.4C132.476 115.272 132.116 117.337 132.116 118.758C132.116 120.274 132.646 123.211 132.912 123.211C133.006 123.211 133.063 123.324 133.063 123.476C133.063 123.779 133.954 125.579 134.352 126.091C135.185 127.133 137.838 129.653 138.103 129.653C138.16 129.653 138.482 129.861 138.823 130.126C139.164 130.392 139.505 130.6 139.562 130.6C139.638 130.6 140.093 130.789 140.604 131.036C141.097 131.263 142.044 131.623 142.726 131.813C143.408 131.983 144.299 132.248 144.716 132.362C145.72 132.665 151.48 132.665 152.484 132.362C152.901 132.248 153.792 131.983 154.474 131.813C155.156 131.623 156.103 131.263 156.596 131.036C157.107 130.789 157.581 130.6 157.695 130.6C157.789 130.6 157.884 130.543 157.884 130.448C157.884 130.373 158.131 130.202 158.415 130.069C159.931 129.406 162.886 126.375 163.587 124.783C163.739 124.442 163.909 124.158 163.966 124.158C164.042 124.158 164.156 123.836 164.232 123.438C164.307 123.059 164.421 122.642 164.516 122.547C164.819 122.168 164.952 120.975 164.952 118.853C164.933 116.541 164.781 115.12 164.497 114.949C164.402 114.893 164.326 114.703 164.326 114.533C164.326 114.002 163.152 111.804 162.223 110.611C161.181 109.265 160.158 108.299 159.04 107.598C157.467 106.594 157.126 106.177 157.126 105.248C157.126 104.282 157.581 103.392 158.149 103.24C158.377 103.183 162.318 103.126 166.941 103.126H175.316L175.221 171.621L174.691 172.568C174.141 173.554 173.213 174.482 172.568 174.672C172.36 174.747 172.133 174.899 172.057 175.013C171.962 175.164 163.417 175.24 140.888 175.316C117.773 175.392 109.758 175.467 109.474 175.638C108.886 175.979 108.128 176.869 107.863 177.552C107.56 178.347 107.882 179.484 108.697 180.375L109.246 181H141.438C162.754 181 173.611 180.943 173.611 180.811C173.611 180.697 173.743 180.621 173.895 180.621C174.198 180.621 175.6 179.863 176.775 179.086C177.836 178.347 179.427 176.547 179.92 175.505C180.147 175.032 180.394 174.615 180.469 174.596C180.545 174.558 180.621 174.368 180.621 174.179C180.621 173.989 180.697 173.762 180.811 173.705C180.943 173.629 181 160.859 181 136V98.4084L180.318 97.859C179.958 97.5558 179.333 97.2147 178.935 97.0821C177.874 96.779 159.779 96.8168 157.979 97.1389C156.084 97.48 154.625 98.2 153.451 99.3937C152.446 100.436 151.442 102.179 151.442 102.899C151.442 103.107 151.347 103.354 151.253 103.411C150.949 103.6 151.025 106.764 151.347 107.598C152.219 109.739 152.92 110.573 155.364 112.316C157.013 113.472 158.358 115.101 158.566 116.181C158.642 116.503 158.775 116.825 158.851 116.882C159.078 117.015 159.059 120.501 158.832 120.653C158.737 120.709 158.642 120.937 158.642 121.145C158.642 121.354 158.339 121.979 157.979 122.547C157.069 123.987 155.269 125.257 153.185 125.977C151.651 126.488 151.385 126.526 148.505 126.526C145.644 126.526 145.398 126.488 143.958 125.977C140.055 124.556 138.046 121.96 138.236 118.531C138.331 116.863 138.331 116.825 138.899 115.556C139.467 114.305 140.244 113.453 141.949 112.24C143.617 111.065 144.848 109.834 145.208 109C145.36 108.697 145.531 108.432 145.606 108.432C145.701 108.432 145.758 108.223 145.758 107.977C145.758 107.712 145.853 107.446 145.947 107.389C146.194 107.238 146.194 103.373 145.947 103.221C145.853 103.164 145.758 102.975 145.758 102.823C145.758 102.274 144.716 100.398 143.901 99.5074C142.878 98.3705 141.116 97.4611 139.259 97.1389C138.217 96.9495 133.84 96.8926 120.463 96.8926L103.032 96.8737L103.221 60.8737L103.695 60.4189C103.96 60.1347 104.491 59.8884 104.945 59.8126C105.627 59.7179 105.798 59.7558 106.404 60.3053C106.802 60.6463 107.105 60.9874 107.105 61.1011C107.105 61.3284 107.939 62.4653 108.886 63.4884C110.592 65.3263 113.131 66.8232 115.726 67.5242C116.977 67.8653 120.766 67.8653 121.884 67.5242C125.825 66.3305 128.8 63.8484 130.638 60.2105C131.813 57.8611 132.097 56.9326 132.514 53.8632C132.722 52.3474 132.589 47.6674 132.324 47.3263C132.229 47.2316 132.116 46.8716 132.059 46.5684C131.888 45.6211 131.547 44.3895 131.377 44.0484C131.282 43.8779 131.055 43.3853 130.865 42.9684C129.349 39.4632 125.048 35.7874 121.96 35.3516C121.505 35.2947 121.069 35.1621 121.013 35.0863C120.88 34.8589 117.242 34.8779 116.503 35.0863C114.457 35.6737 113.718 35.9389 112.789 36.3937C112.221 36.6779 111.596 37.0568 111.387 37.2274C111.179 37.4168 110.933 37.5684 110.838 37.5684C110.535 37.5684 107.731 40.5053 107.579 40.96C107.522 41.1684 107.371 41.3579 107.276 41.3579C107.181 41.3579 107.105 41.4526 107.105 41.5853C107.105 41.7179 106.878 42.0589 106.594 42.3432C106.158 42.7979 105.931 42.8737 105.135 42.8737C104.434 42.8547 104.036 42.7411 103.695 42.4758C103.164 42.0211 103.202 42.9305 103.088 29.6484L103.032 24.6842L171.811 24.7789L172.644 25.3284C173.819 26.0863 174.084 26.3705 174.691 27.4316L175.221 28.3789L175.316 59.2632C175.411 89.3516 175.429 90.1853 175.771 90.7158C176.282 91.5116 176.756 91.8337 177.722 92.1368C178.347 92.3074 178.613 92.3263 178.783 92.1558C178.897 92.0421 179.124 91.9474 179.295 91.9474C179.446 91.9474 179.901 91.6821 180.299 91.36L181 90.7916V58.6C181 37.3411 180.943 26.3705 180.811 26.2947C180.716 26.2379 180.621 26.0105 180.621 25.8021C180.621 25.6126 180.564 25.4421 180.488 25.4421C180.394 25.4421 180.185 25.0632 179.996 24.5895C179.674 23.8126 177.571 21.4632 176.547 20.7053C175.96 20.2884 174.122 19.3789 173.857 19.3789C173.724 19.3789 173.611 19.2842 173.611 19.1895C173.611 19.0568 160.973 19 136.076 19H98.5411L97.9158 19.6253C97.5747 19.9663 97.1958 20.5916 97.0821 20.9895C96.9495 21.5011 96.8737 24.9305 96.8737 31.2021C96.8737 40.3347 96.9684 42.4568 97.48 43.6316C98.1242 45.1095 98.3895 45.5263 99.3368 46.4737C101.004 48.1221 103.051 48.9368 105.571 48.9368C106.404 48.9368 107.124 48.8611 107.181 48.7663C107.238 48.6905 107.541 48.5579 107.863 48.5011C109.114 48.2358 110.989 46.6632 112.107 44.9011C113.32 43.0063 115.309 41.3579 116.389 41.3579C116.579 41.3579 116.806 41.2632 116.863 41.1684C117.015 40.9411 120.444 40.9221 120.899 41.1495C121.069 41.2442 121.562 41.4716 121.96 41.6611C123.059 42.1916 125.105 44.2947 125.105 44.9011C125.105 45.0337 125.181 45.1474 125.257 45.1474C125.352 45.1474 125.579 45.64 125.768 46.2274C125.958 46.8337 126.204 47.5347 126.318 47.7811C126.621 48.4442 126.602 54.7158 126.299 55.0379C126.166 55.1516 126.053 55.4168 126.053 55.6253C126.053 55.8147 125.806 56.5347 125.484 57.1979C124.082 60.2295 121.808 61.8211 118.891 61.8211C115.973 61.8211 113.794 60.5516 112.088 57.8421C110.383 55.1705 108.166 53.8632 105.267 53.8632C104.415 53.8632 103.467 53.9579 103.183 54.0716C102.899 54.2042 102.349 54.4126 101.989 54.5642C100.682 55.0947 100.379 55.3032 99.3368 56.3263C98.3895 57.2737 98.1053 57.7095 97.48 59.1684C96.9116 60.5137 96.8547 62.8063 96.9116 79.7832L96.9684 96.8737H61.0632L60.4758 96.3432C59.9642 95.8884 59.8695 95.6611 59.8505 94.9411C59.8316 93.9179 60.1158 93.52 61.6316 92.5726C62.8632 91.7958 65.1747 89.4842 65.7053 88.48C65.9137 88.1011 66.1411 87.7789 66.2168 87.7789C66.3116 87.7789 66.3684 87.6842 66.3684 87.5705C66.3684 87.3811 66.5011 87.04 67.1453 85.6C67.5242 84.7284 67.8842 82.6632 67.8842 81.2421C67.8842 79.7263 67.3537 76.7895 67.0884 76.7895C66.9937 76.7895 66.9368 76.6758 66.9368 76.5242C66.9368 76.2211 66.0463 74.4211 65.6484 73.9095C65.2126 73.3789 62.8821 71.0295 62.4842 70.7263C61.8589 70.2526 60.5137 69.4 60.4 69.4C60.3432 69.4 59.9074 69.2105 59.3958 68.9642C58.9032 68.7368 57.9558 68.3768 57.2737 68.1874C56.5916 68.0168 55.7011 67.7516 55.2842 67.6379C54.8484 67.5053 53.2379 67.4105 51.4 67.4105C49.5621 67.4105 47.9516 67.5053 47.5158 67.6379C47.0989 67.7516 46.2084 68.0168 45.5263 68.1874C44.8442 68.3768 43.8968 68.7368 43.4042 68.9642C42.8926 69.2105 42.4568 69.4 42.4 69.4C42.2674 69.4 40.8274 70.3474 40.2211 70.8211C38.7811 71.9768 36.6211 74.4211 36.6211 74.8758C36.6211 74.9895 36.5453 75.0842 36.4316 75.0842C36.3368 75.0842 36.2421 75.2547 36.2421 75.4632C36.2421 75.6716 36.1663 75.8421 36.0526 75.8421C35.9579 75.8421 35.8253 76.1642 35.7495 76.5432C35.6737 76.9411 35.56 77.3389 35.4842 77.4526C35.1811 77.8505 35.0484 79.0442 35.0484 81.1474C35.0674 83.4589 35.2189 84.88 35.5032 85.0505C35.5979 85.1074 35.6737 85.2968 35.6737 85.4484C35.6737 85.9979 36.8674 88.2147 37.7768 89.3895C38.8379 90.7347 39.8611 91.72 40.96 92.4021C42.5326 93.4063 42.8737 93.8232 42.8737 94.7516C42.8737 95.7179 42.4189 96.6084 41.8505 96.76C41.6232 96.8168 37.6821 96.8737 33.0589 96.8737H24.6842L24.7789 28.3789L25.3095 27.4316C25.9158 26.3705 26.1811 26.0863 27.3558 25.3284L28.1895 24.7789L59.1684 24.6842C82.2274 24.6084 90.2421 24.5326 90.5263 24.3621C91.1895 23.9832 91.8905 23.0926 92.1368 22.3726C92.4021 21.4821 92.1179 20.5347 91.3032 19.6063L90.7537 19H58.5621C37.2463 19 26.3895 19.0568 26.3895 19.1895Z" fill="url(#paint0_linear_17_94)"/>
<defs>
<linearGradient id="paint0_linear_17_94" x1="19" y1="19" x2="210.701" y2="182.236" gradientUnits="userSpaceOnUse">
<stop offset="0.49069" stop-color="#26B6CA"/>
<stop offset="0.56019" stop-color="#30B9C7"/>
<stop offset="0.68036" stop-color="#4DBFBE"/>
<stop offset="0.83676" stop-color="#7ACBAF"/>
<stop offset="1" stop-color="#B1D89E"/>
</linearGradient>
</defs>
</svg>
